<svg xmlns="http://www.w3.org/2000/svg" width="22.287" height="22.289" viewBox="0 0 22.287 22.289">
  <g id="グループ化_5151" data-name="グループ化 5151" transform="translate(1.144 1.145)">
    <g id="グループ化_5184" data-name="グループ化 5184" transform="translate(-1.144 1.293) rotate(-7)">
      <g id="グループ化_5183" data-name="グループ化 5183">
        <path id="前面オブジェクトで型抜き_2" data-name="前面オブジェクトで型抜き 2" d="M-3893-3916a1,1,0,0,1-1-1v-.558a8.573,8.573,0,0,0,1,.058,8.6,8.6,0,0,0,1-.058v.558A1,1,0,0,1-3893-3916Zm9-9h-.558a8.659,8.659,0,0,0,.058-1,8.657,8.657,0,0,0-.058-1h.558a1,1,0,0,1,1,1A1,1,0,0,1-3884-3925Zm-17.442,0H-3902a1,1,0,0,1-1-1,1,1,0,0,1,1-1h.558a8.6,8.6,0,0,0-.058,1,8.69,8.69,0,0,0,.058,1Zm7.441-9.441h0V-3935a1,1,0,0,1,1-1,1,1,0,0,1,1,1v.557a8.926,8.926,0,0,0-1-.057,8.589,8.589,0,0,0-1,.058Z" transform="translate(3903 3936)" fill="#fff"/>
        <g id="グループ化_5150" data-name="グループ化 5150" transform="translate(1.5 1.5)">
          <g id="グループ化_5149" data-name="グループ化 5149">
            <circle id="楕円形_54" data-name="楕円形 54" cx="3.5" cy="3.5" r="3.5" transform="translate(5 5)" fill="#fff"/>
          </g>
        </g>
      </g>
      <g id="グループ化_5182" data-name="グループ化 5182" transform="translate(1.5 21.5)">
        <g id="グループ化_5149-2" data-name="グループ化 5149" transform="translate(0 -10)">
          <path id="前面オブジェクトで型抜き_1" data-name="前面オブジェクトで型抜き 1" d="M-3896-3940.5a8.509,8.509,0,0,1-8.5-8.5,8.509,8.509,0,0,1,8.5-8.5,8.509,8.509,0,0,1,8.5,8.5A8.509,8.509,0,0,1-3896-3940.5Zm0-15a6.507,6.507,0,0,0-6.5,6.5,6.507,6.507,0,0,0,6.5,6.5,6.507,6.507,0,0,0,6.5-6.5A6.507,6.507,0,0,0-3896-3955.5Z" transform="translate(3904.5 3947.5)" fill="#fff"/>
        </g>
      </g>
    </g>
  </g>
</svg>
