<svg xmlns="http://www.w3.org/2000/svg" xmlns:xlink="http://www.w3.org/1999/xlink" viewBox="0 0 135.07 178.92"><defs><style>.cls-1{mask:url(#mask);filter:url(#luminosity-noclip-16);}.cls-10,.cls-12,.cls-14,.cls-16,.cls-18,.cls-2,.cls-20,.cls-22,.cls-24,.cls-26,.cls-28,.cls-30,.cls-32,.cls-4,.cls-6,.cls-8{mix-blend-mode:multiply;}.cls-2{fill:url(#linear-gradient);}.cls-3{mask:url(#mask-2);filter:url(#luminosity-noclip-21);}.cls-4{fill:url(#linear-gradient-2);}.cls-5{mask:url(#mask-3);filter:url(#luminosity-noclip-22);}.cls-6{fill:url(#linear-gradient-3);}.cls-7{mask:url(#mask-4);filter:url(#luminosity-noclip-23);}.cls-8{fill:url(#linear-gradient-4);}.cls-9{mask:url(#mask-5);filter:url(#luminosity-noclip-24);}.cls-10{fill:url(#linear-gradient-5);}.cls-11{mask:url(#mask-6);filter:url(#luminosity-noclip-25);}.cls-12{fill:url(#linear-gradient-6);}.cls-13{mask:url(#mask-7);filter:url(#luminosity-noclip-17);}.cls-14{fill:url(#linear-gradient-7);}.cls-15{mask:url(#mask-8);filter:url(#luminosity-noclip-26);}.cls-16{fill:url(#linear-gradient-8);}.cls-17{mask:url(#mask-9);filter:url(#luminosity-noclip-27);}.cls-18{fill:url(#linear-gradient-9);}.cls-19{mask:url(#mask-10);filter:url(#luminosity-noclip-28);}.cls-20{fill:url(#linear-gradient-10);}.cls-21{mask:url(#mask-11);filter:url(#luminosity-noclip-29);}.cls-22{fill:url(#linear-gradient-11);}.cls-23{mask:url(#mask-12);filter:url(#luminosity-noclip-30);}.cls-24{fill:url(#linear-gradient-12);}.cls-25{mask:url(#mask-13);filter:url(#luminosity-noclip-18);}.cls-26{fill:url(#linear-gradient-13);}.cls-27{mask:url(#mask-14);filter:url(#luminosity-noclip-19);}.cls-28{fill:url(#linear-gradient-14);}.cls-29{mask:url(#mask-15);filter:url(#luminosity-noclip-20);}.cls-30{fill:url(#linear-gradient-15);}.cls-31{isolation:isolate;}.cls-32{fill:#eee;}.cls-33{fill:#ff8a65;}.cls-34{fill:#ff7043;}.cls-35{fill:#ffab91;}.cls-36{fill:#f4511e;}.cls-37{fill:#5a4f0b;}.cls-38{fill:#6d5f10;}.cls-39{fill:#51440f;}.cls-40{mix-blend-mode:soft-light;}.cls-41{fill:#b71c1c;}.cls-42{fill:#c62828;}.cls-43{mask:url(#mask-16);}.cls-44,.cls-46,.cls-48,.cls-50,.cls-52,.cls-54,.cls-57{opacity:0.5;}.cls-44{fill:url(#linear-gradient-16);}.cls-45{mask:url(#mask-17);}.cls-46{fill:url(#linear-gradient-17);}.cls-47{mask:url(#mask-18);}.cls-48{fill:url(#linear-gradient-18);}.cls-49{mask:url(#mask-19);}.cls-50{fill:url(#linear-gradient-19);}.cls-51{mask:url(#mask-20);}.cls-52{fill:url(#linear-gradient-20);}.cls-53{mask:url(#mask-21);}.cls-54{fill:url(#linear-gradient-21);}.cls-55{fill:#fff176;}.cls-56{mask:url(#mask-22);}.cls-57{fill:url(#linear-gradient-22);}.cls-58{mask:url(#mask-23);}.cls-59{fill:url(#linear-gradient-23);}.cls-60,.cls-66{fill:#90caf9;}.cls-60,.cls-61{opacity:0.4;}.cls-61,.cls-71,.cls-79{fill:#bbdefb;}.cls-62{mask:url(#mask-24);}.cls-63{fill:url(#linear-gradient-24);}.cls-64{mask:url(#mask-25);}.cls-65{fill:url(#linear-gradient-25);}.cls-66,.cls-71{opacity:0.3;}.cls-67{mask:url(#mask-26);}.cls-68{fill:url(#linear-gradient-26);}.cls-69{mask:url(#mask-27);}.cls-70{fill:url(#linear-gradient-27);}.cls-72{mask:url(#mask-28);}.cls-73{fill:url(#linear-gradient-28);}.cls-74{mask:url(#mask-29);}.cls-75{fill:url(#linear-gradient-29);}.cls-76{mask:url(#mask-30);}.cls-77{fill:url(#linear-gradient-30);}.cls-78{fill:#e3f2fd;}.cls-80{fill:#ffe082;}.cls-81{fill:#4fc3f7;}.cls-82{fill:#81d4fa;}.cls-83{fill:#92e0fc;}.cls-84{fill:#29b6f6;}.cls-85{fill:#b3e5fc;opacity:0.7;}.cls-86{fill:#fff;}.cls-87{fill:#ab47bc;}.cls-88{fill:#8e24aa;}.cls-89{filter:url(#luminosity-noclip-15);}.cls-90{filter:url(#luminosity-noclip-14);}.cls-91{filter:url(#luminosity-noclip-13);}.cls-92{filter:url(#luminosity-noclip-12);}.cls-93{filter:url(#luminosity-noclip-11);}.cls-94{filter:url(#luminosity-noclip-10);}.cls-95{filter:url(#luminosity-noclip-9);}.cls-96{filter:url(#luminosity-noclip-8);}.cls-97{filter:url(#luminosity-noclip-7);}.cls-98{filter:url(#luminosity-noclip-6);}.cls-99{filter:url(#luminosity-noclip-5);}.cls-100{filter:url(#luminosity-noclip-4);}.cls-101{filter:url(#luminosity-noclip-3);}.cls-102{filter:url(#luminosity-noclip-2);}.cls-103{filter:url(#luminosity-noclip);}</style><filter id="luminosity-noclip" x="52.45" y="-8513.59" width="7.46" height="32766" filterUnits="userSpaceOnUse" color-interpolation-filters="sRGB"><feFlood flood-color="#fff" result="bg"/><feBlend in="SourceGraphic" in2="bg"/></filter><mask id="mask" x="52.45" y="-8513.59" width="7.46" height="32766" maskUnits="userSpaceOnUse"><g class="cls-103"/></mask><linearGradient id="linear-gradient" x1="51.84" y1="47.49" x2="77.25" y2="66.35" gradientUnits="userSpaceOnUse"><stop offset="0.01" stop-color="#fff"/><stop offset="1"/></linearGradient><filter id="luminosity-noclip-2" x="61.87" y="-8513.59" width="1.38" height="32766" filterUnits="userSpaceOnUse" color-interpolation-filters="sRGB"><feFlood flood-color="#fff" result="bg"/><feBlend in="SourceGraphic" in2="bg"/></filter><mask id="mask-2" x="61.87" y="-8513.59" width="1.38" height="32766" maskUnits="userSpaceOnUse"><g class="cls-102"/></mask><linearGradient id="linear-gradient-2" x1="62.11" y1="6.49" x2="65.91" y2="6.98" xlink:href="#linear-gradient"/><filter id="luminosity-noclip-3" x="54.29" y="-8513.59" width="7.89" height="32766" filterUnits="userSpaceOnUse" color-interpolation-filters="sRGB"><feFlood flood-color="#fff" result="bg"/><feBlend in="SourceGraphic" in2="bg"/></filter><mask id="mask-3" x="54.29" y="-8513.59" width="7.89" height="32766" maskUnits="userSpaceOnUse"><g class="cls-101"/></mask><linearGradient id="linear-gradient-3" x1="54.29" y1="2.93" x2="62.18" y2="2.93" xlink:href="#linear-gradient"/><filter id="luminosity-noclip-4" x="55.37" y="-8513.59" width="6.31" height="32766" filterUnits="userSpaceOnUse" color-interpolation-filters="sRGB"><feFlood flood-color="#fff" result="bg"/><feBlend in="SourceGraphic" in2="bg"/></filter><mask id="mask-4" x="55.37" y="-8513.59" width="6.31" height="32766" maskUnits="userSpaceOnUse"><g class="cls-100"/></mask><linearGradient id="linear-gradient-4" x1="58.52" y1="5.05" x2="58.52" y2="0.4" xlink:href="#linear-gradient"/><filter id="luminosity-noclip-5" x="71.82" y="-8513.59" width="16.74" height="32766" filterUnits="userSpaceOnUse" color-interpolation-filters="sRGB"><feFlood flood-color="#fff" result="bg"/><feBlend in="SourceGraphic" in2="bg"/></filter><mask id="mask-5" x="71.82" y="-8513.59" width="16.74" height="32766" maskUnits="userSpaceOnUse"><g class="cls-99"/></mask><linearGradient id="linear-gradient-5" x1="71.82" y1="103.3" x2="88.56" y2="103.3" gradientUnits="userSpaceOnUse"><stop offset="0" stop-color="#fff"/><stop offset="1"/></linearGradient><filter id="luminosity-noclip-6" x="74.88" y="-8513.59" width="10.62" height="32766" filterUnits="userSpaceOnUse" color-interpolation-filters="sRGB"><feFlood flood-color="#fff" result="bg"/><feBlend in="SourceGraphic" in2="bg"/></filter><mask id="mask-6" x="74.88" y="-8513.59" width="10.62" height="32766" maskUnits="userSpaceOnUse"><g class="cls-98"/></mask><linearGradient id="linear-gradient-6" x1="86.68" y1="103.3" x2="75.5" y2="103.3" xlink:href="#linear-gradient-5"/><filter id="luminosity-noclip-7" x="46.56" y="-8513.59" width="15.54" height="32766" filterUnits="userSpaceOnUse" color-interpolation-filters="sRGB"><feFlood flood-color="#fff" result="bg"/><feBlend in="SourceGraphic" in2="bg"/></filter><mask id="mask-7" x="46.56" y="-8513.59" width="15.54" height="32766" maskUnits="userSpaceOnUse"><g class="cls-97"/></mask><linearGradient id="linear-gradient-7" x1="46.56" y1="37.8" x2="62.09" y2="37.8" xlink:href="#linear-gradient"/><filter id="luminosity-noclip-8" x="80.86" y="-8513.59" width="7.7" height="32766" filterUnits="userSpaceOnUse" color-interpolation-filters="sRGB"><feFlood flood-color="#fff" result="bg"/><feBlend in="SourceGraphic" in2="bg"/></filter><mask id="mask-8" x="80.86" y="-8513.59" width="7.7" height="32766" maskUnits="userSpaceOnUse"><g class="cls-96"/></mask><linearGradient id="linear-gradient-8" x1="81.77" y1="51.69" x2="84.96" y2="76.75" xlink:href="#linear-gradient-5"/><filter id="luminosity-noclip-9" x="73.75" y="-8513.59" width="12.89" height="32766" filterUnits="userSpaceOnUse" color-interpolation-filters="sRGB"><feFlood flood-color="#fff" result="bg"/><feBlend in="SourceGraphic" in2="bg"/></filter><mask id="mask-9" x="73.75" y="-8513.59" width="12.89" height="32766" maskUnits="userSpaceOnUse"><g class="cls-95"/></mask><linearGradient id="linear-gradient-9" x1="79.92" y1="83.26" x2="80.33" y2="74.39" xlink:href="#linear-gradient-5"/><filter id="luminosity-noclip-10" x="72.53" y="-8513.59" width="5.13" height="32766" filterUnits="userSpaceOnUse" color-interpolation-filters="sRGB"><feFlood flood-color="#fff" result="bg"/><feBlend in="SourceGraphic" in2="bg"/></filter><mask id="mask-10" x="72.53" y="-8513.59" width="5.13" height="32766" maskUnits="userSpaceOnUse"><g class="cls-94"/></mask><linearGradient id="linear-gradient-10" x1="77.17" y1="60.3" x2="74.23" y2="72.82" xlink:href="#linear-gradient-5"/><filter id="luminosity-noclip-11" x="79.61" y="-8513.59" width="1.16" height="32766" filterUnits="userSpaceOnUse" color-interpolation-filters="sRGB"><feFlood flood-color="#fff" result="bg"/><feBlend in="SourceGraphic" in2="bg"/></filter><mask id="mask-11" x="79.61" y="-8513.59" width="1.16" height="32766" maskUnits="userSpaceOnUse"><g class="cls-93"/></mask><linearGradient id="linear-gradient-11" x1="80.19" y1="104.02" x2="80.19" y2="86.88" xlink:href="#linear-gradient-5"/><filter id="luminosity-noclip-12" x="68.63" y="-8513.59" width="17.33" height="32766" filterUnits="userSpaceOnUse" color-interpolation-filters="sRGB"><feFlood flood-color="#fff" result="bg"/><feBlend in="SourceGraphic" in2="bg"/></filter><mask id="mask-12" x="68.63" y="-8513.59" width="17.33" height="32766" maskUnits="userSpaceOnUse"><g class="cls-92"/></mask><linearGradient id="linear-gradient-12" x1="48.04" y1="66.22" x2="76.5" y2="86.73" xlink:href="#linear-gradient-5"/><filter id="luminosity-noclip-13" x="60.88" y="-8513.59" width="9.73" height="32766" filterUnits="userSpaceOnUse" color-interpolation-filters="sRGB"><feFlood flood-color="#fff" result="bg"/><feBlend in="SourceGraphic" in2="bg"/></filter><mask id="mask-13" x="60.88" y="-8513.59" width="9.73" height="32766" maskUnits="userSpaceOnUse"><g class="cls-91"/></mask><linearGradient id="linear-gradient-13" x1="67.69" y1="34.66" x2="75.35" y2="37.28" xlink:href="#linear-gradient"/><filter id="luminosity-noclip-14" x="53.79" y="-8513.59" width="8.96" height="32766" filterUnits="userSpaceOnUse" color-interpolation-filters="sRGB"><feFlood flood-color="#fff" result="bg"/><feBlend in="SourceGraphic" in2="bg"/></filter><mask id="mask-14" x="53.79" y="-8513.59" width="8.96" height="32766" maskUnits="userSpaceOnUse"><g class="cls-90"/></mask><linearGradient id="linear-gradient-14" x1="53.79" y1="6.56" x2="62.76" y2="6.56" xlink:href="#linear-gradient"/><filter id="luminosity-noclip-15" x="56.2" y="-8513.59" width="4.01" height="32766" filterUnits="userSpaceOnUse" color-interpolation-filters="sRGB"><feFlood flood-color="#fff" result="bg"/><feBlend in="SourceGraphic" in2="bg"/></filter><mask id="mask-15" x="56.2" y="-8513.59" width="4.01" height="32766" maskUnits="userSpaceOnUse"><g class="cls-89"/></mask><linearGradient id="linear-gradient-15" x1="57.31" y1="8.01" x2="63.39" y2="10.62" xlink:href="#linear-gradient"/><filter id="luminosity-noclip-16" x="52.45" y="10.52" width="7.46" height="81.77" filterUnits="userSpaceOnUse" color-interpolation-filters="sRGB"><feFlood flood-color="#fff" result="bg"/><feBlend in="SourceGraphic" in2="bg"/></filter><mask id="mask-16" x="52.45" y="10.52" width="7.46" height="81.77" maskUnits="userSpaceOnUse"><g class="cls-1"><path class="cls-2" d="M56.5,10.8s0,5.47,0,9.74c0,5.94-.49,7.22-1.52,9.49-1.68,3.7-2.49,5.11-2.49,10.08V88c0,2.55.7,4.25,2.81,4.25S58.52,90.66,58.52,78c0-5,.11-23.19,0-38.83-.08-12.16,1.39-3.2,1.39-28.6Z"/></g></mask><linearGradient id="linear-gradient-16" x1="51.84" y1="47.49" x2="77.25" y2="66.35" gradientUnits="userSpaceOnUse"><stop offset="0.01" stop-color="#b3a86b"/><stop offset="1" stop-color="#6d5f10"/></linearGradient><filter id="luminosity-noclip-17" x="46.56" y="7.97" width="15.54" height="59.66" filterUnits="userSpaceOnUse" color-interpolation-filters="sRGB"><feFlood flood-color="#fff" result="bg"/><feBlend in="SourceGraphic" in2="bg"/></filter><mask id="mask-17" x="46.56" y="7.97" width="15.54" height="59.66" maskUnits="userSpaceOnUse"><g class="cls-13"><path class="cls-14" d="M59,46.49c-1,6.31.72,12.74.41,19.12,0,.75-.19,1.62-.86,1.92A1.88,1.88,0,0,1,56.74,67c-3.07-2.43-3.9-6.7-4.22-10.61s-.41-8.07-2.61-11.31a29.6,29.6,0,0,1-2.73-3.85,7.73,7.73,0,0,1-.62-2.93c1-9.42,7.92-11.38,7.92-15.17V8a1,1,0,0,1,.35,0,2.23,2.23,0,0,1,1.79,1.25,6.07,6.07,0,0,1,.53,2.23c.37,3.88.19,7.92,1.65,11.54.81,2,2.1,3.82,2.76,5.89a16.3,16.3,0,0,1-.22,8.89C60.6,40.69,59.51,43.52,59,46.49Z"/></g></mask><linearGradient id="linear-gradient-17" x1="46.56" y1="37.8" x2="62.09" y2="37.8" xlink:href="#linear-gradient-16"/><filter id="luminosity-noclip-18" x="60.88" y="8.33" width="9.73" height="51.92" filterUnits="userSpaceOnUse" color-interpolation-filters="sRGB"><feFlood flood-color="#fff" result="bg"/><feBlend in="SourceGraphic" in2="bg"/></filter><mask id="mask-18" x="60.88" y="8.33" width="9.73" height="51.92" maskUnits="userSpaceOnUse"><g class="cls-25"><path class="cls-26" d="M70.61,40.69V60.24c-1-2.49-2.71-4.41-2.71-12.16,0-11-.06-13.3-3.19-17.43s-3.83-5.83-3.83-9.08V10.08a10.13,10.13,0,0,1,1.69-1.75V23.15C62.57,27.24,70.61,29.2,70.61,40.69Z"/></g></mask><linearGradient id="linear-gradient-18" x1="67.69" y1="34.66" x2="75.35" y2="37.28" gradientUnits="userSpaceOnUse"><stop offset="0.01" stop-color="#2b2501"/><stop offset="1" stop-color="#6d5f10"/></linearGradient><filter id="luminosity-noclip-19" x="53.79" y="4.46" width="8.96" height="4.2" filterUnits="userSpaceOnUse" color-interpolation-filters="sRGB"><feFlood flood-color="#fff" result="bg"/><feBlend in="SourceGraphic" in2="bg"/></filter><mask id="mask-19" x="53.79" y="4.46" width="8.96" height="4.2" maskUnits="userSpaceOnUse"><g class="cls-27"><path class="cls-28" d="M62.76,7.15a3.13,3.13,0,0,1-.89.71,7.39,7.39,0,0,1-6.7,0,2.36,2.36,0,0,1-1.38-1.93,2,2,0,0,1,.75-1.47A1.88,1.88,0,0,0,54,5.7a2.35,2.35,0,0,0,1.39,1.93,7.35,7.35,0,0,0,6.68,0A2.81,2.81,0,0,0,62.76,7.15Z"/></g></mask><linearGradient id="linear-gradient-19" x1="53.79" y1="6.56" x2="62.76" y2="6.56" xlink:href="#linear-gradient-16"/><filter id="luminosity-noclip-20" x="56.2" y="4.68" width="4.01" height="7.29" filterUnits="userSpaceOnUse" color-interpolation-filters="sRGB"><feFlood flood-color="#fff" result="bg"/><feBlend in="SourceGraphic" in2="bg"/></filter><mask id="mask-20" x="56.2" y="4.68" width="4.01" height="7.29" maskUnits="userSpaceOnUse"><g class="cls-29"><path class="cls-30" d="M60.22,8.49v3.3a7.82,7.82,0,0,1-4-.17V8.32l.94-.54V4.69h0a7.09,7.09,0,0,0,2.16.11V7.87Z"/></g></mask><linearGradient id="linear-gradient-20" x1="57.31" y1="8.01" x2="63.39" y2="10.62" xlink:href="#linear-gradient-16"/><filter id="luminosity-noclip-21" x="61.87" y="2.44" width="1.38" height="8.22" filterUnits="userSpaceOnUse" color-interpolation-filters="sRGB"><feFlood flood-color="#fff" result="bg"/><feBlend in="SourceGraphic" in2="bg"/></filter><mask id="mask-21" x="61.87" y="2.44" width="1.38" height="8.22" maskUnits="userSpaceOnUse"><g class="cls-3"><path class="cls-4" d="M62.65,4.6V2.44a1.68,1.68,0,0,1-.56,1.2l-.19.13s0,0,0,0,0,.19,0,.19V6.92l.58.49,0,0,.1.08v3.15a2,2,0,0,0,.68-1.41V5.93A1.91,1.91,0,0,0,62.65,4.6Z"/></g></mask><linearGradient id="linear-gradient-21" x1="62.11" y1="6.49" x2="65.91" y2="6.98" xlink:href="#linear-gradient-18"/><filter id="luminosity-noclip-22" x="54.29" y="0.98" width="7.89" height="3.91" filterUnits="userSpaceOnUse" color-interpolation-filters="sRGB"><feFlood flood-color="#fff" result="bg"/><feBlend in="SourceGraphic" in2="bg"/></filter><mask id="mask-22" x="54.29" y="0.98" width="7.89" height="3.91" maskUnits="userSpaceOnUse"><g class="cls-5"><path class="cls-6" d="M62.18,3.67a2.93,2.93,0,0,1-.66.5,6.59,6.59,0,0,1-6,0,2.1,2.1,0,0,1-1.24-1.73A1.84,1.84,0,0,1,55.14,1a1.69,1.69,0,0,0-.54,1.2,2.1,2.1,0,0,0,1.24,1.73,6.63,6.63,0,0,0,6,0A3.75,3.75,0,0,0,62.18,3.67Z"/></g></mask><linearGradient id="linear-gradient-22" x1="54.29" y1="2.93" x2="62.18" y2="2.93" xlink:href="#linear-gradient-16"/><filter id="luminosity-noclip-23" x="55.37" y="0.71" width="6.31" height="3.46" filterUnits="userSpaceOnUse" color-interpolation-filters="sRGB"><feFlood flood-color="#fff" result="bg"/><feBlend in="SourceGraphic" in2="bg"/></filter><mask id="mask-23" x="55.37" y="0.71" width="6.31" height="3.46" maskUnits="userSpaceOnUse"><g class="cls-7"><path class="cls-8" d="M60.75,3.67a5.13,5.13,0,0,1-4.46,0c-1.23-.67-1.23-1.77,0-2.45a5.2,5.2,0,0,1,4.46,0C62,1.9,62,3,60.75,3.67Z"/></g></mask><linearGradient id="linear-gradient-23" x1="58.52" y1="5.05" x2="58.52" y2="0.4" gradientUnits="userSpaceOnUse"><stop offset="0.01" stop-color="#2b2501"/><stop offset="1" stop-color="#2b2501"/></linearGradient><filter id="luminosity-noclip-24" x="71.82" y="98.64" width="16.74" height="9.32" filterUnits="userSpaceOnUse" color-interpolation-filters="sRGB"><feFlood flood-color="#fff" result="bg"/><feBlend in="SourceGraphic" in2="bg"/></filter><mask id="mask-24" x="71.82" y="98.64" width="16.74" height="9.32" maskUnits="userSpaceOnUse"><g class="cls-9"><path class="cls-10" d="M88.56,103.3a4.26,4.26,0,0,1-2.44,3.24,13.11,13.11,0,0,1-11.86,0,4.26,4.26,0,0,1-2.44-3.24,4.26,4.26,0,0,1,2.44-3.24,13.11,13.11,0,0,1,11.86,0A4.26,4.26,0,0,1,88.56,103.3Z"/></g></mask><linearGradient id="linear-gradient-24" x1="71.82" y1="103.3" x2="88.56" y2="103.3" gradientUnits="userSpaceOnUse"><stop offset="0" stop-color="#e3f2fd"/><stop offset="1" stop-color="#e3f2fd"/></linearGradient><filter id="luminosity-noclip-25" x="74.88" y="100.34" width="10.62" height="5.91" filterUnits="userSpaceOnUse" color-interpolation-filters="sRGB"><feFlood flood-color="#fff" result="bg"/><feBlend in="SourceGraphic" in2="bg"/></filter><mask id="mask-25" x="74.88" y="100.34" width="10.62" height="5.91" maskUnits="userSpaceOnUse"><g class="cls-11"><path class="cls-12" d="M85.5,103.3a2.69,2.69,0,0,1-1.55,2,8.3,8.3,0,0,1-7.52,0,2.14,2.14,0,0,1,0-4.11,8.3,8.3,0,0,1,7.52,0A2.7,2.7,0,0,1,85.5,103.3Z"/></g></mask><linearGradient id="linear-gradient-25" x1="86.68" y1="103.3" x2="75.5" y2="103.3" xlink:href="#linear-gradient-24"/><filter id="luminosity-noclip-26" x="80.86" y="61.65" width="7.7" height="18.4" filterUnits="userSpaceOnUse" color-interpolation-filters="sRGB"><feFlood flood-color="#fff" result="bg"/><feBlend in="SourceGraphic" in2="bg"/></filter><mask id="mask-26" x="80.86" y="61.65" width="7.7" height="18.4" maskUnits="userSpaceOnUse"><g class="cls-15"><path class="cls-16" d="M88.26,67.35c-.27-2.24-.51-4.18-.7-5.7L84,62.84c.19,1.52.28,2.27.55,4.51.7,5.79.44,9.45-3.69,12.7h3.71C88.7,76.8,89,73.14,88.26,67.35Z"/></g></mask><linearGradient id="linear-gradient-26" x1="81.77" y1="51.69" x2="84.96" y2="76.75" xlink:href="#linear-gradient-24"/><filter id="luminosity-noclip-27" x="73.75" y="73.1" width="12.89" height="8.53" filterUnits="userSpaceOnUse" color-interpolation-filters="sRGB"><feFlood flood-color="#fff" result="bg"/><feBlend in="SourceGraphic" in2="bg"/></filter><mask id="mask-27" x="73.75" y="73.1" width="12.89" height="8.53" maskUnits="userSpaceOnUse"><g class="cls-17"><ellipse class="cls-18" cx="80.19" cy="77.36" rx="6.44" ry="4.26"/></g></mask><linearGradient id="linear-gradient-27" x1="79.92" y1="83.26" x2="80.33" y2="74.39" gradientUnits="userSpaceOnUse"><stop offset="0" stop-color="#e57373"/><stop offset="1" stop-color="#b71c1c"/></linearGradient><filter id="luminosity-noclip-28" x="72.53" y="61.96" width="5.13" height="13.81" filterUnits="userSpaceOnUse" color-interpolation-filters="sRGB"><feFlood flood-color="#fff" result="bg"/><feBlend in="SourceGraphic" in2="bg"/></filter><mask id="mask-28" x="72.53" y="61.96" width="5.13" height="13.81" maskUnits="userSpaceOnUse"><g class="cls-19"><path class="cls-20" d="M77.66,63.07c-.21,1.6-.5,3.91-.75,6.17a61.68,61.68,0,0,0-.35,6.53h-4a64.55,64.55,0,0,1,.38-7c.29-2.59.63-5.23.85-6.84A14.07,14.07,0,0,0,77.66,63.07Z"/></g></mask><linearGradient id="linear-gradient-28" x1="77.17" y1="60.3" x2="74.23" y2="72.82" xlink:href="#linear-gradient-24"/><filter id="luminosity-noclip-29" x="79.61" y="85.53" width="1.16" height="13.9" filterUnits="userSpaceOnUse" color-interpolation-filters="sRGB"><feFlood flood-color="#fff" result="bg"/><feBlend in="SourceGraphic" in2="bg"/></filter><mask id="mask-29" x="79.61" y="85.53" width="1.16" height="13.9" maskUnits="userSpaceOnUse"><g class="cls-21"><path class="cls-22" d="M80.19,99.43h0a.58.58,0,0,1-.58-.58V86.11a.58.58,0,0,1,.58-.58h0a.58.58,0,0,1,.58.58V98.85A.58.58,0,0,1,80.19,99.43Z"/></g></mask><linearGradient id="linear-gradient-29" x1="80.19" y1="104.02" x2="80.19" y2="86.88" xlink:href="#linear-gradient-24"/><filter id="luminosity-noclip-30" x="68.63" y="65.31" width="17.33" height="39.17" filterUnits="userSpaceOnUse" color-interpolation-filters="sRGB"><feFlood flood-color="#fff" result="bg"/><feBlend in="SourceGraphic" in2="bg"/></filter><mask id="mask-30" x="68.63" y="65.31" width="17.33" height="39.17" maskUnits="userSpaceOnUse"><g class="cls-23"><path class="cls-24" d="M81.47,86.65V98.39a6.08,6.08,0,0,0,.8,3l.1,0A2,2,0,0,1,83,102a1.09,1.09,0,0,1,.23.67,1.07,1.07,0,0,1-.13.51,2,2,0,0,1-.77.75A4.85,4.85,0,0,1,78,104a2.37,2.37,0,0,1-.68-.59,1.16,1.16,0,0,1-.22-.67,1.53,1.53,0,0,1,.9-1.26l.09,0a6,6,0,0,0,.81-3V86.65a4.89,4.89,0,0,0-2.66-4.34c-7.59-3.89-8.18-7.79-7.32-15,.09-.71.17-1.39.25-2a15.34,15.34,0,0,0,5.79,6c4.33,2.7,8.88,4.22,10.79,9.4l.2.57q-.84.51-1.83,1A4.89,4.89,0,0,0,81.47,86.65Z"/></g></mask><linearGradient id="linear-gradient-30" x1="48.04" y1="66.22" x2="76.5" y2="86.73" xlink:href="#linear-gradient-24"/></defs><title>アセット 152</title><g class="cls-31"><g id="レイヤー_2" data-name="レイヤー 2"><g id="shop"><polygon class="cls-32" points="24.68 138.4 58.41 166.49 74.82 172.71 79.88 178.89 91.52 176.99 135.07 151.84 68.24 113.25 24.68 138.4"/><polygon class="cls-33" points="10.95 91.78 79.88 131.35 125.53 105.22 56.6 65.64 10.95 91.78"/><polygon class="cls-34" points="120.27 103.26 56.6 66.7 56.6 71.69 115 105.22 120.27 103.26"/><path class="cls-35" d="M56.61,61.72,11,87.85l68.93,39.57,45.65-26.13ZM19.66,87.85,56.6,66.7l60.22,34.58L79.88,122.43Z"/><polygon class="cls-36" points="16.65 94.63 56.6 71.69 56.6 66.7 16.65 89.64 16.65 94.63"/><path class="cls-32" d="M73.68,95.94c-6.09,3.52-16,3.52-22.06,0s-6.09-9.22,0-12.73,16-3.52,22.06,0S79.77,92.43,73.68,95.94Z"/><path class="cls-37" d="M70.61,40.69V90.18c0,1.79-1.18,3.58-3.54,4.94-4.72,2.73-12.37,2.73-17.1,0-2.36-1.36-3.54-3.15-3.54-4.94V40.69a19.7,19.7,0,0,1,.13-2.37c1-9.41,7.92-11.38,7.92-15.17V7.51h8.09V23.15C62.57,27.24,70.61,29.2,70.61,40.69Z"/><path class="cls-38" d="M58.52,96a16.29,16.29,0,0,1-8-1.88c-1.9-1.1-3-2.49-3-3.92V40.69c0-6.74,2.89-9.9,5.21-12.44,1.52-1.67,2.84-3.11,2.84-5.1V8.69h5.73V23.15c0,2,1.31,3.43,2.84,5.1,2.32,2.54,5.2,5.7,5.2,12.44V90.18c0,1.43-1,2.82-3,3.92A16.24,16.24,0,0,1,58.52,96Z"/><path class="cls-37" d="M60,95.27c-.46,0-.94,0-1.44,0-8.76,0-10.53-3.53-10.69-6a6.39,6.39,0,0,1,.31-2.43c6.11,0,4.28-7.33,10.38-7.33s4.28,7.33,10.4,7.33C68.92,86.85,71.85,94.69,60,95.27Z"/><path class="cls-39" d="M69.23,88.92c0,2.37-1.36,6-9.27,6.35a1.24,1.24,0,0,1,.21-.94,8.13,8.13,0,0,1,2.52-2.76,5.41,5.41,0,0,0,1.88-1.63,2.73,2.73,0,0,0-.18-2.62,8.6,8.6,0,0,0-1.85-2,2.05,2.05,0,0,0-1.41-.66c-.46.06-.83.43-1.28.53-1.38.31-2.32-1.82-3.72-1.68a1.86,1.86,0,0,0-1.41,1.2c-.27.59-.36,1.25-.58,1.85a5.16,5.16,0,0,1-6.31,2.73,6.39,6.39,0,0,1,.31-2.43c6.11,0,4.28-7.33,10.38-7.33s4.28,7.33,10.4,7.33A6.5,6.5,0,0,1,69.23,88.92Z"/><g class="cls-40"><path class="cls-41" d="M47.6,63.86V89c0,1.62,1.07,3.23,3.2,4.46a17.07,17.07,0,0,0,15.44,0c2.13-1.23,3.2-2.84,3.2-4.46V63.86Z"/><path class="cls-42" d="M69.44,63.86c0,1.62-1.07,3.23-3.2,4.46a17.07,17.07,0,0,1-15.44,0c-2.13-1.23-3.2-2.84-3.2-4.46s1.07-3.22,3.2-4.45a17.07,17.07,0,0,1,15.44,0C68.37,60.64,69.44,62.25,69.44,63.86Z"/></g><g class="cls-43"><path class="cls-44" d="M56.5,10.8s0,5.47,0,9.74c0,5.94-.49,7.22-1.52,9.49-1.68,3.7-2.49,5.11-2.49,10.08V88c0,2.55.7,4.25,2.81,4.25S58.52,90.66,58.52,78c0-5,.11-23.19,0-38.83-.08-12.16,1.39-3.2,1.39-28.6Z"/></g><g class="cls-45"><path class="cls-46" d="M59,46.49c-1,6.31.72,12.74.41,19.12,0,.75-.19,1.62-.86,1.92A1.88,1.88,0,0,1,56.74,67c-3.07-2.43-3.9-6.7-4.22-10.61s-.41-8.07-2.61-11.31a29.6,29.6,0,0,1-2.73-3.85,7.73,7.73,0,0,1-.62-2.93c1-9.42,7.92-11.38,7.92-15.17V8a1,1,0,0,1,.35,0,2.23,2.23,0,0,1,1.79,1.25,6.07,6.07,0,0,1,.53,2.23c.37,3.88.19,7.92,1.65,11.54.81,2,2.1,3.82,2.76,5.89a16.3,16.3,0,0,1-.22,8.89C60.6,40.69,59.51,43.52,59,46.49Z"/></g><g class="cls-47"><path class="cls-48" d="M70.61,40.69V60.24c-1-2.49-2.71-4.41-2.71-12.16,0-11-.06-13.3-3.19-17.43s-3.83-5.83-3.83-9.08V10.08a10.13,10.13,0,0,1,1.69-1.75V23.15C62.57,27.24,70.61,29.2,70.61,40.69Z"/></g><path class="cls-37" d="M63.25,9.24a2.37,2.37,0,0,1-1.38,1.94,7.43,7.43,0,0,1-6.69,0,2.36,2.36,0,0,1-1.39-1.94,2.36,2.36,0,0,1,1.39-1.93,7.43,7.43,0,0,1,6.69,0A2.37,2.37,0,0,1,63.25,9.24Z"/><path class="cls-37" d="M60.22,8.49v3.3a7.82,7.82,0,0,1-4-.17V8.32l.94-.54V6.63a8.28,8.28,0,0,1,2.17-.08V7.87Z"/><rect class="cls-37" x="53.79" y="5.94" width="9.46" height="3.31"/><path class="cls-37" d="M62.57,7.51a2,2,0,0,1-1.19,1.65,6.33,6.33,0,0,1-5.72,0,2,2,0,0,1-1.18-1.65,2,2,0,0,1,1.18-1.65,6.33,6.33,0,0,1,5.72,0A2,2,0,0,1,62.57,7.51Z"/><path class="cls-38" d="M63.25,5.94a2.37,2.37,0,0,1-1.38,1.93,7.43,7.43,0,0,1-6.69,0,2.36,2.36,0,0,1-1.39-1.93A2.36,2.36,0,0,1,55.18,4a7.43,7.43,0,0,1,6.69,0A2.37,2.37,0,0,1,63.25,5.94Z"/><g class="cls-49"><path class="cls-50" d="M62.76,7.15a3.13,3.13,0,0,1-.89.71,7.39,7.39,0,0,1-6.7,0,2.36,2.36,0,0,1-1.38-1.93,2,2,0,0,1,.75-1.47A1.88,1.88,0,0,0,54,5.7a2.35,2.35,0,0,0,1.39,1.93,7.35,7.35,0,0,0,6.68,0A2.81,2.81,0,0,0,62.76,7.15Z"/></g><path class="cls-37" d="M54.4,2.44V5.53a2.06,2.06,0,0,0,1.2,1.69,6.46,6.46,0,0,0,5.84,0,2.06,2.06,0,0,0,1.21-1.69V2.44Z"/><g class="cls-51"><path class="cls-52" d="M60.22,8.49v3.3a7.82,7.82,0,0,1-4-.17V8.32l.94-.54V4.69a7.5,7.5,0,0,0,2.17.1V7.87Z"/></g><g class="cls-53"><path class="cls-54" d="M62.65,4.6V2.44a1.68,1.68,0,0,1-.56,1.2l-.19.13s0,0,0,0,0,.19,0,.19V6.92l.58.49,0,0,.1.08v3.15a2,2,0,0,0,.68-1.41V5.93A1.91,1.91,0,0,0,62.65,4.6Z"/></g><path class="cls-55" d="M60,57.35V85.78a18.56,18.56,0,0,1-10.22-2,7.23,7.23,0,0,1-3.35-3.56V51.75a7.23,7.23,0,0,0,3.35,3.56A18.56,18.56,0,0,0,60,57.35Z"/><path class="cls-55" d="M63.34,5.85s0-.09,0-.14a.44.44,0,0,0,0-.1,2.25,2.25,0,0,0-.16-.48h0v0a2.21,2.21,0,0,0-.34-.48l-.06-.07V2.35H54.3V4.57a2,2,0,0,0-.6,1.37V9.25a2.12,2.12,0,0,0,0,.24s0,0,0,.08l0,.1v.06l0,.09a1.22,1.22,0,0,0,.07.17v0l.1.17,0,0a2.76,2.76,0,0,0,.38.48v5.38l.11.26a2.44,2.44,0,0,0,1.12,1.19,6.4,6.4,0,0,0,5.82,0,2.47,2.47,0,0,0,1.13-1.19l.1-.26V10.7l.08-.08,0,0,.07-.09a2,2,0,0,0,.22-.32L63,10.11h.11a1.8,1.8,0,0,0,.16-.38v0a1.18,1.18,0,0,0,0-.29.19.19,0,0,0,0-.08s0-.05,0-.07V5.94S63.34,5.89,63.34,5.85Z"/><path class="cls-38" d="M62.76,2.44a2.1,2.1,0,0,1-1.24,1.73,6.59,6.59,0,0,1-6,0,2.08,2.08,0,0,1-1.24-1.73A2.08,2.08,0,0,1,55.53.72a6.59,6.59,0,0,1,6,0A2.1,2.1,0,0,1,62.76,2.44Z"/><g class="cls-56"><path class="cls-57" d="M62.18,3.67a2.93,2.93,0,0,1-.66.5,6.59,6.59,0,0,1-6,0,2.1,2.1,0,0,1-1.24-1.73A1.84,1.84,0,0,1,55.14,1a1.69,1.69,0,0,0-.54,1.2,2.1,2.1,0,0,0,1.24,1.73,6.63,6.63,0,0,0,6,0A3.75,3.75,0,0,0,62.18,3.67Z"/></g><g class="cls-58"><path class="cls-59" d="M60.75,3.67a5.13,5.13,0,0,1-4.46,0c-1.23-.67-1.23-1.77,0-2.45a5.2,5.2,0,0,1,4.46,0C62,1.9,62,3,60.75,3.67Z"/></g><path class="cls-32" d="M94.51,104.67c-.11,1.68-1.27,3.35-3.49,4.63-4.67,2.7-12.25,2.7-16.92,0-2.22-1.28-3.38-3-3.49-4.63.11-1.68,1.27-3.34,3.49-4.63,4.67-2.69,12.25-2.69,16.92,0C93.24,101.33,94.4,103,94.51,104.67Z"/><path class="cls-60" d="M87.86,108a16.93,16.93,0,0,1-15.34,0c-2.22-1.28-3.28-3-3.17-4.66.09-1.53,1.15-3,3.17-4.2a16.93,16.93,0,0,1,15.34,0c2,1.17,3.07,2.67,3.17,4.2C91.14,105,90.08,106.68,87.86,108Z"/><path class="cls-61" d="M91,103.3c-.1,1.52-1.15,3-3.17,4.2a17,17,0,0,1-15.34,0c-2-1.17-3.08-2.68-3.17-4.2.09-1.53,1.15-3,3.17-4.2a16.93,16.93,0,0,1,15.34,0C89.88,100.27,90.93,101.77,91,103.3Z"/><g class="cls-62"><path class="cls-63" d="M88.56,103.3a4.26,4.26,0,0,1-2.44,3.24,13.11,13.11,0,0,1-11.86,0,4.26,4.26,0,0,1-2.44-3.24,4.26,4.26,0,0,1,2.44-3.24,13.11,13.11,0,0,1,11.86,0A4.26,4.26,0,0,1,88.56,103.3Z"/></g><g class="cls-64"><path class="cls-65" d="M85.5,103.3a2.69,2.69,0,0,1-1.55,2,8.3,8.3,0,0,1-7.52,0,2.14,2.14,0,0,1,0-4.11,8.3,8.3,0,0,1,7.52,0A2.7,2.7,0,0,1,85.5,103.3Z"/></g><path class="cls-66" d="M86,81.29q-.84.51-1.83,1a4.89,4.89,0,0,0-2.66,4.34V98.39a6.08,6.08,0,0,0,.8,3l.1,0A2,2,0,0,1,83,102a1.09,1.09,0,0,1,.23.67,1.07,1.07,0,0,1-.13.51,2,2,0,0,1-.77.75A4.85,4.85,0,0,1,78,104a2.37,2.37,0,0,1-.68-.59,1.16,1.16,0,0,1-.22-.67,1.53,1.53,0,0,1,.9-1.26l.09,0a6,6,0,0,0,.81-3V86.65a4.89,4.89,0,0,0-2.66-4.34c-7.59-3.89-8.18-7.79-7.32-15,.09-.71.17-1.39.25-2,.55-4.51.92-7.37.92-7.37,2.8-6.81,17.1-7.71,20.18,0,0,0,.48,3.74,1.17,9.41C92.24,73.89,91.81,77.71,86,81.29Z"/><path class="cls-41" d="M83.7,81.49a6.55,6.55,0,0,1-7,0c-7.1-3.95-7.64-7.29-6.83-14,.07-.59.15-1.17.21-1.72h0l.09-.73a5.3,5.3,0,0,1,2.74-3.1,16.18,16.18,0,0,1,14.6,0A5.34,5.34,0,0,1,90.23,65l.09.73h0c.06.55.14,1.13.21,1.72C91.34,74.2,90.8,77.55,83.7,81.49Z"/><path class="cls-42" d="M90.32,65.74h0c0,1.42-1,2.78-2.83,3.83a16.18,16.18,0,0,1-14.6,0c-1.82-1-2.83-2.41-2.83-3.83h0l.09-.73a5.3,5.3,0,0,1,2.74-3.1,16.18,16.18,0,0,1,14.6,0A5.34,5.34,0,0,1,90.23,65Z"/><g class="cls-67"><path class="cls-68" d="M88.26,67.35c-.27-2.24-.51-4.18-.7-5.7L84,62.84c.19,1.52.28,2.27.55,4.51.7,5.79.44,9.45-3.69,12.7h3.71C88.7,76.8,89,73.14,88.26,67.35Z"/></g><g class="cls-69"><ellipse class="cls-70" cx="80.19" cy="77.36" rx="6.44" ry="4.26"/></g><path class="cls-71" d="M83.7,81.49a6.55,6.55,0,0,1-7,0c-7.1-3.95-7.64-7.29-6.83-14,.41-3.37.75-6.08,1-7.71a6.76,6.76,0,0,0,2.08,1.77c.28.15.56.3.87.44a14.07,14.07,0,0,0,3.9,1.11,17.42,17.42,0,0,0,2.53.18,14.84,14.84,0,0,0,7.3-1.73,6.88,6.88,0,0,0,2.08-1.77c.21,1.63.55,4.34,1,7.71C91.34,74.2,90.8,77.55,83.7,81.49Z"/><g class="cls-72"><path class="cls-73" d="M77.66,63.07c-.21,1.6-.5,3.91-.75,6.17a61.68,61.68,0,0,0-.35,6.53h-4a64.55,64.55,0,0,1,.38-7c.29-2.59.63-5.23.85-6.84A14.07,14.07,0,0,0,77.66,63.07Z"/></g><g class="cls-74"><path class="cls-75" d="M80.19,99.43h0a.58.58,0,0,1-.58-.58V86.11a.58.58,0,0,1,.58-.58h0a.58.58,0,0,1,.58.58V98.85A.58.58,0,0,1,80.19,99.43Z"/></g><g class="cls-76"><path class="cls-77" d="M81.47,86.65V98.39a6.08,6.08,0,0,0,.8,3l.1,0A2,2,0,0,1,83,102a1.09,1.09,0,0,1,.23.67,1.07,1.07,0,0,1-.13.51,2,2,0,0,1-.77.75A4.85,4.85,0,0,1,78,104a2.37,2.37,0,0,1-.68-.59,1.16,1.16,0,0,1-.22-.67,1.53,1.53,0,0,1,.9-1.26l.09,0a6,6,0,0,0,.81-3V86.65a4.89,4.89,0,0,0-2.66-4.34c-7.59-3.89-8.18-7.79-7.32-15,.09-.71.17-1.39.25-2a15.34,15.34,0,0,0,5.79,6c4.33,2.7,8.88,4.22,10.79,9.4l.2.57q-.84.51-1.83,1A4.89,4.89,0,0,0,81.47,86.65Z"/></g><path class="cls-78" d="M87.32,53.82a15.78,15.78,0,0,0-14.26,0c-.19.11-.36.21-.53.33-3.4,2.29-3.23,5.74.53,7.91a15.78,15.78,0,0,0,14.26,0,7.5,7.5,0,0,0,.78-.51C91.24,59.27,91,55.94,87.32,53.82Zm-14.43.83a5.55,5.55,0,0,1,.48-.29,15.08,15.08,0,0,1,13.64,0c1.71,1,2.65,2.25,2.65,3.58A4,4,0,0,1,87.77,61c-.23.17-.49.33-.76.49a15.08,15.08,0,0,1-13.64,0c-1.71-1-2.65-2.26-2.65-3.58A4.15,4.15,0,0,1,72.89,54.65Z"/><path class="cls-79" d="M87.32,53.82a15.78,15.78,0,0,0-14.26,0c-.19.11-.36.21-.53.33-3.14,2.28-2.88,5.62.78,7.73a15.8,15.8,0,0,0,14.27,0l.52-.33C91.24,59.27,91,55.94,87.32,53.82ZM87.77,61c-.23.17-.49.33-.76.49a15.08,15.08,0,0,1-13.64,0c-1.71-1-2.65-2.26-2.65-3.58a4.15,4.15,0,0,1,2.17-3.29c.23-.16.47-.32.73-.47a15.19,15.19,0,0,1,13.65,0c1.7,1,2.64,2.25,2.64,3.58A4.11,4.11,0,0,1,87.77,61Z"/><polygon class="cls-33" points="125.53 101.29 125.53 152.53 79.88 178.89 79.88 127.42 125.53 101.29"/><polygon class="cls-34" points="84.94 110.32 84.94 175.97 79.88 178.92 79.88 142.84 63.47 133.37 63.47 163.56 16.01 136.16 10.95 73.68 16.01 70.75 84.94 110.32"/><polygon class="cls-80" points="79.88 113.25 79.88 178.89 74.82 175.97 74.82 145.78 58.41 136.31 58.41 166.49 10.95 139.09 10.95 73.68 79.88 113.25"/><polygon class="cls-34" points="58.41 166.49 61.15 164.81 61.15 133.54 58.41 131.96 58.41 166.49"/><polygon class="cls-81" points="53.3 129.01 53.3 154.94 52.46 154.46 47.69 151.7 41.18 147.94 38.62 146.46 36.29 145.12 23.25 137.59 16.06 133.44 16.06 107.51 18.8 109.09 26.3 113.42 28.63 114.76 31.18 116.24 37.7 120 42.48 122.76 53.3 129.01"/><polygon class="cls-82" points="53.3 129.01 53.3 151.69 18.8 131.76 18.8 109.09 53.3 129.01"/><polygon class="cls-83" points="53.3 151.68 53.3 147.67 22.11 129.65 18.8 131.76 53.3 151.68"/><polygon class="cls-84" points="16.06 133.44 18.8 131.76 18.8 109.09 16.06 107.51 16.06 133.44"/><polygon class="cls-85" points="36.29 145.12 23.25 137.59 16.06 114.78 16.06 107.51 18.8 109.09 26.3 113.42 36.29 145.12"/><polygon class="cls-85" points="41.18 147.94 38.62 146.46 28.63 114.76 31.18 116.24 41.18 147.94"/><polygon class="cls-85" points="52.46 154.46 47.69 151.7 37.7 120 42.48 122.76 52.46 154.46"/><polygon class="cls-86" points="74.82 141.43 74.82 172.71 61.15 164.81 61.15 133.54 74.82 141.43"/><polygon class="cls-82" points="73.75 142.05 73.75 170.84 71.76 169.7 69.1 168.16 66.54 166.68 62.23 164.19 62.23 135.4 65.52 137.31 73.75 142.05"/><polygon class="cls-85" points="69.1 168.16 66.54 166.68 62.23 152.91 62.23 146.21 69.1 168.16"/><polygon class="cls-85" points="73.75 163.56 73.75 170.84 71.76 169.7 62.23 139.26 62.23 135.4 65.52 137.31 73.75 163.56"/><polygon class="cls-86" points="62.23 150.71 62.23 148.89 73.75 155.54 73.75 157.36 62.23 150.71"/><path class="cls-34" d="M32.85,96.49a1.39,1.39,0,0,1-1.58,1.44,4.39,4.39,0,0,1-2.17-.65,5.09,5.09,0,0,1-2.32-2.69,2,2,0,0,1-1.59.15.44.44,0,0,1-.15-.12,1.57,1.57,0,0,1-.33-1.05,2.37,2.37,0,0,1,.48-1.35c.32-.46.59-.68.83-.65a.67.67,0,0,1,.25.08,1.31,1.31,0,0,1,.48.87l.32,1.39a6.29,6.29,0,0,0,.86-.75l1-.94c1.18-1.09,2-1.61,2.32-1.57a1.09,1.09,0,0,1,.4.15,1.07,1.07,0,0,1,.34.29.58.58,0,0,1,.14.33c0,.15-.1.18-.31.08a4,4,0,0,0-1.24.53,6.85,6.85,0,0,0-1.09.68,7.51,7.51,0,0,1-2.24,1.7,4.7,4.7,0,0,0,2,2.66,2.38,2.38,0,0,0,1.59.33A1.59,1.59,0,0,0,32,96.65a1.31,1.31,0,0,0,.17-.71,2.31,2.31,0,0,0-.3-1,4.23,4.23,0,0,0-.78-1l-.69-.51c-.32-.23-.48-.39-.48-.5a.11.11,0,0,1,.05-.09c.08-.07.19-.06.33,0a1,1,0,0,1,.23.18l.18.18a1.06,1.06,0,0,1,.15.15,3.76,3.76,0,0,0,.42.26,3.41,3.41,0,0,0,1.29.49c.5.06.82-.09.95-.46a2,2,0,0,0,.13-.71,2.62,2.62,0,0,0-.72-1.71,6.52,6.52,0,0,0-1.72-1.37,6.78,6.78,0,0,0-3.08-1,2.44,2.44,0,0,0-1.32.36,1.07,1.07,0,0,0-.62.9,1.66,1.66,0,0,0,.16.69,4.26,4.26,0,0,0,.23.38q.06.08-.06,0a1.76,1.76,0,0,1-.67-1.42,1.19,1.19,0,0,1,.75-1.19,2.64,2.64,0,0,1,1.27-.18,8.27,8.27,0,0,1,3.32,1.19,8.32,8.32,0,0,1,2.12,1.68,3.09,3.09,0,0,1,.92,2,1.9,1.9,0,0,1-.14.73c-.15.41-.55.56-1.18.46a5,5,0,0,1-1.54-.59A3.28,3.28,0,0,1,32.41,95,3,3,0,0,1,32.85,96.49ZM25.94,92h-.06a2.6,2.6,0,0,0-.8,1.69,2,2,0,0,0,.14.69.24.24,0,0,0,.11.13c.23.13.67,0,1.33-.37l0-.07A5.21,5.21,0,0,0,25.94,92Z"/><path class="cls-34" d="M36.2,98.14c0,.29-.24.64-.73,1s-1,.6-1.46.37l-.17-.1a1.11,1.11,0,0,1-.44-.59,1.51,1.51,0,0,1-.13-.6,2.19,2.19,0,0,1,.94-1.56c.64-.54,1.15-.7,1.53-.47a1.06,1.06,0,0,1,.56,1,1.76,1.76,0,0,1-.06.42s.08.08.21.16a1.18,1.18,0,0,0,.59.1c0,.14-.29.18-.85.12A.49.49,0,0,1,36.2,98.14Zm-.7-1.06c-.25-.14-.6,0-1,.4a1.64,1.64,0,0,0-.67,1.08c0,.32.08.53.26.63s.7.08,1.18-.29.71-.71.71-1A3.5,3.5,0,0,1,35.5,97.08Z"/><path class="cls-34" d="M39.24,98.52l1.55.87s0,0,0,.06-.45-.08-1.35-.46S38.1,98.4,38,98.38a3.37,3.37,0,0,0-.76.83,2.21,2.21,0,0,0-.55,1.23.9.9,0,0,0,.55.78,1.71,1.71,0,0,0,.68.2,2.57,2.57,0,0,0,.65,0,3.34,3.34,0,0,0,1.3-.54c.1-.06.17-.08.2,0s0,0,0,.09-.05.12-.16.21a2.32,2.32,0,0,1-1.26.55,2.41,2.41,0,0,1-1.61-.33,1.72,1.72,0,0,1-.55-.48,1.37,1.37,0,0,1-.21-.81,2.43,2.43,0,0,1,.39-1.18l.59-1a1.57,1.57,0,0,1-.26-.12.52.52,0,0,1-.31-.46c0-.15.09-.19.26-.15l.1,0,.62.36.45-.4c.2-.19.34-.26.41-.22a1.53,1.53,0,0,1,.27.26.55.55,0,0,1,.16.33c0,.09-.17.26-.52.51C38.69,98.2,38.93,98.35,39.24,98.52Z"/><path class="cls-34" d="M42.45,100.38l1.56.87a.15.15,0,0,1,0,.06c0,.07-.45-.08-1.35-.47s-1.38-.59-1.45-.6a3.18,3.18,0,0,0-.76.83,2.22,2.22,0,0,0-.55,1.22.9.9,0,0,0,.55.78,1.88,1.88,0,0,0,.68.21,2.47,2.47,0,0,0,.65,0,3.11,3.11,0,0,0,1.3-.53c.1-.06.17-.08.2-.06s0,0,0,.09-.06.12-.16.21a2.39,2.39,0,0,1-1.27.56,2.49,2.49,0,0,1-1.61-.34,1.61,1.61,0,0,1-.55-.48,1.33,1.33,0,0,1-.21-.8,2.4,2.4,0,0,1,.39-1.18q.39-.67.6-1a1.07,1.07,0,0,1-.26-.11A.54.54,0,0,1,40,99.2c0-.14.09-.19.26-.15l.1,0,.63.37.44-.41c.2-.18.34-.25.41-.21a1.23,1.23,0,0,1,.27.26.51.51,0,0,1,.16.33c0,.09-.17.26-.52.51Z"/><path class="cls-34" d="M43.26,104.24a.64.64,0,0,0,.36.58,1.26,1.26,0,0,0,.92.09,2.45,2.45,0,0,0,1.09-.55c.09-.08.15-.11.21-.08a.13.13,0,0,1,.07.12s-.15.18-.44.39c-.72.5-1.33.61-1.81.33a1.94,1.94,0,0,1-.6-.54,1.23,1.23,0,0,1-.25-.75A2.14,2.14,0,0,1,43,103a8,8,0,0,1,1-1.56c.84-1.09,1.44-1.54,1.79-1.33a.65.65,0,0,1,.22.22.58.58,0,0,1,.13.28l-1,.93c-.47.46-.8.8-1,1l-.4.49a2.38,2.38,0,0,0-.2.25,1.74,1.74,0,0,0-.16.26A1.37,1.37,0,0,0,43.26,104.24Z"/><path class="cls-34" d="M46,106.62l-.22-.16a1.78,1.78,0,0,1-.69-1.3,1.74,1.74,0,0,1,1-1.48,1.58,1.58,0,0,1,1.71-.16,1.27,1.27,0,0,1,.41.39.92.92,0,0,1,.15.47c0,.47-.3.74-.91.81a2.4,2.4,0,0,1-1.49-.22.58.58,0,0,1-.15-.11,1.08,1.08,0,0,0-.16.62,1,1,0,0,0,.53,1,1.54,1.54,0,0,0,1.39,0,3.22,3.22,0,0,0,1.13-.65c.06-.06.12-.08.17,0a.12.12,0,0,1,.07.11.26.26,0,0,1-.09.17,3.22,3.22,0,0,1-1.41.76A1.8,1.8,0,0,1,46,106.62Zm2-2.42c0-.1-.09-.2-.27-.31a1,1,0,0,0-.79,0,2.33,2.33,0,0,0-1.06.75l.14.1a1.67,1.67,0,0,0,1.1.13,1,1,0,0,0,.86-.61A.3.3,0,0,0,48.06,104.2Z"/><path class="cls-34" d="M52.38,109.94a1.43,1.43,0,0,1-.78-.23,1.78,1.78,0,0,1-.7-.76,6,6,0,0,1-.42-1.35c-.13.07-.22.1-.27.07a.17.17,0,0,1,0-.24,8.11,8.11,0,0,1,1.22-.77l1.36-.69q.59-.3.69-.24a.58.58,0,0,1,.35.5.3.3,0,0,1-.11.24,1.16,1.16,0,0,0-.15.13.47.47,0,0,1-.1.1,4.36,4.36,0,0,0-.4,1.37c-.13.73-.23,1.23-.3,1.51a1.54,1.54,0,0,0,1.85-.28c.07,0,.12,0,.16,0a.12.12,0,0,1,0,.11.21.21,0,0,1-.1.16,2,2,0,0,1-1.16.51,3,3,0,0,1-.85-.17Zm-1.46-2.23a1.62,1.62,0,0,0,.24.83,1.51,1.51,0,0,0,.55.59.63.63,0,0,0,.46.13c.15,0,.29-.31.43-.9a9.78,9.78,0,0,0,.25-1.64l0-.4a4.92,4.92,0,0,0-1.27.59c-.46.28-.69.5-.7.67A.62.62,0,0,0,50.92,107.71Z"/><path class="cls-34" d="M56.83,112.65a1.32,1.32,0,0,1-.64-1.23,1.55,1.55,0,0,1,.3-.91c.2-.28.44-.6.73-1a3.94,3.94,0,0,0-2.51.91c-.41.49-.66.71-.73.66s-.32-.25-.32-.39a.81.81,0,0,1,.13-.32c.7-1,1.23-1.79,1.59-2.24.86-1.1,1.47-1.61,1.82-1.54h0a.53.53,0,0,1,.2.38c0,.16-.4.57-1.13,1.24A5.09,5.09,0,0,0,55,109.68l1.39-.33a2.33,2.33,0,0,1,1.42,0,.57.57,0,0,1,.34.51v.07s-.25.26-.75.74a2,2,0,0,0-.75,1.28.41.41,0,0,0,.19.4c.38.2,1,0,1.75-.61.06,0,.11,0,.14,0s.05,0,.05.1-.35.41-1.07.73C57.29,112.69,57,112.74,56.83,112.65Z"/><path class="cls-34" d="M61.16,112.55c0,.29-.24.64-.73,1s-1,.6-1.46.37l-.17-.1a1.07,1.07,0,0,1-.44-.59,1.51,1.51,0,0,1-.13-.6,2.19,2.19,0,0,1,.94-1.56c.64-.54,1.15-.69,1.53-.47a1.06,1.06,0,0,1,.56,1,1.76,1.76,0,0,1-.06.42s.08.08.21.16a1.18,1.18,0,0,0,.59.1c0,.14-.29.18-.85.12A.49.49,0,0,1,61.16,112.55Zm-.7-1.06c-.25-.14-.6,0-1.05.4a1.64,1.64,0,0,0-.67,1.09.65.65,0,0,0,.26.62c.31.18.7.08,1.17-.29s.72-.71.72-1A3.5,3.5,0,0,1,60.46,111.49Z"/><path class="cls-34" d="M65.45,114.85a1.29,1.29,0,0,1-1,1.34,2.05,2.05,0,0,1-1.73-.09,4,4,0,0,1-.71-.49,2.58,2.58,0,0,1-.49-.73c-.13,0-.29.25-.5.6a2.09,2.09,0,0,0-.32,1,2.26,2.26,0,0,0,.21.75s0,.08,0,.08-.07,0-.08,0a.1.1,0,0,1,0,0,2.07,2.07,0,0,1-.46-1.38,3.82,3.82,0,0,1,1.2-2.18c.8-.9,1.35-1.32,1.65-1.27l.14.06q.18.11.18.57a.69.69,0,0,1,.45,0,2.42,2.42,0,0,1,.58.21,2.2,2.2,0,0,1,.68.65A1.49,1.49,0,0,1,65.45,114.85Zm-.55-.44a.83.83,0,0,0-.49-.75,1.76,1.76,0,0,0-.88-.28,3.42,3.42,0,0,0-1,.51c-.55.35-.83.62-.83.81a.77.77,0,0,0,.3.51,2.82,2.82,0,0,0,.6.46,1.77,1.77,0,0,0,1.46.06A1.24,1.24,0,0,0,64.9,114.41Z"/><path class="cls-87" d="M11,93.71A21.83,21.83,0,0,0,0,112.63v.13l68.93,39.83,10.95-19.05Z"/><path class="cls-88" d="M79.88,133.54V146.3l-10.95,6.29v-.13A21.81,21.81,0,0,1,79.88,133.54Z"/></g></g></g></svg>