<svg xmlns="http://www.w3.org/2000/svg" viewBox="0 0 130.63 136.47"><defs><style>.cls-1{isolation:isolate;}.cls-2,.cls-29{fill:#eee;}.cls-2,.cls-28,.cls-31{mix-blend-mode:multiply;}.cls-3{fill:#f06292;}.cls-4{fill:#f48fb1;}.cls-5{fill:#f8bbd0;}.cls-6{fill:#4fc3f7;}.cls-7{fill:#fff;}.cls-8{fill:#81d4fa;}.cls-9{fill:#92e0fc;}.cls-10{fill:#29b6f6;}.cls-11{fill:#b3e5fc;opacity:0.7;}.cls-12,.cls-38{fill:#fafafa;}.cls-13{fill:#e0e0e0;}.cls-14{fill:#616161;}.cls-15{fill:#bdbdbd;}.cls-16{fill:#757575;}.cls-17{fill:#5e35b1;}.cls-18{fill:#7e57c2;}.cls-19{fill:#9575cd;}.cls-20{fill:#212121;}.cls-21{fill:#424242;}.cls-22,.cls-35{fill:#ffca28;}.cls-23{fill:#ffe082;}.cls-24{fill:#eceff1;}.cls-25{fill:#e1f5fe;}.cls-26,.cls-30{fill:#e53935;}.cls-27{fill:#d32f2f;}.cls-30,.cls-32{mix-blend-mode:screen;}.cls-31{fill:#cecece;}.cls-33{fill:#b71c1c;}.cls-34,.cls-37{fill:#ef5350;}.cls-35,.cls-38{mix-blend-mode:soft-light;}.cls-36{fill:#fff8e1;}.cls-37{opacity:0.4;}.cls-39{fill:#c2185b;}.cls-40{fill:#d81b60;}.cls-41{fill:#ec407a;}</style></defs><title>アセット 150</title><g class="cls-1"><g id="レイヤー_2" data-name="レイヤー 2"><g id="shop"><polygon class="cls-2" points="23.87 97.32 56.49 124.48 72.36 130.49 77.25 136.47 88.5 134.63 130.63 110.31 66 73 23.87 97.32"/><polygon class="cls-3" points="121.4 61.6 121.4 110.98 77.25 136.47 77.25 87.09 121.4 61.6"/><polygon class="cls-4" points="77.25 87.09 77.25 136.47 72.36 133.64 72.36 100.25 59.14 92.61 56.49 91.09 56.49 124.48 10.59 97.98 10.59 48.6 77.25 87.09"/><polygon class="cls-4" points="121.4 61.6 121.4 106.77 77.25 132.26 77.25 87.09 121.4 61.6"/><polygon class="cls-5" points="77.25 87.09 77.25 132.26 72.36 129.43 72.36 96.04 59.14 88.4 56.49 86.88 56.49 120.27 10.59 93.77 10.59 48.6 77.25 87.09"/><polygon class="cls-2" points="121.4 61.6 121.4 66.04 77.25 91.53 10.59 53.05 10.59 48.6 77.25 87.09 121.4 61.6"/><polygon class="cls-6" points="51.55 88.23 51.55 113.31 50.74 112.84 46.12 110.18 39.82 106.54 37.34 105.11 35.09 103.81 22.49 96.54 15.54 92.52 15.54 67.44 18.18 68.97 25.43 73.16 27.68 74.46 30.16 75.89 36.46 79.52 41.08 82.19 51.55 88.23"/><polygon class="cls-7" points="72.36 100.25 72.36 130.49 59.14 122.86 59.14 92.61 72.36 100.25"/><polygon class="cls-8" points="71.32 100.85 71.32 128.69 69.4 127.58 66.82 126.1 64.35 124.67 60.18 122.26 60.18 94.42 63.37 96.26 71.32 100.85"/><polygon class="cls-8" points="51.55 88.23 51.55 110.16 18.18 90.9 18.18 68.97 51.55 88.23"/><polygon class="cls-9" points="51.55 110.16 51.55 106.27 21.38 88.85 18.18 90.9 51.55 110.16"/><polygon class="cls-3" points="56.49 124.48 59.14 122.86 59.14 92.61 56.49 91.09 56.49 124.48"/><polygon class="cls-10" points="15.54 92.52 18.18 90.9 18.18 68.97 15.54 67.44 15.54 92.52"/><polygon class="cls-11" points="35.09 103.81 22.49 96.54 15.54 74.47 15.54 67.44 18.18 68.97 25.43 73.16 35.09 103.81"/><polygon class="cls-11" points="39.82 106.54 37.34 105.11 27.68 74.46 30.16 75.89 39.82 106.54"/><polygon class="cls-11" points="50.74 112.84 46.12 110.18 36.46 79.52 41.08 82.19 50.74 112.84"/><polygon class="cls-11" points="66.82 126.1 64.35 124.67 60.18 111.34 60.18 104.87 66.82 126.1"/><polygon class="cls-11" points="71.32 121.65 71.32 128.69 69.4 127.58 60.18 98.14 60.18 94.42 63.37 96.26 71.32 121.65"/><polygon class="cls-7" points="60.18 109.22 60.18 107.46 71.32 113.89 71.32 115.65 60.18 109.22"/><polygon class="cls-12" points="6.43 46.27 54.74 18.38 125.56 59.26 77.25 87.15 6.43 46.27"/><polygon class="cls-13" points="77.25 87.15 6.43 46.27 6.43 48.6 77.25 89.49 125.56 61.6 125.56 59.26 77.25 87.15"/><polygon class="cls-14" points="54.74 23.11 12.62 47.44 10.59 46.27 54.74 20.78 54.74 23.11"/><polygon class="cls-15" points="54.74 23.11 119.37 60.42 121.4 59.25 54.74 20.78 54.74 23.11"/><polygon class="cls-16" points="12.62 47.44 77.25 84.75 119.37 60.43 54.74 23.11 12.62 47.44"/><path class="cls-17" d="M77.25,92.45v12.34l-10.59,6.08v-.12A21.1,21.1,0,0,1,77.25,92.45Z"/><polygon class="cls-18" points="0 72.35 66.66 110.87 77.25 92.45 10.59 53.92 0 72.35"/><polygon class="cls-19" points="0 77.05 66.66 115.58 66.66 110.75 0 72.22 0 77.05"/><path class="cls-2" d="M79.23,45.84h0c1.46-.85,1.27-2.33-.41-3.31L56,29.37a6.4,6.4,0,0,0-5.72-.24h0c-1.46.85-1.27,2.33.41,3.31L73.51,45.6A6.4,6.4,0,0,0,79.23,45.84Z"/><path class="cls-2" d="M105,55.87c0,2-1.32,4-4,5.56-5.32,3.07-13.93,3.07-19.25,0-2.66-1.54-4-3.55-4-5.56s1.33-4,4-5.56c5.31-3.07,13.93-3.07,19.25,0C103.63,51.85,105,53.86,105,55.87Z"/><path class="cls-20" d="M99.23,25.92c-2.55-1.48-4.86-1.63-6.55-.69L91.39,26l.12.22a7.54,7.54,0,0,0-1.62,5.14c0,6,4.18,13.2,9.34,16.18a7.64,7.64,0,0,0,5.14,1.19l.12.22,1.29-.72c1.72-1,2.79-3.07,2.79-6.08C108.57,36.14,104.39,28.9,99.23,25.92Z"/><path class="cls-20" d="M75.74,53.76v1.79c0,2,1.32,4,4,5.56,5.32,3.07,13.93,3.07,19.25,0,2.66-1.53,4-3.55,4-5.56V53.76Z"/><path class="cls-15" d="M103,53.76c0,2-1.33,4-4,5.56-5.32,3.07-13.93,3.07-19.25,0-2.66-1.54-4-3.55-4-5.56v-.13c.05-2,1.38-3.92,4-5.43C85,45.14,93.65,45.14,99,48.2c2.6,1.51,3.93,3.47,4,5.43A.57.57,0,0,1,103,53.76Z"/><path class="cls-21" d="M103,53.63c0,2-1.38,3.93-4,5.43-5.32,3.07-13.93,3.07-19.25,0-2.6-1.5-3.93-3.46-4-5.43s1.38-3.92,4-5.43C85,45.14,93.65,45.14,99,48.2,101.57,49.71,102.9,51.67,103,53.63Z"/><path class="cls-22" d="M101,53.76c0,.14,0,.28,0,.42-.17,1.57-1.3,3.12-3.38,4.32-4.54,2.62-11.89,2.62-16.43,0-2.08-1.2-3.21-2.75-3.37-4.32a3,3,0,0,1,0-.42c0-1.71,1.14-3.43,3.4-4.74C85.67,46.4,93,46.4,97.56,49,99.83,50.33,101,52.05,101,53.76Z"/><path class="cls-23" d="M100.94,54.18c-.17,1.57-1.3,3.12-3.38,4.32-4.54,2.62-11.89,2.62-16.43,0-2.08-1.2-3.21-2.75-3.37-4.32.16-1.58,1.29-3.13,3.37-4.33,4.54-2.62,11.89-2.62,16.43,0C99.64,51.05,100.77,52.6,100.94,54.18Z"/><path class="cls-21" d="M107.28,42.82c0,3-1.07,5.11-2.79,6.08s-4,.78-6.55-.69C92.78,45.23,88.6,38,88.6,32c0-3,1.07-5.12,2.79-6.08s4-.79,6.55.69C103.1,29.61,107.28,36.86,107.28,42.82Z"/><path class="cls-16" d="M105.92,42c0,3.43-1.62,5.48-4,5.68a7,7,0,0,1-4-1.08,17.62,17.62,0,0,1-8-13.81c0-3.79,2-5.9,4.82-5.68a7.46,7.46,0,0,1,3.16,1.07C102.35,30.75,105.92,36.94,105.92,42Z"/><path class="cls-24" d="M105.92,42a6.72,6.72,0,0,1-1.18,4.15,3.92,3.92,0,0,1-1.92,1.35,4.51,4.51,0,0,1-.93.18c-.19,0-.39,0-.59-.08a6.45,6.45,0,0,1-.84-.21c-.24-.08-.48-.17-.73-.28a8.7,8.7,0,0,1-1-.51,13.43,13.43,0,0,1-2.67-2.07c-3.09-3.05-5.3-7.74-5.3-11.74a7.26,7.26,0,0,1,.83-3.62,3.92,3.92,0,0,1,2.36-1.91,4.26,4.26,0,0,1,.62-.13l.22,0c.18,0,.37,0,.57.07a7.21,7.21,0,0,1,1.71.55c.29.13.58.28.88.45a12.53,12.53,0,0,1,2,1.43C103.37,32.64,105.92,37.73,105.92,42Z"/><path class="cls-7" d="M93.94,27.29a3.92,3.92,0,0,0-2.36,1.91l4.47,15.36a13.43,13.43,0,0,0,2.67,2.07,8.7,8.7,0,0,0,1,.51Zm1.41-.08c-.2,0-.39-.06-.57-.07l-.22,0,5.9,20.26a6.45,6.45,0,0,0,.84.21Zm4.57,2.43a12.53,12.53,0,0,0-2-1.43c-.3-.17-.59-.32-.88-.45l5.76,19.77a3.92,3.92,0,0,0,1.92-1.35Z"/><path class="cls-2" d="M36.81,44.76,33,42.57a.89.89,0,0,1-.51-.75,1.2,1.2,0,0,1,.72-1l3.37-2a3.32,3.32,0,0,1,3-.12L43.36,41a.88.88,0,0,1,.51.74,1.23,1.23,0,0,1-.73,1l-3.36,1.94A3.29,3.29,0,0,1,36.81,44.76Z"/><path class="cls-25" d="M42.32,33.27v7.92a1.21,1.21,0,0,1-.73,1l-3.36,2a2.91,2.91,0,0,1-.51.22,3.37,3.37,0,0,1-2.17,0,1.51,1.51,0,0,1-.29-.13l-1.34-.78-2.27-1.31-.18-.1a.89.89,0,0,1-.51-.75V33.37h.69l2.27,0H38.7Z"/><path class="cls-26" d="M31,31.58v7.93a.87.87,0,0,0,.51.74l3.79,2.19a3.29,3.29,0,0,0,3-.13l3.36-1.94a1.23,1.23,0,0,0,.73-1V31.47Z"/><path class="cls-27" d="M35.26,34.51l-3.79-2.19a.87.87,0,0,1-.51-.74,1.2,1.2,0,0,1,.72-1l3.37-1.95a3.3,3.3,0,0,1,3-.12l3.79,2.19a.87.87,0,0,1,.52.74,1.23,1.23,0,0,1-.73,1l-3.36,2A3.32,3.32,0,0,1,35.26,34.51Z"/><path class="cls-22" d="M31,22.83v7.93a.87.87,0,0,0,.51.75l3.79,2.19a3.29,3.29,0,0,0,3-.13l3.36-1.94a1.23,1.23,0,0,0,.73-1V22.73Z"/><path class="cls-23" d="M34.25,40.78v-.42c0-.17.1-.23.25-.15a.47.47,0,0,1,.18.21c0-.08.15-.1.27,0a.66.66,0,0,1,.32.55v.42Zm.39-.2a.28.28,0,0,0-.14-.24c-.09-.05-.15,0-.15.08v.3l.29.16Zm.53.31a.46.46,0,0,0-.22-.38c-.13-.07-.21,0-.21.13v.3l.43.24Z"/><path class="cls-23" d="M34.25,39.78v-.67l.1,0v.56l.29.16v-.52l.1.06v.52l.43.25v-.56l.1.06v.68Z"/><path class="cls-23" d="M34.25,38.47v-.13l1,.06v.12l-.41,0V39l.41.45v.12Zm.13,0,.38.43v-.4Z"/><path class="cls-23" d="M34.9,38.09l-.65-.38v-.12l.65.38c.18.1.28,0,.28-.17a.54.54,0,0,0-.28-.49l-.65-.37v-.12l.65.37a.77.77,0,0,1,.39.67C35.29,38.14,35.14,38.23,34.9,38.09Z"/><path class="cls-23" d="M34.35,36.36v.4l-.1-.06v-.91l.1.06v.39l.92.53v.12Z"/><path class="cls-23" d="M35,35.75h-.72v-.13h.61l-.61-.69V34.8l1,1.16v.13Z"/><g class="cls-28"><path class="cls-29" d="M87.43,74.7a1.86,1.86,0,0,1-.38,1c-1.16,1.63-4.64,2.61-6.47.71a3.15,3.15,0,0,1-.48-.64c-1.18-2-4.51-1.45-4.46-4a2.8,2.8,0,0,1,0-.48,1.53,1.53,0,0,1,.13-.43c.62-1.28,3-1.48,5.45-.94,2.89.63,5.88,2.31,6.15,4.5A1,1,0,0,1,87.43,74.7Z"/></g><path class="cls-27" d="M86.35,74.27a1.86,1.86,0,0,1-.38,1c-1.15,1.62-4.64,2.6-6.46.71a4.09,4.09,0,0,1-.49-.65c-1.17-2-4.51-1.45-4.46-4,0-.14,0-.3,0-.48a1.64,1.64,0,0,1,.13-.43c.63-1.27,3-1.48,5.45-.94,2.9.64,5.88,2.32,6.15,4.5A.7.7,0,0,1,86.35,74.27Z"/><path class="cls-26" d="M86.35,74.27s0,0,0,.06h0a2.58,2.58,0,0,1-.18.32,2.71,2.71,0,0,1-.36.41,5.1,5.1,0,0,1-4.53,1.2,3.32,3.32,0,0,1-1.58-.9,3.53,3.53,0,0,1-.48-.65c-1.18-2-4.51-1.45-4.46-4a2.35,2.35,0,0,1,0-.26,2,2,0,0,1,1.1-.91,8,8,0,0,1,4.35,0c2.9.64,5.88,2.32,6.15,4.5A.7.7,0,0,1,86.35,74.27Z"/><path class="cls-27" d="M86.35,74.27s0,0,0,.06h0a.91.91,0,0,1-.62-.24,3.23,3.23,0,0,1-.54-.77,5.78,5.78,0,0,0-2-2c-.34-.21-.92-.3-1,.09,0,.19.06.39.09.58a1,1,0,0,1-.85,1,1.74,1.74,0,0,1-1.35-.5,11.54,11.54,0,0,1-1-1.11,6,6,0,0,0-3.14-1.82,8,8,0,0,1,4.35,0c2.9.64,5.88,2.32,6.15,4.5A.7.7,0,0,1,86.35,74.27Z"/><path class="cls-30" d="M76.27,71.63a1.58,1.58,0,0,0,1,.44c.54,0,.56-.6.2-.91a1.4,1.4,0,0,0-.71-.29.78.78,0,0,0-.34,0A.46.46,0,0,0,76.27,71.63Z"/><path class="cls-30" d="M82,74.15c-.16,0-.32-.11-.49-.14a.55.55,0,0,0-.48.09c-.21.2-.11.58.09.79a1.38,1.38,0,0,0,1,.37A2.53,2.53,0,0,0,83,75a1.77,1.77,0,0,0,.54-.34c.3-.3.37-1.27-.29-1.09-.21.06-.3.33-.48.45A1.12,1.12,0,0,1,82,74.15Z"/><path class="cls-2" d="M73.85,59.89,70,62.11a3.29,3.29,0,0,1-3,.12L61,58.72c-.76-.44-.66-1.21.22-1.71L65,54.78a3.32,3.32,0,0,1,3-.12l6.09,3.52C74.83,58.61,74.73,59.38,73.85,59.89Z"/><path class="cls-21" d="M71.57,53l-1.13,2-.77,1.36-1,1.76-1.52,2.69-.74,1.32-6.32-3.72a1.38,1.38,0,0,1-.54-1.26v-3A3.58,3.58,0,0,1,59.76,53a3.66,3.66,0,0,1,1.13-1.69l.22-.15,1.32-.76,1.79-1a1,1,0,0,1,1-.08Z"/><path class="cls-31" d="M70.44,55l-.77,1.36-8.78-5.07.22-.15,1.32-.76Z"/><path class="cls-31" d="M68.67,58.09l-1.52,2.69-7.6-4.38V54.09A3.58,3.58,0,0,1,59.76,53Z"/><path class="cls-21" d="M66.41,62.12a1,1,0,0,0,1-.07l3.11-1.8a3.74,3.74,0,0,0,1.56-3v-3A1.42,1.42,0,0,0,71.57,53a1,1,0,0,0-1,.08l-3.11,1.8a3.73,3.73,0,0,0-1.56,3v3A1.37,1.37,0,0,0,66.41,62.12Z"/><path class="cls-20" d="M66.81,61.66a.2.2,0,0,1-.11,0c-.12-.06-.26-.31-.26-.76v-3a3.18,3.18,0,0,1,1.28-2.49l3.1-1.79a.61.61,0,0,1,.34-.11.23.23,0,0,1,.12,0,.94.94,0,0,1,.25.77v3a3.17,3.17,0,0,1-1.27,2.49l-3.11,1.79a.71.71,0,0,1-.34.11Z"/><path class="cls-13" d="M76.39,60.83l-.16.27-.62,1.08-.16.27-7.94-4.58-1-.59a3.36,3.36,0,0,1,.87-1.66l1.15.66Z"/><path class="cls-15" d="M76.39,60.83a.47.47,0,0,1,.19.43,1.5,1.5,0,0,1-.66,1.15.48.48,0,0,1-.47,0,.47.47,0,0,1-.2-.43,1.48,1.48,0,0,1,.67-1.15A.48.48,0,0,1,76.39,60.83Z"/><path class="cls-21" d="M76.2,61.09a.3.3,0,0,0-.28,0,1,1,0,0,0-.44.75.35.35,0,0,0,.1.27l3.83,3.08,1.36-2.35Z"/><path class="cls-20" d="M80.77,62.89a.66.66,0,0,1,.35.66,2.13,2.13,0,0,1-1,1.67.63.63,0,0,1-.74,0,.71.71,0,0,1-.22-.58,2.15,2.15,0,0,1,1-1.67A.74.74,0,0,1,80.77,62.89Z"/><path class="cls-15" d="M68.52,56.28a3.2,3.2,0,0,0-1,1.59l-1-.59a3.36,3.36,0,0,1,.87-1.66Z"/><path class="cls-27" d="M80.46,66c0,.6.58,2,0,2.37a.68.68,0,0,1-.37.09.55.55,0,0,1-.6-.51,13.88,13.88,0,0,1,.1-2v0a1.79,1.79,0,0,1-.38-.26c-.14-.16-.2-.36-.33-.53a1.28,1.28,0,0,0-.44-.32A13.49,13.49,0,0,1,77.06,64a3.69,3.69,0,0,1-.91-1l-.4-.56a.09.09,0,0,1,.13-.12,1.75,1.75,0,0,0,.35.2,1.8,1.8,0,0,0,.43.13h.15l.21,0c-.26-.21-.51-.43-.76-.67,0,0,0-.11.07-.08.73.33,1.39.84,2.12,1.16a4.34,4.34,0,0,0,.47.16l-.21-.15a8.94,8.94,0,0,0-1-.56c-.29-.18-.58-.38-.86-.58a.1.1,0,1,1,.1-.18,7.69,7.69,0,0,0,1.22.43,3.16,3.16,0,0,0,.91.09h.13A1.87,1.87,0,0,1,81,63c1.1.54.14,1.64-.34,2.38a1.45,1.45,0,0,0-.23.48Z"/><g class="cls-32"><path class="cls-26" d="M80.44,68.35a.68.68,0,0,1-.37.09.55.55,0,0,1-.6-.51,1,1,0,0,1,0-.25c.07-.25.2-.48.27-.73a2.38,2.38,0,0,0-.07-1.64,2.87,2.87,0,0,0-1-1.29,11.91,11.91,0,0,0-1.38-.7s-.55-.33-.61-.38a1.79,1.79,0,0,1-.44-.47,1.8,1.8,0,0,0,.43.13,5.21,5.21,0,0,0,.55.32c4.12,1.5,2.78,3.61,3.08,4.58a2.64,2.64,0,0,1,.17.61A.65.65,0,0,1,80.44,68.35Z"/></g><path class="cls-33" d="M80.69,65.41a.87.87,0,0,1-.07-.39c0-.26.12-.51.14-.77A1.77,1.77,0,0,0,80,62.73a3.57,3.57,0,0,0-.91-.47h.13A1.87,1.87,0,0,1,81,63C82.13,63.57,81.17,64.67,80.69,65.41Z"/><path class="cls-30" d="M79.17,63a.26.26,0,0,0,.14.41.25.25,0,0,0,.28-.18.26.26,0,0,0-.32-.3A.2.2,0,0,0,79.17,63Z"/><path class="cls-30" d="M80.34,64.15c0-.15-.36-.9-.63-.71s.2.58.26.69a2,2,0,0,1,.22.53,2.5,2.5,0,0,1,0,.29,1.69,1.69,0,0,1,0,.23c0,.24.13.2.16.07A2.28,2.28,0,0,0,80.34,64.15Z"/><path class="cls-33" d="M85.93,27.23s-8.56,7.79-20.48,1h0l-.07,0h0C53.47,21.22,44.9,3.54,44.9,3.54S59.34-6,65.42,6.34C71.49,1,85.93,27.23,85.93,27.23Z"/><path class="cls-27" d="M83.32,28.66s-8.57,7.78-20.48.95h0l-.07,0h0C50.86,22.65,42.29,5,42.29,5s14.44-9.6,20.52,2.8C68.88,2.39,83.32,28.66,83.32,28.66Z"/><path class="cls-34" d="M83.32,28.66s-8.57,7.78-20.48.95h0l-.07,0h0C50.86,22.65,42.29,5,42.29,5Q62.93,17.6,83.32,28.66Z"/><path class="cls-7" d="M50.57,10a90.71,90.71,0,0,0,12.24,8.61A62.4,62.4,0,0,0,75,24.1a58.42,58.42,0,0,0-12.23-10A30,30,0,0,0,50.57,10Z"/><polygon class="cls-35" points="33.92 22.47 33.92 32.92 31.65 31.61 31.65 22.47 33.92 22.47"/><polygon class="cls-30" points="31.65 32.42 33.92 33.73 33.92 43.45 31.65 42.14 31.65 32.42"/><path class="cls-35" d="M37.72,22.47V33.8a3.43,3.43,0,0,1-2.17,0V22.47Z"/><path class="cls-30" d="M37.72,34.61v9.72a3.37,3.37,0,0,1-2.17,0V34.64A3.37,3.37,0,0,0,37.72,34.61Z"/><path class="cls-2" d="M59.17,53a1.52,1.52,0,0,1-.91,1.26,4.81,4.81,0,0,1-4.37,0,1.33,1.33,0,0,1,0-2.52,4.81,4.81,0,0,1,4.37,0A1.52,1.52,0,0,1,59.17,53Z"/><path class="cls-2" d="M50.94,49.05a1.52,1.52,0,0,1-.9,1.26,4.83,4.83,0,0,1-4.38,0,1.33,1.33,0,0,1,0-2.52,4.83,4.83,0,0,1,4.38,0A1.53,1.53,0,0,1,50.94,49.05Z"/><path class="cls-21" d="M50.13,44.37v4.27a1.53,1.53,0,0,1-.9,1.26l-.09.05a3.87,3.87,0,0,1-1.1.38,5.11,5.11,0,0,1-2.49-.13,2.74,2.74,0,0,1-.7-.3,2.3,2.3,0,0,1-.62-.5,1.23,1.23,0,0,1-.29-.76V44.37Z"/><path class="cls-31" d="M45.55,44.37V50.2a2.74,2.74,0,0,1-.7-.3,2.3,2.3,0,0,1-.62-.5v-5Z"/><path class="cls-31" d="M49.14,44.37V50a3.87,3.87,0,0,1-1.1.38v-6Z"/><path class="cls-14" d="M50.13,44.37a1.52,1.52,0,0,1-.91,1.26,4.81,4.81,0,0,1-4.37,0,1.33,1.33,0,0,1,0-2.52,4.81,4.81,0,0,1,4.37,0A1.52,1.52,0,0,1,50.13,44.37Z"/><path class="cls-22" d="M49.63,34.69v9.44a1.27,1.27,0,0,1-.76,1.06l-.28.14a3.56,3.56,0,0,1-1.1.28,4.57,4.57,0,0,1-1.28-.06,3.13,3.13,0,0,1-1-.36,2,2,0,0,1-.32-.22,1.12,1.12,0,0,1-.44-.84V34.69Z"/><path class="cls-35" d="M46.21,34.69V45.55a3.13,3.13,0,0,1-1-.36,2,2,0,0,1-.32-.22V34.69Z"/><path class="cls-35" d="M48.59,34.69V45.33a3.56,3.56,0,0,1-1.1.28V34.69Z"/><path class="cls-36" d="M49.63,34.69a1.27,1.27,0,0,1-.76,1.06,4,4,0,0,1-3.66,0,1.27,1.27,0,0,1-.76-1.06v-.07a1.34,1.34,0,0,1,.76-1,4.07,4.07,0,0,1,3.66,0,1.3,1.3,0,0,1,.75,1A.2.2,0,0,1,49.63,34.69Z"/><path class="cls-23" d="M49.62,34.62a1.29,1.29,0,0,1-.75,1,4,4,0,0,1-3.66,0,1.31,1.31,0,0,1-.76-1,1.34,1.34,0,0,1,.76-1,4.07,4.07,0,0,1,3.66,0A1.3,1.3,0,0,1,49.62,34.62Z"/><path class="cls-27" d="M49.32,29.79v4.67a1.13,1.13,0,0,1-.67.92,2.39,2.39,0,0,1-.61.26,3.92,3.92,0,0,1-1.09.13,3.35,3.35,0,0,1-1.4-.32l-.12-.07a1.11,1.11,0,0,1-.67-.92V31a5.86,5.86,0,0,1,.79-3.22l0,0L47,27l1.09-.6.5-.28S49.32,27.14,49.32,29.79Z"/><path class="cls-37" d="M45.55,27.8v7.65l-.12-.07a1.11,1.11,0,0,1-.67-.92V31A5.86,5.86,0,0,1,45.55,27.8Z"/><path class="cls-37" d="M48,26.41v9.23a3.92,3.92,0,0,1-1.09.13V27Z"/><path class="cls-34" d="M48.49,26.09c.37.26.07,3-1.77,3.59a1,1,0,0,1-1.43-1.19C45.52,26.92,48.13,25.83,48.49,26.09Z"/><path class="cls-21" d="M58.45,48.43V52.7a1.54,1.54,0,0,1-.9,1.27l-.09.05a3.85,3.85,0,0,1-1.1.37,5.11,5.11,0,0,1-2.49-.12,3.69,3.69,0,0,1-.7-.3,2.46,2.46,0,0,1-.61-.51,1.17,1.17,0,0,1-.29-.76V48.43Z"/><path class="cls-31" d="M53.87,48.43v5.84a3.69,3.69,0,0,1-.7-.3,2.46,2.46,0,0,1-.61-.51v-5Z"/><path class="cls-31" d="M57.46,48.43V54a3.85,3.85,0,0,1-1.1.37v-6Z"/><path class="cls-14" d="M58.45,48.43a1.54,1.54,0,0,1-.9,1.27,4.89,4.89,0,0,1-4.38,0,1.34,1.34,0,0,1,0-2.53,4.83,4.83,0,0,1,4.38,0A1.54,1.54,0,0,1,58.45,48.43Z"/><path class="cls-13" d="M58,38.76V48.2a1.3,1.3,0,0,1-.75,1.06l-.29.14a3.79,3.79,0,0,1-1.09.27,4.29,4.29,0,0,1-1.29-.06,3.38,3.38,0,0,1-1-.35,2.62,2.62,0,0,1-.32-.23,1.12,1.12,0,0,1-.44-.83V38.76Z"/><path class="cls-38" d="M54.53,38.76V49.61a3.38,3.38,0,0,1-1-.35,2.62,2.62,0,0,1-.32-.23V38.76Z"/><path class="cls-38" d="M56.91,38.76V49.4a3.79,3.79,0,0,1-1.09.27V38.76Z"/><path class="cls-7" d="M58,38.76a1.28,1.28,0,0,1-.75,1.05,4,4,0,0,1-3.67,0,1.27,1.27,0,0,1-.76-1.05v-.08a1.36,1.36,0,0,1,.76-1,4,4,0,0,1,3.67,0,1.34,1.34,0,0,1,.75,1Z"/><path class="cls-29" d="M58,38.68a1.34,1.34,0,0,1-.75,1,4.09,4.09,0,0,1-3.67,0,1.36,1.36,0,0,1-.76-1,1.36,1.36,0,0,1,.76-1,4,4,0,0,1,3.67,0A1.34,1.34,0,0,1,58,38.68Z"/><path class="cls-39" d="M57.64,33.85v4.67a1.13,1.13,0,0,1-.67.93,2.78,2.78,0,0,1-.61.25,3.58,3.58,0,0,1-1.09.13,3.35,3.35,0,0,1-1.4-.32l-.12-.06a1.15,1.15,0,0,1-.67-.93V35.09a5.87,5.87,0,0,1,.79-3.23l0,0,1.37-.75,1.09-.6.5-.27S57.64,31.2,57.64,33.85Z"/><path class="cls-40" d="M53.87,31.86v7.65l-.12-.06a1.15,1.15,0,0,1-.67-.93V35.09A5.87,5.87,0,0,1,53.87,31.86Z"/><path class="cls-40" d="M56.36,30.47V39.7a3.58,3.58,0,0,1-1.09.13V31.07Z"/><path class="cls-41" d="M56.82,30.15c.36.26.07,3-1.77,3.59a1.2,1.2,0,0,1-1.15-.08,1.17,1.17,0,0,1-.28-1.11C53.85,31,56.45,29.89,56.82,30.15Z"/><path class="cls-36" d="M42.32,22.73a.75.75,0,0,1-.06.29,1.49,1.49,0,0,1-.67.68l-3.36,1.94a3.33,3.33,0,0,1-3,.13l-3.79-2.19a1.07,1.07,0,0,1-.48-.52.89.89,0,0,1,0-.22,1.2,1.2,0,0,1,.72-1l3.37-1.95a3.3,3.3,0,0,1,3-.12L41.8,22A.87.87,0,0,1,42.32,22.73Z"/><path class="cls-23" d="M42.32,22.73a.75.75,0,0,1-.06.29,1.91,1.91,0,0,1-.5.4l-3.48,2a3.41,3.41,0,0,1-3.07.12l-3.92-2.26a1.48,1.48,0,0,1-.3-.23.89.89,0,0,1,0-.22,1.2,1.2,0,0,1,.72-1l3.37-1.95a3.3,3.3,0,0,1,3-.12L41.8,22A.87.87,0,0,1,42.32,22.73Z"/><path class="cls-15" d="M65.14,63.17,24.39,39.64c-1.83-1-3.49-1.13-4.77-.39l-2.33,1.33.61.59a8.92,8.92,0,0,0-.82,4v.26c0,5.38,3.27,11.63,7.31,14L65.14,82.91a7.09,7.09,0,0,0,1.27.58l1.17,1.15,2.33-1.33c1.55-.89,2.54-3,2.54-5.92v-.26C72.45,71.75,69.18,65.5,65.14,63.17Z"/><path class="cls-12" d="M67.58,84.64c-1.28.73-3,.66-4.77-.4L22.06,60.71c-4-2.33-7.31-8.57-7.31-14v-.27c0-3,1-5,2.54-5.91,1.28-.73,2.94-.66,4.77.39L62.81,64.5c4,2.33,7.31,8.58,7.31,14v.26C70.12,81.67,69.13,83.75,67.58,84.64Z"/><path class="cls-26" d="M18.66,44.41,21,45.73a3.2,3.2,0,0,1,1.58,2.68,1,1,0,0,1-.55,1A4.34,4.34,0,0,1,23,52c0,1.38-.82,1.83-2.05,1.12l-2.29-1.32ZM21,48.53c.54.31.9.1.9-.52a1.84,1.84,0,0,0-.9-1.55l-1.63-1v2.08Zm0,3.88c.82.47,1.36.15,1.36-.79A2.79,2.79,0,0,0,21,49.26l-1.63-.95v3.16Z"/><path class="cls-26" d="M27.81,55.15l-3.44-2a3.26,3.26,0,0,0,1.39,2.18.89.89,0,0,0,1.1,0l.74.43c-.33.6-1,.72-1.84.26a4.63,4.63,0,0,1-2-3.57c0-1.3.92-1.83,2-1.18a4.54,4.54,0,0,1,2,3.54ZM24.37,52.5l2.79,1.6A3.26,3.26,0,0,0,25.76,52C25.06,51.56,24.51,51.82,24.37,52.5Z"/><path class="cls-26" d="M28.44,55.19c0-1.3.92-1.83,2-1.18A4,4,0,0,1,32,55.69v-.75l.6.35v4.58l-.6-.35v-.74a1.25,1.25,0,0,1-1.49,0A4.59,4.59,0,0,1,28.44,55.19Zm3.5,2a3.31,3.31,0,0,0-1.47-2.53c-.8-.46-1.4,0-1.4.87a3.19,3.19,0,0,0,1.4,2.51A.91.91,0,0,0,31.94,57.21Z"/><path class="cls-26" d="M37.21,62.52l-.6-.34v-.55a1.2,1.2,0,0,1-1.29-.13,3,3,0,0,1-1.62-3V55.93l.6.35v2.6a2.08,2.08,0,0,0,1,1.94c.8.46,1.29.23,1.29-.78V57.61l.6.35Z"/><path class="cls-26" d="M39.31,59.8v3.93l-.61-.35V59.45l-.59-.34v-.63l.59.34V57l.61.35v1.79l.88.51v.64Z"/><path class="cls-26" d="M41.77,67.23l-.71-.41,1.12-1.95-1.75-5.05.71.41,1.39,4,1.4-2.42.71.41-1.75,3Z"/><path class="cls-26" d="M50.74,64.44A2.58,2.58,0,0,0,49.69,63c-.7-.4-1.16-.08-1.16.56s.38,1.16,1.16,1.88c1.19,1.13,2.08,2.18,2.08,3.48s-.92,1.61-2.08.94a4.49,4.49,0,0,1-2.07-3.17l.68.39a3.06,3.06,0,0,0,1.39,2c.78.45,1.4.28,1.4-.58,0-.68-.39-1.28-1.4-2.23-1.2-1.11-1.84-2-1.84-3.12s.73-1.56,1.84-.92a3.88,3.88,0,0,1,1.77,2.65Z"/><path class="cls-26" d="M52.35,69c0-1.29.93-1.83,2-1.18a4.15,4.15,0,0,1,1.49,1.68v-.74l.6.34v4.59l-.6-.35v-.75a1.25,1.25,0,0,1-1.49,0A4.64,4.64,0,0,1,52.35,69Zm3.51,2a3.3,3.3,0,0,0-1.48-2.53c-.8-.47-1.4-.06-1.4.87a3.19,3.19,0,0,0,1.4,2.51A.92.92,0,0,0,55.86,71Z"/><path class="cls-26" d="M57.71,67l.6.35v7.4l-.6-.34Z"/><path class="cls-26" d="M59.21,73c0-1.3.92-1.83,2-1.18a4.54,4.54,0,0,1,2,3.54c0,1.28-.92,1.86-2,1.21A4.63,4.63,0,0,1,59.21,73Zm.62.36a3.21,3.21,0,0,0,1.42,2.52c.8.46,1.42,0,1.42-.88a3.16,3.16,0,0,0-1.42-2.5C60.45,72,59.83,72.39,59.83,73.31Z"/><path class="cls-26" d="M64.24,73.57l.61.34v.55a1.2,1.2,0,0,1,1.29.13,3,3,0,0,1,1.62,3v2.61l-.61-.35v-2.6a2.1,2.1,0,0,0-1-1.94c-.8-.48-1.29-.25-1.29.78v2.43l-.61-.35Z"/></g></g></g></svg>