<svg xmlns="http://www.w3.org/2000/svg" viewBox="0 0 133.78 144.88"><defs><style>.cls-1{isolation:isolate;}.cls-2{fill:#eee;}.cls-19,.cls-2{mix-blend-mode:multiply;}.cls-3{fill:#455a64;}.cls-4{fill:#546e7a;}.cls-5{fill:#78909c;}.cls-6{fill:#4fc3f7;}.cls-7{fill:#fff;}.cls-8{fill:#81d4fa;}.cls-9{fill:#92e0fc;}.cls-10{fill:#29b6f6;}.cls-11{fill:#b3e5fc;opacity:0.7;}.cls-12{fill:#fafafa;}.cls-13{fill:#e0e0e0;}.cls-14{fill:#616161;}.cls-15{fill:#bdbdbd;}.cls-16{fill:#757575;}.cls-17{fill:#ffca28;}.cls-18{fill:#ffa000;}.cls-19{fill:#e8e8e8;}.cls-20{fill:#f9a825;}.cls-21{fill:#fdd835;}.cls-22{fill:#fff59d;}.cls-23{fill:#1e88e5;}.cls-24{fill:#42a5f5;}.cls-25{fill:#3949ab;}.cls-26{fill:#5c6bc0;}</style></defs><title>アセット 148</title><g class="cls-1"><g id="レイヤー_2" data-name="レイヤー 2"><g id="shop"><polygon class="cls-2" points="22.15 103.94 56.26 132.35 72.85 138.63 77.97 144.88 89.74 142.96 133.78 117.53 66.2 78.51 22.15 103.94"/><polygon class="cls-3" points="124.14 66.59 124.14 118.22 77.97 144.88 77.97 93.24 124.14 66.59"/><polygon class="cls-4" points="77.97 93.24 77.97 144.88 72.85 141.93 72.85 107 59.03 99.02 56.26 97.42 56.26 132.34 8.27 104.64 8.27 53 77.97 93.24"/><polygon class="cls-4" points="124.14 66.59 124.14 113.82 77.97 140.48 77.97 93.24 124.14 66.59"/><polygon class="cls-5" points="77.97 93.24 77.97 140.48 72.85 137.52 72.85 102.6 59.03 94.62 56.26 93.02 56.26 127.94 8.27 100.23 8.27 53 77.97 93.24"/><polygon class="cls-2" points="124.14 66.59 124.14 71.24 77.97 97.89 8.27 57.65 8.27 53 77.97 93.24 124.14 66.59"/><polygon class="cls-6" points="51.09 94.44 51.09 120.67 50.24 120.18 45.42 117.39 38.83 113.59 36.24 112.09 33.89 110.73 20.71 103.12 13.43 98.92 13.43 72.7 16.2 74.3 23.79 78.67 26.14 80.03 28.73 81.53 35.32 85.33 40.14 88.12 51.09 94.44"/><polygon class="cls-7" points="72.85 107 72.85 138.63 59.03 130.65 59.03 99.02 72.85 107"/><polygon class="cls-8" points="71.77 107.63 71.77 136.75 69.76 135.59 67.07 134.03 64.48 132.54 60.12 130.02 60.12 100.91 63.45 102.83 71.77 107.63"/><polygon class="cls-8" points="51.09 94.44 51.09 117.37 16.2 97.22 16.2 74.3 51.09 94.44"/><polygon class="cls-9" points="51.09 117.37 51.09 113.3 19.55 95.08 16.2 97.22 51.09 117.37"/><polygon class="cls-3" points="56.26 132.35 59.03 130.65 59.03 99.02 56.26 97.42 56.26 132.35"/><polygon class="cls-10" points="13.43 98.92 16.2 97.22 16.2 74.3 13.43 72.7 13.43 98.92"/><polygon class="cls-11" points="33.89 110.73 20.71 103.12 13.43 80.05 13.43 72.7 16.2 74.3 23.79 78.67 33.89 110.73"/><polygon class="cls-11" points="38.83 113.59 36.24 112.09 26.14 80.03 28.73 81.53 38.83 113.59"/><polygon class="cls-11" points="50.24 120.18 45.42 117.39 35.32 85.33 40.14 88.12 50.24 120.18"/><polygon class="cls-11" points="67.07 134.03 64.48 132.54 60.12 118.61 60.12 111.83 67.07 134.03"/><polygon class="cls-11" points="71.77 129.38 71.77 136.75 69.76 135.59 60.12 104.8 60.12 100.91 63.45 102.83 71.77 129.38"/><polygon class="cls-7" points="60.12 116.38 60.12 114.54 71.77 121.27 71.77 123.11 60.12 116.38"/><polygon class="cls-12" points="128.48 64.14 77.97 93.31 3.92 50.55 54.43 21.39 111.99 54.62 116.72 57.35 128.48 64.14"/><polygon class="cls-13" points="77.97 93.31 3.92 50.55 3.92 53 77.97 95.75 128.48 66.59 128.48 64.14 77.97 93.31"/><polygon class="cls-14" points="54.43 26.35 10.38 51.78 8.27 50.55 54.43 23.9 54.43 26.35"/><polygon class="cls-15" points="54.43 26.35 122.02 65.36 124.14 64.14 54.43 23.9 54.43 26.35"/><polygon class="cls-16" points="10.38 51.78 77.97 90.8 122.02 65.37 54.43 26.35 10.38 51.78"/><path class="cls-17" d="M8.27,60.47C3.7,63.11,0,69.51,0,74.78v.79A5.56,5.56,0,0,0,2.31,80h0c1.28.75,2.33,0,2.34-1.78v-.79L9.3,80.15v.79A5.59,5.59,0,0,0,11.6,85.4c1.29.74,2.33-.06,2.34-1.78v-.79l4.65,2.68v.79a5.55,5.55,0,0,0,2.31,4.47c1.28.74,2.33-.06,2.33-1.79V88.2l4.64,2.68v.79a5.56,5.56,0,0,0,2.31,4.46c1.28.74,2.33-.06,2.34-1.78v-.79l4.65,2.68V97a5.59,5.59,0,0,0,2.31,4.47c1.29.74,2.33-.06,2.34-1.78v-.79l4.65,2.68v.79a5.53,5.53,0,0,0,2.31,4.46h0c1.28.74,2.33,0,2.33-1.78v-.79h0L55.77,107v.78a5.56,5.56,0,0,0,2.31,4.47c1.28.74,2.33-.06,2.34-1.78v-.79h0l4.65,2.68v.79a5.55,5.55,0,0,0,2.3,4.46c1.29.74,2.33,0,2.34-1.78V115h0c0-5.26,3.7-11.67,8.26-14.31Z"/><path class="cls-7" d="M12.91,63.15C8.35,65.79,4.65,72.2,4.65,77.46v.79A5.54,5.54,0,0,0,7,82.72c1.28.74,2.33-.06,2.33-1.78v-.79c0-5.27,3.7-11.68,8.26-14.31Z"/><path class="cls-7" d="M22.21,68.52c-4.57,2.63-8.27,9-8.27,14.31v.79a5.56,5.56,0,0,0,2.31,4.46h0c1.28.74,2.33,0,2.34-1.78v-.79c0-5.27,3.7-11.67,8.26-14.31Z"/><path class="cls-7" d="M31.5,73.89c-4.56,2.63-8.26,9-8.26,14.31V89a5.59,5.59,0,0,0,2.31,4.47c1.29.74,2.33-.06,2.34-1.78v-.79c0-5.27,3.7-11.68,8.27-14.31Z"/><path class="cls-7" d="M40.79,79.25c-4.56,2.63-8.25,9-8.26,14.31h0v.79a5.53,5.53,0,0,0,2.31,4.46h0c1.28.74,2.33,0,2.33-1.78v-.79h0c0-5.26,3.7-11.67,8.26-14.31Z"/><path class="cls-7" d="M50.09,84.62c-4.57,2.63-8.27,9-8.27,14.31v.79a5.56,5.56,0,0,0,2.31,4.46c1.28.74,2.33-.06,2.34-1.78v-.79c0-5.27,3.7-11.68,8.26-14.31Z"/><path class="cls-7" d="M59.38,90c-4.56,2.64-8.26,9-8.26,14.31v.79a5.61,5.61,0,0,0,2.31,4.47h0c1.29.74,2.33-.06,2.34-1.79V107c0-5.27,3.69-11.68,8.26-14.31Z"/><path class="cls-7" d="M68.67,95.35c-4.56,2.63-8.26,9-8.26,14.31v.79a5.53,5.53,0,0,0,2.31,4.46h0c1.28.74,2.33-.06,2.34-1.78v-.79c0-5.27,3.7-11.67,8.26-14.31Z"/><path class="cls-18" d="M78,100.71v9.54L69.71,115C69.71,109.76,73.41,103.35,78,100.71Z"/><g id="books"><polygon class="cls-19" points="76.25 85.95 111.02 66.22 58.92 35.62 24.16 55.34 72.78 84.96 76.25 85.95"/><polygon class="cls-20" points="72.78 84.96 107.55 65.24 107.56 64.29 55.45 34.63 20.69 53.4 20.69 54.36 72.78 84.96"/><polygon class="cls-21" points="72.79 84.01 107.56 64.29 55.46 33.68 20.69 53.4 72.79 84.01"/><polygon class="cls-20" points="107.62 56.48 107.55 65.24 106.65 65.75 104.16 64.2 101.08 55.04 107.62 56.48"/><polygon class="cls-22" points="24.16 45.11 24.09 54.16 72.11 82.37 104.16 64.2 104.23 55.14 103.84 54.92 56.2 27.81 24.55 44.9 24.16 45.11"/><polygon class="cls-20" points="24.16 45.11 24.16 45.55 72.18 73.76 104.22 55.58 104.23 55.14 103.84 54.92 72.19 72.88 24.55 44.9 24.16 45.11"/><path class="cls-20" d="M24.15,46.26v.83l48,28.21,32-18.18V56.3a.45.45,0,0,0-.19.05L72.17,74.42,24.34,46.32A.47.47,0,0,0,24.15,46.26Z"/><path class="cls-15" d="M24.14,47.81v.82l48,28.21L104.2,58.66v-.81a.48.48,0,0,0-.2,0L72.16,76,24.33,47.87A.35.35,0,0,0,24.14,47.81Z"/><path class="cls-15" d="M24.13,49.35v.82l48,28.21L104.19,60.2v-.81a.34.34,0,0,0-.19,0L72.15,77.51,24.32,49.4A.45.45,0,0,0,24.13,49.35Z"/><path class="cls-15" d="M24.11,50.9v.81l48,28.22,32.05-18.18v-.82a.26.26,0,0,0-.19,0L72.14,79.05,24.3,51A.32.32,0,0,0,24.11,50.9Z"/><path class="cls-15" d="M24.1,52.43v.83l48,28.21,32-18.18v-.82a.45.45,0,0,0-.19.05L72.13,80.59,24.29,52.49A.35.35,0,0,0,24.1,52.43Z"/><polygon class="cls-20" points="72.85 76.2 107.62 56.48 107.63 55.53 55.52 25.87 20.76 44.65 20.75 45.6 72.85 76.2"/><polygon class="cls-21" points="72.86 75.25 107.63 55.53 55.53 24.92 20.76 44.65 72.86 75.25"/><polygon class="cls-23" points="83.94 72.91 118.7 53.19 118.71 52.24 66.61 22.58 31.85 41.35 31.84 42.31 83.94 72.91"/><polygon class="cls-24" points="83.94 71.96 118.71 52.24 66.61 21.63 31.85 41.35 83.94 71.96"/><polygon class="cls-23" points="118.77 44.43 118.7 53.19 117.8 53.7 115.31 52.15 112.23 42.99 118.77 44.43"/><polygon class="cls-22" points="35.31 33.06 35.24 42.11 83.27 70.33 115.31 52.15 115.38 43.09 114.99 42.87 67.35 15.76 35.7 32.85 35.31 33.06"/><polygon class="cls-20" points="35.31 33.06 35.31 33.5 83.33 61.71 115.38 43.53 115.38 43.09 114.99 42.87 83.34 60.84 35.7 32.85 35.31 33.06"/><path class="cls-20" d="M35.3,34.21V35l48,28.21,32.05-18.18v-.82a.45.45,0,0,0-.19,0L83.33,62.37,35.49,34.27A.47.47,0,0,0,35.3,34.21Z"/><path class="cls-15" d="M35.29,35.76v.82l48,28.22,32-18.19V45.8a.43.43,0,0,0-.19,0L83.32,63.92,35.48,35.82A.35.35,0,0,0,35.29,35.76Z"/><path class="cls-15" d="M35.28,37.3v.82l48,28.21,32-18.18v-.81a.34.34,0,0,0-.19,0L83.3,65.46,35.47,37.35A.45.45,0,0,0,35.28,37.3Z"/><path class="cls-15" d="M35.27,38.85v.81l48,28.22,32-18.18v-.82a.32.32,0,0,0-.19,0L83.29,67,35.46,38.9A.34.34,0,0,0,35.27,38.85Z"/><path class="cls-15" d="M35.26,40.38v.83l48,28.21,32.05-18.18v-.82a.45.45,0,0,0-.19,0L83.28,68.54,35.45,40.44A.35.35,0,0,0,35.26,40.38Z"/><polygon class="cls-23" points="84 64.16 118.77 44.43 118.78 43.48 66.67 13.82 31.91 32.59 31.91 33.55 84 64.16"/><polygon class="cls-24" points="84.01 63.2 118.78 43.48 66.68 12.87 31.91 32.59 84.01 63.2"/><polygon class="cls-25" points="67.45 60.04 102.22 40.32 102.23 39.37 50.12 9.71 15.36 28.48 15.36 29.43 67.45 60.04"/><polygon class="cls-26" points="67.46 59.09 102.23 39.37 50.13 8.76 15.36 28.48 67.46 59.09"/><polygon class="cls-25" points="102.29 31.56 102.22 40.32 101.32 40.83 98.83 39.28 95.75 30.11 102.29 31.56"/><polygon class="cls-22" points="18.83 20.18 18.76 29.24 66.78 57.45 98.83 39.28 98.9 30.22 98.51 30 50.87 2.89 19.22 19.98 18.83 20.18"/><polygon class="cls-20" points="18.83 20.18 18.82 20.63 66.85 48.84 98.89 30.66 98.9 30.22 98.51 30 66.85 47.96 19.22 19.98 18.83 20.18"/><path class="cls-20" d="M18.82,21.34v.83l48,28.21,32-18.19v-.81a.34.34,0,0,0-.19.05L66.84,49.5,19,21.4A.35.35,0,0,0,18.82,21.34Z"/><path class="cls-15" d="M18.81,22.89v.81l48,28.22L98.87,33.74v-.81a.48.48,0,0,0-.2,0L66.83,51.05,19,22.94A.34.34,0,0,0,18.81,22.89Z"/><path class="cls-15" d="M18.8,24.43v.82l48,28.21L98.86,35.28v-.82a.35.35,0,0,0-.19.06L66.82,52.59,19,24.48A.34.34,0,0,0,18.8,24.43Z"/><path class="cls-15" d="M18.78,26v.82L66.8,55,98.85,36.83V36a.41.41,0,0,0-.19,0L66.81,54.12,19,26A.33.33,0,0,0,18.78,26Z"/><path class="cls-15" d="M18.77,27.51v.82l48,28.22,32-18.19v-.81a.34.34,0,0,0-.19.05L66.8,55.67,19,27.57A.35.35,0,0,0,18.77,27.51Z"/><polygon class="cls-25" points="67.52 51.28 102.29 31.56 102.3 30.61 50.19 0.95 15.43 19.72 15.42 20.68 67.52 51.28"/><polygon class="cls-26" points="67.53 50.33 102.3 30.61 50.2 0 15.43 19.72 67.53 50.33"/></g><path class="cls-15" d="M64.09,66.48,21.47,41.87c-1.9-1.1-3.64-1.17-5-.41l-2.44,1.39.64.63a9.32,9.32,0,0,0-.86,4.17v1.62c0,5.63,3.42,12.16,7.64,14.6l42.62,24.6a7.71,7.71,0,0,0,1.32.61l1.23,1.2,2.43-1.4c1.63-.93,2.66-3.1,2.66-6.18V81.07C71.73,75.45,68.31,68.91,64.09,66.48Z"/><path class="cls-12" d="M66.64,90.28c-1.34.76-3.08.68-5-.41L19,65.26c-4.21-2.44-7.63-9-7.63-14.6V49c0-3.09,1-5.26,2.65-6.19,1.34-.76,3.08-.69,5,.41L61.65,67.87c4.22,2.44,7.64,9,7.64,14.6v1.62C69.29,87.18,68.26,89.35,66.64,90.28Z"/><path class="cls-4" d="M16.48,47.38l3,1.74a4.2,4.2,0,0,1,2.08,3.52A1.32,1.32,0,0,1,20.86,54a5.75,5.75,0,0,1,1.34,3.4c0,1.81-1.08,2.41-2.7,1.47l-3-1.74Zm3,5.43c.71.41,1.18.13,1.18-.69a2.41,2.41,0,0,0-1.18-2l-2.15-1.25v2.73Zm0,5.11c1.08.62,1.8.2,1.8-1a3.72,3.72,0,0,0-1.8-3.12l-2.15-1.24v4.15Z"/><path class="cls-4" d="M23.14,58c0-1.7,1.22-2.41,2.7-1.55a6,6,0,0,1,2.7,4.67c0,1.68-1.22,2.44-2.7,1.58A6.07,6.07,0,0,1,23.14,58Zm.83.48a4.26,4.26,0,0,0,1.87,3.32c1.05.61,1.87,0,1.87-1.16a4.17,4.17,0,0,0-1.87-3.29C24.79,56.72,24,57.25,24,58.46Z"/><path class="cls-4" d="M29.37,61.58c0-1.71,1.22-2.41,2.69-1.56a6,6,0,0,1,2.7,4.67c0,1.68-1.22,2.44-2.7,1.59A6.12,6.12,0,0,1,29.37,61.58Zm.83.48a4.26,4.26,0,0,0,1.86,3.32c1.06.6,1.87,0,1.87-1.17a4.15,4.15,0,0,0-1.87-3.29C31,60.31,30.2,60.84,30.2,62.06Z"/><path class="cls-4" d="M36,68.37V58.61l.79.46v5.81l.18.1,1.94-1.07,1.11.65-2.14,1.15,2.8,5.36-1.06-.61L37.25,66l-.51.28v2.51Z"/><path class="cls-4" d="M44.18,68.59a2.08,2.08,0,0,0-1.08-1.34c-.62-.36-1.06-.27-1.06.18s.34.91,1.19,1.59C44.57,70.11,45.1,71,45.1,72s-.7,1.4-2,.64a3.86,3.86,0,0,1-2-3l.72.41a2.69,2.69,0,0,0,1.28,1.68c.77.45,1.28.35,1.28-.2s-.33-1-1.28-1.72c-1.24-1-1.8-1.85-1.8-2.8s.62-1.3,1.8-.62A3.57,3.57,0,0,1,44.9,69Z"/><path class="cls-4" d="M46.4,64.11l.8.45v5a1.57,1.57,0,0,1,1.7.16A4,4,0,0,1,51,73.65v3.43l-.79-.46V73.19a2.75,2.75,0,0,0-1.34-2.55c-1-.61-1.7-.3-1.7,1v3.19l-.8-.46Z"/><path class="cls-4" d="M52.15,74.73c0-1.7,1.22-2.41,2.7-1.55a6,6,0,0,1,2.7,4.67c0,1.68-1.22,2.44-2.7,1.58A6.09,6.09,0,0,1,52.15,74.73Zm.83.48a4.26,4.26,0,0,0,1.87,3.32c1,.61,1.87,0,1.87-1.16a4.16,4.16,0,0,0-1.87-3.29C53.8,73.47,53,74,53,75.21Z"/><path class="cls-4" d="M64.13,81.65c0,1.68-1.22,2.43-2.7,1.58a5.49,5.49,0,0,1-2-2.24v3.69l-.79-.46V75.48l.79.45v1a1.71,1.71,0,0,1,2,0A6,6,0,0,1,64.13,81.65Zm-.83-.48a4.12,4.12,0,0,0-1.85-3.28c-1-.6-1.94-.12-1.94,1.09a4.43,4.43,0,0,0,1.94,3.36C62.5,83,63.3,82.36,63.3,81.17Z"/></g></g></g></svg>