<svg xmlns="http://www.w3.org/2000/svg" viewBox="0 0 147.33 102.03"><defs><style>.cls-1{fill:#595757;}.cls-2{fill:#c9caca;}.cls-3{fill:#d8ebf5;}.cls-4{fill:#898989;}.cls-5{fill:#b5b5b6;}.cls-6{fill:#b7cdda;}.cls-7{fill:#be8b4c;}.cls-8{fill:#9e733d;}.cls-9{fill:#b28247;}.cls-10{fill:#727171;}.cls-11{fill:#3e3a39;}.cls-12{fill:#69a16e;}.cls-13{fill:#dcdddd;}.cls-14{fill:#006934;}.cls-15{fill:#fff6e9;}.cls-16{fill:#fff;}.cls-17{fill:#2f2725;}.cls-18{fill:#00773d;}.cls-19{fill:#f39800;}.cls-20{fill:#9fa0a0;}.cls-21{fill:#afd5e9;}.cls-22{fill:#00592a;}.cls-23{fill:#a1c5d8;}.cls-24{fill:#e60012;}.cls-25{fill:#008344;}</style></defs><title>アセット 33</title><g id="レイヤー_2" data-name="レイヤー 2"><g id="レイヤー_1-2" data-name="レイヤー 1"><polygon class="cls-1" points="76.16 49.46 78.05 50.55 78.05 16.03 76.16 14.94 76.16 49.46"/><polygon class="cls-2" points="64.31 53.13 78.05 45.19 78.05 16.03 64.31 23.97 64.31 53.13"/><polygon class="cls-3" points="65.91 41.46 76.45 35.37 76.45 19.17 65.91 25.26 65.91 41.46"/><polygon class="cls-4" points="78.05 50.55 79.94 49.46 79.94 14.94 78.05 16.03 78.05 50.55"/><polygon class="cls-4" points="62.41 59.58 64.31 58.49 64.31 23.97 62.41 25.06 62.41 59.58"/><polygon class="cls-1" points="60.52 58.49 62.41 59.58 62.41 25.06 60.52 23.97 60.52 58.49"/><polygon class="cls-5" points="78.05 45.19 91.79 53.13 91.79 23.97 78.05 16.03 78.05 45.19"/><polygon class="cls-6" points="79.65 35.37 90.19 41.46 90.19 25.26 79.65 19.17 79.65 35.37"/><polygon class="cls-1" points="122.21 76.05 123.67 76.89 123.67 42.37 122.21 41.53 122.21 76.05"/><polygon class="cls-1" points="107 67.27 108.47 68.11 108.47 33.59 107 32.75 107 67.27"/><polygon class="cls-4" points="109.93 67.27 108.47 68.11 108.47 33.59 109.93 32.75 109.93 67.27"/><polygon class="cls-4" points="125.14 76.05 123.67 76.89 123.67 42.37 125.14 41.53 125.14 76.05"/><polygon class="cls-4" points="94.72 58.49 93.26 59.33 93.26 24.81 94.72 23.97 94.72 58.49"/><polygon class="cls-1" points="91.79 58.49 93.26 59.33 93.26 24.81 91.79 23.97 91.79 58.49"/><polygon class="cls-5" points="93.26 53.98 107 61.91 107 32.75 93.26 24.81 93.26 53.98"/><polygon class="cls-6" points="94.86 44.15 105.4 50.24 105.4 34.04 94.86 27.95 94.86 44.15"/><polygon class="cls-5" points="108.47 62.76 122.21 70.69 122.21 41.53 108.47 33.59 108.47 62.76"/><polygon class="cls-6" points="110.06 52.93 120.61 59.02 120.61 42.82 110.06 36.73 110.06 52.93"/><polygon class="cls-5" points="123.67 71.53 137.42 79.47 137.42 50.31 123.67 42.37 123.67 71.53"/><polygon class="cls-6" points="125.27 61.71 135.81 67.8 135.81 51.6 125.27 45.51 125.27 61.71"/><polygon class="cls-1" points="137.43 84.83 139.32 85.93 139.32 51.41 137.43 50.31 137.43 84.83"/><polygon class="cls-2" points="125.58 88.5 139.32 80.57 139.32 51.41 125.58 59.34 125.58 88.5"/><polygon class="cls-3" points="127.18 76.83 137.72 70.75 137.72 54.55 127.18 60.63 127.18 76.83"/><polygon class="cls-4" points="139.32 85.93 141.21 84.83 141.21 50.31 139.32 51.41 139.32 85.93"/><polygon class="cls-4" points="123.69 94.95 125.58 93.86 125.58 59.34 123.69 60.43 123.69 94.95"/><polygon class="cls-1" points="121.8 93.86 123.69 94.95 123.69 60.43 121.8 59.34 121.8 93.86"/><polygon class="cls-1" points="116.28 78.8 117.82 79.69 117.82 67.39 116.28 66.5 116.28 78.8"/><polygon class="cls-4" points="119.37 78.8 117.82 79.69 117.82 67.39 119.37 66.5 119.37 78.8"/><polygon class="cls-4" points="101.5 68.48 99.96 69.38 99.96 57.08 101.5 56.18 101.5 68.48"/><polygon class="cls-1" points="99.96 69.38 98.41 68.48 98.41 56.18 99.96 57.08 99.96 69.38"/><polygon class="cls-4" points="95.82 71.76 94.27 72.65 94.27 66.35 95.82 65.46 95.82 71.76"/><polygon class="cls-1" points="94.27 72.65 92.73 71.76 92.73 65.46 94.27 66.35 94.27 72.65"/><polygon class="cls-4" points="113.69 81.9 112.14 82.8 112.14 76.49 113.69 75.6 113.69 81.9"/><polygon class="cls-1" points="112.14 82.8 110.6 81.9 110.6 75.6 112.14 76.49 112.14 82.8"/><polygon class="cls-7" points="120.83 65.06 119.2 66 97.04 53.2 98.67 52.27 120.83 65.06"/><polygon class="cls-8" points="97.04 59.16 119.2 71.95 119.2 66 97.04 53.21 97.04 59.16"/><polygon class="cls-9" points="119.2 71.95 120.83 71.01 120.83 65.06 119.2 66 119.2 71.95"/><polygon class="cls-8" points="89.98 64.85 112.14 77.65 112.14 79.63 89.98 66.83 89.98 64.85"/><polygon class="cls-7" points="97.04 60.78 119.2 73.57 112.14 77.65 89.98 64.85 97.04 60.78"/><polygon class="cls-9" points="112.14 77.65 119.2 73.57 119.2 75.56 112.14 79.63 112.14 77.65"/><polygon class="cls-1" points="118.64 66.87 147.32 50.32 147.32 40 118.64 56.56 118.64 66.87"/><polygon class="cls-10" points="118.64 56.56 147.33 40 78.05 0 49.37 16.56 118.64 56.56"/><polygon class="cls-11" points="49.38 26.89 118.64 66.87 118.64 56.56 49.38 16.57 49.38 26.89"/><path class="cls-12" d="M63,29.47a2.65,2.65,0,0,1,1.11,1.86c0,.51-.27.66-.48.7s-1-.1-1.89-.63c-.49-.28-.86-.53-1.1-.69V25.9a11.1,11.1,0,0,1,1.3.65c1.69,1,2,1.87,2,2.36s-.34.68-.92.54Zm-1-.82c.67.39,1.09.31,1.09-.15s-.54-1-1.06-1.34a4.85,4.85,0,0,0-.54-.28v1.48Zm-.51,2A5,5,0,0,0,62,31c.68.39,1.26.48,1.26-.17s-.63-1.24-1.28-1.62l-.48-.27Z"/><path class="cls-12" d="M68.94,33.5c0,1.45-.82,1.59-2,.91A3.52,3.52,0,0,1,65,31.27V28.35l.84.49v2.95a2.24,2.24,0,0,0,1.09,2c.7.4,1.13.23,1.13-.74v-3l.84.49Z"/><path class="cls-12" d="M72.68,33.53a4,4,0,0,0-1-.79c-.66-.38-.93-.2-.93.11s.31.8,1,1.48a3.32,3.32,0,0,1,1.32,2.2c0,.82-.69,1-1.93.31a5.82,5.82,0,0,1-1.35-1.06l.19-.51a5.68,5.68,0,0,0,1.2,1c.66.38,1,.29,1-.15s-.28-.83-.94-1.45a3.56,3.56,0,0,1-1.38-2.2c0-.77.7-1,1.8-.31a5.56,5.56,0,0,1,1.17.89Z"/><path class="cls-12" d="M79.84,37.66a4.37,4.37,0,0,0-1-.79c-.65-.38-.93-.2-.93.12s.31.79,1,1.47a3.3,3.3,0,0,1,1.31,2.2c0,.82-.68,1-1.93.31A6,6,0,0,1,77,39.91l.19-.51a5.21,5.21,0,0,0,1.2,1c.66.38,1,.29,1-.15s-.28-.83-.94-1.45a3.58,3.58,0,0,1-1.39-2.2c0-.78.71-.95,1.8-.31a5.56,5.56,0,0,1,1.17.89Z"/><path class="cls-12" d="M84.45,40.19,83,39.33v4.25l-.84-.49V38.84L80.62,38v-.63l3.83,2.21Z"/><path class="cls-12" d="M89,47l-.88-.51-.5-1.72-1.7-1L85.39,45l-.86-.5,1.7-3.9,1,.59Zm-1.52-2.88L87,42.63c-.11-.38-.2-.77-.28-1.12h0c-.08.25-.16.56-.26.81l-.44,1Z"/><path class="cls-12" d="M92.8,45l-1.5-.86V48.4l-.84-.49V43.66L89,42.8v-.63l3.83,2.21Z"/><path class="cls-12" d="M93.42,44.74l.85.49v4.88l-.85-.49Z"/><path class="cls-12" d="M99.82,50.83c0,1.7-1,2-2.38,1.18a4.58,4.58,0,0,1-2.32-3.82c0-1.54,1-2,2.39-1.16A4.53,4.53,0,0,1,99.82,50.83ZM96,48.68a3.25,3.25,0,0,0,1.47,2.74c1,.56,1.47,0,1.47-1.07a3.25,3.25,0,0,0-1.46-2.74C96.46,47,96,47.73,96,48.68Z"/><path class="cls-12" d="M104.66,56.11l-.85-.49-1.46-3.12c-.33-.73-.66-1.49-.92-2.19h0c0,.65,0,1.29,0,2.14v1.83l-.77-.45V48.94l.91.52,1.45,3.1c.35.74.66,1.48.9,2.13h0a20.47,20.47,0,0,1-.09-2.12v-1.8l.78.45Z"/><polygon class="cls-5" points="126.65 97.27 134.9 102.03 134.9 100.27 126.65 95.51 126.65 97.27"/><polygon class="cls-2" points="137.82 98.58 137.82 100.34 134.9 102.03 134.9 100.27 137.82 98.58"/><polygon class="cls-13" points="129.57 93.82 137.82 98.58 134.9 100.27 126.65 95.51 129.57 93.82"/><polygon class="cls-14" points="129.76 80.48 134.83 83.41 134.83 77.9 129.76 74.97 129.76 80.48"/><polygon class="cls-15" points="129.76 90.64 134.83 93.57 134.83 84.94 129.76 82 129.76 90.64"/><path class="cls-16" d="M131.19,78.46a1.06,1.06,0,0,1,.32.73.38.38,0,0,1-.14.35c-.11.08-.28,0-.54-.11a2.43,2.43,0,0,1-.31-.2V77.1a1.84,1.84,0,0,1,.37.17,1,1,0,0,1,.56.86c0,.21-.1.33-.26.32Zm-.29-.27c.19.11.31,0,.31-.16a.55.55,0,0,0-.3-.5.57.57,0,0,0-.16-.07v.65Zm-.15.93.15.1c.19.11.36.1.36-.19a.71.71,0,0,0-.37-.6l-.14-.08Z"/><path class="cls-16" d="M132.87,79.71c0,.64-.23.78-.57.58a1.28,1.28,0,0,1-.54-1.21V77.79l.24.14v1.3a.87.87,0,0,0,.31.8c.2.11.32,0,.32-.43V78.29l.24.14Z"/><path class="cls-16" d="M133.94,79.38a1.28,1.28,0,0,0-.29-.26c-.18-.11-.26,0-.26.14s.09.32.29.56a1.3,1.3,0,0,1,.37.85c0,.37-.19.52-.55.32a1.32,1.32,0,0,1-.38-.36l0-.24a1.37,1.37,0,0,0,.35.33c.18.11.29,0,.29-.16a.85.85,0,0,0-.27-.56,1.3,1.3,0,0,1-.39-.85c0-.34.2-.48.51-.3a1.22,1.22,0,0,1,.33.29Z"/><path class="cls-1" d="M128.74,95.13l1,.59v-21c0-1.62,1.14-2.27,2.53-1.47a5.6,5.6,0,0,1,2.54,4.4v21l1,.59v-21a7.87,7.87,0,0,0-3.56-6.16c-1.95-1.13-3.55-.21-3.55,2Z"/><path class="cls-17" d="M51,81.4a9.18,9.18,0,0,1,4.16,7.21V90.3l-8.32-4.8V83.8C46.88,81.15,48.74,80.07,51,81.4Z"/><path class="cls-17" d="M18.79,62.78A9.2,9.2,0,0,1,23,70v1.7l-8.33-4.8v-1.7C14.62,62.53,16.48,61.45,18.79,62.78Z"/><path class="cls-1" d="M54.82,89.56a2.35,2.35,0,0,0,1-2.21,7.52,7.52,0,0,0-3.39-5.89,2.45,2.45,0,0,0-2.35-.27l-1.58.93a2.48,2.48,0,0,0-.88,2.12A7.52,7.52,0,0,0,51,90.13a2.49,2.49,0,0,0,2.26.31Z"/><path class="cls-2" d="M49.53,85.33A3.32,3.32,0,0,0,51,88c.84.48,1.51.09,1.51-.87A3.32,3.32,0,0,0,51,84.46C50.2,84,49.53,84.37,49.53,85.33Z"/><path class="cls-1" d="M22.56,70.94a2.39,2.39,0,0,0,1-2.22,7.5,7.5,0,0,0-3.4-5.88,2.4,2.4,0,0,0-2.34-.27l-1.58.92a2.47,2.47,0,0,0-.88,2.13,7.52,7.52,0,0,0,3.4,5.89,2.49,2.49,0,0,0,2.26.31Z"/><path class="cls-2" d="M17.27,66.71a3.34,3.34,0,0,0,1.52,2.62c.83.48,1.51.09,1.51-.87a3.34,3.34,0,0,0-1.51-2.62C18,65.35,17.27,65.74,17.27,66.71Z"/><polygon class="cls-18" points="65.38 89.4 81.92 79.85 81.92 83.54 65.38 93.09 65.38 89.4"/><path class="cls-18" d="M64.47,77.13a4.64,4.64,0,0,1,2.09-3.63l12.35-7.13c1.16-.67,2.1-.13,2.1,1.21v.5L64.47,77.63Z"/><polygon class="cls-2" points="67.48 75.32 77.99 69.25 77.99 67.42 67.48 73.48 67.48 75.32"/><polygon class="cls-19" points="78.82 82.93 81.92 81.14 81.92 83.54 78.82 85.33 78.82 82.93"/><polygon class="cls-20" points="68.49 89.72 78.77 83.79 78.77 85.2 68.49 91.13 68.49 89.72"/><polygon class="cls-21" points="64.47 77.63 81.01 68.08 81.92 79.85 65.38 89.4 65.38 89.4 63.72 88.44 63.72 77.2 64.47 77.63"/><polygon class="cls-22" points="33.5 61.53 33.5 77.78 26.73 73.86 26.73 57.62 33.5 61.53"/><polygon class="cls-23" points="28.07 64.03 32.34 66.49 32.34 62.13 28.07 59.66 28.07 64.03"/><path class="cls-14" d="M26.73,73.87,23,71.68V70a9.2,9.2,0,0,0-4.16-7.2c-2.31-1.33-4.17-.25-4.17,2.4v1.7L8,63.08l-8-5.3V51.2L26.73,66.63Z"/><path class="cls-14" d="M63.72,88.44l1.66,1v6.78L55.2,90.3V88.61A9.18,9.18,0,0,0,51,81.4c-2.3-1.33-4.16-.25-4.16,2.4v1.7L33.5,77.78V70.54L63.72,88Z"/><path class="cls-14" d="M33.5,61.53l-6.77-3.91v5.87L0,48.06v-.24l1.08-8.11c.13-.82.62-1.24,1.38-.8L62.92,73.82a3,3,0,0,1,1.39,2.39l.16,1.42-.75-.43v7.64L33.5,67.4Z"/><polygon class="cls-19" points="26.73 63.49 26.73 66.63 0 51.2 0 48.06 26.73 63.49"/><polygon class="cls-19" points="63.72 84.84 63.72 87.99 33.5 70.54 33.5 67.4 63.72 84.84"/><polygon class="cls-19" points="65.38 90.69 65.38 90.69 68.49 88.9 68.49 91.29 65.38 93.09 64.1 92.35 64.1 89.95 65.38 90.69"/><polygon class="cls-23" points="59.2 90.86 62.12 92.54 62.12 78.11 59.2 76.44 59.2 90.86"/><polygon class="cls-23" points="56.3 89.18 59.2 90.86 59.2 76.44 56.3 74.76 56.3 89.18"/><polygon class="cls-23" points="49.03 75.53 54.94 78.94 54.94 71.87 49.03 68.46 49.03 75.53"/><polygon class="cls-23" points="41.89 71.41 47.79 74.82 47.79 67.75 41.89 64.34 41.89 71.41"/><polygon class="cls-23" points="34.75 67.29 40.65 70.7 40.65 63.62 34.75 60.21 34.75 67.29"/><polygon class="cls-23" points="20.02 58.78 25.35 61.86 25.35 54.79 20.02 51.71 20.02 58.78"/><polygon class="cls-23" points="13.57 55.06 18.9 58.14 18.9 51.07 13.57 47.99 13.57 55.06"/><polygon class="cls-23" points="7.13 51.34 12.46 54.42 12.46 47.34 7.13 44.27 7.13 51.34"/><polygon class="cls-23" points="2.28 48.54 6.01 50.7 6.01 43.62 2.28 41.47 2.28 48.54"/><path class="cls-11" d="M63.44,92v3.09L66,96.55l17.23-9.94v-2a2.11,2.11,0,0,0-1-1.65l-.37-.21v.79L65.33,93.11a1.21,1.21,0,0,0-.26-.2Z"/><polygon class="cls-5" points="56.3 90.94 62.12 94.29 62.12 92.54 56.3 89.18 56.3 90.94"/><path class="cls-24" d="M1.5,38.87h0l0,0Z"/><path class="cls-25" d="M78.91,66.37,66.56,73.5a4.64,4.64,0,0,0-2.09,3.63l0,.12-.12-1a3,3,0,0,0-1.39-2.39L2.46,38.91a.87.87,0,0,0-.92-.08l14.65-8.45a2.38,2.38,0,0,1,2.23.07L80.36,66.2h0A1.48,1.48,0,0,0,78.91,66.37Z"/><polygon class="cls-2" points="80.88 87.4 82.53 86.45 82.53 85.5 80.88 86.45 80.88 87.4"/><polygon class="cls-2" points="68.39 94.62 66.74 95.57 66.74 94.62 68.39 93.67 68.39 94.62"/><polygon class="cls-14" points="72.72 93.34 76.55 91.14 76.55 88.36 72.72 90.56 72.72 93.34"/></g></g></svg>