<svg xmlns="http://www.w3.org/2000/svg" viewBox="0 0 221.54 198.56"><defs><style>.cls-1{fill:#d9ba8c;}.cls-2{fill:#8c7666;}.cls-3{fill:#4cb1da;}.cls-4{fill:#fcd7a1;}.cls-5{fill:#a48b78;}.cls-6{fill:#9fd9f6;}.cls-7{fill:#7ecef4;}.cls-8{fill:#8fc31f;}.cls-9{fill:#036eb8;}.cls-10{fill:#dcdddd;}.cls-11{fill:#595757;}.cls-12{fill:#bfc0c0;}.cls-13{fill:#efefef;}.cls-14{fill:#5887c6;}.cls-15{fill:#2ea7e0;}.cls-16{fill:#fffeee;}.cls-17{fill:#2186b3;}.cls-18{fill:#005794;}.cls-19{fill:#feecd2;}.cls-20{fill:#fff;}</style></defs><title>アセット 52</title><g id="レイヤー_2" data-name="レイヤー 2"><g id="レイヤー_1-2" data-name="レイヤー 1"><polygon class="cls-1" points="0 130.98 78.46 176.28 78.46 117.97 0 72.67 0 130.98"/><polygon class="cls-2" points="0 149.7 78.46 195 78.46 176.28 0 130.98 0 149.7"/><polygon class="cls-3" points="62.87 177.98 78.46 186.98 78.46 152.87 62.87 143.87 62.87 177.98"/><polygon class="cls-3" points="39.29 151.12 44.28 154 44.28 133.13 39.29 130.26 39.29 151.12"/><polygon class="cls-4" points="78.46 176.28 196.63 108.06 196.63 49.74 78.46 117.97 78.46 176.28"/><polygon class="cls-5" points="78.46 195 196.63 126.77 196.63 108.06 78.46 176.28 78.46 195"/><polygon class="cls-6" points="78.46 186.98 94.05 177.98 94.05 143.87 78.46 152.87 78.46 186.98"/><polygon class="cls-7" points="171.14 140.94 191.31 129.3 191.31 87.17 171.14 98.81 171.14 140.94"/><polygon class="cls-6" points="134.02 162.92 148.73 154.43 148.73 111.75 134.02 120.24 134.02 162.92"/><polygon class="cls-8" points="101.44 139.06 166.36 101.57 166.36 93.66 101.44 131.14 101.44 139.06"/><polygon class="cls-6" points="119.31 171.41 134.02 162.92 134.02 120.24 119.31 128.74 119.31 171.41"/><polygon class="cls-7" points="104.61 179.9 119.31 171.41 119.31 128.74 104.61 137.23 104.61 179.9"/><polygon class="cls-7" points="148.73 154.43 163.44 145.93 163.44 103.26 148.73 111.75 148.73 154.43"/><polygon class="cls-9" points="171.14 122.49 191.31 110.84 191.31 106.11 171.14 117.75 171.14 122.49"/><polygon class="cls-9" points="134.02 143.98 148.73 135.49 148.73 130.69 134.02 139.18 134.02 143.98"/><polygon class="cls-9" points="119.31 152.47 134.02 143.98 134.02 139.18 119.31 147.68 119.31 152.47"/><polygon class="cls-9" points="104.61 160.96 119.31 152.47 119.31 147.68 104.61 156.17 104.61 160.96"/><polygon class="cls-9" points="148.73 135.49 163.44 127 163.44 122.2 148.73 130.69 148.73 135.49"/><polygon class="cls-10" points="136.54 145.45 138.71 144.19 138.71 133.81 136.54 135.06 136.54 145.45"/><polygon class="cls-10" points="131.5 148.35 129.34 149.6 129.34 139.22 131.5 137.97 131.5 148.35"/><polygon class="cls-10" points="93.42 176.49 84.64 181.56 84.64 198.56 93.42 193.5 93.42 176.49"/><polygon class="cls-11" points="91.58 179.87 86.48 182.81 86.48 186.35 91.58 183.41 91.58 179.87"/><polygon class="cls-10" points="102.2 171.42 93.42 176.49 93.42 193.5 102.2 188.43 102.2 171.42"/><polygon class="cls-11" points="100.35 174.8 95.26 177.74 95.26 181.28 100.35 178.34 100.35 174.8"/><polygon class="cls-12" points="84.64 181.56 78.46 177.99 78.46 195 84.64 198.56 84.64 181.56"/><polygon class="cls-13" points="93.42 176.49 87.24 172.92 78.46 177.99 84.64 181.56 93.42 176.49"/><polygon class="cls-13" points="102.2 171.42 96.02 167.85 87.24 172.92 93.42 176.49 102.2 171.42"/><polygon class="cls-14" points="87.02 132.35 221.54 54.69 192.65 38 58.13 115.67 87.02 132.35"/><polygon class="cls-15" points="87.02 158.79 221.54 81.13 221.54 71.69 87.02 149.36 87.02 158.79"/><polygon class="cls-9" points="87.02 149.36 221.54 71.69 221.54 54.69 95.2 127.63 87.02 132.35 87.02 149.36"/><polygon class="cls-16" points="128.36 128.96 173.17 103.08 173.17 87.74 128.36 113.62 128.36 128.96"/><polygon class="cls-17" points="58.13 142.11 87.02 158.79 87.02 149.36 58.13 132.68 58.13 142.11"/><polygon class="cls-18" points="58.13 132.68 87.02 149.36 87.02 132.35 58.13 115.67 58.13 132.68"/><polygon class="cls-19" points="78.46 117.97 196.63 49.74 118.17 4.45 0 72.67 78.46 117.97"/><polygon class="cls-9" points="145.31 60.48 74.64 101.28 74.64 110.61 145.31 69.81 145.31 60.48"/><polygon class="cls-14" points="103.05 36.08 32.39 76.88 74.64 101.28 145.31 60.48 103.05 36.08"/><polygon class="cls-18" points="74.64 101.28 32.39 76.88 32.39 86.21 74.64 110.61 74.64 101.28"/><polygon class="cls-5" points="175.03 47.48 181.73 43.6 181.73 53.92 175.03 57.78 175.03 47.48"/><polygon class="cls-2" points="172.04 45.75 175.03 47.48 175.03 57.78 172.04 56.06 172.04 45.75"/><polygon class="cls-9" points="166.62 54.71 194.26 38.75 194.26 4.21 166.62 20.16 166.62 54.71"/><polygon class="cls-20" points="191.81 37.1 191.81 8.68 169.07 21.81 169.07 50.23 191.81 37.1"/><path class="cls-15" d="M173.32,41.21a18.61,18.61,0,0,0-1.84,1.14,17.56,17.56,0,0,1,.26-2.44,20.77,20.77,0,0,1,1.76-5.36c.47-.95.94-1.78,2.19-3.84C176.75,29,177,28.32,177,27.43s-.53-1.25-1.32-.79a2.89,2.89,0,0,0-1.28,1.7,6.9,6.9,0,0,0-.3,1.81l-2.58,1.06a12.62,12.62,0,0,1,.89-4,7.76,7.76,0,0,1,3.26-3.88c1.66-1,2.92-.82,3.54.4a4.42,4.42,0,0,1,.4,2,9,9,0,0,1-1.13,4.26c-.4.8-.53,1-1.78,3.1a15.05,15.05,0,0,0-1.81,3.74l2.87-1.65a18.43,18.43,0,0,0,2-1.27v3.66a19.32,19.32,0,0,0-2.1,1.08Z"/><path class="cls-15" d="M180.65,30.21c.55-1.29.55-1.29,1.18-2.81l2.66-6.46c.59-1.41.83-2,1.15-3l2.51-1.45c-.07,1.18-.09,2-.09,3.27v6.3l.35-.21a10.53,10.53,0,0,0,1.22-.85v3.52a9.46,9.46,0,0,0-1.21.58l-.36.22v1a20.9,20.9,0,0,0,.09,2.33l-2.53,1.46c.07-.69.1-1.53.1-2.48v-.95l-3.47,2a17.4,17.4,0,0,0-1.6,1Zm5.08-5c0-.87,0-1.95.08-2.83-.25.68-.43,1.18-.76,2l-1.8,4.48,2.48-1.43Z"/><polygon class="cls-18" points="159.33 50.5 166.62 54.71 166.62 20.16 159.33 15.96 159.33 50.5"/><polygon class="cls-14" points="159.33 15.96 166.62 20.16 194.26 4.21 186.97 0 159.33 15.96"/></g></g></svg>