<svg xmlns="http://www.w3.org/2000/svg" viewBox="0 0 178.61 209.03"><defs><style>.cls-1{fill:#f4ddd0;}.cls-2{fill:#f8c5ac;}.cls-3{fill:#00a0e9;}.cls-4{fill:#9fa0a0;}.cls-5{fill:#9fd9f6;}.cls-6{fill:#7ecef4;}.cls-7{fill:#8c7666;}.cls-8{fill:#a48b78;}.cls-9{fill:#705f51;}.cls-10{fill:#d6ab96;}.cls-11{fill:#727171;}.cls-12{fill:#fce4d6;}</style></defs><title>アセット 49</title><g id="レイヤー_2" data-name="レイヤー 2"><g id="レイヤー_1-2" data-name="レイヤー 1"><polygon class="cls-1" points="89.23 37.01 139.8 66.2 178.61 43.8 128.04 14.6 89.23 37.01"/><polygon class="cls-2" points="89.38 95.31 89.38 58.3 139.79 29.19 139.79 66.21 178.61 43.8 178.61 135.1 50.56 209.03 50.56 117.72 89.38 95.31"/><polygon class="cls-3" points="104.81 65.37 111.85 61.3 111.85 52.5 117.32 49.34 117.32 58.14 124.36 54.08 124.36 60.92 117.32 64.98 117.32 73.78 111.85 76.95 111.85 68.15 104.81 72.21 104.81 65.37"/><polygon class="cls-4" points="164.64 72.07 171.96 67.84 171.96 56.02 164.64 60.24 164.64 72.07"/><polygon class="cls-4" points="151.21 79.83 158.53 75.6 158.53 63.77 151.21 68 151.21 79.83"/><polygon class="cls-4" points="137.78 87.58 145.1 83.35 145.1 71.52 137.78 75.75 137.78 87.58"/><polygon class="cls-4" points="124.35 95.33 131.68 91.1 131.68 79.27 124.35 83.5 124.35 95.33"/><polygon class="cls-4" points="110.92 103.08 118.25 98.85 118.25 87.03 110.92 91.25 110.92 103.08"/><polygon class="cls-4" points="97.5 110.84 104.82 106.61 104.82 94.78 97.5 99.01 97.5 110.84"/><polygon class="cls-4" points="84.07 118.59 91.39 114.36 91.39 102.53 84.07 106.76 84.07 118.59"/><polygon class="cls-4" points="70.64 126.34 77.97 122.11 77.97 110.28 70.64 114.51 70.64 126.34"/><polygon class="cls-4" points="57.21 134.09 64.54 129.87 64.54 118.04 57.21 122.27 57.21 134.09"/><polygon class="cls-4" points="164.64 92.21 171.96 87.98 171.96 76.16 164.64 80.39 164.64 92.21"/><polygon class="cls-4" points="151.21 99.97 158.53 95.74 158.53 83.91 151.21 88.14 151.21 99.97"/><polygon class="cls-4" points="137.78 107.72 145.1 103.49 145.1 91.66 137.78 95.89 137.78 107.72"/><polygon class="cls-4" points="124.35 115.47 131.68 111.24 131.68 99.42 124.35 103.64 124.35 115.47"/><polygon class="cls-4" points="110.92 123.23 118.25 119 118.25 107.17 110.92 111.4 110.92 123.23"/><polygon class="cls-4" points="97.5 130.98 104.82 126.75 104.82 114.92 97.5 119.15 97.5 130.98"/><polygon class="cls-4" points="84.07 138.73 91.39 134.5 91.39 122.67 84.07 126.9 84.07 138.73"/><polygon class="cls-4" points="70.64 146.48 77.97 142.25 77.97 130.43 70.64 134.66 70.64 146.48"/><polygon class="cls-4" points="57.21 154.24 64.54 150.01 64.54 138.18 57.21 142.41 57.21 154.24"/><polygon class="cls-4" points="164.64 112.36 171.96 108.13 171.96 96.3 164.64 100.53 164.64 112.36"/><polygon class="cls-4" points="151.21 120.11 158.53 115.88 158.53 104.05 151.21 108.28 151.21 120.11"/><polygon class="cls-4" points="70.64 166.63 77.97 162.4 77.97 150.57 70.64 154.8 70.64 166.63"/><polygon class="cls-4" points="57.21 174.38 64.54 170.15 64.54 158.32 57.21 162.55 57.21 174.38"/><polygon class="cls-4" points="164.64 132.5 171.96 128.27 171.96 116.44 164.64 120.67 164.64 132.5"/><polygon class="cls-4" points="151.21 140.25 158.53 136.02 158.53 124.19 151.21 128.42 151.21 140.25"/><polygon class="cls-4" points="70.64 186.77 77.97 182.54 77.97 170.71 70.64 174.94 70.64 186.77"/><polygon class="cls-4" points="57.21 194.52 64.54 190.29 64.54 178.46 57.21 182.69 57.21 194.52"/><polygon class="cls-5" points="102.67 178.94 114.58 172.06 114.58 143.88 102.67 150.76 102.67 178.94"/><polygon class="cls-5" points="114.58 172.06 126.5 165.19 126.5 137.01 114.58 143.88 114.58 172.06"/><polygon class="cls-6" points="126.5 165.19 138.41 158.31 138.41 130.13 126.5 137.01 126.5 165.19"/><polygon class="cls-6" points="90.76 185.82 102.67 178.94 102.67 150.76 90.76 157.64 90.76 185.82"/><polygon class="cls-7" points="95.69 163.08 155.03 128.82 155.03 117.7 95.69 151.96 95.69 163.08"/><polygon class="cls-8" points="95.69 151.96 155.03 117.7 144.26 111.48 84.91 145.74 95.69 151.96"/><polygon class="cls-9" points="84.91 156.86 95.69 163.08 95.69 151.96 84.91 145.74 84.91 156.86"/><polygon class="cls-10" points="38.81 66.12 89.38 95.31 89.38 58.3 38.81 29.11 38.81 66.12"/><polygon class="cls-11" points="78.01 62.52 81.72 64.67 81.72 61.2 78.01 59.06 78.01 62.52"/><polygon class="cls-11" points="62.24 53.41 65.95 55.56 65.95 52.09 62.24 49.95 62.24 53.41"/><polygon class="cls-11" points="46.47 44.31 50.18 46.45 50.18 42.99 46.47 40.84 46.47 44.31"/><polygon class="cls-11" points="78.01 79.33 81.72 81.47 81.72 78 78.01 75.86 78.01 79.33"/><polygon class="cls-11" points="62.24 70.22 65.95 72.36 65.95 68.9 62.24 66.75 62.24 70.22"/><polygon class="cls-11" points="46.47 61.11 50.18 63.26 50.18 59.79 46.47 57.65 46.47 61.11"/><polygon class="cls-1" points="0 88.53 50.56 117.72 89.38 95.31 38.81 66.12 0 88.53"/><polygon class="cls-12" points="38.81 29.11 89.38 58.3 139.79 29.19 89.23 0 38.81 29.11"/><polygon class="cls-10" points="0 179.83 50.56 209.03 50.56 117.72 0 88.53 0 179.83"/><polygon class="cls-11" points="39.2 131.37 42.91 133.52 42.91 121.69 39.2 119.54 39.2 131.37"/><polygon class="cls-11" points="23.43 122.27 27.14 124.41 27.14 112.58 23.43 110.44 23.43 122.27"/><polygon class="cls-11" points="7.65 113.16 11.37 115.3 11.37 103.47 7.65 101.33 7.65 113.16"/><polygon class="cls-11" points="39.2 151.51 42.91 153.66 42.91 141.83 39.2 139.69 39.2 151.51"/><polygon class="cls-11" points="23.43 142.41 27.14 144.55 27.14 132.72 23.43 130.58 23.43 142.41"/><polygon class="cls-11" points="7.65 133.3 11.37 135.44 11.37 123.61 7.65 121.47 7.65 133.3"/><polygon class="cls-11" points="39.2 171.66 42.91 173.8 42.91 161.97 39.2 159.83 39.2 171.66"/><polygon class="cls-11" points="23.43 162.55 27.14 164.69 27.14 152.86 23.43 150.72 23.43 162.55"/><polygon class="cls-11" points="7.65 153.44 11.37 155.59 11.37 143.76 7.65 141.62 7.65 153.44"/><polygon class="cls-11" points="39.2 191.8 42.91 193.94 42.91 182.11 39.2 179.97 39.2 191.8"/><polygon class="cls-11" points="23.43 182.69 27.14 184.84 27.14 173.01 23.43 170.86 23.43 182.69"/><polygon class="cls-11" points="7.65 173.59 11.37 175.73 11.37 163.9 7.65 161.76 7.65 173.59"/></g></g></svg>