<svg xmlns="http://www.w3.org/2000/svg" viewBox="0 0 139.34 131.13"><defs><style>.cls-1{fill:#eaf6fd;}.cls-2{fill:#d3edfb;}.cls-3{fill:#aaabab;}.cls-4{fill:#bfc0c0;}.cls-5{fill:#e6e6e6;}.cls-6{fill:#dcdddd;}.cls-7{fill:#9fa0a0;}.cls-8{fill:#fff;}.cls-9{fill:#727171;}.cls-10{fill:#efefef;}.cls-11{fill:#3e3a39;}.cls-12{fill:#bae3f9;}.cls-13{fill:#9fd9f6;}.cls-14{fill:#666464;}.cls-15{fill:#898989;}.cls-16{fill:#b5b5b6;}.cls-17{fill:#c9caca;}</style></defs><title>アセット 33</title><g id="レイヤー_2" data-name="レイヤー 2"><g id="レイヤー_1-2" data-name="レイヤー 1"><polygon class="cls-1" points="81.98 110.91 103.49 98.5 103.49 118.71 81.98 131.13 81.98 110.91"/><polygon class="cls-2" points="6.96 67.6 81.98 110.91 81.98 131.13 6.96 87.82 6.96 67.6"/><polygon class="cls-3" points="66.96 112.93 84.61 123.12 84.61 117.46 66.96 107.27 66.96 112.93"/><polygon class="cls-4" points="84.61 123.12 88.57 120.84 88.57 115.18 84.61 117.46 84.61 123.12"/><polygon class="cls-5" points="84.61 117.79 90.39 114.45 70.92 103.2 65.13 106.54 84.61 117.79"/><polygon class="cls-6" points="65.13 107.59 84.61 118.83 84.61 117.79 65.13 106.54 65.13 107.59"/><polygon class="cls-7" points="69.53 106.11 69.53 101.18 70.54 101.76 70.54 106.69 71.22 107.08 71.22 107.65 68.85 106.28 68.85 105.72 69.53 106.11"/><polygon class="cls-8" points="66.25 103.94 72.05 107.28 72.05 102.35 66.25 99 66.25 103.94"/><polygon class="cls-9" points="66.76 103.25 71.54 106 71.54 102.69 66.76 99.94 66.76 103.25"/><polygon class="cls-8" points="72.05 107.28 72.94 106.77 72.94 101.83 72.05 102.35 72.05 107.28"/><polygon class="cls-8" points="72.05 102.35 72.94 101.83 67.15 98.48 66.25 99 72.05 102.35"/><polygon class="cls-10" points="84.61 118.83 90.39 115.49 90.39 114.45 84.61 117.79 84.61 118.83"/><polygon class="cls-7" points="76.31 110.02 76.31 105.09 77.31 105.67 77.31 110.6 77.98 110.99 77.98 111.56 75.63 110.19 75.63 109.63 76.31 110.02"/><polygon class="cls-8" points="73.02 107.84 78.82 111.19 78.82 106.26 73.02 102.91 73.02 107.84"/><polygon class="cls-9" points="73.53 107.15 78.31 109.91 78.31 106.6 73.53 103.84 73.53 107.15"/><polygon class="cls-8" points="78.82 111.19 79.71 110.67 79.71 105.74 78.82 106.26 78.82 111.19"/><polygon class="cls-8" points="78.82 106.26 79.71 105.74 73.92 102.39 73.02 102.91 78.82 106.26"/><polygon class="cls-7" points="83.08 113.93 83.08 109 84.08 109.58 84.08 114.51 84.76 114.9 84.76 115.47 82.4 114.1 82.4 113.54 83.08 113.93"/><polygon class="cls-8" points="79.79 111.75 85.59 115.1 85.59 110.17 79.79 106.82 79.79 111.75"/><polygon class="cls-9" points="80.3 111.06 85.08 113.82 85.08 110.51 80.3 107.75 80.3 111.06"/><polygon class="cls-8" points="85.59 115.1 86.49 114.58 86.49 109.65 85.59 110.17 85.59 115.1"/><polygon class="cls-8" points="85.59 110.17 86.49 109.65 80.69 106.31 79.79 106.82 85.59 110.17"/><polygon class="cls-3" points="79 105.98 96.65 116.17 96.65 110.51 79 100.32 79 105.98"/><polygon class="cls-4" points="96.65 116.17 100.61 113.88 100.61 108.23 96.65 110.51 96.65 116.17"/><polygon class="cls-5" points="96.65 110.84 102.44 107.5 82.96 96.25 77.17 99.59 96.65 110.84"/><polygon class="cls-6" points="77.17 100.63 96.65 111.88 96.65 110.84 77.17 99.59 77.17 100.63"/><polygon class="cls-7" points="81.57 99.16 81.57 94.23 82.58 94.81 82.58 99.74 83.26 100.13 83.26 100.7 80.9 99.33 80.9 98.77 81.57 99.16"/><polygon class="cls-8" points="78.29 96.98 84.09 100.33 84.09 95.4 78.29 92.05 78.29 96.98"/><polygon class="cls-9" points="78.8 96.29 83.58 99.05 83.58 95.74 78.8 92.98 78.8 96.29"/><polygon class="cls-8" points="84.09 100.33 84.98 99.81 84.98 94.88 84.09 95.4 84.09 100.33"/><polygon class="cls-8" points="84.09 95.4 84.98 94.88 79.19 91.53 78.29 92.05 84.09 95.4"/><polygon class="cls-10" points="96.65 111.88 102.44 108.54 102.44 107.5 96.65 110.84 96.65 111.88"/><polygon class="cls-7" points="88.35 103.07 88.35 98.14 89.35 98.72 89.35 103.65 90.03 104.04 90.03 104.61 87.67 103.24 87.67 102.68 88.35 103.07"/><polygon class="cls-8" points="85.06 100.89 90.86 104.24 90.86 99.31 85.06 95.96 85.06 100.89"/><polygon class="cls-9" points="85.57 100.2 90.35 102.96 90.35 99.65 85.57 96.89 85.57 100.2"/><polygon class="cls-8" points="90.86 104.24 91.75 103.72 91.75 98.79 90.86 99.31 90.86 104.24"/><polygon class="cls-8" points="90.86 99.31 91.75 98.79 85.96 95.44 85.06 95.96 90.86 99.31"/><polygon class="cls-7" points="95.12 106.98 95.12 102.05 96.12 102.63 96.12 107.56 96.8 107.95 96.8 108.52 94.44 107.15 94.44 106.59 95.12 106.98"/><polygon class="cls-8" points="91.83 104.8 97.63 108.15 97.63 103.22 91.83 99.87 91.83 104.8"/><polygon class="cls-9" points="92.34 104.11 97.12 106.87 97.12 103.56 92.34 100.8 92.34 104.11"/><polygon class="cls-8" points="97.63 108.15 98.53 107.63 98.53 102.7 97.63 103.22 97.63 108.15"/><polygon class="cls-8" points="97.63 103.22 98.53 102.7 92.73 99.35 91.83 99.87 97.63 103.22"/><polygon class="cls-8" points="21.22 79.73 19.5 78.74 19.5 75.08 21.22 76.07 21.22 79.73"/><polygon class="cls-9" points="20.85 78.78 19.87 78.21 19.87 76.03 20.85 76.6 20.85 78.78"/><polygon class="cls-8" points="23.42 81 21.69 80.01 21.69 76.35 23.42 77.34 23.42 81"/><polygon class="cls-9" points="23.04 80.05 22.07 79.48 22.07 77.3 23.04 77.86 23.04 80.05"/><polygon class="cls-8" points="25.61 82.27 23.89 81.28 23.89 77.61 25.61 78.61 25.61 82.27"/><polygon class="cls-9" points="25.24 81.32 24.27 80.75 24.27 78.57 25.24 79.14 25.24 81.32"/><polygon class="cls-8" points="27.78 83.52 26.06 82.53 26.06 78.87 27.78 79.86 27.78 83.52"/><polygon class="cls-9" points="27.41 82.57 26.43 82 26.43 79.82 27.41 80.39 27.41 82.57"/><polygon class="cls-8" points="29.95 84.78 28.23 83.78 28.23 80.12 29.95 81.11 29.95 84.78"/><polygon class="cls-9" points="29.58 83.82 28.6 83.25 28.6 81.07 29.58 81.64 29.58 83.82"/><polygon class="cls-11" points="32.23 86.09 30.5 85.09 30.5 81.43 32.23 82.43 32.23 86.09"/><polygon class="cls-7" points="31.85 85.13 30.87 84.57 30.87 82.39 31.85 82.95 31.85 85.13"/><polygon class="cls-11" points="34.42 87.36 32.7 86.36 32.7 82.7 34.42 83.69 34.42 87.36"/><polygon class="cls-7" points="34.05 86.4 33.07 85.84 33.07 83.66 34.05 84.22 34.05 86.4"/><polygon class="cls-11" points="36.62 88.63 34.9 87.63 34.9 83.97 36.62 84.96 36.62 88.63"/><polygon class="cls-7" points="36.25 87.67 35.27 87.11 35.27 84.93 36.25 85.49 36.25 87.67"/><polygon class="cls-3" points="37.6 95.98 19.95 85.79 19.95 80.13 37.6 90.32 37.6 95.98"/><polygon class="cls-6" points="38.51 90.85 19.03 79.6 19.03 78.56 38.51 89.81 38.51 90.85"/><polygon class="cls-11" points="81.98 83.38 81.98 110.91 60.47 98.5 60.47 118.71 28.47 100.24 28.47 80.02 6.96 67.6 6.96 40.07 81.98 83.38"/><polygon class="cls-8" points="67.16 115.3 61.06 103.63 61.06 102.33 67.16 114 67.16 115.3"/><polygon class="cls-8" points="67.16 120.04 61.06 108.37 61.06 107.59 67.16 119.26 67.16 120.04"/><polygon class="cls-8" points="27.93 92.65 21.84 80.98 21.84 79.68 27.93 91.36 27.93 92.65"/><polygon class="cls-8" points="27.93 97.4 21.84 85.72 21.84 84.94 27.93 96.62 27.93 97.4"/><polygon class="cls-8" points="20.76 88.51 14.67 76.84 14.67 75.54 20.76 87.22 20.76 88.51"/><polygon class="cls-8" points="20.76 93.26 14.67 81.59 14.67 80.8 20.76 92.47 20.76 93.26"/><polygon class="cls-8" points="13.72 84.44 7.63 72.77 7.63 71.48 13.72 83.15 13.72 84.44"/><polygon class="cls-8" points="13.72 89.19 7.63 77.52 7.63 76.74 13.72 88.41 13.72 89.19"/><polygon class="cls-8" points="74.34 119.45 68.25 107.78 68.25 106.48 74.34 118.15 74.34 119.45"/><polygon class="cls-8" points="74.34 124.19 68.25 112.52 68.25 111.74 74.34 123.41 74.34 124.19"/><polygon class="cls-8" points="81.53 123.6 75.44 111.92 75.44 110.63 81.53 122.3 81.53 123.6"/><polygon class="cls-8" points="81.53 128.34 75.44 116.67 75.44 115.89 81.53 127.56 81.53 128.34"/><polygon class="cls-12" points="44.47 89.26 53.5 94.47 53.5 114.69 44.47 109.48 44.47 89.26"/><polygon class="cls-13" points="35.44 84.05 44.47 89.26 44.47 109.48 35.44 104.27 35.44 84.05"/><polygon class="cls-8" points="45.69 101.59 47.94 102.89 47.94 100.44 45.69 99.13 45.69 101.59"/><polygon class="cls-8" points="40.97 98.86 43.22 100.16 43.22 97.71 40.97 96.41 40.97 98.86"/><polygon class="cls-13" points="81.98 90.7 81.98 110.91 74.81 106.78 74.81 86.56 81.98 90.7"/><polygon class="cls-12" points="74.81 86.56 74.81 106.78 67.64 102.64 67.64 82.42 74.81 86.56"/><polygon class="cls-13" points="67.64 82.42 67.64 102.64 60.47 98.5 60.47 78.28 67.64 82.42"/><polygon class="cls-13" points="28.47 59.8 28.47 80.02 21.3 75.89 21.3 55.67 28.47 59.8"/><polygon class="cls-12" points="21.3 55.67 21.3 75.89 14.13 71.75 14.13 51.52 21.3 55.67"/><polygon class="cls-13" points="14.13 51.52 14.13 71.75 6.96 67.6 6.96 47.39 14.13 51.52"/><polygon class="cls-14" points="132.38 54.28 132.38 102.03 103.49 118.71 103.49 98.5 81.98 110.91 81.98 83.38 132.38 54.28"/><polygon class="cls-8" points="102.94 111.75 96.85 107.11 96.85 105.81 102.94 110.45 102.94 111.75"/><polygon class="cls-8" points="102.94 116.49 96.85 111.86 96.85 111.08 102.94 115.71 102.94 116.49"/><polygon class="cls-8" points="95.77 115.89 89.68 111.25 89.68 109.96 95.77 114.59 95.77 115.89"/><polygon class="cls-8" points="95.77 120.63 89.68 116 89.68 115.22 95.77 119.85 95.77 120.63"/><polygon class="cls-8" points="88.73 119.95 82.64 115.31 82.64 114.02 88.73 118.66 88.73 119.95"/><polygon class="cls-8" points="88.73 124.7 82.64 120.06 82.64 119.28 88.73 123.92 88.73 124.7"/><polygon class="cls-12" points="103.49 78.28 103.49 98.5 96.32 102.63 96.32 82.42 103.49 78.28"/><polygon class="cls-2" points="96.32 82.42 96.32 102.63 89.15 106.77 89.15 86.56 96.32 82.42"/><polygon class="cls-12" points="89.15 86.56 89.15 106.77 81.98 110.91 81.98 90.69 89.15 86.56"/><polygon class="cls-8" points="32.53 70.98 56.4 84.76 49.18 88.93 25.31 75.14 32.53 70.98"/><polygon class="cls-6" points="25.31 75.14 49.18 88.93 49.18 97.09 25.31 83.31 25.31 75.14"/><polygon class="cls-10" points="49.18 88.93 56.4 84.76 56.4 92.92 49.18 97.09 49.18 88.93"/><polygon class="cls-15" points="1.91 34.93 81.98 81.16 81.98 86.3 1.91 40.07 1.91 34.93"/><polygon class="cls-16" points="81.98 81.16 137.44 49.14 137.44 54.28 81.98 86.3 81.98 81.16"/><polygon class="cls-5" points="0 33.12 57.37 0 139.34 47.33 81.98 80.45 0 33.12"/><polygon class="cls-3" points="0.02 33.13 81.98 80.45 81.98 82.25 0.02 34.94 0.02 33.13"/><polygon class="cls-17" points="81.98 80.45 139.33 47.34 139.33 49.14 81.98 82.25 81.98 80.45"/></g></g></svg>