<svg xmlns="http://www.w3.org/2000/svg" viewBox="0 0 146.08 122.16"><defs><style>.cls-1{fill:#bb6544;}.cls-2{fill:#a95b3d;}.cls-3{fill:#c9caca;}.cls-4{fill:#944e33;}.cls-5{fill:#9fd9f6;}.cls-6{fill:#9fa0a0;}.cls-7{fill:#dcdddd;}.cls-8{fill:#efefef;}.cls-9{fill:#e60012;}.cls-10{fill:#d2aa92;}.cls-11{fill:#be9a85;}.cls-12{fill:#3e3a39;}.cls-13{fill:#b5b5b6;}.cls-14{fill:#595757;}.cls-15{fill:#c7000b;}.cls-16{fill:#d7000f;}.cls-17{fill:#bf0008;}.cls-18{fill:#93b4c5;}.cls-19{fill:#f8b62d;}.cls-20{fill:#a6bbc7;}.cls-21{fill:#e6e4cf;}.cls-22{fill:#e6e6e6;}.cls-23{fill:#ed6d46;}.cls-24{fill:#898989;}.cls-25{fill:#efeee8;}.cls-26{fill:#fff;}.cls-27{fill:none;}.cls-28{fill:#707f87;}.cls-29{fill:#f8f7f0;}</style></defs><title>アセット 35</title><g id="レイヤー_2" data-name="レイヤー 2"><g id="レイヤー_1-2" data-name="レイヤー 1"><polygon class="cls-1" points="128.84 32.28 89.64 54.91 33.73 22.63 72.93 0 128.84 32.28"/><polygon class="cls-2" points="128.84 32.28 128.84 80.06 89.64 102.69 89.64 54.91 128.84 32.28"/><polygon class="cls-3" points="103.81 58.66 107.41 56.58 107.41 50.36 103.81 52.43 103.81 58.66"/><polygon class="cls-3" points="94.19 64.21 97.78 62.14 97.78 55.92 94.19 57.99 94.19 64.21"/><polygon class="cls-3" points="103.81 81.83 107.41 79.76 107.41 73.53 103.81 75.61 103.81 81.83"/><polygon class="cls-3" points="94.19 87.39 97.78 85.31 97.78 79.09 94.19 81.16 94.19 87.39"/><polygon class="cls-4" points="33.73 22.63 89.64 54.91 89.64 71.84 89.64 102.69 68.8 90.66 68.8 59.81 33.73 39.56 33.73 22.63"/><polygon class="cls-5" points="79.65 81.54 83.24 83.61 83.24 77.39 79.65 75.32 79.65 81.54"/><polygon class="cls-5" points="71.75 76.98 75.34 79.05 75.34 72.83 71.75 70.75 71.75 76.98"/><polygon class="cls-6" points="79.65 61.07 83.24 63.15 83.24 56.93 79.65 54.85 79.65 61.07"/><polygon class="cls-6" points="71.75 56.51 75.34 58.59 75.34 52.36 71.75 50.29 71.75 56.51"/><polygon class="cls-6" points="63.84 51.95 67.44 54.02 67.44 47.8 63.84 45.73 63.84 51.95"/><polygon class="cls-6" points="55.94 47.38 59.53 49.46 59.53 43.24 55.94 41.16 55.94 47.38"/><polygon class="cls-6" points="48.03 42.82 51.63 44.9 51.63 38.67 48.03 36.6 48.03 42.82"/><polygon class="cls-6" points="40.13 38.26 43.72 40.33 43.72 34.11 40.13 32.04 40.13 38.26"/><polygon class="cls-7" points="90.48 41.03 85.12 44.13 85.12 52.3 90.48 49.2 90.48 41.03"/><polygon class="cls-8" points="43.07 13.66 37.71 16.76 85.12 44.13 90.48 41.03 43.07 13.66"/><polygon class="cls-3" points="85.12 44.13 37.71 16.76 37.71 24.93 85.12 52.3 85.12 44.13"/><path class="cls-9" d="M44.59,26a4.16,4.16,0,0,0,0,.7l-.72-.42a3.26,3.26,0,0,0,0-.64V23.17a4.4,4.4,0,0,0,0-.64l.61.37,1.35.78a6.52,6.52,0,0,0,.66.35v.64a6.07,6.07,0,0,0-.66-.42l-1.28-.74v1l1,.59a5,5,0,0,0,.66.35v.63a6.12,6.12,0,0,0-.66-.41l-1-.6Z"/><path class="cls-9" d="M47.75,24.77a2.89,2.89,0,0,0,0,.58v2.53a3.69,3.69,0,0,0,0,.63L47,28.09a2.82,2.82,0,0,0,.05-.58V25a3.65,3.65,0,0,0-.05-.63Z"/><path class="cls-9" d="M50.88,30.32a5.75,5.75,0,0,0-.25-.9c-.26-.8-.43-1.07-.8-1.28l-.72-.42v1a3.9,3.9,0,0,0,0,.64l-.72-.42a3,3,0,0,0,0-.58V25.78a4.49,4.49,0,0,0,0-.64l.62.38,1.16.66a2,2,0,0,1,1.14,1.65c0,.3-.08.49-.24.56a.81.81,0,0,1-.54,0c.31.27.4.46.88,1.83l.22.6Zm-.8-2.58a.57.57,0,0,0,.46.1q.15-.06.15-.33a1,1,0,0,0-.59-.85l-1-.57v1.09Z"/><path class="cls-9" d="M54.9,32.67c-.18-.12-.33-.22-.63-.39l-1.5-.87-.61-.34a3.18,3.18,0,0,0,0-.6V27.93a4.26,4.26,0,0,0,0-.63l.61.36,1.46.85c.24.13.4.22.62.32v.62c-.19-.12-.34-.23-.62-.39l-1.39-.8v1l1.17.68a5.36,5.36,0,0,0,.63.32v.62a6.68,6.68,0,0,0-.63-.39l-1.18-.68v1.11l1.45.83a6.59,6.59,0,0,0,.62.33Z"/><path class="cls-9" d="M57.64,33.06a1.13,1.13,0,0,0,.13.48,1.82,1.82,0,0,0,.71.69c.48.28.77.23.77-.12a.88.88,0,0,0-.24-.57,7.68,7.68,0,0,0-.84-.72,3.81,3.81,0,0,1-.73-.7,1.62,1.62,0,0,1-.37-1c0-.65.54-.77,1.37-.29A3.07,3.07,0,0,1,59.64,32a2.1,2.1,0,0,1,.23.68l-.68-.31A1.11,1.11,0,0,0,59,32a1.76,1.76,0,0,0-.6-.58c-.42-.24-.7-.2-.7.11a.89.89,0,0,0,.32.62c.11.1.15.14.68.56a4.9,4.9,0,0,1,.79.74,1.7,1.7,0,0,1,.4,1c0,.34-.11.55-.31.63a1.53,1.53,0,0,1-1.15-.31,4.08,4.08,0,0,1-1-.83,2.28,2.28,0,0,1-.42-.78,1.9,1.9,0,0,1-.1-.45Z"/><path class="cls-9" d="M62.21,36.25a4.22,4.22,0,0,0,0,.64l-.73-.43a3.27,3.27,0,0,0,0-.59V33.3l-.65-.37a5.66,5.66,0,0,0-.66-.35V32c.17.12.38.25.65.41l1.91,1.1c.35.2.53.3.71.38v.63c-.18-.12-.36-.24-.71-.44l-.6-.35Z"/><path class="cls-9" d="M66.12,39.12a4.07,4.07,0,0,0-.14-.58l-.19-.62L64.25,37l-.2.4a1.81,1.81,0,0,0-.14.41l-.79-.45a2.73,2.73,0,0,0,.25-.41l1.06-2.1a1.32,1.32,0,0,0,.16-.39l.84.48a3.92,3.92,0,0,0,.16.57l1.07,3.34c.12.37.18.53.25.7Zm-1-3.53c0-.06,0-.13-.09-.32a1.21,1.21,0,0,0-.09.22l-.5,1.1,1.2.69Z"/><path class="cls-9" d="M68.47,39.86a4.14,4.14,0,0,0,0,.64l-.73-.42a4.87,4.87,0,0,0,0-.6V36.92l-.66-.38c-.28-.16-.49-.27-.66-.35v-.63c.18.13.39.25.66.41l1.91,1.11c.35.19.52.29.71.37v.63c-.18-.12-.36-.24-.71-.44l-.6-.35Z"/><path class="cls-9" d="M70.93,38.15a2.89,2.89,0,0,0,0,.58v2.53a3.69,3.69,0,0,0,0,.63l-.74-.42a3,3,0,0,0,0-.58V38.35a3.77,3.77,0,0,0,0-.63Z"/><path class="cls-9" d="M74.54,40.63a3.25,3.25,0,0,1,.54,1.78c0,1.19-.71,1.55-1.8.92a3.55,3.55,0,0,1-1.8-3c0-.6.2-1,.55-1.15a1.48,1.48,0,0,1,1.25.25A3.45,3.45,0,0,1,74.54,40.63ZM74.41,42A2.47,2.47,0,0,0,74,40.71a2.21,2.21,0,0,0-.74-.72c-.7-.4-1.14-.12-1.14.73a2.52,2.52,0,0,0,.39,1.34,2.34,2.34,0,0,0,.75.72C74,43.18,74.41,42.89,74.41,42Z"/><path class="cls-9" d="M78.16,46.07c-.08-.21-.17-.39-.31-.68l-1.24-2.55c-.09-.19-.21-.46-.33-.75a2.14,2.14,0,0,1,0,.25c0,.09,0,.31,0,.41V44.3a4.73,4.73,0,0,0,0,.73l-.71-.41a5.05,5.05,0,0,0,0-.69V41.5a4,4,0,0,0,0-.62l.75.43a6.11,6.11,0,0,0,.3.67l1.22,2.5c.11.23.27.57.37.81,0-.19,0-.48,0-.68V43a4.3,4.3,0,0,0,0-.67l.7.4a5.29,5.29,0,0,0,0,.63v2.49a5.41,5.41,0,0,0,0,.63Z"/><polygon class="cls-10" points="2.59 66.53 36.33 47.05 36.33 71.91 2.59 91.38 2.59 66.53"/><polygon class="cls-11" points="0 65.03 2.59 66.52 2.59 91.38 0 89.89 0 65.03"/><polygon class="cls-12" points="28.25 92.99 22 96.6 22 92.36 28.25 88.75 28.25 92.99"/><polygon class="cls-12" points="44.73 83.47 38.48 87.08 38.48 82.84 44.73 79.23 44.73 83.47"/><path class="cls-12" d="M26.4,91.73l-1.16-.68a1.48,1.48,0,0,0-1.67.08A4.87,4.87,0,0,0,21.36,95a1.49,1.49,0,0,0,.72,1.47l1.29.77v0A1.53,1.53,0,0,0,25,97a4.88,4.88,0,0,0,2.21-3.83A1.47,1.47,0,0,0,26.4,91.73Z"/><path class="cls-13" d="M26.16,93.79A2.67,2.67,0,0,1,25,95.88c-.67.39-1.21.08-1.21-.7A2.67,2.67,0,0,1,25,93.09C25.62,92.71,26.16,93,26.16,93.79Z"/><path class="cls-14" d="M25.46,94.2a1.1,1.1,0,0,1-.5.87c-.28.16-.51,0-.51-.29a1.11,1.11,0,0,1,.51-.87C25.24,93.75,25.46,93.88,25.46,94.2Z"/><path class="cls-12" d="M43,82.17l-1.17-.69a1.49,1.49,0,0,0-1.67.09,4.88,4.88,0,0,0-2.21,3.83,1.51,1.51,0,0,0,.72,1.47l1.3.76h0a1.54,1.54,0,0,0,1.58-.14,4.91,4.91,0,0,0,2.22-3.83A1.49,1.49,0,0,0,43,82.17Z"/><path class="cls-13" d="M42.73,84.23a2.67,2.67,0,0,1-1.21,2.09c-.66.38-1.21.07-1.21-.7a2.68,2.68,0,0,1,1.21-2.09C42.19,83.14,42.73,83.46,42.73,84.23Z"/><path class="cls-14" d="M42,84.63a1.1,1.1,0,0,1-.51.87c-.28.17-.5,0-.5-.29a1.1,1.1,0,0,1,.5-.87C41.8,84.18,42,84.31,42,84.63Z"/><path class="cls-7" d="M10.65,84.88l-1.79-1A1.89,1.89,0,0,1,8,82.37V79.79c0-.55.38-.77.85-.5l1.79,1a.43.43,0,0,1,.18.33c0,.12-.08.17-.18.11l-1.79-1c-.26-.16-.48,0-.48.27v2.58a1.1,1.1,0,0,0,.48.84l1.79,1a.41.41,0,0,1,.18.32C10.83,84.89,10.75,84.94,10.65,84.88Z"/><path class="cls-15" d="M8.84,82.37c0,.3-.21.42-.47.27L8,82.42a1,1,0,0,1-.47-.81V80c0-.29.21-.41.47-.27l.38.23a1,1,0,0,1,.47.8Z"/><path class="cls-9" d="M12.05,78.83l-4.27,6-.59,1.9,11.72,6.77V96.7l.19,1.57,3.19-1.84a2.22,2.22,0,0,1,0-.38A6,6,0,0,1,25,91.36a1.58,1.58,0,0,1,2.37.49l6.29-3.64V83.74l.61-.35V78.5l-.61.36V77.25l-9.75-5.71L13.19,77.72A4.75,4.75,0,0,0,12.05,78.83Z"/><polygon class="cls-9" points="33.62 77.25 23.87 71.54 23.87 70.28 33.62 75.99 33.62 77.25"/><polygon class="cls-13" points="48.79 67.23 33.62 75.99 23.87 70.28 39.04 61.52 48.79 67.23"/><path class="cls-16" d="M48.79,67.23,33.62,76v13.9l4.27-2.47c0-.13,0-.26,0-.39a8,8,0,0,1,3.64-6.31c2-1.17,3.65-.22,3.65,2.1,0,.14,0,.27,0,.41l3.64-2.1Z"/><path class="cls-15" d="M41.52,80.72A8,8,0,0,0,37.88,87c0,.13,0,.26,0,.39l1-.54a2.45,2.45,0,0,1,0-.39,6,6,0,0,1,2.72-4.71c1.5-.86,2.72-.16,2.72,1.57,0,.14,0,.28,0,.42l.94-.54c0-.14,0-.27,0-.41C45.17,80.5,43.54,79.55,41.52,80.72Z"/><polygon class="cls-17" points="39.79 78.26 35.55 80.7 35.55 77.54 39.79 75.09 39.79 78.26"/><polygon class="cls-13" points="6.56 90.4 18.66 97.39 19.83 96.71 7.73 89.73 6.56 90.4"/><path class="cls-18" d="M18.56,91l2.65-6.62a.46.46,0,0,0-.17-.49c-1.17-.81-2.45-1.58-4-2.45s-3-1.65-4.15-2.2a.53.53,0,0,0-.51.3L8.48,85.13Z"/><polygon class="cls-3" points="8.31 87.36 8.7 88.97 17.41 94 17.79 92.84 8.31 87.36"/><polygon class="cls-19" points="7.19 86.72 7.19 88.1 8.7 88.97 8.31 87.36 7.19 86.72"/><path class="cls-7" d="M7.19,88.1v1.08a1.14,1.14,0,0,0,.5.82l3.19,1.84-.27-1.76Z"/><polygon class="cls-14" points="10.61 90.08 10.88 91.84 13.05 93.1 15.23 94.35 15.49 92.9 10.61 90.08"/><path class="cls-9" d="M11,89.63c0,.29-.21.4-.45.26a1,1,0,0,1-.46-.79c0-.29.2-.4.46-.26A1,1,0,0,1,11,89.63Z"/><path class="cls-9" d="M15.06,92a1,1,0,0,0,.46.78c.25.15.45,0,.45-.26a1,1,0,0,0-.45-.78C15.26,91.54,15.06,91.66,15.06,92Z"/><path class="cls-7" d="M13.87,92.8c0,.29-.37.32-.82.06a1.55,1.55,0,0,1-.82-1c0-.3.37-.33.82-.06A1.53,1.53,0,0,1,13.87,92.8Z"/><path class="cls-6" d="M18.5,96.94a.68.68,0,0,1-.59,0L6.78,90.51c-.16-.1-.3,0-.3.16v1a.63.63,0,0,0,.3.49l11.13,6.43a.62.62,0,0,0,.59,0l1.3-.74V96.19Z"/><polygon class="cls-7" points="19.8 94.36 18.91 94.87 15.49 92.9 15.23 94.35 18.91 96.48 19.8 95.97 19.8 94.36"/><polygon class="cls-19" points="18.91 93.48 17.79 92.84 17.41 94 18.91 94.87 19.8 94.36 19.8 92.97 18.91 93.48"/><path class="cls-20" d="M27.08,85.69c0,.63-.93,1.45-.93,1.45l-5.66,4.53V89.86l1.85-4.69,4.74-2.73Z"/><path class="cls-13" d="M42.73,84.23a2.67,2.67,0,0,1-1.21,2.09c-.66.38-1.21.07-1.21-.7a2.68,2.68,0,0,1,1.21-2.09C42.19,83.15,42.73,83.46,42.73,84.23Z"/><path class="cls-14" d="M42,84.63a1.1,1.1,0,0,1-.51.87c-.28.17-.5,0-.5-.29a1.1,1.1,0,0,1,.5-.87C41.8,84.18,42,84.31,42,84.63Z"/><polygon class="cls-12" points="33.61 90.92 27.33 94.55 27.33 91.85 33.61 88.22 33.61 90.92"/><polygon class="cls-13" points="35.2 89.45 27.76 93.75 27.76 93.01 35.2 88.72 35.2 89.45"/><polygon class="cls-13" points="33.22 89.85 29.73 91.87 29.73 90.49 33.22 88.48 33.22 89.85"/><path class="cls-20" d="M33,82.52a.81.81,0,0,1-.36.62l-4,2.29c-.2.11-.36,0-.36-.21v-3.1a.81.81,0,0,1,.36-.62l4-2.29c.2-.11.36,0,.36.21Z"/><polygon class="cls-15" points="37.77 84.63 33.62 87.02 33.62 89.89 37.77 87.49 37.77 84.63"/><polygon class="cls-13" points="37.77 84.63 33.62 87.02 33.62 87.8 37.77 85.4 37.77 84.63"/><polygon class="cls-13" points="48.79 80.36 45.15 82.46 45.15 83.23 48.79 81.13 48.79 80.36"/><path class="cls-13" d="M44.63,80.89a.25.25,0,0,1-.19,0l-2.86-1.21c-.16-.06-.18-.33,0-.59s.38-.42.54-.36L44.94,80c.15.07.17.33,0,.59A.72.72,0,0,1,44.63,80.89Z"/><polygon class="cls-13" points="43.54 76.6 46.86 74.68 46.86 73.9 43.54 75.82 43.54 76.6"/><polygon class="cls-3" points="42.86 77.2 43.54 76.81 43.54 75.61 42.86 76 42.86 77.2"/><path class="cls-3" d="M47,73.77a7,7,0,0,0-3.14,5.44c0,2,1.41,2.81,3.14,1.81a6.93,6.93,0,0,0,3.14-5.44C50.18,73.58,48.78,72.77,47,73.77Zm0,6.4c-1.33.77-2.4.15-2.4-1.38A5.29,5.29,0,0,1,47,74.62c1.33-.77,2.41-.15,2.41,1.39A5.3,5.3,0,0,1,47,80.17Z"/><polygon class="cls-21" points="14 96.86 10.69 94.95 10.69 93.16 14 95.06 14 96.86"/><path class="cls-7" d="M20.34,90.41l1.26.73c.47.27.85,0,.85-.5V88.06a1.64,1.64,0,0,0-.71-1.41l-.37-.22a.12.12,0,0,0-.19.11.45.45,0,0,0,.19.33l.23.14a1.09,1.09,0,0,1,.48.83v2.58c0,.31-.22.44-.48.28L20.34,90a.12.12,0,0,0-.19.11A.42.42,0,0,0,20.34,90.41Z"/><path class="cls-15" d="M23.13,90.54c0,.29-.21.41-.47.27l-.38-.23a1,1,0,0,1-.47-.8V88.15c0-.3.21-.42.47-.27l.38.22a1,1,0,0,1,.47.81Z"/><polygon class="cls-6" points="37.45 63.48 28.33 68.74 28.33 70.07 37.45 64.8 37.45 63.48"/><polygon class="cls-3" points="22.35 73.31 23.43 73.94 38.86 65.03 37.78 64.4 22.35 73.31"/><polygon class="cls-8" points="22.35 74 23.43 74.64 23.43 73.94 22.35 73.31 22.35 74"/><polygon class="cls-7" points="38.86 65.03 23.43 73.94 23.43 74.64 38.86 65.73 38.86 65.03"/><polygon class="cls-6" points="25.47 73.04 24.31 73.71 27.76 75.69 28.92 75.02 25.47 73.04"/><polygon class="cls-6" points="27.82 71.71 26.66 72.38 30.12 74.36 31.28 73.69 27.82 71.71"/><polygon class="cls-6" points="30.18 70.38 29.02 71.05 32.48 73.03 33.64 72.36 30.18 70.38"/><polygon class="cls-3" points="26.89 75.92 27.97 76.55 43.4 67.65 42.32 67.01 26.89 75.92"/><polygon class="cls-8" points="26.89 76.61 27.97 77.25 27.97 76.55 26.89 75.92 26.89 76.61"/><polygon class="cls-7" points="43.4 67.65 27.97 76.55 27.97 77.25 43.4 68.34 43.4 67.65"/><polygon class="cls-3" points="43.94 67.28 34.82 72.55 34.82 73.87 43.94 68.61 43.94 67.28"/><polygon class="cls-22" points="37.45 63.48 28.33 68.74 34.82 72.55 43.94 67.28 37.45 63.48"/><path class="cls-23" d="M19.08,74.34a1,1,0,0,0-1,0l-1.35.81a.9.9,0,0,0-.29.67v0a1.25,1.25,0,0,0,.71,1l1.67,1,1.82-1V75.18Z"/><path class="cls-23" d="M25.85,78.21l-1.67-1-1.81,1.05V80l1.67,1a.58.58,0,0,0,.4.09l0,0s2.09-1.12,2.09-1.58v0A1.57,1.57,0,0,0,25.85,78.21Z"/><polygon class="cls-3" points="20.61 75.18 18.79 76.23 18.79 76.22 18.79 77.89 22.36 79.95 22.36 78.29 24.18 77.24 20.61 75.18"/><polygon class="cls-12" points="44.77 102.32 38.52 105.92 38.52 101.69 44.77 98.08 44.77 102.32"/><polygon class="cls-12" points="61.25 92.8 55.01 96.41 55.01 92.17 61.25 88.56 61.25 92.8"/><path class="cls-12" d="M42.93,101.06l-1.17-.68a1.47,1.47,0,0,0-1.67.08,4.9,4.9,0,0,0-2.21,3.83,1.51,1.51,0,0,0,.72,1.47l1.29.77v0a1.52,1.52,0,0,0,1.58-.14,4.88,4.88,0,0,0,2.21-3.83A1.48,1.48,0,0,0,42.93,101.06Z"/><path class="cls-13" d="M42.69,103.12a2.65,2.65,0,0,1-1.21,2.09c-.67.39-1.21.07-1.21-.7a2.67,2.67,0,0,1,1.21-2.09C42.15,102,42.69,102.35,42.69,103.12Z"/><path class="cls-14" d="M42,103.53a1.1,1.1,0,0,1-.5.87c-.28.16-.5,0-.5-.29a1.1,1.1,0,0,1,.5-.87C41.76,103.08,42,103.21,42,103.53Z"/><path class="cls-12" d="M59.49,91.5l-1.16-.69a1.49,1.49,0,0,0-1.67.09,4.87,4.87,0,0,0-2.22,3.83,1.5,1.5,0,0,0,.73,1.47l1.29.76h0A1.52,1.52,0,0,0,58,96.81,4.88,4.88,0,0,0,60.26,93,1.47,1.47,0,0,0,59.49,91.5Z"/><path class="cls-13" d="M59.25,93.56A2.67,2.67,0,0,1,58,95.65c-.66.38-1.2.07-1.2-.7A2.68,2.68,0,0,1,58,92.86C58.71,92.47,59.25,92.79,59.25,93.56Z"/><path class="cls-14" d="M58.55,94a1.11,1.11,0,0,1-.51.87c-.27.17-.5,0-.5-.29a1.13,1.13,0,0,1,.5-.87C58.32,93.51,58.55,93.64,58.55,94Z"/><path class="cls-7" d="M27.17,94.21l-1.78-1a1.9,1.9,0,0,1-.86-1.48V89.12c0-.55.39-.77.86-.5l1.78,1a.44.44,0,0,1,.19.33.12.12,0,0,1-.19.11l-1.78-1c-.27-.16-.48,0-.48.27v2.58a1.07,1.07,0,0,0,.48.84l1.78,1a.42.42,0,0,1,.19.32A.12.12,0,0,1,27.17,94.21Z"/><path class="cls-15" d="M25.37,91.7c0,.3-.21.42-.47.27l-.39-.22a1,1,0,0,1-.46-.81V89.31a.28.28,0,0,1,.46-.27l.39.23a1,1,0,0,1,.47.8Z"/><path class="cls-9" d="M28.58,88.16l-4.27,6-.6,1.9,11.73,6.77V106l.18,1.57,3.19-1.84a2.34,2.34,0,0,1,0-.38,6,6,0,0,1,2.7-4.69,1.57,1.57,0,0,1,2.37.49l6.29-3.64V93.07l.61-.35V87.83l-.61.36V86.58l-9.75-5.71L29.72,87.05A4.54,4.54,0,0,0,28.58,88.16Z"/><polygon class="cls-9" points="50.14 86.58 40.39 80.87 40.39 79.61 50.14 85.32 50.14 86.58"/><polygon class="cls-13" points="65.31 76.56 50.14 85.32 40.39 79.61 55.56 70.85 65.31 76.56"/><path class="cls-16" d="M65.31,76.56,50.14,85.32v13.9l4.28-2.47c0-.13,0-.26,0-.39A8,8,0,0,1,58,90.05c2-1.17,3.65-.23,3.65,2.1,0,.14,0,.27,0,.41l3.64-2.1Z"/><path class="cls-15" d="M58,90.05a8,8,0,0,0-3.64,6.31c0,.13,0,.26,0,.39l.94-.55c0-.12,0-.24,0-.38A6,6,0,0,1,58,91.11c1.51-.86,2.73-.16,2.73,1.57a3,3,0,0,1,0,.42l.94-.54c0-.14,0-.27,0-.41C61.69,89.82,60.06,88.88,58,90.05Z"/><polygon class="cls-17" points="56.31 87.59 52.08 90.03 52.08 86.87 56.31 84.42 56.31 87.59"/><polygon class="cls-13" points="23.09 99.73 35.18 106.72 36.35 106.04 24.25 99.06 23.09 99.73"/><path class="cls-18" d="M35.08,100.28l2.66-6.62a.48.48,0,0,0-.17-.49c-1.18-.81-2.45-1.58-4-2.45s-3-1.65-4.16-2.2a.54.54,0,0,0-.51.3L25,94.46Z"/><polygon class="cls-3" points="24.84 96.69 25.22 98.3 33.93 103.33 34.31 102.17 24.84 96.69"/><polygon class="cls-19" points="23.71 96.04 23.71 97.43 25.22 98.3 24.84 96.69 23.71 96.04"/><path class="cls-7" d="M23.71,97.43v1.08a1.13,1.13,0,0,0,.51.82l3.18,1.84-.27-1.76Z"/><polygon class="cls-14" points="27.13 99.41 27.4 101.17 29.58 102.43 31.75 103.68 32.02 102.23 27.13 99.41"/><path class="cls-9" d="M27.56,99c0,.29-.2.4-.45.26a1,1,0,0,1-.45-.79c0-.29.2-.4.45-.26A1,1,0,0,1,27.56,99Z"/><path class="cls-9" d="M31.59,101.28a1,1,0,0,0,.45.78c.25.15.46,0,.46-.26A1,1,0,0,0,32,101C31.79,100.87,31.59,101,31.59,101.28Z"/><path class="cls-7" d="M30.39,102.12c0,.3-.36.33-.81.07a1.54,1.54,0,0,1-.83-1c0-.3.37-.33.83-.07A1.55,1.55,0,0,1,30.39,102.12Z"/><path class="cls-6" d="M35,106.27a.68.68,0,0,1-.59,0L23.3,99.84c-.16-.09-.29,0-.29.16v1a.62.62,0,0,0,.29.49l11.14,6.43a.62.62,0,0,0,.59,0l1.29-.74v-1.68Z"/><polygon class="cls-7" points="36.32 103.69 35.44 104.2 32.02 102.23 31.75 103.68 35.44 105.81 36.32 105.3 36.32 103.69"/><polygon class="cls-19" points="35.44 102.81 34.31 102.17 33.93 103.33 35.44 104.2 36.32 103.69 36.32 102.3 35.44 102.81"/><path class="cls-20" d="M43.6,95c0,.63-.93,1.45-.93,1.45L37,101V99.19l1.85-4.69,4.74-2.73Z"/><path class="cls-13" d="M59.25,93.56A2.67,2.67,0,0,1,58,95.65c-.66.38-1.2.07-1.2-.7A2.68,2.68,0,0,1,58,92.86C58.71,92.48,59.25,92.79,59.25,93.56Z"/><path class="cls-14" d="M58.55,94a1.11,1.11,0,0,1-.51.87c-.27.17-.5,0-.5-.29a1.13,1.13,0,0,1,.5-.87C58.32,93.51,58.55,93.64,58.55,94Z"/><polygon class="cls-12" points="50.14 100.25 43.85 103.88 43.85 101.18 50.14 97.55 50.14 100.25"/><polygon class="cls-13" points="51.72 98.78 44.28 103.08 44.28 102.34 51.72 98.05 51.72 98.78"/><polygon class="cls-13" points="49.75 99.19 46.26 101.2 46.26 99.82 49.75 97.81 49.75 99.19"/><path class="cls-20" d="M49.54,91.84a.81.81,0,0,1-.36.63l-4,2.29c-.2.11-.36,0-.36-.21v-3.1a.81.81,0,0,1,.36-.62l4-2.29c.2-.11.36,0,.36.21Z"/><polygon class="cls-15" points="54.29 93.96 50.14 96.35 50.14 99.22 54.29 96.82 54.29 93.96"/><polygon class="cls-13" points="54.29 93.96 50.14 96.35 50.14 97.13 54.29 94.73 54.29 93.96"/><polygon class="cls-13" points="65.31 89.69 61.67 91.79 61.67 92.56 65.31 90.46 65.31 89.69"/><path class="cls-13" d="M61.15,90.22a.25.25,0,0,1-.19,0L58.1,89c-.15-.07-.17-.33,0-.59s.38-.42.54-.36l2.86,1.22c.16.07.17.33,0,.59A.79.79,0,0,1,61.15,90.22Z"/><polygon class="cls-13" points="60.06 85.93 63.38 84.01 63.38 83.23 60.06 85.15 60.06 85.93"/><polygon class="cls-3" points="59.39 86.53 60.06 86.14 60.06 84.94 59.39 85.33 59.39 86.53"/><path class="cls-3" d="M63.57,83.1a6.94,6.94,0,0,0-3.15,5.44c0,2,1.41,2.81,3.15,1.81a7,7,0,0,0,3.14-5.44C66.71,82.91,65.3,82.1,63.57,83.1Zm0,6.4c-1.33.77-2.41.15-2.41-1.39A5.3,5.3,0,0,1,63.57,84c1.33-.77,2.4-.15,2.4,1.38A5.29,5.29,0,0,1,63.57,89.5Z"/><polygon class="cls-21" points="30.52 106.19 27.22 104.28 27.22 102.48 30.52 104.39 30.52 106.19"/><path class="cls-7" d="M36.87,99.74l1.25.73c.47.27.86,0,.86-.5V97.39A1.64,1.64,0,0,0,38.26,96l-.37-.22c-.1-.06-.18,0-.18.11a.41.41,0,0,0,.18.32l.23.15a1.09,1.09,0,0,1,.48.83v2.58c0,.31-.22.44-.48.28l-1.25-.72c-.11-.06-.19,0-.19.11A.39.39,0,0,0,36.87,99.74Z"/><path class="cls-15" d="M39.65,99.87c0,.29-.2.41-.46.27l-.39-.23a1,1,0,0,1-.47-.8V97.48c0-.3.21-.42.47-.27l.39.22a1,1,0,0,1,.46.81Z"/><polygon class="cls-6" points="53.97 72.81 44.85 78.07 44.85 79.4 53.97 74.13 53.97 72.81"/><polygon class="cls-3" points="38.87 82.64 39.95 83.27 55.38 74.36 54.3 73.73 38.87 82.64"/><polygon class="cls-8" points="38.87 83.33 39.95 83.97 39.95 83.27 38.87 82.64 38.87 83.33"/><polygon class="cls-7" points="55.38 74.36 39.95 83.27 39.95 83.97 55.38 75.06 55.38 74.36"/><polygon class="cls-6" points="41.99 82.37 40.83 83.04 44.28 85.02 45.45 84.35 41.99 82.37"/><polygon class="cls-6" points="44.35 81.04 43.19 81.71 46.64 83.69 47.81 83.02 44.35 81.04"/><polygon class="cls-6" points="46.71 79.71 45.55 80.38 49 82.36 50.16 81.69 46.71 79.71"/><polygon class="cls-3" points="43.41 85.25 44.49 85.88 59.92 76.97 58.84 76.34 43.41 85.25"/><polygon class="cls-8" points="43.41 85.94 44.49 86.58 44.49 85.88 43.41 85.25 43.41 85.94"/><polygon class="cls-7" points="59.92 76.97 44.49 85.88 44.49 86.58 59.92 77.67 59.92 76.97"/><polygon class="cls-3" points="60.46 76.61 51.35 81.88 51.35 83.2 60.46 77.94 60.46 76.61"/><polygon class="cls-22" points="53.97 72.81 44.85 78.07 51.35 81.88 60.46 76.61 53.97 72.81"/><path class="cls-23" d="M35.6,83.67a1,1,0,0,0-1,0l-1.36.81a.9.9,0,0,0-.29.67v0a1.25,1.25,0,0,0,.71,1l1.68,1,1.81-1V84.51Z"/><path class="cls-23" d="M42.38,87.54l-1.68-1-1.81,1.05v1.66l1.67,1a.6.6,0,0,0,.41.09l0,0s2.09-1.12,2.09-1.58v0A1.56,1.56,0,0,0,42.38,87.54Z"/><polygon class="cls-3" points="37.13 84.51 35.32 85.56 35.32 85.56 35.32 87.22 38.89 89.28 38.89 87.62 40.7 86.57 37.13 84.51"/><path class="cls-24" d="M44.46,104a.81.81,0,0,1-.21,1.09c-.33.16-.85.42-1.06,0s0-1.44.29-1.6A.82.82,0,0,1,44.46,104Z"/><path class="cls-25" d="M50.78,116.25l1.74-1v-.44a4.2,4.2,0,0,1,1.91-3.29c1-.61,1.9-.12,1.9,1.09V113l11.11-6.41v-.44a4.22,4.22,0,0,1,1.9-3.3c1-.6,1.9-.11,1.9,1.11v.43l2.08-1.2a1.35,1.35,0,0,0,.71-1.08V97.28a16.9,16.9,0,0,0-1.15-3.59L65,89.14c-.63.38-1.59,1-2,1.15a.38.38,0,0,1-.17,0l-.09,0-.07,0-.12-.07,0,0-.13-.12L51,96.64a21.8,21.8,0,0,0-3.39,2.53s-4.59,5.43-5.39,8v2.14l-.53.3v1.64s0,.55.33.71l7.33,4.2A1.6,1.6,0,0,0,50.78,116.25Z"/><polygon class="cls-26" points="46.86 114.25 44.44 112.84 44.44 111.49 46.86 112.89 46.86 114.25"/><path class="cls-27" d="M70.41,94.77l0,0Z"/><path class="cls-12" d="M54.43,111.51a4.2,4.2,0,0,0-1.91,3.29v.44l3.81-2.2v-.44C56.33,111.39,55.48,110.9,54.43,111.51Z"/><path class="cls-12" d="M69.34,102.89a4.22,4.22,0,0,0-1.9,3.3v.44l3.8-2.2V104C71.24,102.78,70.39,102.29,69.34,102.89Z"/><path class="cls-20" d="M56,107.75s-3.67,2.23-4.07,2.49-.53.23-.53.06a1.18,1.18,0,0,1,.16-.45,39.08,39.08,0,0,1,2.76-4l2.35-1.36Z"/><path class="cls-12" d="M55.9,112.85a3.28,3.28,0,0,1-1.47,2.56c-.82.47-1.48.09-1.48-.86A3.24,3.24,0,0,1,54.43,112C55.24,111.53,55.9,111.91,55.9,112.85Z"/><path class="cls-13" d="M55.16,113.28a1.62,1.62,0,0,1-.73,1.27c-.41.24-.74,0-.74-.42a1.6,1.6,0,0,1,.74-1.27C54.83,112.62,55.16,112.81,55.16,113.28Z"/><path class="cls-12" d="M70.82,104.24a3.26,3.26,0,0,1-1.48,2.56c-.82.47-1.47.08-1.47-.85a3.24,3.24,0,0,1,1.47-2.56C70.16,102.92,70.82,103.3,70.82,104.24Z"/><path class="cls-13" d="M70.07,104.67a1.59,1.59,0,0,1-.73,1.27c-.41.23-.73,0-.73-.42a1.59,1.59,0,0,1,.73-1.27C69.75,104,70.07,104.2,70.07,104.67Z"/><polygon class="cls-9" points="73.57 98.79 51.32 111.63 51.32 110.92 73.57 98.07 73.57 98.79"/><path class="cls-28" d="M72.64,95.47c0-.23-.24-.32-.46-.19l-7.79,4.5V103l8.23-4.75a.72.72,0,0,0,.34-.65Z"/><path class="cls-28" d="M63.65,100.21l-5.45,3.15a.69.69,0,0,0-.34.65l.43,2c0,.23.24.32.46.19l4.9-2.83Z"/><path class="cls-15" d="M48.28,99.55l6.16,3.56a2.5,2.5,0,0,0,2-.22,21.41,21.41,0,0,1,2.43-1.7l.43-.25V99.69l-7.87-4.54s-2.68,1.52-3.56,3.24A1,1,0,0,0,48.28,99.55Z"/><path class="cls-29" d="M70.25,94.62a3.44,3.44,0,0,1-.56-.92l-7.87-4.55-10.39,6,7.87,4.54v1.25Z"/><path class="cls-9" d="M72,92.52l-7.46-4.26a1.35,1.35,0,0,0-1.26,0l-1.49.89,7.87,4.55a3.44,3.44,0,0,0,.56.92l.13.13,0,0,.12.06s0,0,.07,0h.09l.17,0c.43-.21,1.39-.78,2-1.15C72.61,93.15,72.37,92.64,72,92.52Z"/><polygon class="cls-3" points="42.22 107.83 42.22 109.33 44.45 110.61 44.3 109.03 42.22 107.83"/><path class="cls-3" d="M50.36,113.71l.47-.26V112l-.74.43-1.42-.82-.77,1,1.94,1.12A.75.75,0,0,0,50.36,113.71Z"/><polygon class="cls-14" points="44.3 109.03 44.45 110.61 47.9 112.61 48.67 111.56 44.3 109.03"/><path class="cls-18" d="M47.32,100.17c-.76.94-2,2.52-3,4.07L50.75,108c1-1.56,2.29-3.14,3-4.06Z"/><path class="cls-24" d="M53.32,108.72a.8.8,0,0,1-.22,1.09c-.33.16-.85.42-1.06,0s0-1.44.3-1.6A.82.82,0,0,1,53.32,108.72Z"/><polygon class="cls-11" points="53.31 95.81 55.9 97.3 55.9 122.16 53.31 120.66 53.31 95.81"/><polygon class="cls-10" points="55.9 97.3 89.64 77.83 89.64 102.69 55.9 122.16 55.9 97.3"/><polygon class="cls-4" points="0 59.04 55.9 91.31 55.9 97.3 0 65.03 0 59.04"/><polygon class="cls-2" points="55.9 91.31 89.64 71.84 89.64 77.83 55.9 97.3 55.9 91.31"/><polygon class="cls-1" points="0 59.04 33.73 39.56 89.64 71.84 55.9 91.31 0 59.04"/><polygon class="cls-6" points="111.59 56.77 128.84 46.81 146.08 56.77 128.84 66.72 111.59 56.77"/><polygon class="cls-24" points="141.36 51.35 142.44 51.97 142.44 54.66 141.36 54.04 141.36 51.35"/><polygon class="cls-24" points="138.4 49.64 139.47 50.26 139.47 52.95 138.4 52.33 138.4 49.64"/><polygon class="cls-24" points="135.44 47.93 136.51 48.55 136.51 51.24 135.44 50.62 135.44 47.93"/><polygon class="cls-24" points="132.48 46.22 133.55 46.84 133.55 49.53 132.48 48.91 132.48 46.22"/><polygon class="cls-7" points="145.66 52.76 145.66 53.83 129.25 44.35 129.25 43.29 145.66 52.76"/><polygon class="cls-24" points="116.31 51.35 115.23 51.97 115.23 54.66 116.31 54.04 116.31 51.35"/><polygon class="cls-24" points="119.27 49.64 118.19 50.26 118.19 52.95 119.27 52.33 119.27 49.64"/><polygon class="cls-24" points="122.23 47.93 121.16 48.55 121.16 51.24 122.23 50.62 122.23 47.93"/><polygon class="cls-24" points="125.19 46.22 124.12 46.84 124.12 49.53 125.19 48.91 125.19 46.22"/><polygon class="cls-8" points="112.01 52.76 112.01 53.83 128.42 44.35 128.42 43.29 112.01 52.76"/><polygon class="cls-3" points="124.12 61.3 125.19 61.92 125.19 64.62 124.12 64 124.12 61.3"/><polygon class="cls-3" points="121.16 59.59 122.23 60.21 122.23 62.91 121.16 62.29 121.16 59.59"/><polygon class="cls-3" points="118.19 57.88 119.27 58.5 119.27 61.2 118.19 60.58 118.19 57.88"/><polygon class="cls-3" points="115.23 56.17 116.31 56.79 116.31 59.49 115.23 58.87 115.23 56.17"/><polygon class="cls-7" points="128.42 62.72 128.42 63.79 112.01 54.31 112.01 53.24 128.42 62.72"/><polygon class="cls-3" points="141.36 56.79 142.44 56.17 142.44 58.87 141.36 59.49 141.36 56.79"/><polygon class="cls-3" points="138.4 58.5 139.47 57.88 139.47 60.58 138.4 61.2 138.4 58.5"/><polygon class="cls-3" points="135.44 60.21 136.51 59.59 136.51 62.29 135.44 62.91 135.44 60.21"/><polygon class="cls-3" points="132.48 61.92 133.55 61.3 133.55 64 132.48 64.62 132.48 61.92"/><polygon class="cls-8" points="145.66 53.24 145.66 54.31 129.25 63.78 129.25 62.72 145.66 53.24"/><polygon class="cls-11" points="111.59 56.77 128.84 66.72 128.84 99.96 111.59 90.01 111.59 56.77"/><polygon class="cls-24" points="117.39 93.36 123.03 96.61 123.03 82.15 117.39 78.9 117.39 93.36"/><polygon class="cls-7" points="117.39 87.18 119.33 88.3 119.33 86.06 117.39 84.94 117.39 87.18"/><polygon class="cls-6" points="123.18 75.43 126.29 77.23 126.29 70.64 123.18 68.84 123.18 75.43"/><polygon class="cls-6" points="117.25 72.01 114.14 70.22 114.14 63.63 117.25 65.42 117.25 72.01"/><polygon class="cls-10" points="128.84 66.72 146.08 56.77 146.08 90.01 128.84 99.96 128.84 66.72"/><polygon class="cls-3" points="140.42 72.01 143.53 70.22 143.53 63.63 140.42 65.42 140.42 72.01"/><polygon class="cls-3" points="134.49 75.43 131.38 77.23 131.38 70.64 134.49 68.84 134.49 75.43"/><path class="cls-7" d="M124.37,46.84A2.29,2.29,0,0,1,125.72,45a7.22,7.22,0,0,1,6.53,0,2.29,2.29,0,0,1,1.35,1.88v9.93a2.29,2.29,0,0,1-1.35,1.88,7.22,7.22,0,0,1-6.53,0,2.29,2.29,0,0,1-1.35-1.88Z"/><polygon class="cls-6" points="111.59 47.53 128.84 37.57 146.08 47.53 128.84 57.48 111.59 47.53"/><polygon class="cls-24" points="141.36 35.37 142.44 35.99 142.44 38.69 141.36 38.06 141.36 35.37"/><polygon class="cls-24" points="138.4 33.66 139.47 34.28 139.47 36.98 138.4 36.35 138.4 33.66"/><polygon class="cls-24" points="135.44 31.95 136.51 32.57 136.51 35.27 135.44 34.65 135.44 31.95"/><polygon class="cls-24" points="132.48 30.24 133.55 30.86 133.55 33.56 132.48 32.94 132.48 30.24"/><polygon class="cls-7" points="145.66 36.78 145.66 37.85 129.25 28.38 129.25 27.31 145.66 36.78"/><polygon class="cls-11" points="128.84 30.83 146.08 40.79 146.08 47.53 128.84 37.57 128.84 30.83"/><polygon class="cls-26" points="144.84 23.3 146.08 24.02 146.08 56.77 144.84 56.05 144.84 23.3"/><polygon class="cls-26" points="128.84 14.06 130.07 14.78 130.07 47.53 128.84 46.81 128.84 14.06"/><polygon class="cls-24" points="116.31 35.37 115.23 35.99 115.23 38.69 116.31 38.06 116.31 35.37"/><polygon class="cls-24" points="119.27 33.66 118.19 34.28 118.19 36.98 119.27 36.35 119.27 33.66"/><polygon class="cls-24" points="122.23 31.95 121.16 32.57 121.16 35.27 122.23 34.65 122.23 31.95"/><polygon class="cls-24" points="125.19 30.24 124.12 30.86 124.12 33.56 125.19 32.94 125.19 30.24"/><polygon class="cls-8" points="112.01 36.78 112.01 37.85 128.42 28.38 128.42 27.31 112.01 36.78"/><polygon class="cls-10" points="128.84 30.83 111.59 40.79 111.59 47.53 128.84 37.57 128.84 30.83"/><polygon class="cls-26" points="112.83 23.3 111.59 24.02 111.59 56.77 112.83 56.05 112.83 23.3"/><polygon class="cls-26" points="128.84 14.06 127.6 14.78 127.6 47.53 128.84 46.81 128.84 14.06"/><path class="cls-7" d="M124.37,38.09a2.29,2.29,0,0,1,1.35-1.88,7.22,7.22,0,0,1,6.53,0,2.29,2.29,0,0,1,1.35,1.88V48a2.29,2.29,0,0,1-1.35,1.88,7.22,7.22,0,0,1-6.53,0A2.29,2.29,0,0,1,124.37,48Z"/><polygon class="cls-6" points="111.59 30.76 128.84 20.8 146.08 30.76 128.84 40.71 111.59 30.76"/><polygon class="cls-11" points="128.84 14.06 146.08 24.02 146.08 30.76 128.84 20.8 128.84 14.06"/><polygon class="cls-10" points="128.84 14.06 111.59 24.02 111.59 30.76 128.84 20.8 128.84 14.06"/><polygon class="cls-3" points="124.12 45.32 125.19 45.94 125.19 48.64 124.12 48.02 124.12 45.32"/><polygon class="cls-3" points="121.16 43.61 122.23 44.23 122.23 46.93 121.16 46.31 121.16 43.61"/><polygon class="cls-3" points="118.19 41.9 119.27 42.52 119.27 45.22 118.19 44.6 118.19 41.9"/><polygon class="cls-3" points="115.23 40.19 116.31 40.81 116.31 43.51 115.23 42.89 115.23 40.19"/><polygon class="cls-7" points="128.42 46.74 128.42 47.81 112.01 38.33 112.01 37.26 128.42 46.74"/><polygon class="cls-3" points="141.36 40.81 142.44 40.19 142.44 42.89 141.36 43.51 141.36 40.81"/><polygon class="cls-3" points="138.4 42.52 139.47 41.9 139.47 44.6 138.4 45.22 138.4 42.52"/><polygon class="cls-3" points="135.44 44.23 136.51 43.62 136.51 46.31 135.44 46.93 135.44 44.23"/><polygon class="cls-3" points="132.48 45.94 133.55 45.32 133.55 48.02 132.48 48.64 132.48 45.94"/><polygon class="cls-8" points="145.66 37.26 145.66 38.33 129.25 47.81 129.25 46.74 145.66 37.26"/><polygon class="cls-11" points="111.59 40.79 128.84 50.74 128.84 57.48 111.59 47.53 111.59 40.79"/><polygon class="cls-10" points="128.84 50.74 146.08 40.79 146.08 47.53 128.84 57.48 128.84 50.74"/><polygon class="cls-24" points="139.11 22.23 140.18 22.85 140.18 29.13 139.11 28.51 139.11 22.23"/><polygon class="cls-24" points="136.15 20.52 137.22 21.14 137.22 27.42 136.15 26.8 136.15 20.52"/><polygon class="cls-24" points="133.19 18.81 134.26 19.43 134.26 25.71 133.19 25.09 133.19 18.81"/><polygon class="cls-24" points="130.22 17.1 131.3 17.72 131.3 24 130.22 23.38 130.22 17.1"/><polygon class="cls-8" points="141.57 22.58 141.57 23.65 128.84 16.3 128.84 15.22 141.57 22.58"/><polygon class="cls-24" points="126.37 17.72 127.45 17.1 127.45 23.38 126.37 24 126.37 17.72"/><polygon class="cls-24" points="123.41 19.43 124.48 18.81 124.48 25.09 123.41 25.71 123.41 19.43"/><polygon class="cls-24" points="120.45 21.14 121.52 20.52 121.52 26.8 120.45 27.42 120.45 21.14"/><polygon class="cls-24" points="117.49 22.85 118.56 22.23 118.56 28.51 117.49 29.13 117.49 22.85"/><polygon class="cls-8" points="128.84 15.22 128.84 16.3 116.1 23.65 116.1 22.58 128.84 15.22"/><path class="cls-7" d="M124.37,30.42a2.3,2.3,0,0,0,1.35,1.89,7.22,7.22,0,0,0,6.53,0,2.3,2.3,0,0,0,1.35-1.89l-4.48-18.83Z"/><polygon class="cls-3" points="126.37 29.58 127.45 30.2 127.45 36.48 126.37 35.86 126.37 29.58"/><polygon class="cls-3" points="123.41 27.87 124.49 28.49 124.49 34.77 123.41 34.15 123.41 27.87"/><polygon class="cls-3" points="120.45 26.16 121.52 26.78 121.52 33.06 120.45 32.44 120.45 26.16"/><polygon class="cls-3" points="117.49 24.45 118.56 25.07 118.56 31.35 117.49 30.73 117.49 24.45"/><polygon class="cls-8" points="128.84 29.93 128.84 31 116.1 23.65 116.1 22.58 128.84 29.93"/><polygon class="cls-3" points="139.11 25.07 140.18 24.45 140.18 30.73 139.11 31.35 139.11 25.07"/><polygon class="cls-3" points="136.15 26.78 137.22 26.16 137.22 32.44 136.15 33.06 136.15 26.78"/><polygon class="cls-3" points="133.19 28.49 134.26 27.87 134.26 34.15 133.19 34.77 133.19 28.49"/><polygon class="cls-3" points="130.22 30.2 131.3 29.58 131.3 35.86 130.22 36.48 130.22 30.2"/><polygon class="cls-8" points="141.57 22.58 141.57 23.65 128.84 31 128.84 29.93 141.57 22.58"/><polygon class="cls-11" points="111.59 24.02 128.84 33.97 128.84 40.71 111.59 30.76 111.59 24.02"/><polygon class="cls-10" points="128.84 33.97 146.08 24.02 146.08 30.76 128.84 40.71 128.84 33.97"/><polygon class="cls-22" points="144.84 24.73 146.08 24.02 146.08 56.77 144.84 57.48 144.84 24.73"/><polygon class="cls-3" points="111.59 24.02 112.83 24.73 112.83 57.48 111.59 56.77 111.59 24.02"/><polygon class="cls-3" points="127.6 33.26 128.84 33.97 128.84 66.72 127.6 66.01 127.6 33.26"/><polygon class="cls-22" points="128.84 33.97 130.07 33.26 130.07 66.01 128.84 66.72 128.84 33.97"/></g></g></svg>