<?xml version="1.0" encoding="utf-8"?>
<!-- Generator: Adobe Illustrator 23.0.2, SVG Export Plug-In . SVG Version: 6.00 Build 0)  -->
<svg version="1.1" id="レイヤー_1" xmlns="http://www.w3.org/2000/svg" xmlns:xlink="http://www.w3.org/1999/xlink" x="0px"
	 y="0px" viewBox="0 0 279.9 267.5" style="enable-background:new 0 0 279.9 267.5;" xml:space="preserve">
<style type="text/css">
	.st0{fill:#727171;}
	.st1{fill:#4C4948;}
	.st2{fill:#FFFFFF;}
	.st3{fill:#9FD9F6;}
	.st4{fill:#7ECEF4;}
	.st5{fill:#D1E2EC;}
	.st6{fill:#B5B5B6;}
	.st7{fill:#FFFCDB;}
	.st8{fill:#E6E6E6;}
	.st9{fill:#EFEFEF;}
	.st10{fill:#00873C;}
	.st11{fill:#595757;}
	.st12{fill:#006428;}
	.st13{fill:#C9CACA;}
	.st14{fill:#898989;}
	.st15{fill:#DDDABE;}
	.st16{fill:#B5B39C;}
	.st17{fill:#2F2725;}
	.st18{fill:#9FA0A0;}
	.st19{fill:#3E3A39;}
	.st20{fill:#A1CBED;}
	.st21{fill:#EA5514;}
	.st22{fill:#8BB0CD;}
	.st23{fill:#DCDDDD;}
	.st24{fill:#84959E;}
	.st25{fill:#C6DEEB;}
</style>
<title>アセット 53</title>
<g>
	<g id="レイヤー_1-2">
		<polygon class="st0" points="240.8,160.2 245.8,157.3 245.8,106.7 240.8,109.6 		"/>
		<polygon class="st1" points="200.2,136.8 240.8,160.2 240.8,109.6 200.2,86.2 		"/>
		<polygon class="st2" points="240.8,109.6 245.8,106.7 205.2,83.2 200.2,86.2 		"/>
		<polygon class="st1" points="101.5,193.7 101.5,87.8 48.1,57 48.1,162.9 		"/>
		<polygon class="st0" points="101.5,193.7 200.2,136.8 200.2,30.8 101.5,87.8 		"/>
		<polygon class="st3" points="174.9,109.7 188.2,102 188.2,142.9 174.9,150.6 		"/>
		<polygon class="st4" points="161.7,117.4 174.9,109.7 174.9,150.6 161.7,158.2 		"/>
		<polygon class="st3" points="148.4,125.1 161.7,117.4 161.7,158.2 148.4,165.9 		"/>
		<polygon class="st4" points="135.1,132.7 148.4,125.1 148.4,165.9 135.1,173.6 		"/>
		<polygon class="st3" points="121.8,140.4 135.1,132.7 135.1,173.6 121.8,181.2 		"/>
		<polygon class="st5" points="174.9,101.1 188.2,93.5 188.2,99.9 174.9,107.6 		"/>
		<polygon class="st5" points="161.7,108.8 174.9,101.1 174.9,107.6 161.7,115.3 		"/>
		<polygon class="st5" points="148.4,116.5 161.7,108.8 161.7,115.3 148.4,122.9 		"/>
		<polygon class="st5" points="135.1,124.1 148.4,116.5 148.4,122.9 135.1,130.6 		"/>
		<polygon class="st5" points="121.8,131.8 135.1,124.1 135.1,130.6 121.8,138.3 		"/>
		<polygon class="st4" points="174.9,53.7 188.2,46.1 188.2,56 174.9,63.6 		"/>
		<polygon class="st3" points="161.7,61.4 174.9,53.7 174.9,63.6 161.7,71.3 		"/>
		<polygon class="st4" points="148.4,69.1 161.7,61.4 161.7,71.3 148.4,79 		"/>
		<polygon class="st3" points="135.1,76.8 148.4,69.1 148.4,79 135.1,86.7 		"/>
		<polygon class="st4" points="121.8,84.4 135.1,76.8 135.1,86.7 121.8,94.3 		"/>
		<polygon class="st6" points="118.6,130.9 191.4,88.8 191.4,82.3 118.6,124.4 		"/>
		<polygon class="st7" points="101.5,87.8 200.2,30.8 146.8,0 48.1,57 		"/>
		<polygon class="st8" points="133.3,267.5 279.9,182.8 200.2,136.8 53.5,221.4 		"/>
		<polygon class="st9" points="53.5,221.4 101.5,193.7 101.5,131.5 53.5,159.2 		"/>
		<polygon class="st10" points="53.5,178.3 101.5,150.6 101.5,131.5 53.5,159.2 		"/>
		<polygon class="st7" points="53.4,159.3 101.5,131.5 48.1,100.7 0,128.5 		"/>
		<polygon class="st11" points="66.9,213.7 88.1,201.4 88.1,164.1 66.9,176.4 		"/>
		<polygon class="st12" points="53.5,178.3 53.5,159.2 0.3,128.5 0.3,147.6 		"/>
		<polygon class="st13" points="53.5,221.4 53.5,178.3 0.3,147.6 0.3,190.7 		"/>
		<polygon class="st14" points="107.9,174.3 96,181.2 96,206 107.9,199.1 		"/>
		<polygon class="st10" points="100.1,169.8 88.1,176.7 96,181.2 107.9,174.3 		"/>
		<polygon class="st11" points="105.7,179.6 98.2,184 98.2,188.9 105.7,184.6 		"/>
		<polygon class="st12" points="88.1,201.4 96,206 96,181.2 88.1,176.7 		"/>
		<polygon class="st0" points="89.1,247.8 94.1,244.9 94.1,194.3 89.1,197.2 		"/>
		<polygon class="st1" points="48.5,224.4 89.1,247.8 89.1,197.2 48.5,173.8 		"/>
		<polygon class="st7" points="89.1,197.2 94.1,194.3 53.5,170.8 48.5,173.8 		"/>
		<polygon class="st7" points="141.4,220.2 236.6,165.2 217.1,154 121.9,208.9 		"/>
		<polygon class="st15" points="141.4,226.3 236.6,171.4 236.6,165.2 141.4,220.2 		"/>
		<polygon class="st16" points="141.4,226.3 141.4,220.2 121.9,208.9 121.9,215.1 		"/>
		<polygon class="st10" points="163.8,166.7 151.9,173.6 159.7,178.1 171.7,171.2 		"/>
		<polygon class="st14" points="159.7,178.1 171.7,171.2 171.7,195.9 159.7,202.8 		"/>
		<polygon class="st11" points="161.9,180.9 169.4,176.5 169.4,181.5 161.9,185.8 		"/>
		<polygon class="st15" points="206.7,175.7 214.5,171.2 214.5,104.3 206.7,108.8 		"/>
		<polygon class="st16" points="198.9,171.2 206.7,175.7 206.7,108.8 198.9,104.3 		"/>
		<polygon class="st15" points="159.7,202.8 151.9,207.4 151.9,140.5 159.7,136 		"/>
		<polygon class="st16" points="144.1,202.8 151.9,207.4 151.9,140.5 144.1,136 		"/>
		<polygon class="st14" points="206.7,151 194.7,157.9 194.7,182.6 206.7,175.7 		"/>
		<polygon class="st10" points="198.9,146.5 186.9,153.4 194.7,157.9 206.7,151 		"/>
		<polygon class="st11" points="204.4,156.3 197,160.6 197,165.6 204.4,161.2 		"/>
		<polygon class="st12" points="186.9,178.1 194.7,182.6 194.7,157.9 186.9,153.4 		"/>
		<polygon class="st10" points="161,164.6 256.2,109.6 256.2,98.6 161,153.6 		"/>
		<polygon class="st12" points="161,164.6 161,153.6 102.4,119.8 102.4,130.8 		"/>
		<polygon class="st7" points="161,149.9 260,92.7 197.6,56.7 98.6,113.9 		"/>
		<polygon class="st15" points="161,155.8 260,98.6 260,92.7 161,149.9 		"/>
		<polygon class="st16" points="161,155.8 161,149.9 98.6,113.9 98.6,119.8 		"/>
	</g>
</g>
<g>
	<g id="レイヤー_1-2_1_">
		<path class="st17" d="M217.9,204.8c-2.1,1.3-3.4,3.6-3.5,6.1v1.2l7-4v-1.2C221.4,204.6,219.8,203.7,217.9,204.8z"/>
		<path class="st17" d="M242.3,190.8c-2.1,1.3-3.4,3.6-3.5,6.1v1.2l6.8-3.9c0,0,0.1,0.3,0.2,0.2v-1.4
			C245.8,190.5,244.2,189.6,242.3,190.8z"/>
		<path class="st11" d="M215.9,212.5c0.7,0.3,1.4,0.2,2-0.3c1.7-1.1,2.8-3,2.9-5.1c0.1-0.7-0.2-1.4-0.8-1.9l-1.8-1.1
			c-0.7-0.3-1.5-0.3-2.1,0.2c-1.7,1.1-2.8,3-2.9,5.1c-0.1,0.8,0.2,1.5,0.9,1.9L215.9,212.5z"/>
		<path class="st18" d="M216,210c0,1.2,0.9,1.7,1.9,1.1c1.1-0.7,1.8-2,1.9-3.3c0-1.2-0.9-1.7-1.9-1.1
			C216.8,207.4,216.1,208.7,216,210z"/>
		<path class="st19" d="M216.4,209.7c0,0.9,0.6,1.3,1.4,0.8c0.8-0.6,1.4-1.5,1.4-2.5c0-0.9-0.6-1.3-1.4-0.8
			C217,207.8,216.5,208.7,216.4,209.7z"/>
		<path class="st13" d="M217.3,209.6l-1,0.7c0-0.2,0-0.3,0-0.5c0-0.2,0-0.4,0.1-0.6l1-0.4l-0.6-0.6c0.2-0.4,0.5-0.7,0.8-1l0.4,0.8
			l0.4-1.2c0.3-0.1,0.6-0.1,0.8,0.1l-0.7,1.3l1-0.7c0,0.2,0.1,0.3,0.1,0.5c0,0.2,0,0.4-0.1,0.6l-1,0.4l0.6,0.6
			c-0.2,0.4-0.5,0.7-0.8,1l-0.4-0.8l-0.4,1.2c-0.3,0.1-0.6,0.1-0.8-0.1L217.3,209.6z"/>
		<path class="st9" d="M217.6,209.1c0,0.2,0.1,0.3,0.3,0.2c0.2-0.1,0.3-0.3,0.3-0.5c0-0.2-0.1-0.3-0.3-0.2
			C217.7,208.7,217.6,208.9,217.6,209.1z"/>
		<path class="st11" d="M240.3,198.4c0.7,0.2,1.4,0.2,2-0.3c1.7-1.1,2.8-3,2.9-5.1c0.1-0.7-0.2-1.4-0.8-1.9l-1.8-1.1
			c-0.7-0.3-1.5-0.3-2.1,0.2c-1.7,1.1-2.8,3-2.9,5.1c-0.1,0.8,0.3,1.5,0.9,1.9L240.3,198.4z"/>
		<path class="st18" d="M240.4,195.9c0,1.2,0.9,1.7,1.9,1.1c1.1-0.7,1.8-1.9,1.9-3.3c0-1.2-0.9-1.7-1.9-1.1
			C241.2,193.4,240.5,194.6,240.4,195.9z"/>
		<path class="st19" d="M240.8,195.6c0,0.9,0.6,1.3,1.4,0.8c0.8-0.6,1.4-1.5,1.4-2.5c0-0.9-0.6-1.3-1.4-0.8
			C241.4,193.7,240.9,194.6,240.8,195.6z"/>
		<path class="st13" d="M241.7,195.5l-1,0.7c0-0.2-0.1-0.3-0.1-0.5c0-0.2,0-0.4,0.1-0.6l1-0.4l-0.6-0.6c0.2-0.4,0.5-0.7,0.8-1
			l0.4,0.8l0.4-1.2c0.3-0.1,0.6-0.1,0.8,0.1l-0.6,1.2l1-0.7c0,0.2,0.1,0.3,0.1,0.5c0,0.2,0,0.4-0.1,0.6l-1,0.4l0.6,0.6
			c-0.2,0.4-0.5,0.7-0.8,1l-0.4-0.8l-0.4,1.2c-0.3,0.1-0.6,0.1-0.8-0.1L241.7,195.5z"/>
		<path class="st9" d="M242,195c0,0.2,0.1,0.3,0.3,0.2c0.2-0.1,0.3-0.3,0.3-0.5c0-0.2-0.1-0.3-0.3-0.2
			C242.1,194.6,242,194.8,242,195z"/>
		<path class="st20" d="M200.1,202.7c0,0,0-0.4,0-0.9c0-0.2,0-0.5,0.1-0.7c0.3-0.8,0.6-1.5,0.9-2.3c0.3-0.7,0.7-1.3,1.2-1.9
			c0.7-0.7,9-7.2,9-7.2s4-5.9,6.1-7.4s7.8-5.2,11.4-5.3c1.2,0,2.4,0.1,3.6,0.3l3.7-1.4c0.8-0.3,1.7-0.1,2.4,0.3l12.2,7l0,0
			c0.1,0,0.1,0.1,0.2,0.2v0.4l-2.1,1.9c-0.3,0.3-0.4,0.6-0.4,1v1.1l2.7-1.6h0l0.6,0.3c0,0,0.6,3.1-1.6,5.1l-4.2,2.5v-1.4
			c0-2.2-1.6-3.1-3.5-2c-2.1,1.3-3.4,3.6-3.5,6.1v1.5l-17.4,10.1v-1.5c0-2.2-1.6-3.1-3.5-2c-2.1,1.3-3.4,3.6-3.5,6.1v1.5
			c-0.6,0.2-1.2,0.2-1.8,0c-4.6-1.8-8.9-4.3-12.8-7.5c-0.2-0.2-0.3-0.4-0.3-0.7C199.4,203.7,199.7,203.1,200.1,202.7z"/>
		<path class="st21" d="M248.3,186.9v1.1l2.7-1.6l-0.2-2.3l-2.1,1.9C248.4,186.2,248.3,186.5,248.3,186.9z"/>
		<path class="st22" d="M231,196.6l-1.3,0.8c-0.2,0.1-0.3,0-0.3-0.2c0-0.2,0.1-0.4,0.3-0.5l1.3-0.8c0.2-0.1,0.3,0,0.3,0.2
			C231.3,196.3,231.2,196.5,231,196.6z"/>
		<path class="st22" d="M239.4,191.7l-1.3,0.8c-0.2,0.1-0.3,0-0.3-0.2c0-0.2,0.1-0.4,0.3-0.5l1.3-0.8c0.2-0.1,0.3,0,0.3,0.2
			C239.7,191.4,239.6,191.6,239.4,191.7z"/>
		<path class="st22" d="M242.2,188.2c0-0.1-0.1-0.1-0.1-0.1c0,0,0,0,0,0c-0.1,0-0.1,0.1-0.1,0.1c0,0,0.1,0.7-1.5,3
			c-1.7,2.3-2.6,4-2.6,6.6l-5.9,3.4V196c0-0.6,0.1-1.1,0.3-1.7c0-0.1,0-0.1,0-0.1c0,0,0,0,0,0c-0.1,0-0.1,0-0.1,0.1c0,0,0,0,0,0
			c-0.2,0.6-0.3,1.1-0.4,1.7v5.4l0,0l-8.4,4.8v-4.9c0-1,1.6-3.4,1.6-3.5c0,0,0-0.1,0-0.1c0,0,0,0,0,0c0,0-0.1,0-0.2,0
			c-0.1,0.1-1.6,2.5-1.6,3.6v5.2c0,0,0,0.1,0.1,0.1h0.1h0.1L238,198c0,0,0.1-0.1,0.1-0.1c0-2.6,0.9-4.3,2.6-6.5
			C242.3,189.1,242.2,188.3,242.2,188.2z"/>
		<path class="st22" d="M211.7,210L211.7,210c-4.2-1.7-8.1-4.1-11.5-7.1c0,0,0-0.1,0-0.2c0,0,0.1,0,0.2,0c3.4,3,7.2,5.3,11.4,7
			c0.1,0,0.1,0.1,0.1,0.1C211.7,209.9,211.7,210,211.7,210z"/>
		<polygon class="st2" points="206.6,208.8 203,206.7 203,204.2 206.6,206.3 		"/>
		<path class="st9" d="M212.7,207.7c-1.1,0.3-2.6-0.3-3.5-0.7l1.7-1.5c1.3,0.4,2.6,0.5,3.9,0.2C214.9,205.7,214,207.5,212.7,207.7z"
			/>
		<path class="st23" d="M212,210.7c-0.6,0.1-1.2-0.1-1.7-0.4l0.8-0.7c0.6,0.2,1.3,0.2,1.9,0.1C213,209.7,212.6,210.5,212,210.7z"/>
		<path class="st9" d="M202,200l-0.1,2.3c-0.6-0.5-1.2-1-1.7-1.5c0.1-0.6,0.4-1.2,0.8-1.7C201.3,199.4,201.6,199.7,202,200z"/>
		<path class="st23" d="M200.4,203.1v1c-0.3-0.2-0.5-0.4-0.7-0.6c0-0.3,0.1-0.5,0.3-0.7L200.4,203.1z"/>
		<path class="st14" d="M210.1,205l-1.7,1.5c-2-1-3.9-2.2-5.8-3.6l0.1-2.3C205,202.3,207.5,203.8,210.1,205z"/>
		<path class="st24" d="M239.9,183.8l-10.7-6.2h0.1c1.2,0,2.4,0.1,3.6,0.3l11,6.4c-1.1-0.2-2.2-0.3-3.3-0.3
			C240.4,183.9,240.2,183.9,239.9,183.8z"/>
		<path class="st25" d="M212.2,190.6c3,2.4,6.4,4.4,10,5.8c0.3,0.1,0.7,0,1-0.3c1.3-1.8,2.6-3.6,4.1-5.3c0.2-0.2,0.1-0.4,0-0.6
			c0,0-0.1-0.1-0.1-0.1l-10.1-5.8c-0.3-0.1-0.6-0.1-0.8,0.1c-1.5,1.7-2.8,3.5-4.1,5.3C212,190,212,190.3,212.2,190.6z"/>
		<path class="st17" d="M232.7,189.3l-1.2,5.4l1.6-0.9l0.5-5L232.7,189.3z"/>
		<path class="st24" d="M242,187.8c-0.8-1.3-2.2-1.4-3.4-1.2l-0.1,4l2.8-1.6C242.5,188.4,242,187.8,242,187.8z"/>
		<path class="st17" d="M224.7,197.8c0,0-0.5,1.1,0.3,0.6l0.3-0.2l0.5-2C225.4,196.8,225,197.4,224.7,197.8z"/>
		<path class="st25" d="M230.3,190.9c-1.2,0.8-3.1,3.4-4.5,5.3l-0.5,2l6.1-3.5l1.2-5.4C231.7,190,230.8,190.5,230.3,190.9z"/>
		<path class="st17" d="M238.1,186.7l-0.2,4.3l0.6-0.3l0.1-4L238.1,186.7z"/>
		<path class="st24" d="M236.2,187.4c-0.9,0.5-1.8,0.9-2.7,1.4l-0.5,5l4.9-2.8l0.2-4.3C237.4,186.9,236.8,187.1,236.2,187.4z"/>
		<path class="st22" d="M225.4,198.3l0.9-1.2c0.3-0.3,0.7-0.3,1.1-0.1l1.6,0.6c0.3,0.1,0.5,0.5,0.4,0.9c-0.2,0.3-0.4,0.5-0.6,0.7
			c-0.3,0.2-1.1,0-1.7-0.1c-0.3-0.1-0.6-0.1-0.9,0C226.1,199,225.2,199.3,225.4,198.3z"/>
	</g>
</g>
</svg>
