<svg xmlns="http://www.w3.org/2000/svg" viewBox="0 0 130.7 176.87"><defs><style>.cls-1{isolation:isolate;}.cls-2{fill:#eee;mix-blend-mode:multiply;}.cls-3{fill:#e0e0e0;}.cls-4{fill:#f5f5f5;}.cls-5{fill:#3949ab;}.cls-6{fill:#3d5afe;}.cls-7{fill:#4fc3f7;}.cls-8{fill:#fff;}.cls-9{fill:#81d4fa;}.cls-10{fill:#92e0fc;}.cls-11{fill:#29b6f6;}.cls-12{fill:#b3e5fc;opacity:0.7;}.cls-13{fill:#fafafa;}.cls-14{fill:#757575;}.cls-15{fill:#bdbdbd;}.cls-16{fill:#e53935;}.cls-17{fill:#d32f2f;}.cls-18{fill:#b0bec5;}.cls-19{fill:#cfd8dc;}.cls-20{fill:#eceff1;}</style></defs><title>アセット 151</title><g class="cls-1"><g id="レイヤー_2" data-name="レイヤー 2"><g id="shop"><polygon class="cls-2" points="23.88 130.92 56.52 158.1 72.4 164.12 77.29 170.1 88.55 168.26 130.7 143.93 66.03 106.59 23.88 130.92"/><polygon class="cls-3" points="121.46 95.19 121.46 144.59 77.29 170.1 77.29 120.69 121.46 95.19"/><polygon class="cls-4" points="77.29 120.69 77.29 170.1 72.4 167.27 72.4 133.86 59.17 126.22 56.52 124.69 56.52 158.1 10.6 131.59 10.6 82.19 77.29 120.69"/><polygon class="cls-5" points="121.46 95.19 121.46 140.38 77.29 165.88 77.29 120.69 121.46 95.19"/><polygon class="cls-6" points="77.29 120.69 77.29 165.88 72.4 163.06 72.4 129.64 59.17 122.01 56.52 120.48 56.52 153.89 10.6 127.38 10.6 82.19 77.29 120.69"/><polygon class="cls-2" points="121.46 95.19 121.46 99.63 77.29 125.14 10.6 86.63 10.6 82.19 77.29 120.69 121.46 95.19"/><polygon class="cls-7" points="51.58 121.84 51.58 146.93 50.76 146.46 46.15 143.79 39.84 140.16 37.37 138.72 35.11 137.43 22.5 130.14 15.54 126.13 15.54 101.03 18.19 102.56 25.45 106.75 27.7 108.05 30.18 109.48 36.48 113.12 41.1 115.79 51.58 121.84"/><polygon class="cls-8" points="72.4 133.86 72.4 164.12 59.17 156.48 59.17 126.22 72.4 133.86"/><polygon class="cls-9" points="71.36 134.46 71.36 162.31 69.43 161.2 66.86 159.72 64.38 158.29 60.21 155.88 60.21 128.02 63.4 129.87 71.36 134.46"/><polygon class="cls-9" points="51.58 121.84 51.58 143.78 18.19 124.5 18.19 102.56 51.58 121.84"/><polygon class="cls-10" points="51.58 143.78 51.58 139.88 21.4 122.45 18.19 124.5 51.58 143.78"/><polygon class="cls-5" points="56.52 158.1 59.17 156.48 59.17 126.22 56.52 124.69 56.52 158.1"/><polygon class="cls-11" points="15.54 126.13 18.19 124.5 18.19 102.56 15.54 101.03 15.54 126.13"/><polygon class="cls-12" points="35.11 137.43 22.5 130.14 15.54 108.06 15.54 101.03 18.19 102.56 25.45 106.75 35.11 137.43"/><polygon class="cls-12" points="39.84 140.16 37.37 138.72 27.7 108.05 30.18 109.48 39.84 140.16"/><polygon class="cls-12" points="50.76 146.46 46.15 143.79 36.48 113.12 41.1 115.79 50.76 146.46"/><polygon class="cls-12" points="66.86 159.72 64.38 158.29 60.21 144.96 60.21 138.48 66.86 159.72"/><polygon class="cls-12" points="71.36 155.27 71.36 162.31 69.43 161.2 60.21 131.75 60.21 128.02 63.4 129.87 71.36 155.27"/><polygon class="cls-8" points="60.21 142.83 60.21 141.07 71.36 147.51 71.36 149.27 60.21 142.83"/><polygon class="cls-13" points="6.44 79.85 54.77 51.94 125.62 92.85 77.29 120.75 6.44 79.85"/><polygon class="cls-3" points="77.29 120.75 6.44 79.85 6.44 82.19 77.29 123.09 125.62 95.19 125.62 92.85 77.29 120.75"/><polygon class="cls-14" points="54.77 56.68 12.62 81.02 10.6 79.85 54.77 54.34 54.77 56.68"/><polygon class="cls-15" points="54.77 56.68 119.44 94.01 121.46 92.84 54.77 54.34 54.77 56.68"/><polygon class="cls-3" points="12.62 81.02 77.29 118.35 119.44 94.02 54.77 56.68 12.62 81.02"/><path class="cls-16" d="M10.6,87.68A21.1,21.1,0,0,0,0,106v.12l66.69,38.54,10.6-18.43Z"/><path class="cls-17" d="M77.29,126.22v12.34l-10.6,6.09v-.12A21.11,21.11,0,0,1,77.29,126.22Z"/><path class="cls-2" d="M91.48,110h0c1.86-1.07,1.62-3-.52-4.19L40.89,76.91a8.08,8.08,0,0,0-7.26-.3h0c-1.85,1.07-1.62,3,.52,4.19l50.07,28.91A8.12,8.12,0,0,0,91.48,110Z"/><path class="cls-18" d="M89.53,105.56a45.51,45.51,0,0,1-3.63-9.23,4.2,4.2,0,0,0,1.59-1.75c1-1.81,1.21-4.54.74-7.69A25.77,25.77,0,0,0,85,77.76c-1.76-2.94-3.86-5-5.91-5.7a6.19,6.19,0,0,0-.67-.19,57.94,57.94,0,0,0-8.75-17.23l-.5-2.72a2.5,2.5,0,0,0,.05-.29l4.25-41.2A3.9,3.9,0,0,0,72,7.32L70,8.48l-4.26,24.8L59.67.09a1.1,1.1,0,0,0-.93,0l-2,1.17,2.54,10.45,3.8,36.19c0,.12,0,.24,0,.35L62.7,51c-1.54.24-5.6,1.43-8.57,7.39-.22-.2-.45-.39-.68-.57-2.06-1.6-4.14-2-5.88-1l-.11.06L45.5,58l.47.22a9.14,9.14,0,0,0-1.56,4h0a18.27,18.27,0,0,0,.85,8.59,15.57,15.57,0,0,0,4.84,7.34,7.63,7.63,0,0,0,1.82,1.09,5,5,0,0,0,2.13.43l.07.58,2-1.17c1.54-.92,2.63-2.83,3-5.41a18.29,18.29,0,0,0-.85-8.59,19.33,19.33,0,0,0-1.64-3.59c2.48-5.14,5.84-6.44,7.28-6.77a4.51,4.51,0,0,0,2.45.39,10.82,10.82,0,0,0,2.06,1.91,53.35,53.35,0,0,1,7.44,15.13A4.13,4.13,0,0,0,74.28,74c-1,1.8-1.21,4.53-.74,7.69a25.79,25.79,0,0,0,3.27,9.12c1.67,2.8,3.65,4.76,5.6,5.58l.31.12a5.36,5.36,0,0,0,.7.2c.06.1.12.2.17.3l-.55.32,4.45,11.32,2-1.17C89.89,107.18,89.94,106.38,89.53,105.56ZM56.27,71.49c-.33,2-1.16,3.47-2.33,4.12a2.92,2.92,0,0,1-3.35-.44,9.09,9.09,0,0,1-2.71-4.27,13.55,13.55,0,0,1-.61-6.41h0c.33-2,1.16-3.47,2.34-4.13a2.7,2.7,0,0,1,2.43-.1,4.41,4.41,0,0,1,.92.54,9.18,9.18,0,0,1,2.71,4.28A13.53,13.53,0,0,1,56.27,71.49ZM84.86,91.64a2.06,2.06,0,0,1-2.68,1.21,7.52,7.52,0,0,1-3.37-3.37,19.21,19.21,0,0,1-2.41-6.82c-.7-4.66.76-7.86,3.19-7l.15.06A7.89,7.89,0,0,1,83,79.05a19.09,19.09,0,0,1,2.41,6.81A9.89,9.89,0,0,1,84.86,91.64Z"/><path class="cls-19" d="M70,8.48,60.73,52.12c-1.54.24-5.6,1.44-8.57,7.4-.22-.2-.45-.4-.67-.57-2.06-1.6-4.15-2-5.88-1L45.5,58c-1.55.92-2.63,2.83-3.06,5.41h0A18.29,18.29,0,0,0,43.29,72a15.62,15.62,0,0,0,4.84,7.34A8.19,8.19,0,0,0,50,80.45a4.51,4.51,0,0,0,4.06-.1l.11-.06c1.55-.92,2.63-2.83,3.05-5.41a18.14,18.14,0,0,0-.85-8.59,18.43,18.43,0,0,0-1.64-3.59c2.48-5.15,5.84-6.45,7.29-6.77,2.69,1.15,4.92,0,5.24-3.13l4.25-41.2A3.94,3.94,0,0,0,70,8.48ZM54.31,72.65c-.33,2-1.16,3.47-2.34,4.13a2.93,2.93,0,0,1-3.34-.44,9.19,9.19,0,0,1-2.72-4.28,13.53,13.53,0,0,1-.6-6.41h0c.33-2,1.16-3.47,2.33-4.12a2.7,2.7,0,0,1,2.43-.11A3.86,3.86,0,0,1,51,62a9.18,9.18,0,0,1,2.72,4.27A13.67,13.67,0,0,1,54.31,72.65Z"/><path class="cls-20" d="M85.53,95.74c1-1.81,1.21-4.54.73-7.69A25.4,25.4,0,0,0,83,78.93c-1.76-3-3.85-5-5.91-5.71a6.19,6.19,0,0,0-.67-.19A58,58,0,0,0,67.66,55.8L57.71,1.25a1.08,1.08,0,0,0-.94,0,1.41,1.41,0,0,0-.5,1.42L61.14,49.1a13.83,13.83,0,0,0,5.33,9.13,53.2,53.2,0,0,1,7.44,15.13,4.22,4.22,0,0,0-1.6,1.75c-1,1.81-1.21,4.54-.73,7.69a25.58,25.58,0,0,0,3.26,9.12c1.68,2.8,3.65,4.77,5.61,5.59l.31.12a6.77,6.77,0,0,0,.7.2,44.45,44.45,0,0,1,4,9.18c.31,1,1.15,1.76,1.79,1.67h0a.53.53,0,0,0,.22-.08c.44-.26.48-1.06.07-1.88a45.28,45.28,0,0,1-3.63-9.23A4.22,4.22,0,0,0,85.53,95.74ZM80.21,94a7.6,7.6,0,0,1-3.37-3.38,19.14,19.14,0,0,1-2.41-6.82c-.7-4.65.76-7.85,3.2-7a.47.47,0,0,1,.15.06A7.78,7.78,0,0,1,81,80.21,19,19,0,0,1,83.4,87a9.78,9.78,0,0,1-.51,5.77A2.07,2.07,0,0,1,80.21,94Z"/><path class="cls-18" d="M66,50.8a4.36,4.36,0,0,0-2.24-3.26,1.32,1.32,0,0,0-1.08,0l-.85.42.25.46a2.4,2.4,0,0,0,0,.77,4.32,4.32,0,0,0,2.22,3.24l.25.47.85-.42A1.51,1.51,0,0,0,66,50.8Z"/><path class="cls-19" d="M65.16,51.21a1.54,1.54,0,0,1-.63,1.65,1.32,1.32,0,0,1-1.08,0,4.36,4.36,0,0,1-2.24-3.26,1.51,1.51,0,0,1,.63-1.64,1.32,1.32,0,0,1,1.08,0A4.36,4.36,0,0,1,65.16,51.21Z"/><path class="cls-2" d="M71.39,176.06a7.46,7.46,0,0,1-6.76,0c-1.86-1.08-1.86-2.82,0-3.9a7.46,7.46,0,0,1,6.76,0C73.26,173.24,73.26,175,71.39,176.06Z"/><path class="cls-14" d="M69,172.47a5.27,5.27,0,0,0-4.28,0H63.55v1.46a1.66,1.66,0,0,0,1,1.36,5.15,5.15,0,0,0,4.68,0,1.64,1.64,0,0,0,1-1.35v-1.46Z"/><path class="cls-15" d="M69.19,171.11a1.67,1.67,0,0,1,1,1.36,1.64,1.64,0,0,1-1,1.35,5.15,5.15,0,0,1-4.68,0,1.67,1.67,0,0,1-1-1.36,1.63,1.63,0,0,1,1-1.35A5.13,5.13,0,0,1,69.19,171.11Z"/><path class="cls-8" d="M64.34,151.29V172.2a1.26,1.26,0,0,0,.74,1,3.94,3.94,0,0,0,3.57,0,1.23,1.23,0,0,0,.73-1V151.29Z"/><path class="cls-16" d="M65,169.83a4.68,4.68,0,0,0-.69.58v1.79a1.26,1.26,0,0,0,.68,1A18,18,0,0,0,68.3,170a7.57,7.57,0,0,0,1.08-2.37v-3.4C69,165.62,68,167.67,65,169.83Z"/><path class="cls-16" d="M65.07,156a4.77,4.77,0,0,0-.73.63v3.43a4.31,4.31,0,0,1,.67-.57c2.9-2.15,4-4.14,4.37-5.58v-2.66h-.26A11.6,11.6,0,0,1,65.07,156Z"/><path class="cls-6" d="M68.65,173.23a1.23,1.23,0,0,0,.73-1V171a7.68,7.68,0,0,1-1.1,2.42A2.12,2.12,0,0,0,68.65,173.23Z"/><path class="cls-6" d="M65.05,162.94a4,4,0,0,0-.71.6V167a4.56,4.56,0,0,1,.65-.55c3-2.18,4-4.2,4.39-5.65v-3.41C69,158.8,67.92,160.81,65.05,162.94Z"/><path class="cls-6" d="M64.34,153.23l.13-.14c.5-.49,1.1-.86,1.63-1.31a3.43,3.43,0,0,1-1.14-.4l-.16-.09h-.46Z"/><path class="cls-14" d="M69,149.83a5.27,5.27,0,0,0-4.28,0H63.55v1.46a1.65,1.65,0,0,0,1,1.36,5.15,5.15,0,0,0,4.68,0,1.64,1.64,0,0,0,1-1.34v-1.46Z"/><path class="cls-15" d="M69.19,148.47a1.67,1.67,0,0,1,1,1.37,1.64,1.64,0,0,1-1,1.34,5.15,5.15,0,0,1-4.68,0,1.43,1.43,0,0,1,0-2.71A5.19,5.19,0,0,1,69.19,148.47Z"/><path class="cls-3" d="M69.51,149.7a2.65,2.65,0,0,0-5.28-.15.77.77,0,0,0,0,.15h0a1.32,1.32,0,0,0,.79,1.09,4.11,4.11,0,0,0,3.74,0,1.32,1.32,0,0,0,.77-1.08Z"/><path class="cls-8" d="M66,149.19a.65.65,0,0,1-1.29,0,.65.65,0,0,1,1.29,0Z"/><path class="cls-8" d="M67.17,148.25a.31.31,0,0,1-.31.3.31.31,0,0,1,0-.61A.31.31,0,0,1,67.17,148.25Z"/><path class="cls-2" d="M49.73,164A7.52,7.52,0,0,1,43,164c-1.86-1.08-1.86-2.83,0-3.91a7.52,7.52,0,0,1,6.76,0C51.6,161.13,51.6,162.88,49.73,164Z"/><path class="cls-14" d="M47.34,160.36a5.31,5.31,0,0,0-4.28,0H41.89v1.46a1.65,1.65,0,0,0,1,1.36,5.15,5.15,0,0,0,4.68,0,1.64,1.64,0,0,0,1-1.34v-1.46Z"/><path class="cls-15" d="M47.53,159a1.67,1.67,0,0,1,1,1.37,1.64,1.64,0,0,1-1,1.34,5.15,5.15,0,0,1-4.68,0,1.43,1.43,0,0,1,0-2.71A5.21,5.21,0,0,1,47.53,159Z"/><path class="cls-8" d="M42.68,139.18v20.91a1.28,1.28,0,0,0,.74,1,3.94,3.94,0,0,0,3.57,0,1.26,1.26,0,0,0,.73-1V139.19Z"/><path class="cls-16" d="M43.37,157.72a4.68,4.68,0,0,0-.69.58v1.79a1.23,1.23,0,0,0,.68,1,17.65,17.65,0,0,0,3.28-3.24,7.52,7.52,0,0,0,1.08-2.38v-3.39C47.34,153.52,46.29,155.56,43.37,157.72Z"/><path class="cls-16" d="M43.41,143.94a4.31,4.31,0,0,0-.73.62V148a3.81,3.81,0,0,1,.67-.58c2.9-2.15,4-4.13,4.37-5.57v-2.66h-.26A11.67,11.67,0,0,1,43.41,143.94Z"/><path class="cls-6" d="M47,161.13a1.26,1.26,0,0,0,.73-1v-1.22a7.48,7.48,0,0,1-1.1,2.42Z"/><path class="cls-6" d="M43.39,150.83a4.51,4.51,0,0,0-.71.6v3.44a4.53,4.53,0,0,1,.65-.56c3-2.18,4-4.2,4.39-5.64v-3.41C47.33,146.69,46.26,148.71,43.39,150.83Z"/><path class="cls-6" d="M42.68,141.12a.8.8,0,0,1,.13-.13c.5-.49,1.1-.86,1.63-1.32a3.42,3.42,0,0,1-1.14-.39l-.16-.1h-.46Z"/><path class="cls-14" d="M47.34,137.73a5.27,5.27,0,0,0-4.28,0H41.89v1.46a1.67,1.67,0,0,0,1,1.36,5.15,5.15,0,0,0,4.68,0,1.64,1.64,0,0,0,1-1.35v-1.46Z"/><path class="cls-15" d="M47.53,136.37a1.43,1.43,0,0,1,0,2.71,5.18,5.18,0,0,1-4.68,0,1.67,1.67,0,0,1-1-1.36,1.64,1.64,0,0,1,1-1.35A5.15,5.15,0,0,1,47.53,136.37Z"/><path class="cls-3" d="M47.85,137.59a2.65,2.65,0,0,0-5.28-.15.77.77,0,0,0,0,.15h0a1.33,1.33,0,0,0,.78,1.09,4.13,4.13,0,0,0,3.75,0,1.32,1.32,0,0,0,.77-1.08Z"/><path class="cls-8" d="M44.36,137.08a.65.65,0,1,1-.65-.64A.64.64,0,0,1,44.36,137.08Z"/><circle class="cls-8" cx="45.2" cy="136.14" r="0.31"/></g></g></g></svg>