<svg xmlns="http://www.w3.org/2000/svg" viewBox="0 0 153.29 136.49"><defs><style>.cls-1{fill:#efefef;}.cls-2{fill:#bedfc2;}.cls-3{fill:#dcdddd;}.cls-4{fill:#7ecef4;}.cls-5{fill:#9fd9f6;}.cls-6{fill:#c9caca;}.cls-7{fill:#6db3d4;}.cls-8{fill:#63a4c2;}.cls-9{fill:#b5b5b6;}.cls-10{fill:#fff;}.cls-11{fill:#898989;}.cls-12{fill:#036eb8;}.cls-13{fill:#d3d3d4;}.cls-14{fill:#025fa1;}.cls-15{fill:#fbdac8;}.cls-16{fill:#d9bdae;}.cls-17{fill:#3e3a39;}.cls-18{fill:#efeee8;}.cls-19{fill:#595757;}.cls-20{fill:#e60012;}.cls-21{fill:#b60005;}.cls-22{fill:#c7000b;}</style></defs><title>アセット 18</title><g id="レイヤー_2" data-name="レイヤー 2"><g id="レイヤー_1-2" data-name="レイヤー 1"><polygon class="cls-1" points="44.56 76.42 132.37 25.73 87.81 0 0 50.7 44.56 76.42"/><polygon class="cls-2" points="9.46 54 87.81 8.76 122.91 29.02 44.56 74.27 9.46 54"/><polygon class="cls-3" points="44.56 122.15 132.37 71.45 132.37 25.73 44.56 76.42 44.56 122.15"/><polygon class="cls-4" points="124.34 41.94 129.53 38.95 129.53 32.96 124.34 35.95 124.34 41.94"/><polygon class="cls-5" points="119.15 44.94 124.34 41.94 124.34 35.95 119.15 38.95 119.15 44.94"/><polygon class="cls-4" points="113.97 47.93 119.15 44.94 119.15 38.95 113.97 41.94 113.97 47.93"/><polygon class="cls-5" points="108.78 50.93 113.97 47.93 113.97 41.94 108.78 44.94 108.78 50.93"/><polygon class="cls-4" points="124.34 53.32 129.53 50.33 129.53 44.34 124.34 47.33 124.34 53.32"/><polygon class="cls-5" points="119.15 56.32 124.34 53.32 124.34 47.33 119.15 50.33 119.15 56.32"/><polygon class="cls-4" points="113.97 59.31 119.15 56.32 119.15 50.33 113.97 53.32 113.97 59.31"/><polygon class="cls-5" points="108.78 62.31 113.97 59.31 113.97 53.32 108.78 56.32 108.78 62.31"/><polygon class="cls-4" points="124.34 64.7 129.53 61.71 129.53 55.72 124.34 58.72 124.34 64.7"/><polygon class="cls-5" points="119.15 67.7 124.34 64.7 124.34 58.72 119.15 61.71 119.15 67.7"/><polygon class="cls-4" points="113.97 70.69 119.15 67.7 119.15 61.71 113.97 64.7 113.97 70.69"/><polygon class="cls-5" points="108.78 73.69 113.97 70.69 113.97 64.7 108.78 67.7 108.78 73.69"/><polygon class="cls-5" points="52.59 83.37 47.41 86.36 47.41 80.37 52.59 77.38 52.59 83.37"/><polygon class="cls-4" points="57.78 80.37 52.59 83.37 52.59 77.38 57.78 74.38 57.78 80.37"/><polygon class="cls-5" points="62.97 77.38 57.78 80.37 57.78 74.38 62.97 71.39 62.97 77.38"/><polygon class="cls-4" points="68.15 74.38 62.97 77.38 62.97 71.39 68.15 68.39 68.15 74.38"/><polygon class="cls-5" points="52.59 94.75 47.41 97.74 47.41 91.75 52.59 88.76 52.59 94.75"/><polygon class="cls-4" points="57.78 91.75 52.59 94.75 52.59 88.76 57.78 85.76 57.78 91.75"/><polygon class="cls-5" points="62.97 88.76 57.78 91.75 57.78 85.76 62.97 82.77 62.97 88.76"/><polygon class="cls-4" points="68.15 85.76 62.97 88.76 62.97 82.77 68.15 79.78 68.15 85.76"/><polygon class="cls-5" points="52.59 106.13 47.41 109.12 47.41 103.13 52.59 100.14 52.59 106.13"/><polygon class="cls-4" points="57.78 103.13 52.59 106.13 52.59 100.14 57.78 97.14 57.78 103.13"/><polygon class="cls-5" points="62.97 100.14 57.78 103.13 57.78 97.14 62.97 94.15 62.97 100.14"/><polygon class="cls-4" points="68.15 97.14 62.97 100.14 62.97 94.15 68.15 91.15 68.15 97.14"/><polygon class="cls-6" points="0 96.42 44.56 122.15 44.56 76.42 0 50.7 0 96.42"/><polygon class="cls-7" points="36.52 83.37 41.71 86.36 41.71 80.37 36.52 77.38 36.52 83.37"/><polygon class="cls-8" points="31.34 80.37 36.52 83.37 36.52 77.38 31.34 74.38 31.34 80.37"/><polygon class="cls-7" points="26.15 77.38 31.34 80.37 31.34 74.38 26.15 71.39 26.15 77.38"/><polygon class="cls-8" points="20.96 74.38 26.15 77.38 26.15 71.39 20.96 68.39 20.96 74.38"/><polygon class="cls-7" points="36.52 94.75 41.71 97.74 41.71 91.75 36.52 88.76 36.52 94.75"/><polygon class="cls-8" points="31.34 91.75 36.52 94.75 36.52 88.76 31.34 85.76 31.34 91.75"/><polygon class="cls-7" points="26.15 88.76 31.34 91.75 31.34 85.76 26.15 82.77 26.15 88.76"/><polygon class="cls-8" points="20.96 85.76 26.15 88.76 26.15 82.77 20.96 79.78 20.96 85.76"/><polygon class="cls-7" points="36.52 106.13 41.71 109.12 41.71 103.13 36.52 100.14 36.52 106.13"/><polygon class="cls-8" points="31.34 103.13 36.52 106.13 36.52 100.14 31.34 97.14 31.34 103.13"/><polygon class="cls-7" points="26.15 100.14 31.34 103.13 31.34 97.14 26.15 94.15 26.15 100.14"/><polygon class="cls-8" points="20.96 97.14 26.15 100.14 26.15 94.15 20.96 91.15 20.96 97.14"/><polygon class="cls-7" points="5.09 65.22 7.86 66.82 7.86 60.83 5.09 59.23 5.09 65.22"/><polygon class="cls-7" points="5.09 76.6 7.86 78.2 7.86 72.21 5.09 70.61 5.09 76.6"/><polygon class="cls-7" points="5.09 87.98 7.86 89.58 7.86 83.59 5.09 81.99 5.09 87.98"/><polygon class="cls-9" points="128.63 25.73 122.91 29.02 87.81 8.76 87.81 2.16 128.63 25.73"/><polygon class="cls-3" points="87.81 2.16 87.81 8.76 9.46 54 3.74 50.7 87.81 2.16"/><polygon class="cls-10" points="68.15 51.42 91.93 65.15 132.56 41.7 108.78 27.97 68.15 51.42"/><polygon class="cls-1" points="91.93 122.25 132.56 98.8 132.56 41.7 91.93 65.15 91.93 122.25"/><polygon class="cls-5" points="112.25 87.77 107.06 90.76 107.06 84.77 112.25 81.78 112.25 87.77"/><polygon class="cls-4" points="117.43 84.77 112.25 87.77 112.25 81.78 117.43 78.78 117.43 84.77"/><polygon class="cls-5" points="101.87 93.75 96.69 96.75 96.69 90.76 101.87 87.76 101.87 93.75"/><polygon class="cls-4" points="107.06 90.76 101.87 93.75 101.87 87.76 107.06 84.77 107.06 90.76"/><polygon class="cls-5" points="122.62 81.78 117.43 84.77 117.43 78.78 122.62 75.79 122.62 81.78"/><polygon class="cls-4" points="127.81 78.78 122.62 81.78 122.62 75.79 127.81 72.79 127.81 78.78"/><polygon class="cls-5" points="112.25 110.13 107.84 112.67 107.84 100.73 112.25 98.18 112.25 110.13"/><polygon class="cls-4" points="116.65 107.58 112.25 110.13 112.25 98.18 116.65 95.64 116.65 107.58"/><polygon class="cls-5" points="103.43 115.22 99.03 117.76 99.03 105.81 103.43 103.27 103.43 115.22"/><polygon class="cls-4" points="107.84 112.67 103.43 115.22 103.43 103.27 107.84 100.73 107.84 112.67"/><polygon class="cls-5" points="121.06 105.04 116.65 107.58 116.65 95.64 121.06 93.09 121.06 105.04"/><polygon class="cls-4" points="125.47 102.49 121.06 105.04 121.06 93.09 125.47 90.55 125.47 102.49"/><polygon class="cls-5" points="112.25 76.38 107.06 79.38 107.06 73.39 112.25 70.4 112.25 76.38"/><polygon class="cls-4" points="117.43 73.39 112.25 76.38 112.25 70.4 117.43 67.4 117.43 73.39"/><polygon class="cls-5" points="101.87 82.37 96.69 85.37 96.69 79.38 101.87 76.39 101.87 82.37"/><polygon class="cls-4" points="107.06 79.38 101.87 82.37 101.87 76.39 107.06 73.39 107.06 79.38"/><polygon class="cls-5" points="122.62 70.4 117.43 73.39 117.43 67.4 122.62 64.41 122.62 70.4"/><polygon class="cls-4" points="127.81 67.4 122.62 70.4 122.62 64.41 127.81 61.41 127.81 67.4"/><polygon class="cls-5" points="112.25 65 107.06 68 107.06 62.01 112.25 59.02 112.25 65"/><polygon class="cls-4" points="117.43 62.01 112.25 65 112.25 59.02 117.43 56.02 117.43 62.01"/><polygon class="cls-5" points="101.87 70.99 96.69 73.99 96.69 68 101.87 65.01 101.87 70.99"/><polygon class="cls-4" points="107.06 68 101.87 70.99 101.87 65.01 107.06 62.01 107.06 68"/><polygon class="cls-5" points="122.62 59.02 117.43 62.01 117.43 56.02 122.62 53.03 122.62 59.02"/><polygon class="cls-4" points="127.81 56.02 122.62 59.02 122.62 53.03 127.81 50.03 127.81 56.02"/><polygon class="cls-6" points="68.15 108.52 91.93 122.25 91.93 65.15 68.15 51.42 68.15 108.52"/><polygon class="cls-7" points="85.29 84.28 88.06 85.88 88.06 79.89 85.29 78.29 85.29 84.28"/><polygon class="cls-7" points="85.29 95.66 88.06 97.26 88.06 91.27 85.29 89.67 85.29 95.66"/><polygon class="cls-7" points="85.29 72.89 88.06 74.5 88.06 68.51 85.29 66.91 85.29 72.89"/><polygon class="cls-7" points="85.29 107.03 88.06 108.64 88.06 102.65 85.29 101.05 85.29 107.03"/><polygon class="cls-7" points="73.34 77.38 78.53 80.37 78.53 74.38 73.34 71.39 73.34 77.38"/><polygon class="cls-8" points="68.15 74.38 73.34 77.38 73.34 71.39 68.15 68.39 68.15 74.38"/><polygon class="cls-7" points="73.34 88.76 78.53 91.75 78.53 85.76 73.34 82.77 73.34 88.76"/><polygon class="cls-8" points="68.15 85.76 73.34 88.76 73.34 82.77 68.15 79.78 68.15 85.76"/><polygon class="cls-7" points="73.34 100.14 78.53 103.13 78.53 97.14 73.34 94.15 73.34 100.14"/><polygon class="cls-8" points="68.15 97.14 73.34 100.14 73.34 94.15 68.15 91.15 68.15 97.14"/><polygon class="cls-9" points="100.36 54.2 113.24 46.77 113.24 43.32 100.36 50.76 100.36 54.2"/><polygon class="cls-11" points="87.48 46.77 100.36 54.2 100.36 50.76 87.48 43.32 87.48 46.77"/><polygon class="cls-1" points="100.36 52.36 118.35 41.97 118.35 24.2 100.36 34.59 100.36 52.36"/><polygon class="cls-12" points="104.77 39.9 108.15 37.95 108.15 34.04 110.56 32.65 110.56 36.56 113.94 34.6 113.94 37.38 110.56 39.34 110.56 43.25 108.15 44.64 108.15 40.73 104.77 42.68 104.77 39.9"/><polygon class="cls-13" points="82.36 41.97 100.36 52.36 100.36 34.59 82.36 24.2 82.36 41.97"/><polygon class="cls-10" points="82.36 24.2 100.36 34.59 118.35 24.2 100.36 13.81 82.36 24.2"/><polygon class="cls-14" points="86.77 34.6 90.15 36.56 90.15 32.65 92.56 34.04 92.56 37.95 95.95 39.9 95.95 42.68 92.56 40.73 92.56 44.64 90.15 43.25 90.15 39.34 86.77 37.38 86.77 34.6"/><polygon class="cls-15" points="118.53 131.42 115.75 133.03 115.75 117.16 118.53 115.56 118.53 131.42"/><polygon class="cls-16" points="112.98 131.42 115.75 133.03 115.75 117.16 112.98 115.56 112.98 131.42"/><polygon class="cls-15" points="148.44 116.55 151.22 114.94 151.22 99.08 148.44 100.69 148.44 116.55"/><polygon class="cls-16" points="145.67 114.94 148.44 116.55 148.44 100.69 145.67 99.08 145.67 114.94"/><polygon class="cls-3" points="117.83 118.36 153.29 97.89 153.29 90.99 117.83 111.46 117.83 118.36"/><polygon class="cls-12" points="133.48 105.33 135.01 104.44 135.01 102.67 136.1 102.04 136.1 103.81 137.64 102.93 137.64 104.19 136.1 105.08 136.1 106.85 135.01 107.48 135.01 105.71 133.48 106.59 133.48 105.33"/><polygon class="cls-6" points="94.52 104.9 117.83 118.36 117.83 111.46 94.52 98 94.52 104.9"/><polygon class="cls-1" points="94.52 98 117.83 111.46 153.29 90.99 129.98 77.53 94.52 98"/><polygon class="cls-17" points="89.44 136.37 108.65 125.28 108.65 121.39 89.44 132.48 89.44 136.37"/><path class="cls-18" d="M88.22,136.28,81,132.22c-.2-.11-.4-.48-.4-1.54v-4a18.51,18.51,0,0,1,.93-4.22,5.32,5.32,0,0,1,2-2.81l1.42-.82,7.25-4.18s3.81-1.38,6.68-.92a4.34,4.34,0,0,1,1.85.69l7.36,4.09,1.32,1.25a3.93,3.93,0,0,1,.43,1.9l.53,0v1.92s.07.7-1.28,1.47l-1.25.72a.49.49,0,0,0,0-.12c0-1.4-1-2-2.19-1.27a4.85,4.85,0,0,0-2.19,3.8s0,.08,0,.11l-8.52,4.92a.53.53,0,0,0,0-.13c0-1.4-1-2-2.19-1.26a4.85,4.85,0,0,0-2.19,3.8s0,.07,0,.11l-1,.64A1.44,1.44,0,0,1,88.22,136.28Z"/><path class="cls-17" d="M81.46,127.09a15.3,15.3,0,0,1,.56-2.88l6.24,3.46a15.45,15.45,0,0,0-.56,2.88Z"/><path class="cls-17" d="M89.74,131c0,.26.18.36.41.23l11.19-6.46a.9.9,0,0,0,.41-.71v-2.61c0-.26-.18-.37-.41-.24l-10.79,6.23a.92.92,0,0,0-.41.71Z"/><path class="cls-19" d="M104.45,127.61c0,.76.53,1.07,1.19.69a2.64,2.64,0,0,0,1.19-2.07c0-.76-.53-1.07-1.19-.69A2.64,2.64,0,0,0,104.45,127.61Z"/><path class="cls-19" d="M91.57,135.05c0,.76.53,1.07,1.19.69a2.65,2.65,0,0,0,1.2-2.07c0-.76-.54-1.07-1.2-.69A2.64,2.64,0,0,0,91.57,135.05Z"/><path class="cls-9" d="M103.13,120.12l3.54-2a3.51,3.51,0,0,1,2.72,1.67l-5.45,2.6Z"/><polygon class="cls-20" points="88.9 133.03 109.11 121.36 109.11 120.75 88.9 132.42 88.9 133.03"/><polygon class="cls-21" points="88.84 134.8 89.23 134.57 89.23 132.94 88.84 133.16 88.84 134.8"/><polygon class="cls-21" points="81.35 130.58 80.96 130.39 80.96 128.62 81.35 128.84 81.35 130.58"/><path class="cls-20" d="M96.58,113.05l7.59,4.27c.27.06.44.26.44.68l-2.51,1.25-8.75-5S95.81,112.46,96.58,113.05Z"/><polygon class="cls-10" points="85.39 133.42 82.88 131.97 82.88 130.36 85.39 131.81 85.39 133.42"/><polygon class="cls-22" points="81.05 127.88 88.9 132.42 88.9 133.03 81.05 128.5 81.05 127.88"/><polygon class="cls-21" points="88.35 132.87 88.84 133.16 88.84 134.8 88.35 134.53 88.35 132.87"/><path class="cls-20" d="M90.52,126.15l1.3-.75a1.83,1.83,0,0,0,.7-1.45,1.08,1.08,0,0,0-.54-1.2l-7-4a2.27,2.27,0,0,0-1.09,0,8.41,8.41,0,0,0-1.3.79s-.55.73.18.65l7.11,4.06a.59.59,0,0,1,.22.76,1.93,1.93,0,0,0-.15.85A.35.35,0,0,0,90.52,126.15Z"/></g></g></svg>