<svg xmlns="http://www.w3.org/2000/svg" viewBox="0 0 79.67 94.5"><defs><style>.cls-1,.cls-4{fill:#fff;}.cls-2{fill:#352721;}.cls-3{fill:#1d6da6;}.cls-4{font-size:10px;font-family:KFhimaji-83pv-RKSJ-H, KFhimaji;}</style></defs><title>アセット 130</title><g id="レイヤー_2" data-name="レイヤー 2"><g id="レイヤー_1-2" data-name="レイヤー 1"><path class="cls-1" d="M3.31,27.38C10.4,10.45,20,6.1,27.34,3.29A32.46,32.46,0,0,1,39.14.85a49.22,49.22,0,0,1,18.49,4c4.08,1.79,9.25,5.63,12.56,8.59,4,3.54,4.42,7.41,6.31,12.34,2.67,7,2.36,16.47,1.86,23.93S75,62.66,69.6,67.9C63.52,73.8,57,76.36,48.79,78.72c-3,.86-9.09,14.79-9.09,14.79s-6.34-13.73-9.4-14.63a56.26,56.26,0,0,1-10.83-4.21A38.82,38.82,0,0,1,2.7,56.12C-.69,48.38,1.85,30.87,3.31,27.38Z"/><path class="cls-2" d="M4.17,27.89C9.89,14.71,19.82,5,34.25,2.3,44.26.46,55.5,3.87,63.69,9.6c3.4,2.37,7.1,5.06,9,8.83a51,51,0,0,1,4.08,12.1c1.65,7.89,1.89,18.55-.85,26.25-3.2,9-11.59,15.28-20.19,18.61-5,1.93-8.22,1.94-11.16,6.48A79.73,79.73,0,0,0,38.84,93h1.73A67.89,67.89,0,0,0,33.8,80.87a8.25,8.25,0,0,0-4-3.2c-5.22-2-10.2-3.59-14.69-7.1-7.32-5.73-12.59-13.89-13-23.29C1.78,41,2,33.61,4.27,27.65c.45-1.21-1.48-1.73-1.93-.54C.19,32.85-.1,40,0,46A31.5,31.5,0,0,0,7.86,66.35a38.64,38.64,0,0,0,9.8,8.44A41.35,41.35,0,0,0,23,77.4c2.28.94,5.63,1.45,7.62,2.83,3.88,2.69,6.32,9.6,8.26,13.78a1,1,0,0,0,1.73,0,89.62,89.62,0,0,1,5-9.83C47.2,81.39,48.17,80,51.31,79a62.47,62.47,0,0,0,9.18-3.51,37.61,37.61,0,0,0,14-11.68c3.85-5.42,4.81-11.47,5.1-18,.57-13-1.32-27.57-12.19-36C56,1,40.88-2.85,27.08,2.33,15.12,6.82,7.51,15.21,2.44,26.88,1.94,28,3.66,29.06,4.17,27.89Z"/><path class="cls-3" d="M8.1,29.06C14.26,14.35,22.62,10.58,29,8.13A28.33,28.33,0,0,1,39.23,6,42.73,42.73,0,0,1,55.3,9.51,48.31,48.31,0,0,1,66.21,17c3.45,3.07,3.85,6.43,5.48,10.72C74,33.78,73.75,42,73.31,48.49S70.4,59.71,65.7,64.27c-5.28,5.13-11,7.35-18.08,9.4-2.58.75-5.21.63-7.9.69s-5.5.23-8.16-.55a48.51,48.51,0,0,1-9.42-3.66A33.7,33.7,0,0,1,7.57,54C4.62,47.31,6.83,32.09,8.1,29.06Z"/><path class="cls-1" d="M42.61,53.57a58.77,58.77,0,0,1-6.23-.19A4.61,4.61,0,0,1,34.76,53a1.31,1.31,0,0,1-.63-.77A18.83,18.83,0,0,1,33.2,45l0-5.9a4.69,4.69,0,0,1,.6-2.73,5,5,0,0,1,3.57-1.89,15,15,0,0,1,4,.2,13.43,13.43,0,0,1,3.79.9,3.4,3.4,0,0,1,2,3.07A30.14,30.14,0,0,1,45.87,51a3,3,0,0,1-.95,1.6,4,4,0,0,1-2.7.77"/><path class="cls-1" d="M39.57,33.32a1,1,0,0,1,.14-1.27.75.75,0,0,1,1,.18c.13.26-.14.77-.46.68a.6.6,0,0,1-.19-.15s0,0,.05,0,0-.05-.18,0c.06.08,0-.09,0-.17l.86-.5c-.11,0-.08,0-.1-.09L40,33.14l.14,0h-.53l-.28-.24v-.53l0,.13C39,33.73,41,34.27,41.23,33a1.47,1.47,0,0,0-1.76-1.8,1,1,0,0,0-.7,1.23,2.16,2.16,0,0,0,2,1.56,1,1,0,0,0,.87-.5A1.88,1.88,0,0,0,39,31a2.14,2.14,0,0,0,.77,3.83A2.52,2.52,0,0,0,42.7,32a2.69,2.69,0,0,0-3.38-1.94,2.92,2.92,0,0,0-1.47,4.28,1,1,0,0,0,1.72-1Z"/><path class="cls-1" d="M37.94,33.28a3.06,3.06,0,0,1-1.79-3.35c.43-1.51,2.23-2,3.61-2,1.69,0,3.74.54,3.48,2.64-.19,1.55-1.62,2.58-2.75,3.49-.76.6.31,1.65,1.06,1.06,1.78-1.42,3.79-3.37,3.13-5.88-.61-2.3-3.28-3-5.37-2.79-1.93.16-4,1.08-4.61,3.11a4.55,4.55,0,0,0,2.49,5c.85.45,1.61-.84.75-1.3Z"/><text class="cls-4" transform="translate(21.34 24.6) rotate(-15.33)">L</text><text class="cls-4" transform="matrix(0.99, -0.17, 0.17, 0.99, 26.65, 23.14)">A</text><text class="cls-4" transform="translate(32.22 22.11) rotate(-4.06)">W</text><text class="cls-4" transform="translate(40.12 21.6) rotate(1.4)">S</text><text class="cls-4" transform="translate(46.05 21.71) rotate(6.52)">O</text><text class="cls-4" transform="matrix(0.98, 0.21, -0.21, 0.98, 52.59, 22.45)">N</text><text class="cls-4" transform="translate(18.15 60.41) rotate(29.27)">S</text><text class="cls-4" transform="matrix(0.94, 0.34, -0.34, 0.94, 24.15, 63.72)">T</text><text class="cls-4" transform="matrix(0.98, 0.18, -0.18, 0.98, 30.98, 66.07)">A</text><text class="cls-4" transform="translate(37.49 67.23) rotate(1.06)">T</text><text class="cls-4" transform="translate(44.58 67.23) rotate(-6.81)">I</text><text class="cls-4" transform="matrix(0.97, -0.26, 0.26, 0.97, 49.17, 66.74)">O</text><text class="cls-4" transform="translate(56.5 64.69) rotate(-25.29)">N</text></g></g></svg>