<svg xmlns="http://www.w3.org/2000/svg" viewBox="0 0 333.52 200.89"><defs><style>.cls-1{fill:#c9caca;}.cls-2{fill:#fff;}.cls-3{fill:#e6e6e6;}.cls-4{fill:#9fa0a0;}.cls-5{fill:#fdd108;}.cls-6{fill:#949495;}.cls-7{fill:#aaabab;}.cls-8{fill:#dab509;}.cls-9{fill:#e60012;}.cls-10{fill:#fedf71;}.cls-11{fill:#d3d3d4;}.cls-12{fill:#ffe55f;}.cls-13{fill:#2f2725;}.cls-14{fill:#595757;}.cls-15{fill:#efefef;}.cls-16{fill:#00a0e9;}.cls-17{fill:#c6deeb;}.cls-18{fill:#ea5514;}.cls-19{fill:#dcdddd;}.cls-20{fill:#3e3a39;}.cls-21{fill:#84959e;}.cls-22{fill:#008dcb;}.cls-23{fill:#727171;}.cls-24{fill:#d70051;}.cls-25{fill:#bb0045;}.cls-26{fill:#f0ebba;}.cls-27{fill:#c9c69d;}.cls-28{fill:#83ccd2;}.cls-29{fill:#71b2b7;}.cls-30{fill:#f8b62d;}.cls-31{fill:#e83828;}.cls-32{fill:#f39800;}.cls-33{fill:#bbb3d8;}.cls-34{fill:#7a6a56;}.cls-35{fill:#5b4f3f;}.cls-36{fill:#898989;}.cls-37{fill:#c7000b;}.cls-38{fill:#b94107;}.cls-39{fill:#dc4f11;}.cls-40{fill:#007b40;}.cls-41{fill:#006934;}.cls-42{fill:#faee00;}</style></defs><title>アセット 8</title><g id="レイヤー_2" data-name="レイヤー 2"><g id="レイヤー_1-2" data-name="レイヤー 1"><polygon class="cls-1" points="166.76 200.89 0 104.61 166.76 8.33 333.52 104.61 166.76 200.89"/><polygon class="cls-2" points="221.22 72.48 245.04 58.73 246.23 59.42 222.41 73.17 221.22 72.48"/><polygon class="cls-2" points="189.46 54.15 213.28 40.39 214.47 41.08 190.65 54.83 189.46 54.15"/><polygon class="cls-2" points="205.34 63.32 229.16 49.56 230.35 50.25 206.53 64 205.34 63.32"/><polygon class="cls-2" points="237.1 81.65 260.92 67.9 262.11 68.59 238.29 82.34 237.1 81.65"/><polygon class="cls-2" points="173.58 44.98 197.4 31.23 198.59 31.91 174.77 45.66 173.58 44.98"/><polygon class="cls-2" points="268.86 99.99 292.68 86.24 293.87 86.92 270.05 100.68 268.86 99.99"/><polygon class="cls-2" points="252.98 90.82 276.8 77.07 277.99 77.76 254.17 91.51 252.98 90.82"/><polygon class="cls-2" points="284.74 109.16 308.56 95.4 309.75 96.09 285.93 109.84 284.74 109.16"/><polygon class="cls-2" points="157.7 35.81 181.52 22.06 182.71 22.74 158.89 36.5 157.7 35.81"/><polygon class="cls-2" points="160.34 164.48 136.52 178.23 137.71 178.92 161.53 165.16 160.34 164.48"/><polygon class="cls-2" points="176.22 173.65 152.4 187.4 153.59 188.09 177.41 174.33 176.22 173.65"/><polygon class="cls-2" points="144.46 155.31 120.64 169.06 121.83 169.75 145.65 156 144.46 155.31"/><polygon class="cls-2" points="63.07 108.32 39.25 122.07 38.06 121.39 61.88 107.63 63.07 108.32"/><polygon class="cls-2" points="47.19 99.15 23.37 112.9 22.18 112.22 46 98.47 47.19 99.15"/><polygon class="cls-2" points="78.95 117.49 55.13 131.24 53.94 130.56 77.76 116.8 78.95 117.49"/><polygon class="cls-2" points="131.86 114.91 155.68 101.15 156.88 101.84 133.05 115.59 131.86 114.91"/><polygon class="cls-2" points="100.1 96.57 123.92 82.81 125.11 83.5 101.29 97.26 100.1 96.57"/><polygon class="cls-2" points="115.98 105.74 139.8 91.98 140.99 92.67 117.17 106.42 115.98 105.74"/><polygon class="cls-2" points="147.74 124.07 171.56 110.32 172.75 111.01 148.93 124.76 147.74 124.07"/><polygon class="cls-2" points="84.22 87.4 108.04 73.65 109.23 74.33 85.41 88.09 84.22 87.4"/><polygon class="cls-2" points="179.5 142.41 203.32 128.66 204.51 129.34 180.69 143.1 179.5 142.41"/><polygon class="cls-2" points="163.62 133.24 187.44 119.49 188.63 120.18 164.81 133.93 163.62 133.24"/><polygon class="cls-2" points="195.38 151.58 219.2 137.83 220.4 138.51 196.57 152.27 195.38 151.58"/><polygon class="cls-2" points="184.59 84.47 160.77 98.22 161.96 98.91 185.78 85.15 184.59 84.47"/><polygon class="cls-2" points="152.82 66.13 129 79.88 130.19 80.57 154.02 66.82 152.82 66.13"/><polygon class="cls-2" points="168.71 75.3 144.88 89.05 146.07 89.74 169.9 75.98 168.71 75.3"/><polygon class="cls-2" points="200.47 93.64 176.65 107.39 177.84 108.07 201.66 94.32 200.47 93.64"/><polygon class="cls-2" points="136.94 56.96 113.12 70.71 114.31 71.4 138.13 57.65 136.94 56.96"/><polygon class="cls-2" points="232.23 111.97 208.41 125.72 209.6 126.41 233.42 112.66 232.23 111.97"/><polygon class="cls-2" points="216.35 102.8 192.53 116.56 193.72 117.24 217.53 103.49 216.35 102.8"/><polygon class="cls-2" points="248.1 121.14 224.28 134.89 225.48 135.58 249.3 121.83 248.1 121.14"/><polygon class="cls-2" points="253.16 65.01 256.95 67.2 255.68 67.93 251.89 65.75 253.16 65.01"/><polygon class="cls-3" points="255.68 68.91 256.95 68.18 256.95 67.2 255.68 67.93 255.68 68.91"/><polygon class="cls-4" points="251.89 66.72 255.68 68.91 255.68 67.93 251.89 65.75 251.89 66.72"/><polygon class="cls-2" points="245.75 60.73 249.54 62.92 248.28 63.66 244.48 61.47 245.75 60.73"/><polygon class="cls-3" points="248.28 64.63 249.54 63.9 249.54 62.92 248.28 63.66 248.28 64.63"/><polygon class="cls-4" points="244.48 62.45 248.28 64.63 248.28 63.66 244.48 61.47 244.48 62.45"/><polygon class="cls-2" points="269.04 74.18 272.83 76.36 271.56 77.1 267.77 74.91 269.04 74.18"/><polygon class="cls-3" points="271.56 78.08 272.83 77.34 272.83 76.36 271.56 77.1 271.56 78.08"/><polygon class="cls-4" points="267.77 75.89 271.56 78.08 271.56 77.1 267.77 74.91 267.77 75.89"/><polygon class="cls-2" points="261.63 69.9 265.42 72.09 264.15 72.82 260.36 70.64 261.63 69.9"/><polygon class="cls-3" points="264.15 73.8 265.42 73.07 265.42 72.09 264.15 72.82 264.15 73.8"/><polygon class="cls-4" points="260.36 71.61 264.15 73.8 264.15 72.82 260.36 70.64 260.36 71.61"/><polygon class="cls-2" points="284.92 83.35 288.71 85.53 287.44 86.27 283.65 84.08 284.92 83.35"/><polygon class="cls-3" points="287.44 87.25 288.71 86.51 288.71 85.53 287.44 86.27 287.44 87.25"/><polygon class="cls-4" points="283.65 85.06 287.44 87.25 287.44 86.27 283.65 84.08 283.65 85.06"/><polygon class="cls-2" points="277.51 79.07 281.3 81.26 280.03 81.99 276.24 79.8 277.51 79.07"/><polygon class="cls-3" points="280.03 82.97 281.3 82.23 281.3 81.26 280.03 81.99 280.03 82.97"/><polygon class="cls-4" points="276.24 80.78 280.03 82.97 280.03 81.99 276.24 79.8 276.24 80.78"/><polygon class="cls-2" points="300.8 92.51 304.59 94.7 303.32 95.44 299.53 93.25 300.8 92.51"/><polygon class="cls-3" points="303.32 96.41 304.59 95.68 304.59 94.7 303.32 95.44 303.32 96.41"/><polygon class="cls-4" points="299.53 94.22 303.32 96.41 303.32 95.44 299.53 93.25 299.53 94.22"/><polygon class="cls-2" points="293.39 88.24 297.18 90.42 295.91 91.16 292.12 88.97 293.39 88.24"/><polygon class="cls-3" points="295.91 92.14 297.18 91.4 297.18 90.42 295.91 91.16 295.91 92.14"/><polygon class="cls-4" points="292.12 89.95 295.91 92.14 295.91 91.16 292.12 88.97 292.12 89.95"/><polygon class="cls-2" points="316.68 101.68 320.47 103.87 319.2 104.6 315.41 102.42 316.68 101.68"/><polygon class="cls-3" points="319.2 105.58 320.47 104.85 320.47 103.87 319.2 104.6 319.2 105.58"/><polygon class="cls-4" points="315.41 103.39 319.2 105.58 319.2 104.6 315.41 102.42 315.41 103.39"/><polygon class="cls-2" points="309.27 97.4 313.06 99.59 311.79 100.33 308 98.14 309.27 97.4"/><polygon class="cls-3" points="311.79 101.31 313.06 100.57 313.06 99.59 311.79 100.33 311.79 101.31"/><polygon class="cls-4" points="308 99.12 311.79 101.31 311.79 100.33 308 98.14 308 99.12"/><polygon class="cls-2" points="237.28 55.84 241.07 58.03 239.8 58.76 236.01 56.58 237.28 55.84"/><polygon class="cls-3" points="239.8 59.74 241.07 59.01 241.07 58.03 239.8 58.76 239.8 59.74"/><polygon class="cls-4" points="236.01 57.55 239.8 59.74 239.8 58.76 236.01 56.58 236.01 57.55"/><polygon class="cls-2" points="229.87 51.57 233.66 53.75 232.39 54.49 228.6 52.3 229.87 51.57"/><polygon class="cls-3" points="232.39 55.47 233.66 54.73 233.66 53.75 232.39 54.49 232.39 55.47"/><polygon class="cls-4" points="228.6 53.28 232.39 55.47 232.39 54.49 228.6 52.3 228.6 53.28"/><polygon class="cls-2" points="221.4 46.67 225.19 48.86 223.92 49.6 220.13 47.41 221.4 46.67"/><polygon class="cls-3" points="223.92 50.57 225.19 49.84 225.19 48.86 223.92 49.6 223.92 50.57"/><polygon class="cls-4" points="220.13 48.38 223.92 50.57 223.92 49.6 220.13 47.41 220.13 48.38"/><polygon class="cls-2" points="213.99 42.4 217.78 44.58 216.51 45.32 212.72 43.13 213.99 42.4"/><polygon class="cls-3" points="216.51 46.3 217.78 45.56 217.78 44.58 216.51 45.32 216.51 46.3"/><polygon class="cls-4" points="212.72 44.11 216.51 46.3 216.51 45.32 212.72 43.13 212.72 44.11"/><polygon class="cls-2" points="205.52 37.5 209.31 39.69 208.04 40.43 204.25 38.24 205.52 37.5"/><polygon class="cls-3" points="208.04 41.4 209.31 40.67 209.31 39.69 208.04 40.43 208.04 41.4"/><polygon class="cls-4" points="204.25 39.22 208.04 41.4 208.04 40.43 204.25 38.24 204.25 39.22"/><polygon class="cls-2" points="198.11 33.23 201.9 35.42 200.63 36.15 196.84 33.96 198.11 33.23"/><polygon class="cls-3" points="200.63 37.13 201.9 36.39 201.9 35.42 200.63 36.15 200.63 37.13"/><polygon class="cls-4" points="196.84 34.94 200.63 37.13 200.63 36.15 196.84 33.96 196.84 34.94"/><polygon class="cls-2" points="189.64 28.34 193.43 30.52 192.16 31.26 188.37 29.07 189.64 28.34"/><polygon class="cls-3" points="192.16 32.23 193.43 31.5 193.43 30.52 192.16 31.26 192.16 32.23"/><polygon class="cls-4" points="188.37 30.05 192.16 32.23 192.16 31.26 188.37 29.07 188.37 30.05"/><polygon class="cls-2" points="182.23 24.06 186.02 26.25 184.75 26.98 180.96 24.79 182.23 24.06"/><polygon class="cls-3" points="184.75 27.96 186.02 27.23 186.02 26.25 184.75 26.98 184.75 27.96"/><polygon class="cls-4" points="180.96 25.77 184.75 27.96 184.75 26.98 180.96 24.79 180.96 25.77"/><polygon class="cls-2" points="173.76 19.17 177.55 21.35 176.28 22.09 172.49 19.9 173.76 19.17"/><polygon class="cls-3" points="176.28 23.07 177.55 22.33 177.55 21.35 176.28 22.09 176.28 23.07"/><polygon class="cls-4" points="172.49 20.88 176.28 23.07 176.28 22.09 172.49 19.9 172.49 20.88"/><polygon class="cls-2" points="166.35 14.89 170.14 17.08 168.87 17.81 165.08 15.62 166.35 14.89"/><polygon class="cls-3" points="168.87 18.79 170.14 18.06 170.14 17.08 168.87 17.81 168.87 18.79"/><polygon class="cls-4" points="165.08 16.6 168.87 18.79 168.87 17.81 165.08 15.62 165.08 16.6"/><polygon class="cls-2" points="206.37 119.54 210.16 121.72 208.88 122.46 205.09 120.27 206.37 119.54"/><polygon class="cls-3" points="208.88 123.44 210.16 122.7 210.16 121.72 208.88 122.46 208.88 123.44"/><polygon class="cls-4" points="205.09 121.25 208.88 123.44 208.88 122.46 205.09 120.27 205.09 121.25"/><polygon class="cls-2" points="198.96 115.26 202.75 117.45 201.48 118.18 197.69 115.99 198.96 115.26"/><polygon class="cls-3" points="201.48 119.16 202.75 118.43 202.75 117.45 201.48 118.18 201.48 119.16"/><polygon class="cls-4" points="197.69 116.97 201.48 119.16 201.48 118.18 197.69 115.99 197.69 116.97"/><polygon class="cls-2" points="222.24 128.7 226.03 130.89 224.76 131.62 220.97 129.44 222.24 128.7"/><polygon class="cls-3" points="224.76 132.6 226.03 131.87 226.03 130.89 224.76 131.62 224.76 132.6"/><polygon class="cls-4" points="220.97 130.41 224.76 132.6 224.76 131.62 220.97 129.44 220.97 130.41"/><polygon class="cls-2" points="214.83 124.42 218.63 126.61 217.35 127.35 213.56 125.16 214.83 124.42"/><polygon class="cls-3" points="217.35 128.32 218.63 127.59 218.63 126.61 217.35 127.35 217.35 128.32"/><polygon class="cls-4" points="213.56 126.14 217.35 128.32 217.35 127.35 213.56 125.16 213.56 126.14"/><polygon class="cls-2" points="190.48 110.37 194.28 112.56 193.01 113.29 189.22 111.1 190.48 110.37"/><polygon class="cls-3" points="193.01 114.27 194.28 113.53 194.28 112.56 193.01 113.29 193.01 114.27"/><polygon class="cls-4" points="189.22 112.08 193.01 114.27 193.01 113.29 189.22 111.1 189.22 112.08"/><polygon class="cls-2" points="183.08 106.09 186.87 108.28 185.6 109.01 181.81 106.82 183.08 106.09"/><polygon class="cls-3" points="185.6 109.99 186.87 109.26 186.87 108.28 185.6 109.01 185.6 109.99"/><polygon class="cls-4" points="181.81 107.8 185.6 109.99 185.6 109.01 181.81 106.82 181.81 107.8"/><polygon class="cls-2" points="174.6 101.2 178.4 103.39 177.12 104.12 173.33 101.93 174.6 101.2"/><polygon class="cls-3" points="177.12 105.1 178.4 104.36 178.4 103.39 177.12 104.12 177.12 105.1"/><polygon class="cls-4" points="173.33 102.91 177.12 105.1 177.12 104.12 173.33 101.93 173.33 102.91"/><polygon class="cls-2" points="167.19 96.92 170.99 99.11 169.72 99.84 165.93 97.66 167.19 96.92"/><polygon class="cls-3" points="169.72 100.82 170.99 100.09 170.99 99.11 169.72 99.84 169.72 100.82"/><polygon class="cls-4" points="165.93 98.63 169.72 100.82 169.72 99.84 165.93 97.66 165.93 98.63"/><polygon class="cls-2" points="158.72 92.03 162.51 94.22 161.24 94.95 157.45 92.76 158.72 92.03"/><polygon class="cls-3" points="161.24 95.93 162.51 95.19 162.51 94.22 161.24 94.95 161.24 95.93"/><polygon class="cls-4" points="157.45 93.74 161.24 95.93 161.24 94.95 157.45 92.76 157.45 93.74"/><polygon class="cls-2" points="151.31 87.75 155.1 89.94 153.84 90.67 150.04 88.49 151.31 87.75"/><polygon class="cls-3" points="153.84 91.65 155.1 90.92 155.1 89.94 153.84 90.67 153.84 91.65"/><polygon class="cls-4" points="150.04 89.46 153.84 91.65 153.84 90.67 150.04 88.49 150.04 89.46"/><polygon class="cls-2" points="142.84 82.86 146.63 85.05 145.36 85.78 141.57 83.59 142.84 82.86"/><polygon class="cls-3" points="145.36 86.76 146.63 86.03 146.63 85.05 145.36 85.78 145.36 86.76"/><polygon class="cls-4" points="141.57 84.57 145.36 86.76 145.36 85.78 141.57 83.59 141.57 84.57"/><polygon class="cls-2" points="135.43 78.58 139.22 80.77 137.95 81.51 134.16 79.32 135.43 78.58"/><polygon class="cls-3" points="137.95 82.48 139.22 81.75 139.22 80.77 137.95 81.51 137.95 82.48"/><polygon class="cls-4" points="134.16 80.3 137.95 82.48 137.95 81.51 134.16 79.32 134.16 80.3"/><polygon class="cls-2" points="126.96 73.69 130.75 75.88 129.48 76.61 125.69 74.43 126.96 73.69"/><polygon class="cls-3" points="129.48 77.59 130.75 76.86 130.75 75.88 129.48 76.61 129.48 77.59"/><polygon class="cls-4" points="125.69 75.4 129.48 77.59 129.48 76.61 125.69 74.43 125.69 75.4"/><polygon class="cls-2" points="119.55 69.41 123.34 71.6 122.07 72.34 118.28 70.15 119.55 69.41"/><polygon class="cls-3" points="122.07 73.31 123.34 72.58 123.34 71.6 122.07 72.34 122.07 73.31"/><polygon class="cls-4" points="118.28 71.13 122.07 73.31 122.07 72.34 118.28 70.15 118.28 71.13"/><polygon class="cls-2" points="195.57 125.77 199.36 127.96 198.09 128.69 194.3 126.5 195.57 125.77"/><polygon class="cls-3" points="198.09 129.67 199.36 128.94 199.36 127.96 198.09 128.69 198.09 129.67"/><polygon class="cls-4" points="194.3 127.48 198.09 129.67 198.09 128.69 194.3 126.5 194.3 127.48"/><polygon class="cls-2" points="188.16 121.49 191.95 123.68 190.68 124.42 186.89 122.23 188.16 121.49"/><polygon class="cls-3" points="190.68 125.39 191.95 124.66 191.95 123.68 190.68 124.42 190.68 125.39"/><polygon class="cls-4" points="186.89 123.2 190.68 125.39 190.68 124.42 186.89 122.23 186.89 123.2"/><polygon class="cls-2" points="211.44 134.94 215.24 137.12 213.97 137.86 210.17 135.67 211.44 134.94"/><polygon class="cls-3" points="213.97 138.84 215.24 138.1 215.24 137.12 213.97 137.86 213.97 138.84"/><polygon class="cls-4" points="210.17 136.65 213.97 138.84 213.97 137.86 210.17 135.67 210.17 136.65"/><polygon class="cls-2" points="204.04 130.66 207.83 132.85 206.56 133.58 202.77 131.39 204.04 130.66"/><polygon class="cls-3" points="206.56 134.56 207.83 133.82 207.83 132.85 206.56 133.58 206.56 134.56"/><polygon class="cls-4" points="202.77 132.37 206.56 134.56 206.56 133.58 202.77 131.39 202.77 132.37"/><polygon class="cls-2" points="179.69 116.6 183.48 118.79 182.21 119.52 178.42 117.33 179.69 116.6"/><polygon class="cls-3" points="182.21 120.5 183.48 119.77 183.48 118.79 182.21 119.52 182.21 120.5"/><polygon class="cls-4" points="178.42 118.31 182.21 120.5 182.21 119.52 178.42 117.33 178.42 118.31"/><polygon class="cls-2" points="172.28 112.32 176.07 114.51 174.8 115.25 171.01 113.06 172.28 112.32"/><polygon class="cls-3" points="174.8 116.22 176.07 115.49 176.07 114.51 174.8 115.25 174.8 116.22"/><polygon class="cls-4" points="171.01 114.04 174.8 116.22 174.8 115.25 171.01 113.06 171.01 114.04"/><polygon class="cls-2" points="163.81 107.43 167.6 109.62 166.33 110.35 162.53 108.17 163.81 107.43"/><polygon class="cls-3" points="166.33 111.33 167.6 110.6 167.6 109.62 166.33 110.35 166.33 111.33"/><polygon class="cls-4" points="162.53 109.14 166.33 111.33 166.33 110.35 162.53 108.17 162.53 109.14"/><polygon class="cls-2" points="156.4 103.16 160.19 105.34 158.92 106.08 155.13 103.89 156.4 103.16"/><polygon class="cls-3" points="158.92 107.06 160.19 106.32 160.19 105.34 158.92 106.08 158.92 107.06"/><polygon class="cls-4" points="155.13 104.87 158.92 107.06 158.92 106.08 155.13 103.89 155.13 104.87"/><polygon class="cls-2" points="147.92 98.26 151.72 100.45 150.44 101.19 146.65 99 147.92 98.26"/><polygon class="cls-3" points="150.44 102.16 151.72 101.43 151.72 100.45 150.44 101.19 150.44 102.16"/><polygon class="cls-4" points="146.65 99.97 150.44 102.16 150.44 101.19 146.65 99 146.65 99.97"/><polygon class="cls-2" points="140.52 93.99 144.31 96.17 143.04 96.91 139.25 94.72 140.52 93.99"/><polygon class="cls-3" points="143.04 97.89 144.31 97.15 144.31 96.17 143.04 96.91 143.04 97.89"/><polygon class="cls-4" points="139.25 95.7 143.04 97.89 143.04 96.91 139.25 94.72 139.25 95.7"/><polygon class="cls-2" points="132.04 89.09 135.83 91.28 134.56 92.02 130.77 89.83 132.04 89.09"/><polygon class="cls-3" points="134.56 92.99 135.83 92.26 135.83 91.28 134.56 92.02 134.56 92.99"/><polygon class="cls-4" points="130.77 90.81 134.56 92.99 134.56 92.02 130.77 89.83 130.77 90.81"/><polygon class="cls-2" points="124.64 84.82 128.43 87.01 127.16 87.74 123.36 85.55 124.64 84.82"/><polygon class="cls-3" points="127.16 88.72 128.43 87.98 128.43 87.01 127.16 87.74 127.16 88.72"/><polygon class="cls-4" points="123.36 86.53 127.16 88.72 127.16 87.74 123.36 85.55 123.36 86.53"/><polygon class="cls-2" points="116.16 79.93 119.95 82.11 118.68 82.85 114.89 80.66 116.16 79.93"/><polygon class="cls-3" points="118.68 83.82 119.95 83.09 119.95 82.11 118.68 82.85 118.68 83.82"/><polygon class="cls-4" points="114.89 81.64 118.68 83.82 118.68 82.85 114.89 80.66 114.89 81.64"/><polygon class="cls-2" points="108.75 75.65 112.55 77.84 111.28 78.57 107.48 76.38 108.75 75.65"/><polygon class="cls-3" points="111.28 79.55 112.55 78.81 112.55 77.84 111.28 78.57 111.28 79.55"/><polygon class="cls-4" points="107.48 77.36 111.28 79.55 111.28 78.57 107.48 76.38 107.48 77.36"/><polygon class="cls-2" points="51.9 124.36 55.69 126.55 54.42 127.29 50.63 125.1 51.9 124.36"/><polygon class="cls-3" points="54.42 128.27 55.69 127.53 55.69 126.55 54.42 127.29 54.42 128.27"/><polygon class="cls-4" points="50.63 126.08 54.42 128.27 54.42 127.29 50.63 125.1 50.63 126.08"/><polygon class="cls-2" points="44.49 120.09 48.28 122.28 47.01 123.01 43.22 120.82 44.49 120.09"/><polygon class="cls-3" points="47.01 123.99 48.28 123.25 48.28 122.28 47.01 123.01 47.01 123.99"/><polygon class="cls-4" points="43.22 121.8 47.01 123.99 47.01 123.01 43.22 120.82 43.22 121.8"/><polygon class="cls-2" points="36.02 115.2 39.81 117.39 38.54 118.12 34.75 115.93 36.02 115.2"/><polygon class="cls-3" points="38.54 119.1 39.81 118.36 39.81 117.39 38.54 118.12 38.54 119.1"/><polygon class="cls-4" points="34.75 116.91 38.54 119.1 38.54 118.12 34.75 115.93 34.75 116.91"/><polygon class="cls-2" points="28.61 110.92 32.4 113.11 31.13 113.84 27.34 111.65 28.61 110.92"/><polygon class="cls-3" points="31.13 114.82 32.4 114.09 32.4 113.11 31.13 113.84 31.13 114.82"/><polygon class="cls-4" points="27.34 112.63 31.13 114.82 31.13 113.84 27.34 111.65 27.34 112.63"/><polygon class="cls-2" points="20.14 106.03 23.93 108.22 22.66 108.95 18.87 106.76 20.14 106.03"/><polygon class="cls-3" points="22.66 109.93 23.93 109.19 23.93 108.22 22.66 108.95 22.66 109.93"/><polygon class="cls-4" points="18.87 107.74 22.66 109.93 22.66 108.95 18.87 106.76 18.87 107.74"/><polygon class="cls-2" points="12.73 101.75 16.52 103.94 15.25 104.67 11.46 102.48 12.73 101.75"/><polygon class="cls-3" points="15.25 105.65 16.52 104.92 16.52 103.94 15.25 104.67 15.25 105.65"/><polygon class="cls-4" points="11.46 103.46 15.25 105.65 15.25 104.67 11.46 102.48 11.46 103.46"/><polygon class="cls-2" points="166.23 190.38 170.02 192.56 168.75 193.3 164.96 191.11 166.23 190.38"/><polygon class="cls-3" points="168.75 194.28 170.02 193.54 170.02 192.56 168.75 193.3 168.75 194.28"/><polygon class="cls-4" points="164.96 192.09 168.75 194.28 168.75 193.3 164.96 191.11 164.96 192.09"/><polygon class="cls-2" points="158.82 186.1 162.62 188.29 161.35 189.02 157.56 186.83 158.82 186.1"/><polygon class="cls-3" points="161.35 190 162.62 189.26 162.62 188.29 161.35 189.02 161.35 190"/><polygon class="cls-4" points="157.56 187.81 161.35 190 161.35 189.02 157.56 186.83 157.56 187.81"/><polygon class="cls-2" points="150.35 181.21 154.14 183.39 152.87 184.13 149.08 181.94 150.35 181.21"/><polygon class="cls-3" points="152.87 185.11 154.14 184.37 154.14 183.39 152.87 184.13 152.87 185.11"/><polygon class="cls-4" points="149.08 182.92 152.87 185.11 152.87 184.13 149.08 181.94 149.08 182.92"/><polygon class="cls-2" points="142.94 176.93 146.74 179.12 145.47 179.85 141.67 177.66 142.94 176.93"/><polygon class="cls-3" points="145.47 180.83 146.74 180.1 146.74 179.12 145.47 179.85 145.47 180.83"/><polygon class="cls-4" points="141.67 178.64 145.47 180.83 145.47 179.85 141.67 177.66 141.67 178.64"/><polygon class="cls-2" points="134.47 172.04 138.26 174.23 136.99 174.96 133.2 172.77 134.47 172.04"/><polygon class="cls-3" points="136.99 175.94 138.26 175.2 138.26 174.23 136.99 174.96 136.99 175.94"/><polygon class="cls-4" points="133.2 173.75 136.99 175.94 136.99 174.96 133.2 172.77 133.2 173.75"/><polygon class="cls-2" points="127.06 167.76 130.85 169.95 129.58 170.68 125.79 168.49 127.06 167.76"/><polygon class="cls-3" points="129.58 171.66 130.85 170.93 130.85 169.95 129.58 170.68 129.58 171.66"/><polygon class="cls-4" points="125.79 169.47 129.58 171.66 129.58 170.68 125.79 168.49 125.79 169.47"/><polygon class="cls-2" points="77.17 129.65 86.11 129.65 86.11 134.82 83.36 133.23 77.38 136.68 73.94 134.7 79.92 131.24 77.17 129.65"/><polygon class="cls-2" points="115.08 161.14 106.14 161.14 106.14 155.97 108.89 157.56 114.87 154.11 118.31 156.09 112.33 159.55 115.08 161.14"/><path class="cls-2" d="M123.13,156.13c-1.87-1.08-1.73-1.55.17-2.65s2.84-.92,4.53.05,1.5,1.56-.27,2.58S124.77,157.07,123.13,156.13Zm3.57-.6c1.22-.71,1.36-.87.27-1.5-1.26-.73-1.45-.74-2.8,0s-1.36.88-.29,1.5C125.13,156.29,125.33,156.32,126.7,155.53Z"/><path class="cls-2" d="M115.85,151.92l3-1.74c1.18-.68,2.18-.51,3.62.33s1.85,1.41.62,2.12l-3,1.74-.94-.54,2.9-1.67c.68-.39.47-.65-.4-1.15s-1.31-.59-1.92-.24l-2.94,1.7Z"/><path class="cls-2" d="M116.16,151.11l-.86.5-4.1-2.37.86-.49,1.58.91,3.64-2.11.94.54-3.65,2.11Z"/><path class="cls-2" d="M138.29,140.65l-4.83,2.79-.06,0-2.75-1.59V147h8.94l-2.75-1.59-.05,0,4.84-2.8a5.27,5.27,0,0,1,4.77,0l5.23,3,3.34-1.93-5.24-3A12.67,12.67,0,0,0,138.29,140.65Z"/><path class="cls-2" d="M105.21,117.1l-5.24,3,3.34,1.93,5.24-3c3.15-1.82,3.15-4.79,0-6.61l-4.84-2.79.05,0,2.76-1.59h-9v5.16l2.75-1.59.05,0,4.84,2.8C106.53,115.11,106.53,116.34,105.21,117.1Z"/><path class="cls-2" d="M71.65,135.84l-4.75,2.75-1-.58,4.75-2.74Z"/><path class="cls-2" d="M73.94,137.17l-1.66,3.3L76,138.34l1,.57-4.75,2.74-1.45-.84,1.67-3.3-3.7,2.13-1-.57,4.75-2.74Z"/><path class="cls-5" d="M58.43,134.62c-.18,0-.33-.07-.33-.25V132.5a3,3,0,0,1,1.34-2.43,1.09,1.09,0,0,1,1.12-.07,1.25,1.25,0,0,1,.55,1.14V133c0,.19-.15.26-.33.26s-.33-.07-.33-.26v-1.87a.64.64,0,0,0-.22-.57c-.15-.09-.35,0-.46.07a2.39,2.39,0,0,0-1,1.86v1.87C58.76,134.55,58.61,134.62,58.43,134.62Z"/><path class="cls-5" d="M62.4,132.33c-.18,0-.33-.07-.33-.26v-1.86a3,3,0,0,1,1.34-2.43,1.08,1.08,0,0,1,1.13-.07,1.26,1.26,0,0,1,.54,1.14v1.87c0,.18-.15.25-.33.25s-.33-.07-.33-.25v-1.87a.65.65,0,0,0-.21-.57c-.15-.09-.36,0-.47.07a2.35,2.35,0,0,0-1,1.86v1.86C62.73,132.26,62.58,132.33,62.4,132.33Z"/><path class="cls-5" d="M66.37,130c-.18,0-.33-.07-.33-.25v-1.87a3,3,0,0,1,1.34-2.43,1.1,1.1,0,0,1,1.13-.07,1.28,1.28,0,0,1,.54,1.15v1.87c0,.18-.15.25-.33.25s-.33-.07-.33-.25v-1.87a.68.68,0,0,0-.21-.58.55.55,0,0,0-.47.07,2.41,2.41,0,0,0-1,1.86v1.87C66.7,130,66.56,130,66.37,130Z"/><path class="cls-5" d="M70.35,127.74c-.19,0-.33-.07-.33-.25v-1.87a3,3,0,0,1,1.33-2.43,1.11,1.11,0,0,1,1.13-.07,1.27,1.27,0,0,1,.54,1.14v1.87c0,.19-.15.25-.33.25s-.33-.06-.33-.25v-1.87a.66.66,0,0,0-.21-.57c-.15-.09-.36,0-.47.07a2.4,2.4,0,0,0-1,1.86v1.87C70.68,127.67,70.53,127.74,70.35,127.74Z"/><path class="cls-5" d="M74.32,125.45c-.19,0-.33-.07-.33-.26v-1.86a3,3,0,0,1,1.34-2.43,1.06,1.06,0,0,1,1.12-.07A1.26,1.26,0,0,1,77,122v1.87c0,.18-.14.25-.33.25s-.33-.07-.33-.25V122a.65.65,0,0,0-.21-.57.47.47,0,0,0-.46.07,2.35,2.35,0,0,0-1,1.86v1.86C74.65,125.38,74.5,125.45,74.32,125.45Z"/><path class="cls-5" d="M78.29,123.15c-.18,0-.33-.07-.33-.25V121a3,3,0,0,1,1.34-2.43,1.09,1.09,0,0,1,1.12-.07,1.25,1.25,0,0,1,.54,1.15v1.87c0,.18-.14.25-.33.25s-.33-.07-.33-.25v-1.87a.68.68,0,0,0-.21-.58.53.53,0,0,0-.46.07,2.39,2.39,0,0,0-1,1.86v1.87C78.62,123.08,78.47,123.15,78.29,123.15Z"/><polygon class="cls-3" points="79.17 145.79 93.55 154.09 122.27 137.55 107.89 129.25 79.17 145.79"/><polygon class="cls-6" points="79.17 146.88 93.55 155.18 93.55 154.09 79.17 145.79 79.17 146.88"/><polygon class="cls-7" points="122.27 138.64 93.55 155.18 93.55 154.09 122.27 137.55 122.27 138.64"/><polygon class="cls-8" points="108.55 124.56 108.55 125.2 107.24 124.44 107.24 123.8 108.55 124.56"/><polygon class="cls-9" points="107.24 123.8 107.24 124.44 105.93 123.69 105.93 123.05 107.24 123.8"/><polygon class="cls-8" points="105.93 123.05 105.93 123.69 104.63 122.93 104.63 122.29 105.93 123.05"/><polygon class="cls-9" points="104.63 122.29 104.63 122.93 103.32 122.18 103.32 121.54 104.63 122.29"/><polygon class="cls-8" points="103.32 121.54 103.32 122.18 102.01 121.42 102.01 120.78 103.32 121.54"/><polygon class="cls-9" points="102.01 120.78 102.01 121.42 100.7 120.66 100.7 120.03 102.01 120.78"/><polygon class="cls-8" points="100.7 120.03 100.7 120.66 99.39 119.91 99.39 119.27 100.7 120.03"/><polygon class="cls-9" points="99.39 119.27 99.39 119.91 98.08 119.15 98.08 118.51 99.39 119.27"/><polygon class="cls-8" points="98.08 118.51 98.08 119.15 96.77 118.4 96.77 117.76 98.08 118.51"/><polygon class="cls-9" points="96.77 117.76 96.77 118.4 95.46 117.64 95.46 117 96.77 117.76"/><polygon class="cls-8" points="95.46 117 95.46 117.64 94.15 116.89 94.15 116.25 95.46 117"/><polygon class="cls-9" points="94.15 116.25 94.15 116.89 92.85 116.13 92.85 115.49 94.15 116.25"/><polygon class="cls-8" points="92.85 115.49 92.85 116.13 91.53 115.38 91.53 114.74 92.85 115.49"/><polygon class="cls-9" points="91.53 114.74 91.53 115.38 90.23 114.62 90.23 113.98 91.53 114.74"/><polygon class="cls-8" points="90.23 113.98 90.23 114.62 88.92 113.86 88.92 113.22 90.23 113.98"/><polygon class="cls-5" points="109.87 125.81 109.87 127.02 108.02 125.95 108.02 124.75 109.87 125.81"/><polygon class="cls-10" points="111.3 124.99 109.87 125.81 108.02 124.75 109.45 123.92 111.3 124.99"/><polygon class="cls-5" points="109.87 125.81 109.87 127.02 111.3 126.2 111.3 124.99 109.87 125.81"/><polygon class="cls-5" points="106.95 126.47 106.95 133.31 109.87 131.62 109.87 124.79 106.95 126.47"/><polygon class="cls-8" points="106.95 126.47 106.95 133.31 105.1 132.24 105.1 125.4 106.95 126.47"/><polygon class="cls-10" points="109.87 124.79 106.95 126.47 105.1 125.4 108.02 123.72 109.87 124.79"/><polygon class="cls-5" points="94.92 131.75 89.17 135.07 89.17 144.37 94.92 141.04 94.92 131.75"/><polygon class="cls-11" points="89.17 144.37 89.17 145.7 94.92 142.38 94.92 141.04 89.17 144.37"/><polygon class="cls-8" points="85.54 132.98 89.17 135.07 89.17 144.37 85.54 142.27 85.54 132.98"/><polygon class="cls-10" points="91.29 129.66 94.92 131.75 89.17 135.07 85.54 132.98 91.29 129.66"/><polygon class="cls-7" points="89.17 144.37 89.17 145.7 85.54 143.6 85.54 142.27 89.17 144.37"/><polygon class="cls-12" points="86.4 138.9 87.5 139.53 87.5 135.89 86.4 135.26 86.4 138.9"/><path class="cls-13" d="M149.83,116.17a4.66,4.66,0,0,0-2.09,3.63v.7l4.19-2.42v-.7C151.93,116.05,151,115.51,149.83,116.17Z"/><path class="cls-13" d="M163.72,108.16a4.61,4.61,0,0,0-2.1,3.63v.69l4.09-2.36s0,.16.11.12v-.87C165.82,108,164.88,107.49,163.72,108.16Z"/><path class="cls-14" d="M148.86,116a1.22,1.22,0,0,1,1.23-.12l1,.6a1.28,1.28,0,0,1,.45,1.1,3.87,3.87,0,0,1-1.74,3,1.21,1.21,0,0,1-1.28.1l-.95-.55a1.25,1.25,0,0,1-.5-1.13A3.85,3.85,0,0,1,148.86,116Z"/><path class="cls-4" d="M148.71,119.25c0,.72.5,1,1.13.65a2.51,2.51,0,0,0,1.13-2c0-.72-.51-1-1.13-.65A2.49,2.49,0,0,0,148.71,119.25Z"/><path class="cls-1" d="M149.5,119l-.58.41a1.19,1.19,0,0,1,0-.29,2.11,2.11,0,0,1,0-.33l.58-.25-.35-.33a2,2,0,0,1,.46-.57l.23.48.22-.74a.54.54,0,0,1,.47,0l-.35.73.57-.41a.82.82,0,0,1,0,.28,1.24,1.24,0,0,1,0,.33l-.57.25.35.34a2.2,2.2,0,0,1-.47.57l-.22-.48-.23.74a.52.52,0,0,1-.46,0Z"/><path class="cls-15" d="M149.65,118.7a.12.12,0,0,0,.19.11.41.41,0,0,0,.18-.32c0-.12-.08-.17-.18-.11A.42.42,0,0,0,149.65,118.7Z"/><path class="cls-14" d="M162.74,108a1.24,1.24,0,0,1,1.24-.12l1,.6a1.27,1.27,0,0,1,.46,1.1,3.84,3.84,0,0,1-1.75,3,1.19,1.19,0,0,1-1.27.1l-.95-.55A1.23,1.23,0,0,1,161,111,3.87,3.87,0,0,1,162.74,108Z"/><path class="cls-4" d="M162.59,111.23c0,.72.51,1,1.13.65a2.48,2.48,0,0,0,1.14-2c0-.72-.51-1-1.14-.65A2.51,2.51,0,0,0,162.59,111.23Z"/><path class="cls-1" d="M163.38,111l-.57.41a1.18,1.18,0,0,1,0-.28,1.86,1.86,0,0,1,0-.33l.57-.25-.34-.34a2,2,0,0,1,.46-.57l.22.48.23-.74a.55.55,0,0,1,.46,0l-.34.73.57-.41a1.27,1.27,0,0,1,0,.29,2,2,0,0,1,0,.33l-.57.25.34.33a2,2,0,0,1-.46.57l-.23-.47-.22.74a.55.55,0,0,1-.46,0Z"/><path class="cls-15" d="M163.54,110.68c0,.12.08.17.18.11a.39.39,0,0,0,.19-.32c0-.12-.08-.17-.19-.11A.42.42,0,0,0,163.54,110.68Z"/><path class="cls-16" d="M166.64,106.85a6.52,6.52,0,0,1-.43,3.05,1.69,1.69,0,0,1-.39.34v-.87c0-1.34-.94-1.88-2.1-1.21a4.61,4.61,0,0,0-2.1,3.63v.87l-9.69,5.6v-.88c0-1.33-.94-1.87-2.1-1.21a4.66,4.66,0,0,0-2.09,3.63v.88l-.4.23s-.46.23-.64,0v0a32.42,32.42,0,0,1-7.95-4.52,1.13,1.13,0,0,1-.55-.89,6.63,6.63,0,0,1,.52-2.81,8.63,8.63,0,0,1,1.57-2.45,11.69,11.69,0,0,1,2.46-2,23.28,23.28,0,0,1,7-7.15c3.55-2.09,5.44-2.27,6.54-1.61l8.13,4.72a1.92,1.92,0,0,1,.46.27l.07,0h0a1.52,1.52,0,0,1,.26.25l.13.15c-.59.79-1.58,2.31.62,1.24l0,.12.28.08A.57.57,0,0,1,166.64,106.85Z"/><path class="cls-17" d="M154,108.64a25.33,25.33,0,0,0-3.3,4.15,42.2,42.2,0,0,1-7.7-4.44,25.28,25.28,0,0,1,3.29-4.14.52.52,0,0,1,.7,0l6.9,4S154.18,108.38,154,108.64Z"/><path class="cls-18" d="M166,106.14s0-.09,0-.14a3.83,3.83,0,0,0-.57-1.1C164.77,105.69,163.78,107.21,166,106.14Z"/><path class="cls-19" d="M148,117a4.52,4.52,0,0,0,.71-1.9c-1.15-.32-3.81,1.92-1.57,2.44A5.23,5.23,0,0,0,148,117Z"/><path class="cls-17" d="M153,111.24l-.24,1.35,4.74-3,.62-3.3A18.73,18.73,0,0,0,153,111.24Z"/><path class="cls-20" d="M152.06,112.57s-.32.61.15.34l.53-.32.24-1.35C152.6,111.76,152.29,112.21,152.06,112.57Z"/><path class="cls-20" d="M158.41,106.16l-.22.13-.09,0-.62,3.3,1.43-.88.08-2.92Z"/><path class="cls-21" d="M159,105.84l-.08,2.92,3-1.87-.22-2.21A12.19,12.19,0,0,0,159,105.84Z"/><path class="cls-20" d="M161.7,104.68l.22,2.21.79-.49-.49-1.83C162.06,104.6,161.88,104.63,161.7,104.68Z"/><path class="cls-21" d="M164.06,104.83a2.86,2.86,0,0,0-1.84-.26l.49,1.83,0,0S164.51,105.05,164.06,104.83Z"/><path class="cls-22" d="M157.14,110.69c0,.13-.23.37-.52.54s-.52.2-.52.06.23-.37.52-.53S157.14,110.56,157.14,110.69Z"/><path class="cls-22" d="M162.15,107.58c0,.13-.23.38-.52.54s-.53.2-.53.07.24-.37.53-.54S162.15,107.45,162.15,107.58Z"/><path class="cls-20" d="M140.05,115.87l.19,1a35.73,35.73,0,0,0,3.8,2.28l.43-.66A33.62,33.62,0,0,1,140.05,115.87Z"/><path class="cls-23" d="M144.18,116.86l1.36-.8-5.18-3-.2,1.47A13.24,13.24,0,0,0,144.18,116.86Z"/><path class="cls-19" d="M140.22,110.38s.14,2.84-1,2c-.37-.27-.26-.21-.26-.21S138.88,110.42,140.22,110.38Z"/><polygon class="cls-2" points="143.23 118.54 141.01 117.25 141.01 115.73 143.23 117.02 143.23 118.54"/><path class="cls-22" d="M152.73,112.14l.41-.61a.69.69,0,0,1,.78-.32l.76.2a.39.39,0,0,1,.22.53,2,2,0,0,1-.37.47,1,1,0,0,1-.79.11,1.07,1.07,0,0,0-.55,0S152.64,112.81,152.73,112.14Z"/><path class="cls-13" d="M238.18,74.91a4.62,4.62,0,0,0-2.09,3.63v.7l4.19-2.42v-.7C240.28,74.78,239.34,74.24,238.18,74.91Z"/><path class="cls-13" d="M252.07,66.89a4.63,4.63,0,0,0-2.1,3.63v.7l4.09-2.36s0,.15.1.11V68.1C254.16,66.77,253.22,66.22,252.07,66.89Z"/><path class="cls-14" d="M237.2,74.75a1.24,1.24,0,0,1,1.24-.13l1,.61a1.24,1.24,0,0,1,.46,1.09,3.87,3.87,0,0,1-1.74,3,1.21,1.21,0,0,1-1.28.09l-.95-.55a1.22,1.22,0,0,1-.5-1.12A3.85,3.85,0,0,1,237.2,74.75Z"/><path class="cls-4" d="M237.05,78c0,.73.51,1,1.14.66a2.51,2.51,0,0,0,1.13-2c0-.72-.51-1-1.13-.66A2.5,2.5,0,0,0,237.05,78Z"/><path class="cls-1" d="M237.84,77.76l-.57.41a1.27,1.27,0,0,1,0-.29,1.86,1.86,0,0,1,0-.33l.57-.25L237.5,77a2.18,2.18,0,0,1,.46-.58l.23.48.22-.74a.59.59,0,0,1,.46,0l-.34.73.57-.41a1.27,1.27,0,0,1,0,.29,1.86,1.86,0,0,1,0,.33l-.57.25.34.33a2.18,2.18,0,0,1-.46.58l-.22-.48-.23.74a.59.59,0,0,1-.46,0Z"/><path class="cls-15" d="M238,77.44c0,.12.08.16.19.1a.41.41,0,0,0,.18-.32c0-.11-.08-.16-.18-.1A.39.39,0,0,0,238,77.44Z"/><path class="cls-14" d="M251.09,66.73a1.2,1.2,0,0,1,1.23-.12l1,.6a1.27,1.27,0,0,1,.46,1.1,3.85,3.85,0,0,1-1.75,3,1.21,1.21,0,0,1-1.28.09l-.95-.55a1.22,1.22,0,0,1-.5-1.12A3.85,3.85,0,0,1,251.09,66.73Z"/><path class="cls-4" d="M250.94,70c0,.72.51,1,1.13.65a2.49,2.49,0,0,0,1.13-2c0-.72-.5-1-1.13-.65A2.5,2.5,0,0,0,250.94,70Z"/><path class="cls-1" d="M251.73,69.74l-.57.41a.88.88,0,0,1,0-.29,1.24,1.24,0,0,1,0-.33l.57-.25-.35-.33a2.2,2.2,0,0,1,.47-.57l.22.48.23-.74a.52.52,0,0,1,.46,0l-.35.73.57-.41a.82.82,0,0,1,0,.28,1.24,1.24,0,0,1,0,.33l-.57.25.35.34a2,2,0,0,1-.46.57l-.23-.48-.22.74a.58.58,0,0,1-.47,0Z"/><path class="cls-15" d="M251.89,69.42c0,.12.08.17.18.11a.43.43,0,0,0,.19-.32.12.12,0,0,0-.19-.11A.41.41,0,0,0,251.89,69.42Z"/><path class="cls-24" d="M255,65.58a6.43,6.43,0,0,1-.44,3.06,1.32,1.32,0,0,1-.39.33V68.1c0-1.33-.94-1.88-2.09-1.21a4.63,4.63,0,0,0-2.1,3.63v.87L240.28,77v-.87c0-1.34-.94-1.88-2.1-1.21a4.62,4.62,0,0,0-2.09,3.63v.87l-.4.23s-.46.23-.64,0v0a32.35,32.35,0,0,1-8-4.53,1.11,1.11,0,0,1-.54-.88,6.51,6.51,0,0,1,.52-2.82A8.33,8.33,0,0,1,228.62,69a12,12,0,0,1,2.47-2,23.26,23.26,0,0,1,7-7.16c3.54-2.08,5.44-2.26,6.54-1.6l8.12,4.72a2.37,2.37,0,0,1,.47.26l.07,0h0a3.07,3.07,0,0,1,.26.25,1,1,0,0,1,.13.16c-.6.79-1.58,2.31.62,1.24a.49.49,0,0,0,0,.11l.27.09A.57.57,0,0,1,255,65.58Z"/><path class="cls-17" d="M242.31,67.37a24.51,24.51,0,0,0-3.3,4.16,42.2,42.2,0,0,1-7.7-4.44,24.91,24.91,0,0,1,3.29-4.15s.24-.3.7,0l6.89,4S242.53,67.12,242.31,67.37Z"/><path class="cls-18" d="M254.33,64.88l-.05-.14a4.24,4.24,0,0,0-.57-1.1C253.11,64.43,252.13,66,254.33,64.88Z"/><path class="cls-19" d="M236.33,75.75a4.53,4.53,0,0,0,.7-1.9c-1.14-.32-3.81,1.93-1.57,2.45A4.73,4.73,0,0,0,236.33,75.75Z"/><path class="cls-17" d="M241.33,70l-.25,1.35,4.75-2.94.62-3.3A18.57,18.57,0,0,0,241.33,70Z"/><path class="cls-20" d="M240.41,71.31s-.32.61.15.34l.52-.33.25-1.35C241,70.49,240.64,71,240.41,71.31Z"/><path class="cls-20" d="M246.76,64.89l-.22.13-.09.06-.62,3.3,1.42-.88.09-2.93Z"/><path class="cls-21" d="M247.34,64.57l-.09,2.93,3-1.88-.22-2.21A12.27,12.27,0,0,0,247.34,64.57Z"/><path class="cls-20" d="M250.05,63.41l.22,2.21.79-.49-.49-1.82A5.27,5.27,0,0,0,250.05,63.41Z"/><path class="cls-21" d="M252.4,63.56a2.77,2.77,0,0,0-1.83-.25l.49,1.82,0,0S252.85,63.79,252.4,63.56Z"/><path class="cls-25" d="M245.49,69.43c0,.13-.23.37-.52.54s-.53.19-.53.06.24-.37.53-.54S245.49,69.3,245.49,69.43Z"/><path class="cls-25" d="M250.5,66.32c0,.13-.24.37-.52.54s-.53.19-.53.06.24-.37.53-.54S250.5,66.19,250.5,66.32Z"/><path class="cls-20" d="M228.39,74.61l.2,1a32.43,32.43,0,0,0,3.79,2.28l.44-.65A35.71,35.71,0,0,1,228.39,74.61Z"/><path class="cls-23" d="M232.53,75.6l1.36-.81-5.18-3-.21,1.47A13.51,13.51,0,0,0,232.53,75.6Z"/><path class="cls-19" d="M228.56,69.12s.14,2.84-1,2c-.36-.26-.25-.2-.25-.2S227.23,69.15,228.56,69.12Z"/><polygon class="cls-2" points="231.58 77.27 229.35 75.98 229.35 74.46 231.58 75.75 231.58 77.27"/><path class="cls-25" d="M241.07,70.88l.42-.61a.69.69,0,0,1,.77-.33l.76.2a.4.4,0,0,1,.23.53,2.27,2.27,0,0,1-.37.48,1.07,1.07,0,0,1-.8.11,1.13,1.13,0,0,0-.54,0S241,71.55,241.07,70.88Z"/><path class="cls-13" d="M98.25,66.37c1.2-.69,2.17-.13,2.17,1.26v.72l-4.35,2.51v-.72A4.83,4.83,0,0,1,98.25,66.37Z"/><path class="cls-13" d="M83.09,75.13c1.2-.7,2.17-.13,2.17,1.25v.73L81,79.55s0,.22-.11.25v-.91A4.78,4.78,0,0,1,83.09,75.13Z"/><path class="cls-14" d="M81.86,79.9a1.35,1.35,0,0,0,1.23-.16,4,4,0,0,0,1.82-3.15,1.31,1.31,0,0,0-.5-1.16l-1.11-.69a1.28,1.28,0,0,0-1.3.12A4,4,0,0,0,80.18,78a1.28,1.28,0,0,0,.55,1.2Z"/><path class="cls-4" d="M81.91,78.32c0,.75.52,1.06,1.18.68a2.6,2.6,0,0,0,1.18-2c0-.76-.53-1.06-1.18-.69A2.61,2.61,0,0,0,81.91,78.32Z"/><path class="cls-20" d="M82.19,78.16c0,.57.4.8.9.51A2,2,0,0,0,84,77.12c0-.57-.4-.8-.89-.52A2,2,0,0,0,82.19,78.16Z"/><path class="cls-1" d="M82.73,78.08l-.6.43a1.36,1.36,0,0,1,0-.3,2,2,0,0,1,0-.34l.6-.26-.36-.35a2.19,2.19,0,0,1,.48-.6l.24.5.23-.77a.56.56,0,0,1,.48,0l-.36.76.6-.42a.85.85,0,0,1,0,.29,1.39,1.39,0,0,1,0,.35l-.6.26.36.34a2.06,2.06,0,0,1-.48.61l-.23-.5-.24.77a.6.6,0,0,1-.48,0Z"/><path class="cls-15" d="M82.89,77.75c0,.12.09.17.2.11a.44.44,0,0,0,.19-.33c0-.13-.09-.18-.19-.12A.45.45,0,0,0,82.89,77.75Z"/><path class="cls-14" d="M97,71.15A1.35,1.35,0,0,0,98.25,71a4,4,0,0,0,1.82-3.16,1.28,1.28,0,0,0-.5-1.15L98.46,66a1.25,1.25,0,0,0-1.3.12,4,4,0,0,0-1.82,3.15,1.24,1.24,0,0,0,.56,1.19Z"/><path class="cls-4" d="M97.07,69.57c0,.75.53,1.05,1.18.68a2.62,2.62,0,0,0,1.18-2c0-.75-.53-1.06-1.18-.68A2.62,2.62,0,0,0,97.07,69.57Z"/><path class="cls-20" d="M97.35,69.4c0,.57.4.8.9.52a2,2,0,0,0,.89-1.55c0-.57-.4-.8-.89-.52A2,2,0,0,0,97.35,69.4Z"/><path class="cls-1" d="M97.89,69.33l-.6.43a1.36,1.36,0,0,1,0-.3,2.21,2.21,0,0,1,0-.35l.6-.26-.36-.34a2.39,2.39,0,0,1,.48-.6l.24.5.23-.77a.56.56,0,0,1,.48,0l-.35.76L99.2,68a1,1,0,0,1,0,.3,1.45,1.45,0,0,1,0,.35l-.59.26.36.34a2.22,2.22,0,0,1-.49.6l-.23-.5-.24.77a.56.56,0,0,1-.48,0Z"/><path class="cls-15" d="M98.05,69c0,.12.09.17.2.11a.44.44,0,0,0,.19-.34.12.12,0,0,0-.19-.11A.42.42,0,0,0,98.05,69Z"/><path class="cls-26" d="M69.73,75l.37-.22,0-.41.12-1.58,0-.27c.1-.43.8-1,.8-1l2.55-2s.94-1.32,2.25-2.8A22.69,22.69,0,0,1,83,61.77c1.24-.53,3.77.22,3.77.22s3.3-1.19,4.89-1.73a2.33,2.33,0,0,1,1.93.23l6.65,3.89h0a1.58,1.58,0,0,1,.39.28c-.06.3-.14.66-.14.75s.17.57.29.56a3,3,0,0,0,.47-.19,4.42,4.42,0,0,1,0,.55c.31-.08.4.2.43.44a3.79,3.79,0,0,1-.4,1.08l-.81.69v-.91c0-1.39-1-1.95-2.17-1.26a4.83,4.83,0,0,0-2.18,3.77v.91L85.26,77.29v-.91c0-1.38-1-1.95-2.17-1.25a4.78,4.78,0,0,0-2.18,3.76v.91l-1.83,1a2.25,2.25,0,0,1-2.08,0l-6.9-3.9C69.47,76.51,69.73,75,69.73,75Z"/><path class="cls-19" d="M100.46,65.41c0-.09.08-.45.14-.75a2.2,2.2,0,0,1,.57.74,1.3,1.3,0,0,1,0,.38,3,3,0,0,1-.47.19C100.63,66,100.46,65.58,100.46,65.41Z"/><path class="cls-13" d="M89.06,67.35l.77,2.46-1,.57-.3-2.74Z"/><path class="cls-21" d="M83.26,73.09a8.72,8.72,0,0,1,2.12-3.18l.06,2.43-1.73,1C83,73.77,83.26,73.09,83.26,73.09Z"/><path class="cls-13" d="M94,66.91s.31.32-.2.61l-.19.11-.29-.93C93.6,66.78,93.83,66.85,94,66.91Z"/><path class="cls-17" d="M90.54,66.62a5,5,0,0,1,2.77.08l.29.93-3.77,2.18-.77-2.46C89.68,67,90.2,66.77,90.54,66.62Z"/><path class="cls-13" d="M85.68,69.61l.13,2.52-.37.21-.06-2.43Q85.53,69.75,85.68,69.61Z"/><path class="cls-21" d="M86.89,68.65c.57-.38,1.13-.72,1.65-1l.3,2.74-3,1.75-.13-2.52A10.12,10.12,0,0,1,86.89,68.65Z"/><path class="cls-27" d="M90.09,70.66l.82-.47a.36.36,0,0,0,.17-.3c0-.11-.07-.15-.17-.1l-.82.47a.4.4,0,0,0-.17.3C89.92,70.68,90,70.72,90.09,70.66Z"/><path class="cls-27" d="M84.85,73.69l.82-.47a.39.39,0,0,0,.17-.3c0-.11-.08-.16-.17-.1l-.82.47a.38.38,0,0,0-.17.3C84.68,73.7,84.75,73.75,84.85,73.69Z"/><polygon class="cls-2" points="74.44 77.39 72.21 76.1 72.21 74.58 74.44 75.86 74.44 77.39"/><path class="cls-17" d="M87.34,62.34l5.42,3.15a8.26,8.26,0,0,0-1.55-.17l-5.6-3.26A9.9,9.9,0,0,1,87.34,62.34Z"/><path class="cls-18" d="M77.19,78.33l-.71-.41,0-.84,1.29,0,1.3-.35s.22-.07.25.31v.66l-1.22.7A1.08,1.08,0,0,1,77.19,78.33Z"/><polygon class="cls-18" points="70.96 73.8 70.96 74.78 70.14 74.27 70.23 73.04 70.96 73.8"/><path class="cls-21" d="M74.26,69.87l5.9,3.4a.35.35,0,0,0,.42,0c.31-.43,1.1-1.47,2.1-2.6.24-.27.5-.54.77-.79a.33.33,0,0,0-.11-.49L77.59,66a.58.58,0,0,0-.53.08c-.27.27-.54.54-.79.82C75.3,68,74.54,69,74.2,69.47,74.2,69.47,74,69.73,74.26,69.87Z"/><path class="cls-19" d="M94.45,67.93l-.56-.2,0-1.1.29,0S94.87,66.79,94.45,67.93Z"/><path class="cls-27" d="M94.16,66.58a1,1,0,0,1,.86,1s.07.34-.57.4A1.53,1.53,0,0,0,94.16,66.58Z"/><path class="cls-13" d="M171.7,170.49c1.07-.61,1.93-.11,1.93,1.12v.64l-3.85,2.22v-.64A4.27,4.27,0,0,1,171.7,170.49Z"/><path class="cls-13" d="M159.48,177.55c1.07-.61,1.93-.12,1.93,1.11v.6l-3.76,2.17s0,.23-.1.26v-.8A4.29,4.29,0,0,1,159.48,177.55Z"/><path class="cls-14" d="M158.57,177.39a1.15,1.15,0,0,1,1.14-.12l1,.56a1.15,1.15,0,0,1,.42,1,3.58,3.58,0,0,1-1.61,2.8,1.12,1.12,0,0,1-1.18.09l-.88-.51a1.13,1.13,0,0,1-.46-1A3.55,3.55,0,0,1,158.57,177.39Z"/><path class="cls-4" d="M158.43,180.38c0,.67.47.94,1,.61a2.33,2.33,0,0,0,1.05-1.82c0-.66-.47-.94-1.05-.6A2.3,2.3,0,0,0,158.43,180.38Z"/><path class="cls-1" d="M159.16,180.17l-.52.38a.75.75,0,0,1,0-.26,1.1,1.1,0,0,1,0-.31l.52-.23-.31-.31a2,2,0,0,1,.42-.53l.21.44.21-.68a.52.52,0,0,1,.43,0l-.32.67.53-.38a1.12,1.12,0,0,1,0,.27,1.53,1.53,0,0,1,0,.3l-.53.23.32.31a1.89,1.89,0,0,1-.43.53l-.21-.44-.21.68a.5.5,0,0,1-.42,0Z"/><path class="cls-15" d="M159.31,179.88c0,.11.08.15.17.09a.34.34,0,0,0,.17-.29c0-.11-.07-.15-.17-.1A.39.39,0,0,0,159.31,179.88Z"/><path class="cls-14" d="M170.8,170.33a1.12,1.12,0,0,1,1.14-.11l1,.56a1.16,1.16,0,0,1,.42,1,3.53,3.53,0,0,1-1.62,2.79,1.1,1.1,0,0,1-1.18.09l-.88-.51a1.15,1.15,0,0,1-.46-1A3.56,3.56,0,0,1,170.8,170.33Z"/><path class="cls-4" d="M170.66,173.32c0,.67.47.94,1,.61a2.31,2.31,0,0,0,1.05-1.81c0-.67-.47-.94-1.05-.61A2.34,2.34,0,0,0,170.66,173.32Z"/><path class="cls-1" d="M171.39,173.11l-.53.38a1,1,0,0,1,0-.26,1.76,1.76,0,0,1,0-.31l.53-.23-.32-.31a2,2,0,0,1,.43-.53l.2.45.21-.69a.52.52,0,0,1,.43,0l-.32.68.53-.38a1,1,0,0,1,0,.26,1.71,1.71,0,0,1,0,.31l-.53.23.32.3a1.9,1.9,0,0,1-.43.54l-.21-.45-.2.69a.52.52,0,0,1-.43,0Z"/><path class="cls-15" d="M171.53,172.82c0,.11.08.15.17.1a.38.38,0,0,0,.17-.3c0-.11-.07-.15-.17-.1A.4.4,0,0,0,171.53,172.82Z"/><path class="cls-28" d="M150.51,175c0-.93,0-1.57.06-2.26l.31-.18a14.93,14.93,0,0,1,.61-4,40.3,40.3,0,0,1,8.51-5.44c1.3-.61,4.2.91,4.2.91a16.92,16.92,0,0,1,2.08-.5,2,2,0,0,1,1.29.21l6.15,3.55a.72.72,0,0,1,.12.14,1.43,1.43,0,0,0-.28,1.51l.83-.49a3.34,3.34,0,0,1,.18,1.05v1.63s.36.51-.36.93l-.58.33v-.8c0-1.23-.86-1.73-1.93-1.12a4.27,4.27,0,0,0-1.92,3.34v.81l-8.37,4.83v-.81a2.46,2.46,0,0,0,0-.28.11.11,0,0,0,0,0,2,2,0,0,0,0-.24h0c-.23-.79-1-1.05-1.85-.54a4.29,4.29,0,0,0-1.93,3.34v.8c-.09.05-.42.19-.44.08l-6.73-3.89A4.55,4.55,0,0,1,150.51,175Z"/><path class="cls-3" d="M173.84,167.45a3.42,3.42,0,0,1,.55,1h0l-.83.49A1.43,1.43,0,0,1,173.84,167.45Z"/><path class="cls-20" d="M163.94,168.86l.51,3.57-.82.47-.18-3.74Z"/><path class="cls-20" d="M159.32,172l.81-.6v3.5l-.94.55s-.31.16-.38-.34l-.09-2.21A1.31,1.31,0,0,1,159.32,172Z"/><path class="cls-21" d="M163.45,169.16l.18,3.74-3.5,2v-3.5C161.5,170.41,162.51,169.73,163.45,169.16Z"/><path class="cls-20" d="M169.74,168.46a.34.34,0,0,1,.19.27V169s0,.28-.15.35l-.5.28v-1.49Z"/><path class="cls-17" d="M163.94,168.86c1.28-.75,2.13-1.13,2.65-1.38.76-.35,1.82.12,2.69.67v1.49l-4.83,2.79Z"/><path class="cls-29" d="M165.46,172.77a.34.34,0,0,0,.16-.27c0-.11-.07-.15-.16-.1l-.63.37a.34.34,0,0,0-.16.27c0,.11.07.15.16.1Z"/><path class="cls-29" d="M161.17,175.25a.36.36,0,0,0,.16-.28c0-.1-.07-.14-.16-.09l-.62.36a.36.36,0,0,0-.16.28c0,.1.07.14.16.09Z"/><path class="cls-21" d="M151.36,172.88l5.54,3.29.51-3.52-5.54-3.28A7.07,7.07,0,0,0,151.36,172.88Z"/><path class="cls-30" d="M157,174.35a6.83,6.83,0,0,1,.42-1.9l.34-.27.48.28a9.82,9.82,0,0,0-.43,2l-.34.2Z"/><path class="cls-31" d="M157.35,175.65l.33-.19c0,.31-.06.65-.07,1l-.32.18-.48-.28c0-.36,0-.7.07-1Z"/><path class="cls-32" d="M156.88,175.38c0-.39.06-.73.1-1l.47.27.34-.2c0,.31-.08.66-.11,1l-.33.19Z"/><path class="cls-30" d="M150.74,170.75a6.85,6.85,0,0,1,.42-1.91l.33-.26.49.28a9.82,9.82,0,0,0-.43,2l-.34.19Z"/><path class="cls-31" d="M151.1,172.05l.33-.19c0,.31-.05.65-.07,1l-.31.18-.48-.28c0-.37,0-.7.06-1Z"/><path class="cls-32" d="M150.63,171.77c0-.39.07-.73.11-1l.47.26.34-.19c0,.3-.08.65-.12,1l-.33.19Z"/><polygon class="cls-2" points="154.52 179.43 152.29 178.14 152.29 176.62 154.52 177.91 154.52 179.43"/><path class="cls-17" d="M162.16,163.4l2,.65,5.28,3a8.23,8.23,0,0,0-2.29-.65l-5.37-3.1A2.15,2.15,0,0,1,162.16,163.4Z"/><path class="cls-19" d="M169.87,170.14l-.56-.2,0-1.1.29-.05S170.29,169,169.87,170.14Z"/><path class="cls-29" d="M169.58,168.79a1,1,0,0,1,.86,1s.07.34-.57.4A1.5,1.5,0,0,0,169.58,168.79Z"/><path class="cls-13" d="M162.23,70.7c1.16-.66,2.1-.12,2.1,1.21v.7L160.14,75v-.7A4.66,4.66,0,0,1,162.23,70.7Z"/><path class="cls-13" d="M148.35,78.72c1.15-.67,2.09-.13,2.09,1.21v.7L146.36,83s-.05.2-.11.23v-.87A4.63,4.63,0,0,1,148.35,78.72Z"/><path class="cls-14" d="M147.14,83.36a1.35,1.35,0,0,0,1.23-.16A4,4,0,0,0,150.19,80a1.3,1.3,0,0,0-.5-1.15l-1.1-.69a1.28,1.28,0,0,0-1.3.12,4,4,0,0,0-1.83,3.15,1.29,1.29,0,0,0,.56,1.2Z"/><path class="cls-4" d="M147.19,81.78c0,.75.53,1.06,1.18.68a2.62,2.62,0,0,0,1.18-2c0-.75-.53-1-1.18-.68A2.63,2.63,0,0,0,147.19,81.78Z"/><path class="cls-20" d="M147.48,81.61c0,.57.4.81.89.52a2,2,0,0,0,.9-1.55c0-.57-.4-.8-.9-.52A2,2,0,0,0,147.48,81.61Z"/><path class="cls-1" d="M148,81.54l-.59.43a1,1,0,0,1,0-.3,1.32,1.32,0,0,1,0-.34l.59-.27-.36-.34a2.22,2.22,0,0,1,.49-.6l.23.5.24-.77a.56.56,0,0,1,.48,0l-.36.76.6-.43a1.36,1.36,0,0,1,0,.3,2.21,2.21,0,0,1,0,.35l-.6.26.36.34a2.39,2.39,0,0,1-.48.6l-.24-.5-.23.78a.62.62,0,0,1-.49,0Z"/><path class="cls-15" d="M148.18,81.21a.12.12,0,0,0,.19.11.42.42,0,0,0,.2-.33c0-.13-.09-.18-.2-.12A.47.47,0,0,0,148.18,81.21Z"/><path class="cls-33" d="M138.41,76.12l.6-.71s0-.1,0-.16a1.33,1.33,0,0,1,0-.19,12,12,0,0,1,.57-1.76l.12-.3c1-2.23,2.88-4.6,7.05-7s7-1,7-1a5.1,5.1,0,0,1,2.22-.74,3.19,3.19,0,0,1,1.94.55l6.34,3.61h0A1.52,1.52,0,0,1,165,69a3.93,3.93,0,0,1,.48,2.66,1.75,1.75,0,0,1-.7,1l-.4.23v-.88c0-1.33-.94-1.87-2.1-1.21a4.66,4.66,0,0,0-2.09,3.63v.88l-9.7,5.59v-.87c0-1.34-.94-1.88-2.09-1.21a4.63,4.63,0,0,0-2.1,3.63v.87c-.11,0-.29.15-.39.12l-.08,0-7-4C138.19,79.07,138.41,76.12,138.41,76.12Z"/><path class="cls-17" d="M157.46,68a5.13,5.13,0,0,1,2.16.42l-5.16-3A5.27,5.27,0,0,0,152.3,65Z"/><path class="cls-14" d="M160.48,74.14c0,1.11.78,1.57,1.75,1a3.88,3.88,0,0,0,1.76-3c0-1.12-.79-1.57-1.76-1A3.87,3.87,0,0,0,160.48,74.14Z"/><path class="cls-4" d="M161.09,73.78c0,.73.51,1,1.14.66a2.53,2.53,0,0,0,1.14-2c0-.73-.51-1-1.14-.66A2.5,2.5,0,0,0,161.09,73.78Z"/><path class="cls-20" d="M161.37,73.62c0,.55.39.77.86.5a1.89,1.89,0,0,0,.86-1.49c0-.55-.38-.78-.86-.5A1.91,1.91,0,0,0,161.37,73.62Z"/><path class="cls-1" d="M161.89,73.55l-.58.41a1.2,1.2,0,0,1,0-.28,2,2,0,0,1,0-.34l.58-.25-.35-.33a2.44,2.44,0,0,1,.47-.58l.22.48.23-.74a.55.55,0,0,1,.46,0l-.34.74.57-.42a.88.88,0,0,1,0,.29,1.24,1.24,0,0,1,0,.33l-.57.25.34.34a2.18,2.18,0,0,1-.46.58l-.23-.49-.22.75a.62.62,0,0,1-.47,0Z"/><path class="cls-15" d="M162.05,73.23c0,.12.08.17.18.11a.43.43,0,0,0,.19-.32.12.12,0,0,0-.19-.11A.41.41,0,0,0,162.05,73.23Z"/><path class="cls-19" d="M164.09,69.41a2,2,0,0,1-.83-1.55A2,2,0,0,1,165,69,3.92,3.92,0,0,1,164.09,69.41Z"/><path class="cls-17" d="M159.09,69.4l.24,1.07L154.58,73,154,70.42A7.33,7.33,0,0,1,159.09,69.4Z"/><path class="cls-20" d="M160,69.67s.31.25-.15.52l-.53.28-.24-1.07A5.85,5.85,0,0,1,160,69.67Z"/><path class="cls-20" d="M153.65,70.6l.22-.13.1,0,.61,2.58-1.42.76-.08-2.82C153.26,70.82,153.46,70.71,153.65,70.6Z"/><path class="cls-21" d="M153.08,70.94l.08,2.82-3,1.62.23-2.47A17.85,17.85,0,0,1,153.08,70.94Z"/><path class="cls-20" d="M150.37,72.91l-.23,2.47-.78.42.49-2.4Z"/><path class="cls-21" d="M148,75.78a11.74,11.74,0,0,1,1.84-2.38l-.49,2.4,0,0S147.56,76.52,148,75.78Z"/><path class="cls-33" d="M154.92,73.66c0,.13.24.1.53-.06s.52-.41.52-.54-.23-.1-.52.06S154.92,73.53,154.92,73.66Z"/><path class="cls-33" d="M149.92,76.34c0,.13.23.1.52-.07s.52-.41.52-.54-.23-.1-.52.07S149.92,76.21,149.92,76.34Z"/><polygon class="cls-2" points="142.73 79.73 140.5 78.45 140.5 76.93 142.73 78.21 142.73 79.73"/><path class="cls-19" d="M159.9,71.1l-.56-.2,0-1.1.29,0S160.32,70,159.9,71.1Z"/><path class="cls-33" d="M159.6,69.75a1,1,0,0,1,.86,1s.07.34-.56.4A1.51,1.51,0,0,0,159.6,69.75Z"/><path class="cls-21" d="M140.51,73.28,145,75.85a.47.47,0,0,0,.63-.06,12,12,0,0,1,2.14-3,.3.3,0,0,0-.08-.41L143,69.66s-.32-.08-.47.1a12,12,0,0,0-2.13,3A.35.35,0,0,0,140.51,73.28Z"/><path class="cls-18" d="M146.09,79.31c2.2-1.46,1.21-1.85.61-2,0,0-2.2.47-2.29,1S145.65,79.47,146.09,79.31Z"/><path class="cls-18" d="M139.05,75.25a1.33,1.33,0,0,1,0-.19,12,12,0,0,1,.57-1.76C140.19,73.61,140.56,76.68,139.05,75.25Z"/><path class="cls-13" d="M173,38.39a4.84,4.84,0,0,0-2.18,3.77v.73l4.35-2.52v-.72C175.15,38.26,174.18,37.7,173,38.39Z"/><path class="cls-13" d="M188.14,29.64A4.81,4.81,0,0,0,186,33.41v.72l4.25-2.45s0,.16.11.12v-.9C190.32,29.51,189.34,29,188.14,29.64Z"/><path class="cls-14" d="M171.75,43.17A1.35,1.35,0,0,0,173,43a4,4,0,0,0,1.82-3.15,1.31,1.31,0,0,0-.5-1.16L173.19,38a1.28,1.28,0,0,0-1.3.12,4,4,0,0,0-1.82,3.15,1.24,1.24,0,0,0,.56,1.19Z"/><path class="cls-4" d="M171.8,41.59c0,.75.53,1.06,1.18.68a2.62,2.62,0,0,0,1.18-2c0-.76-.53-1.06-1.18-.69A2.63,2.63,0,0,0,171.8,41.59Z"/><path class="cls-20" d="M172.08,41.42c0,.57.41.81.9.52a2,2,0,0,0,.89-1.55c0-.57-.4-.8-.89-.52A2,2,0,0,0,172.08,41.42Z"/><path class="cls-1" d="M172.62,41.35l-.59.43a1,1,0,0,1,0-.3,1.45,1.45,0,0,1,0-.35l.59-.26-.36-.34a2.39,2.39,0,0,1,.48-.6l.24.5.23-.77a.58.58,0,0,1,.49,0l-.36.76.59-.43a1,1,0,0,1,0,.3,1.45,1.45,0,0,1,0,.35l-.59.26.36.34a2.22,2.22,0,0,1-.49.6l-.23-.5-.24.78a.6.6,0,0,1-.48,0Z"/><path class="cls-15" d="M172.79,41c0,.12.08.17.19.11a.41.41,0,0,0,.19-.34c0-.12-.08-.17-.19-.11A.43.43,0,0,0,172.79,41Z"/><path class="cls-14" d="M186.91,34.41a1.31,1.31,0,0,0,1.23-.15A4,4,0,0,0,190,31.1a1.28,1.28,0,0,0-.5-1.15l-1.1-.69a1.27,1.27,0,0,0-1.31.12,4,4,0,0,0-1.82,3.15,1.27,1.27,0,0,0,.56,1.19Z"/><path class="cls-4" d="M187,32.84c0,.75.53,1,1.18.68a2.63,2.63,0,0,0,1.18-2.05c0-.75-.53-1.06-1.18-.68A2.62,2.62,0,0,0,187,32.84Z"/><path class="cls-20" d="M187.25,32.67c0,.57.4.8.89.52a2,2,0,0,0,.9-1.55c0-.57-.41-.81-.9-.52A2,2,0,0,0,187.25,32.67Z"/><path class="cls-1" d="M187.78,32.6l-.59.43a1,1,0,0,1,0-.3,1.45,1.45,0,0,1,0-.35l.59-.26-.36-.34a2.22,2.22,0,0,1,.49-.6l.23.5.24-.78a.6.6,0,0,1,.48.05l-.36.76.59-.43a1,1,0,0,1,0,.3,1.32,1.32,0,0,1,0,.34l-.59.27.36.34a2.39,2.39,0,0,1-.48.6l-.24-.5-.23.77a.58.58,0,0,1-.49,0Z"/><path class="cls-15" d="M188,32.27c0,.12.08.17.19.11a.44.44,0,0,0,.19-.34c0-.12-.08-.17-.19-.11A.41.41,0,0,0,188,32.27Z"/><path class="cls-34" d="M161.93,37.09a4.07,4.07,0,0,1,0-.54,2,2,0,0,1,.05-.43,8.57,8.57,0,0,1,.57-1.4,5,5,0,0,1,.73-1.19c.45-.43,5.57-4.46,5.57-4.46s2.52-3.67,3.76-4.56,4.82-3.22,7.1-3.27a9.25,9.25,0,0,1,2.25.19l2.27-.87a1.77,1.77,0,0,1,1.49.2l7.6,4.35h0a.21.21,0,0,1,.1.11l0,.25-1.3,1.15a.85.85,0,0,0-.25.6v.66l1.67-1h0l.37.17a3.55,3.55,0,0,1-1,3.16l-2.62,1.56v-.9c0-1.39-1-1.95-2.18-1.26A4.81,4.81,0,0,0,186,33.41v.91l-10.81,6.24v-.91c0-1.39-1-1.95-2.17-1.26a4.84,4.84,0,0,0-2.18,3.77v.91a2.17,2.17,0,0,1-1.14,0,30.67,30.67,0,0,1-8-4.61.67.67,0,0,1-.19-.42A1.37,1.37,0,0,1,161.93,37.09Z"/><path class="cls-18" d="M191.86,27.22v.66l1.67-1-.12-1.44-1.3,1.15A.85.85,0,0,0,191.86,27.22Z"/><path class="cls-13" d="M182.17,28.76l-.78,3.35,1-.57.31-3.09Z"/><path class="cls-21" d="M188,27.8a2,2,0,0,0-2.12-.73l-.06,2.5,1.73-1C188.26,28.15,188,27.8,188,27.8Z"/><path class="cls-13" d="M177.24,34s-.31.67.19.38l.2-.11.28-1.26C177.63,33.43,177.4,33.78,177.24,34Z"/><path class="cls-17" d="M180.69,29.74A17.92,17.92,0,0,0,177.91,33l-.28,1.26,3.76-2.18.78-3.35C181.55,29.15,181,29.5,180.69,29.74Z"/><path class="cls-13" d="M185.54,27.13l-.12,2.66.37-.22.06-2.5A1.7,1.7,0,0,0,185.54,27.13Z"/><path class="cls-21" d="M184.34,27.55c-.58.29-1.14.59-1.65.9l-.31,3.09,3-1.75.12-2.66A5.68,5.68,0,0,0,184.34,27.55Z"/><path class="cls-35" d="M181.13,33.27l-.81.47c-.1.06-.18,0-.18-.1a.39.39,0,0,1,.18-.3l.81-.47c.1-.06.18,0,.18.1A.37.37,0,0,1,181.13,33.27Z"/><path class="cls-35" d="M186.38,30.24l-.82.48c-.1.05-.17,0-.17-.1a.38.38,0,0,1,.17-.31l.82-.47c.09-.05.17,0,.17.1A.39.39,0,0,1,186.38,30.24Z"/><polygon class="cls-2" points="165.97 40.82 163.74 39.53 163.74 38.02 165.97 39.3 165.97 40.82"/><path class="cls-15" d="M169.77,40.19a3.91,3.91,0,0,1-2.16-.45l1-.93a4.26,4.26,0,0,0,2.44.1S170.59,40,169.77,40.19Z"/><path class="cls-19" d="M169.32,42a1.91,1.91,0,0,1-1-.23l.51-.45a2.07,2.07,0,0,0,1.19,0S169.72,41.94,169.32,42Z"/><path class="cls-15" d="M163.1,35.39l0,1.45a13.36,13.36,0,0,1-1-.94,2.35,2.35,0,0,1,.46-1.07Z"/><path class="cls-19" d="M162.13,37.31l0,.62a5.66,5.66,0,0,1-.44-.4,1.09,1.09,0,0,1,.19-.46Z"/><path class="cls-36" d="M168.12,38.48l-1,.91a26.13,26.13,0,0,1-3.6-2.21l0-1.44A24.55,24.55,0,0,0,168.12,38.48Z"/><path class="cls-21" d="M186.67,25.31,180,21.48h.08a9.52,9.52,0,0,1,2.25.2l6.84,3.95a9,9,0,0,0-2-.2A1.79,1.79,0,0,1,186.67,25.31Z"/><path class="cls-17" d="M169.47,29.51a24.6,24.6,0,0,0,6.21,3.6.61.61,0,0,0,.61-.16c.46-.66,1.57-2.19,2.53-3.28a.25.25,0,0,0-.07-.41l-6.27-3.61a.5.5,0,0,0-.51.09c-1,1.1-2.09,2.65-2.54,3.28A.36.36,0,0,0,169.47,29.51Z"/><path class="cls-35" d="M177.63,34.31l.53-.77a.58.58,0,0,1,.66-.08l1,.36a.43.43,0,0,1,.23.54,2.07,2.07,0,0,1-.37.45c-.2.13-.7,0-1,0a1.09,1.09,0,0,0-.55,0S177.54,35,177.63,34.31Z"/><path class="cls-13" d="M246,107.62a4.81,4.81,0,0,1,2.18,3.77v.72l-4.35-2.51v-.73C243.8,107.49,244.77,106.92,246,107.62Z"/><path class="cls-13" d="M230.81,98.87a4.8,4.8,0,0,1,2.17,3.76v.73l-4.24-2.45s0,.16-.11.11v-.9C228.63,98.73,229.61,98.17,230.81,98.87Z"/><path class="cls-14" d="M247.2,112.39a1.29,1.29,0,0,1-1.23-.16,4,4,0,0,1-1.82-3.15,1.31,1.31,0,0,1,.5-1.16l1.11-.69a1.3,1.3,0,0,1,1.3.12,4.05,4.05,0,0,1,1.82,3.16,1.26,1.26,0,0,1-.56,1.19Z"/><path class="cls-4" d="M247.15,110.81c0,.76-.53,1.06-1.18.68a2.6,2.6,0,0,1-1.18-2c0-.75.53-1.06,1.18-.68A2.6,2.6,0,0,1,247.15,110.81Z"/><path class="cls-20" d="M246.87,110.65c0,.57-.41.8-.9.51a2,2,0,0,1-.89-1.55c0-.57.4-.8.89-.51A2,2,0,0,1,246.87,110.65Z"/><path class="cls-1" d="M246.33,110.58l.59.42a.91.91,0,0,0,0-.3,1.37,1.37,0,0,0,0-.34l-.59-.26.36-.35a2.39,2.39,0,0,0-.48-.6l-.24.5-.24-.77a.6.6,0,0,0-.48,0l.36.76-.59-.42a.91.91,0,0,0,0,.3,1.32,1.32,0,0,0,0,.34l.59.26-.36.35a2.39,2.39,0,0,0,.48.6l.24-.5.24.77a.6.6,0,0,0,.48,0Z"/><path class="cls-15" d="M246.16,110.24c0,.13-.08.17-.19.11a.41.41,0,0,1-.19-.33c0-.12.08-.18.19-.11A.41.41,0,0,1,246.16,110.24Z"/><path class="cls-14" d="M232,103.64a1.35,1.35,0,0,1-1.23-.16,4,4,0,0,1-1.82-3.15,1.31,1.31,0,0,1,.5-1.16l1.1-.69a1.27,1.27,0,0,1,1.31.12,4,4,0,0,1,1.82,3.15,1.29,1.29,0,0,1-.56,1.2Z"/><path class="cls-4" d="M232,102.06c0,.75-.53,1.06-1.18.68a2.62,2.62,0,0,1-1.18-2c0-.76.53-1.06,1.18-.69A2.63,2.63,0,0,1,232,102.06Z"/><path class="cls-20" d="M231.7,101.89c0,.57-.4.81-.89.52a2,2,0,0,1-.9-1.55c0-.57.4-.8.9-.52A2,2,0,0,1,231.7,101.89Z"/><path class="cls-1" d="M231.17,101.82l.59.43a1,1,0,0,0,0-.3,1.32,1.32,0,0,0,0-.34l-.59-.26.36-.35a2.22,2.22,0,0,0-.49-.6l-.23.5-.24-.77a.56.56,0,0,0-.48,0l.36.76-.59-.43a1,1,0,0,0,0,.3,1.45,1.45,0,0,0,0,.35l.59.26-.36.34a2.23,2.23,0,0,0,.48.6l.24-.5.23.78a.62.62,0,0,0,.49,0Z"/><path class="cls-15" d="M231,101.49c0,.12-.08.17-.19.11a.41.41,0,0,1-.19-.33c0-.13.08-.18.19-.12A.44.44,0,0,1,231,101.49Z"/><path class="cls-9" d="M257,106.31a3.86,3.86,0,0,0,0-.53,2.12,2.12,0,0,0-.05-.44,8.57,8.57,0,0,0-.57-1.4,5.2,5.2,0,0,0-.73-1.19c-.46-.42-5.57-4.45-5.57-4.45s-2.52-3.67-3.76-4.57-4.82-3.21-7.1-3.27a9.52,9.52,0,0,0-2.25.2l-2.27-.88a1.81,1.81,0,0,0-1.49.2l-7.6,4.35h0a.2.2,0,0,0-.1.12l0,.24,1.3,1.15a1,1,0,0,1,.25.61v.65l-1.67-1h0l-.37.16a3.54,3.54,0,0,0,1,3.16l2.62,1.56v-.9c0-1.39,1-2,2.18-1.25a4.8,4.8,0,0,1,2.17,3.76v.91l10.82,6.24v-.91c0-1.38,1-2,2.17-1.25a4.81,4.81,0,0,1,2.18,3.77v.9a2.17,2.17,0,0,0,1.14,0,30.67,30.67,0,0,0,8-4.61.65.65,0,0,0,.19-.41A1.39,1.39,0,0,0,257,106.31Z"/><path class="cls-18" d="M227.09,96.45v.65l-1.67-1,.12-1.45,1.3,1.15A1,1,0,0,1,227.09,96.45Z"/><path class="cls-13" d="M236.78,98l.77,3.34-1-.57-.31-3.09C236.44,97.78,236.62,97.88,236.78,98Z"/><path class="cls-21" d="M231,97a2,2,0,0,1,2.12-.74l.06,2.51-1.73-1C230.69,97.37,231,97,231,97Z"/><path class="cls-13" d="M241.71,103.24s.31.67-.19.38l-.2-.11-.28-1.26C241.32,102.65,241.55,103,241.71,103.24Z"/><path class="cls-17" d="M238.26,99a18.68,18.68,0,0,1,2.78,3.29l.28,1.26-3.77-2.18L236.78,98C237.4,98.37,237.92,98.72,238.26,99Z"/><path class="cls-13" d="M233.41,96.35l.12,2.66-.37-.21-.06-2.51Z"/><path class="cls-21" d="M234.61,96.78c.58.28,1.14.59,1.65.89l.31,3.09-3-1.75-.12-2.66A5.38,5.38,0,0,1,234.61,96.78Z"/><path class="cls-37" d="M237.82,102.5l.81.47c.1,0,.18,0,.18-.1a.36.36,0,0,0-.18-.3l-.81-.48c-.1,0-.18,0-.18.1A.39.39,0,0,0,237.82,102.5Z"/><path class="cls-37" d="M232.57,99.47l.82.47c.09.06.17,0,.17-.1a.39.39,0,0,0-.17-.3l-.82-.47c-.09-.06-.17,0-.17.1A.4.4,0,0,0,232.57,99.47Z"/><polygon class="cls-2" points="252.98 110.05 255.21 108.76 255.21 107.24 252.98 108.53 252.98 110.05"/><path class="cls-15" d="M249.18,109.42a3.83,3.83,0,0,0,2.16-.46l-1.05-.93a4.18,4.18,0,0,1-2.44.1S248.36,109.25,249.18,109.42Z"/><path class="cls-19" d="M249.63,111.24a1.9,1.9,0,0,0,1.05-.22l-.51-.46a2.07,2.07,0,0,1-1.19,0S249.22,111.16,249.63,111.24Z"/><path class="cls-15" d="M255.85,104.61l0,1.46c.38-.31.72-.62,1.05-.94a2.37,2.37,0,0,0-.46-1.08Z"/><path class="cls-19" d="M256.82,106.54l0,.62a5.76,5.76,0,0,0,.44-.41,1.06,1.06,0,0,0-.19-.45Z"/><path class="cls-36" d="M250.83,107.71l1,.91a25.23,25.23,0,0,0,3.6-2.22l0-1.44A24.57,24.57,0,0,1,250.83,107.71Z"/><path class="cls-21" d="M232.28,94.53l6.65-3.83h-.08a9.52,9.52,0,0,0-2.25.2l-6.84,4a9,9,0,0,1,2-.2A1.79,1.79,0,0,0,232.28,94.53Z"/><path class="cls-17" d="M249.48,98.74a24.58,24.58,0,0,1-6.21,3.59.59.59,0,0,1-.61-.16c-.46-.65-1.57-2.19-2.53-3.27a.25.25,0,0,1,.07-.41l6.27-3.62A.5.5,0,0,1,247,95c1,1.1,2.09,2.66,2.54,3.29A.35.35,0,0,1,249.48,98.74Z"/><path class="cls-37" d="M241.32,103.54l-.53-.77a.56.56,0,0,0-.66-.08l-1,.35a.43.43,0,0,0-.23.55,2.34,2.34,0,0,0,.37.45c.19.13.7,0,1-.05a1,1,0,0,1,.55,0S241.41,104.2,241.32,103.54Z"/><path class="cls-2" d="M91.74,109c.09-.29.4-.31.7,0l7.45,6.63a.46.46,0,0,1,.07.07,11,11,0,0,1,3,7v16.68c0,.18-.25.32-.56.32s-.57-.1-.57-.28V122.06a8.5,8.5,0,0,0-2.31-5.39l-7.42-6.61A1.14,1.14,0,0,1,91.74,109Z"/><path class="cls-19" d="M86.79,134.61,102,125.8a.55.55,0,1,1,.55,1l-15.73,9.13Z"/><path class="cls-2" d="M75.79,118.24c.08-.29.4-.31.7,0l7.45,6.63a.46.46,0,0,1,.07.07,11,11,0,0,1,3,7V148.6c0,.18-.25.32-.57.32s-.56-.1-.56-.28V131.27a8.5,8.5,0,0,0-2.31-5.39l-7.42-6.61A1.12,1.12,0,0,1,75.79,118.24Z"/><path class="cls-18" d="M91.92,108.82a.52.52,0,0,1,.52.17l7.45,6.63a.46.46,0,0,1,.07.07,11,11,0,0,1,3,7v4L87,135.9v-4a11,11,0,0,0-3-7,.46.46,0,0,0-.07-.07l-7.45-6.63A.52.52,0,0,0,76,118Z"/><path class="cls-38" d="M99.17,124.33l15.75-9.15a.54.54,0,0,1,.25-.06v5.38l-15.63,9.07a.55.55,0,0,1-.28.07h-.09Z"/><path class="cls-2" d="M99.26,130.47a.57.57,0,0,0,.28-.08l15.93-9.24a.56.56,0,0,0,.2-.76.55.55,0,0,0-.75-.2L99,129.44a.55.55,0,0,0,.27,1Z"/><path class="cls-2" d="M117.56,113.06l.07,0,7.45,2a1.13,1.13,0,0,1,.7.85c.09.4-.08.66-.39.58l-7.42-2c-1.4-.11-2.31,1-2.31,2.73v16.67c0,.18-.25.32-.56.32s-.57-.14-.57-.32V116.59C114.53,114.29,115.72,112.9,117.56,113.06Z"/><path class="cls-2" d="M101.61,122.27l.07,0,7.45,2a1.15,1.15,0,0,1,.7.85c.09.4-.09.66-.39.58l-7.42-2c-1.4-.11-2.31,1-2.31,2.73v16.67c0,.18-.25.32-.56.32s-.57-.14-.57-.32V125.8C98.58,123.5,99.77,122.11,101.61,122.27Z"/><path class="cls-39" d="M116,113.39a2.66,2.66,0,0,1,1.59-.33l.07,0,7.45,2a1.13,1.13,0,0,1,.7.85l-16,9.21a1.15,1.15,0,0,0-.7-.85l-7.45-2-.07,0a2.66,2.66,0,0,0-1.59.33Z"/><polygon class="cls-5" points="93.58 146.19 93.58 153.02 96.5 151.34 96.5 144.5 93.58 146.19"/><polygon class="cls-8" points="93.58 146.19 93.58 153.02 91.72 151.95 91.72 145.12 93.58 146.19"/><polygon class="cls-10" points="96.5 144.5 93.58 146.19 91.72 145.12 94.64 143.44 96.5 144.5"/><polygon class="cls-8" points="92.15 148.04 92.15 149.25 90.3 148.18 90.3 146.97 92.15 148.04"/><polygon class="cls-10" points="93.58 147.22 92.15 148.04 90.3 146.97 91.72 146.15 93.58 147.22"/><polygon class="cls-5" points="92.15 148.04 92.15 149.25 93.58 148.43 93.58 147.22 92.15 148.04"/><polygon class="cls-8" points="112.46 159.27 112.46 159.91 111.15 159.16 111.15 158.52 112.46 159.27"/><polygon class="cls-9" points="111.15 158.52 111.15 159.16 109.84 158.4 109.84 157.76 111.15 158.52"/><polygon class="cls-8" points="109.84 157.76 109.84 158.4 108.53 157.65 108.53 157.01 109.84 157.76"/><polygon class="cls-9" points="108.53 157.01 108.53 157.65 107.23 156.89 107.23 156.25 108.53 157.01"/><polygon class="cls-8" points="107.23 156.25 107.23 156.89 105.92 156.14 105.92 155.5 107.23 156.25"/><polygon class="cls-9" points="105.92 155.5 105.92 156.14 104.61 155.38 104.61 154.74 105.92 155.5"/><polygon class="cls-8" points="104.61 154.74 104.61 155.38 103.3 154.62 103.3 153.99 104.61 154.74"/><polygon class="cls-9" points="103.3 153.99 103.3 154.62 101.99 153.87 101.99 153.23 103.3 153.99"/><polygon class="cls-8" points="101.99 153.23 101.99 153.87 100.68 153.11 100.68 152.47 101.99 153.23"/><polygon class="cls-9" points="100.68 152.47 100.68 153.11 99.37 152.36 99.37 151.72 100.68 152.47"/><polygon class="cls-8" points="99.37 151.72 99.37 152.36 98.06 151.6 98.06 150.96 99.37 151.72"/><polygon class="cls-9" points="98.06 150.96 98.06 151.6 96.76 150.85 96.76 150.21 98.06 150.96"/><polygon class="cls-8" points="96.76 150.21 96.76 150.85 95.45 150.09 95.45 149.45 96.76 150.21"/><polygon class="cls-9" points="95.45 149.45 95.45 150.09 94.14 149.34 94.14 148.7 95.45 149.45"/><polygon class="cls-8" points="94.14 148.7 94.14 149.34 92.83 148.58 92.83 147.94 94.14 148.7"/><polygon class="cls-5" points="116.73 129.04 110.98 132.36 110.98 141.65 116.73 138.33 116.73 129.04"/><polygon class="cls-11" points="110.98 141.65 110.98 142.99 116.73 139.66 116.73 138.33 110.98 141.65"/><polygon class="cls-14" points="112.02 138.82 115.69 136.7 115.69 129.64 112.02 131.76 112.02 138.82"/><polygon class="cls-4" points="112.52 135.33 115.18 133.79 115.18 130.88 112.52 132.42 112.52 135.33"/><polygon class="cls-4" points="112.52 136.18 113.53 135.6 113.53 135.18 112.52 135.76 112.52 136.18"/><polygon class="cls-8" points="107.35 130.27 110.98 132.36 110.98 141.65 107.35 139.56 107.35 130.27"/><polygon class="cls-10" points="113.1 126.94 116.73 129.04 110.98 132.36 107.35 130.27 113.1 126.94"/><polygon class="cls-7" points="110.98 141.65 110.98 142.99 107.35 140.89 107.35 139.56 110.98 141.65"/><polygon class="cls-12" points="108.21 136.19 109.3 136.82 109.3 133.18 108.21 132.55 108.21 136.19"/><path class="cls-5" d="M114.8,167.21c-.18,0-.32-.07-.32-.25v-1.87a3,3,0,0,1,1.33-2.43,1.11,1.11,0,0,1,1.13-.07,1.26,1.26,0,0,1,.54,1.14v1.87c0,.18-.15.25-.33.25s-.33-.07-.33-.25v-1.87a.66.66,0,0,0-.21-.57c-.15-.09-.36,0-.47.07a2.4,2.4,0,0,0-1,1.86V167C115.13,167.14,115,167.21,114.8,167.21Z"/><path class="cls-5" d="M118.78,164.91c-.19,0-.33-.07-.33-.25v-1.87a3.05,3.05,0,0,1,1.34-2.43,1.11,1.11,0,0,1,1.12-.07,1.25,1.25,0,0,1,.54,1.15v1.87c0,.18-.14.25-.33.25s-.33-.07-.33-.25v-1.87a.65.65,0,0,0-.21-.57.47.47,0,0,0-.46.07,2.35,2.35,0,0,0-1,1.85v1.87C119.11,164.84,119,164.91,118.78,164.91Z"/><path class="cls-5" d="M122.75,162.62c-.18,0-.33-.07-.33-.25V160.5a3,3,0,0,1,1.34-2.43,1.09,1.09,0,0,1,1.12-.07,1.25,1.25,0,0,1,.54,1.15V161c0,.19-.14.26-.32.26s-.33-.07-.33-.26v-1.86a.65.65,0,0,0-.22-.58c-.15-.09-.35,0-.46.07a2.39,2.39,0,0,0-1,1.86v1.87C123.08,162.55,122.93,162.62,122.75,162.62Z"/><path class="cls-5" d="M126.72,160.33c-.18,0-.33-.07-.33-.26v-1.86a3,3,0,0,1,1.34-2.43,1.06,1.06,0,0,1,1.12-.07,1.24,1.24,0,0,1,.55,1.14v1.87c0,.18-.15.25-.33.25s-.33-.07-.33-.25v-1.87a.64.64,0,0,0-.22-.57c-.15-.09-.35,0-.46.07a2.37,2.37,0,0,0-1,1.86v1.86C127.05,160.26,126.9,160.33,126.72,160.33Z"/><path class="cls-5" d="M130.69,158c-.18,0-.33-.07-.33-.25v-1.87a3,3,0,0,1,1.34-2.43,1.13,1.13,0,0,1,1.13-.07,1.28,1.28,0,0,1,.54,1.15v1.87c0,.18-.15.25-.33.25s-.33-.07-.33-.25v-1.87a.65.65,0,0,0-.21-.57.51.51,0,0,0-.47.06,2.39,2.39,0,0,0-1,1.86v1.87C131,158,130.87,158,130.69,158Z"/><path class="cls-5" d="M134.66,155.74c-.18,0-.33-.07-.33-.25v-1.87a3,3,0,0,1,1.34-2.43,1.1,1.1,0,0,1,1.13-.07,1.28,1.28,0,0,1,.54,1.15v1.86c0,.19-.15.26-.33.26s-.33-.07-.33-.26v-1.86a.67.67,0,0,0-.21-.58c-.15-.09-.36,0-.47.07a2.41,2.41,0,0,0-1,1.86v1.87C135,155.67,134.85,155.74,134.66,155.74Z"/><path class="cls-40" d="M3.41,94.89v7.59l-.71.41v.58L9,99.8l17.15-9.9v1.15l.38-.22V89.69l17.15-9.9v1.14l.37-.21V79.57l17.15-9.9v1.14l.38-.21V69.45l17.15-9.9V60.7l.37-.22V59.33l17.15-9.9v1.15l.37-.22V49.22l17.15-9.9v1.14l.38-.21V39.1l17.15-9.9v1.14l.37-.21V29l17.15-9.9v1.15l.38-.22V18.87L166.38,9v1.15l.38-.22V0L149.24,10.12,131.71,20.24,114.19,30.35,96.66,40.47,79.14,50.59,61.62,60.71,44.09,70.82,26.57,80.94,9,91.06,2.7,94.72v.58ZM165,1.59l1.37-.8V8.38l-1.37.8Zm-1.75,1,1.56-.9-.19.11V9.4l-1.37.79Zm-1.76,1,1.38-.79v7.59l-1.38.79Zm-1.75,1,1.38-.8v7.59l-1.38.79Zm-1.75,1,1.39-.8h0v7.59l-1.38.8Zm-1.76,1,1.38-.8v7.59l-1.38.8Zm-1.89,1.09,1.52-.87v7.59l-1.38.79V7.66Zm-5.11,3,4.88-2.82v7.59l-1.38.79V8.67l-.37.22v7.59l-1.38.8V9.69l-.37.21v7.59l-1.38.8Zm-1.76,1,1.38-.8V18.5l-1.38.8Zm-1.75,1,1.57-.9-.19.1v7.59l-1.38.8Zm-1.75,1,1.38-.79v7.59l-1.38.79Zm-1.75,1L143.6,14v7.59l-1.37.79Zm-1.76,1,1.39-.8h0v7.59l-1.38.79Zm-1.75,1,1.38-.8v7.59l-1.38.8Zm-1.89,1.09,1.52-.88v7.59l-1.38.8V17.78Zm-5.12,2.95L136.6,18v7.59l-1.38.8V18.79l-.38.22V26.6l-1.38.79V19.8l-.37.22v7.59l-1.38.79Zm-3.5,2L131.34,21v7.59l-1.38.8V21.83l-.37.21v7.59l-1.38.8Zm-1.75,1,1.37-.8v7.59l-1.37.8Zm-1.76,1,1.38-.79v7.59l-1.38.79Zm-1.75,1,1.39-.8h0v7.59l-1.38.79Zm-1.75,1,1.38-.79v7.59l-1.38.79ZM119.3,28l1.52-.88v7.59l-1.37.8V27.9Zm-5.11,2.95,4.88-2.82V35.7l-1.38.8V28.91l-.37.21v7.59l-1.38.8V29.92l-.37.22v7.58l-1.38.8Zm-1.94,1.12,1.56-.9v7.59l-1.37.79V31.94Zm-1.57.91,1.38-.8v7.59l-1.38.79Zm-1.75,1,1.38-.8v7.59l-1.38.8Zm-1.75,1,1.38-.8v7.59l-1.38.8Zm-1.75,1,1.37-.79v7.58l-1.37.8Zm-1.76,1,1.38-.79v7.58l-1.38.8Zm-1.89,1.1,1.52-.88v7.59l-1.38.79V38Zm-5.12,2.95,4.89-2.82v7.59l-1.38.8V39l-.38.21v7.59l-1.37.8V40l-.38.21v7.59l-1.38.8Zm-1.75,1,1.38-.79v7.58l-1.38.8Zm-1.75,1,1.56-.9-.18.11v7.59l-1.38.79Zm-1.75,1,1.38-.79v7.59l-1.38.79Zm-1.75,1L91,44.3v7.59l-1.37.8Zm-1.76,1,1.39-.8h0V52.9l-1.38.8Zm-1.75,1,1.38-.8v7.59l-1.38.8Zm-1.9,1.09,1.53-.87v7.58l-1.38.8V48.13Zm-5.11,3L84,48.35v7.59l-1.38.79V49.14l-.37.22V57l-1.38.79V50.16l-.37.21V58l-1.38.8Zm-1.75,1,1.38-.8V59l-1.38.8Zm-1.76,1,1.57-.9-.19.1V60l-1.38.8Zm-1.75,1,1.38-.79V61l-1.38.79Zm-1.75,1,1.38-.79V62l-1.38.79Zm-1.75,1,1.39-.8h0V63l-1.38.79Zm-1.76,1,1.38-.8V64l-1.38.8Zm-1.89,1.09,1.52-.88V65l-1.38.8V58.25Zm-5.11,3,4.88-2.82v7.59l-1.38.8V59.26l-.37.22v7.59l-1.38.79V60.27l-.38.22v7.59l-1.37.79Zm-3.51,2,3.13-1.81v7.59l-1.38.8V62.3l-.37.21V70.1l-1.38.8Zm-1.75,1,1.38-.8v7.59l-1.38.8Zm-1.75,1L56,64.54v7.58l-1.37.8Zm-1.76,1,1.39-.8h0v7.59l-1.38.79Zm-1.75,1,1.38-.8v7.59l-1.38.79Zm-1.89,1.09,1.52-.88v7.59l-1.38.8V68.37Zm-5.12,3L49,68.58v7.59L47.6,77V69.38l-.38.21v7.59l-1.38.8V70.39l-.37.22V78.2L44.09,79Zm-1.94,1.12,1.57-.9v7.59L42.34,80V72.41Zm-1.56.91,1.37-.8v7.59L40.59,81Zm-1.76,1,1.38-.8v7.59l-1.38.8Zm-1.75,1,1.38-.8v7.59l-1.38.8Zm-1.75,1,1.38-.8v7.59l-1.38.8Zm-1.75,1L35,76.68v7.59l-1.38.79Zm-1.9,1.1,1.52-.88v7.59l-1.37.79V78.48Zm-5.11,3,4.88-2.82v7.59l-1.38.79V79.5l-.37.21V87.3l-1.38.8V80.51l-.37.21v7.59l-1.38.8Zm-1.75,1,1.37-.79v7.58l-1.37.8Zm-1.76,1,1.57-.9-.19.11v7.59l-1.38.79Zm-1.75,1,1.38-.79v7.59l-1.38.79Zm-1.75,1,1.38-.8v7.59l-1.38.8Zm-1.75,1,1.38-.8h0v7.59l-1.37.8Zm-1.76,1,1.38-.8v7.59l-1.38.8Zm-1.89,1.09,1.52-.87v7.58l-1.38.8V88.6Zm-8.62,5,3.5-2,4.89-2.82v7.59l-1.38.79V89.61l-.38.22v7.59l-1.37.79V90.62l-.38.22v7.59L9,99.23V91.64l-.37.21v7.59l-1.38.8V92.65l-.37.21v7.59l-1.38.8Zm-1.75,1,1.52-.88-.15.09v7.58l-1.37.8Z"/><path class="cls-41" d="M166.76,0V9.89l.37.22V9l17.15,9.91V20l.38.22V19.08L201.81,29v1.15l.37.21V29.2l17.15,9.9v1.15l.38.21V39.32l17.15,9.9v1.14l.37.22V49.43l17.15,9.9v1.15l.37.22V59.55l17.15,9.9V70.6l.38.21V69.67l17.15,9.9v1.15l.37.21V79.79L307,89.69v1.14l.38.22V89.9l17.15,9.9V101l.37.22V100l6,3.45v-.58l-.71-.41V94.89l.71.41v-.58l-6.34-3.66L307,80.94,289.43,70.82,271.9,60.71,254.38,50.59,236.86,40.47,219.33,30.35,201.81,20.24,184.28,10.12ZM328.35,93.88l1.38.79v7.59l-1.38-.8Zm-1.75,6.57V92.86l1.38.8v7.59Zm-1.75-8.6,1.57.91-.19-.11v7.59l-1.38-.8Zm-5.26-3,4.89,2.82v7.59l-1.38-.8V90.84l-.38-.22v7.59l-1.38-.79V89.83l-.37-.22V97.2l-1.38-.79Zm-1.75-1,1.52.87-.14-.08v7.59l-1.38-.8Zm-1.75-1,1.38.8v7.59l-1.38-.8Zm-1.77-1,1.39.8v7.59l-1.38-.8V85.78Zm-1.74-1,1.38.8v7.59l-1.38-.8Zm-1.75-1,1.38.79v7.59l-1.38-.79Zm-3.5-2,3.13,1.8v7.59l-1.38-.79V82.75l-.38-.22v7.59l-1.37-.8Zm-5.26-3L307,81.52v7.59l-1.38-.8V80.72l-.37-.21V88.1l-1.38-.8V79.71l-.37-.21v7.58l-1.38-.79Zm-1.75-1,1.52.88-.15-.09v7.59l-1.37-.79Zm-1.76-1,1.38.79v7.59l-1.38-.79Zm-1.76-1,1.39.8v7.59l-1.38-.8V75.66Zm-1.74-1,1.38.8V83l-1.38-.8Zm-1.75-1,1.38.8V82l-1.38-.8Zm-3.51-2,3.13,1.81V81l-1.38-.79V72.63l-.37-.22V80l-1.38-.79Zm-5.26-3,4.89,2.82V79l-1.38-.79V70.61l-.38-.22V78l-1.37-.8V69.59l-.38-.21V77l-1.38-.8Zm-1.75-1,1.52.88-.14-.08V76l-1.38-.8Zm-1.75-1,1.38.8v7.58L281,74.15Zm-1.76-1,1.39.8v7.59l-1.38-.79V65.55Zm-1.74-1,1.37.79v7.59l-1.37-.8Zm-1.76-1,1.38.8v7.59l-1.38-.8Zm-1.75-1-.19-.11,1.57.91V70.9L274,70.1Zm-1.75-1,1.38.8v7.59l-1.38-.8Zm-5.26-3,4.88,2.82v7.59l-1.38-.79V60.49l-.37-.22v7.59l-1.38-.79V59.48l-.37-.22v7.59l-1.38-.8Zm-1.75-1,1.52.88-.14-.08v7.59l-1.38-.8Zm-1.75-1,1.37.8v7.59l-1.37-.8Zm-1.77-1,1.39.8v7.59L261.76,63V55.43Zm-1.74-1,1.38.79V62.8L260,62Zm-1.75-1,1.38.79v7.59L258.26,61ZM256.51,60V52.39l1.37.8v7.59Zm-1.76-8.6,1.57.91-.19-.11v7.59l-1.38-.8Zm-5.25-3,4.88,2.82v7.59L253,58V50.37l-.37-.21v7.58L251.25,57V49.36l-.38-.22v7.59l-1.37-.79Zm-1.76-1,1.52.87-.14-.08v7.59l-1.38-.8Zm-1.75-1,1.38.8v7.59l-1.38-.8Zm-1.76-1,1.39.8V53.7l-1.38-.8V45.31Zm-1.74-1,1.38.8v7.59l-1.38-.8Zm-1.76-1,1.38.79v7.59l-1.38-.79Zm-3.5-2,3.13,1.8v7.59L239,49.87V42.28l-.37-.22v7.59l-1.38-.8Zm-5.26-3,4.89,2.82v7.59l-1.38-.8V40.25L235.1,40v7.59l-1.38-.8V39.24l-.37-.21v7.59l-1.38-.8Zm-1.75-1,1.52.88L231.6,38V45.6l-1.38-.79Zm-1.75-1,1.38.79v7.59l-1.38-.8Zm-1.76-1,1.38.8v7.59l-1.38-.8V35.2Zm-1.75-1,1.38.8v7.59l-1.38-.8Zm-1.75-1,1.38.8v7.59l-1.38-.8Zm-3.5-2L222.84,33v7.58l-1.38-.79V32.16l-.38-.22v7.59l-1.37-.79Zm-5.26-3,4.88,2.82v7.59l-1.38-.8V30.14l-.37-.22v7.59l-1.38-.8V29.12l-.37-.21V36.5l-1.38-.8Zm-1.75-1,1.52.88-.15-.08v7.59l-1.37-.8Zm-1.76-1,1.38.79v7.59l-1.38-.79Zm-1.76-1,1.39.8v7.59l-1.38-.79V25.08Zm-1.74-1,1.38.79v7.59l-1.38-.79Zm-1.75-1,1.37.8v7.59l-1.37-.8Zm-1.76-1-.18-.11,1.56.91v7.59l-1.38-.8Zm-1.75-1,1.38.8v7.59l-1.38-.8Zm-5.26-3,4.89,2.82V28.4l-1.38-.79V20l-.38-.22v7.59l-1.37-.79V19l-.38-.22v7.59l-1.38-.8Zm-1.75-1,1.52.88-.14-.08v7.59l-1.38-.8Zm-1.75-1,1.38.8v7.59l-1.38-.8Zm-1.76-1,1.38.8v7.59l-1.37-.79V15Zm-1.74-1,1.37.79v7.59l-1.37-.79Zm-1.76-1,1.38.79v7.59l-1.38-.79Zm-1.75,6.57V11.92l1.38.8v7.59Zm-1.75-8.6,1.56.91-.18-.11V19.3l-1.38-.8Zm-5.26-3,4.88,2.82v7.59l-1.38-.8V9.9l-.37-.21v7.59l-1.38-.8V8.89l-.37-.22v7.59l-1.38-.79Zm-1.75-1,1.52.87L179,7.66v7.59l-1.38-.79Zm-1.75-1,1.37.8v7.59l-1.37-.8Zm-1.77-1,1.39.8v7.59l-1.38-.8V4.84Zm-1.74-1,1.38.8v7.58l-1.38-.79Zm-1.75-1,1.38.79V11.2l-1.38-.79Zm-3.51-2,3.13,1.81v7.59l-1.37-.79V1.81l-.38-.22V9.18l-1.38-.8Z"/><path class="cls-40" d="M313.3,113.58l17.15-9.9v1.15l.37-.22V94.72L313.3,104.84v.58l4.88-2.82v7.59l-1.38.79v-7.59l-.37.22v7.59l-1.38.8v-7.59l-.38.21v7.59l-1.37.8Zm14-16.26,3.13-1.8v7.59l-1.38.79V96.31l-.38.22v7.59l-1.37.79Zm-1.76,1,1.38-.79v7.59l-1.38.79Zm-1.75,1,1.38-.8v7.59l-1.38.8Zm-1.75,1,1.39-.8h0v7.59l-1.38.8Zm-1.76,1,1.38-.8v7.59l-1.38.8Zm-1.89,1.09,1.52-.87v7.59l-1.38.79v-7.59Z"/><path class="cls-40" d="M295.77,123.7l17.15-9.9V115l.38-.22v-9.89L295.77,115v.58l4.89-2.83v7.59l-1.38.8v-7.59l-.38.22v7.59l-1.38.79v-7.59l-.37.22v7.59l-1.38.79Zm14-16.26,3.13-1.81v7.59l-1.38.8v-7.59l-.37.21v7.59l-1.38.8Zm-1.75,1,1.38-.79v7.59L308,116Zm-1.75,1,1.37-.79v7.59l-1.37.79Zm-1.76,1,1.39-.8h0v7.59l-1.38.79Zm-1.75,1,1.38-.8v7.59l-1.38.8Zm-1.89,1.09,1.52-.88v7.59l-1.38.8V112.5Z"/><path class="cls-40" d="M278.25,133.82l17.15-9.9v1.14l.37-.21V115l-17.52,10.11v.58l4.88-2.82v7.59l-1.38.8v-7.59l-.37.21v7.59l-1.38.8v-7.59l-.37.22v7.59l-1.38.79Zm14-16.26,3.13-1.81v7.59l-1.38.8v-7.59l-.37.21v7.59l-1.38.8Zm-1.76,1,1.38-.8v7.59l-1.38.8Zm-1.75,1,1.38-.79v7.58l-1.38.8Zm-1.75,1,1.39-.8h0v7.59l-1.38.79Zm-1.75,1,1.38-.8v7.59l-1.38.79Zm-1.9,1.09,1.52-.88v7.59l-1.37.8v-7.59Z"/><path class="cls-40" d="M260.72,143.94l17.15-9.9v1.14l.38-.21v-9.9l-17.53,10.12v.58l4.89-2.82v7.59l-1.38.79v-7.58l-.38.21v7.59l-1.37.8v-7.59l-.38.21v7.59l-1.38.8Zm14-16.26,3.13-1.81v7.59l-1.37.79v-7.59l-.38.22v7.59l-1.38.79Zm-1.75,1,1.38-.8v7.59l-1.38.8Zm-1.75,1,1.38-.8v7.59l-1.38.8Zm-1.75,1,1.38-.8h0v7.59l-1.37.8Zm-1.76,1,1.38-.79v7.59l-1.38.79Zm-1.89,1.1,1.52-.88v7.59l-1.38.79v-7.59Z"/><path class="cls-40" d="M243.2,154.05l17.15-9.9v1.15l.37-.22v-9.89L243.2,145.31v.58l4.88-2.82v7.59l-1.37.79v-7.59l-.38.22v7.59l-1.38.79v-7.58l-.37.21v7.59l-1.38.8Zm14-16.26,3.13-1.8v7.58l-1.38.8v-7.59l-.37.22v7.59l-1.38.79Zm-1.75,1,1.38-.79v7.59l-1.38.79Zm-1.76,1,1.38-.8v7.59l-1.38.8Zm-1.75,1,1.39-.8h0v7.59l-1.38.8Zm-1.75,1,1.38-.8v7.59l-1.38.8Zm-1.9,1.09,1.52-.87v7.59l-1.37.79v-7.59Z"/><path class="cls-40" d="M225.68,164.17l17.15-9.9v1.15l.37-.22v-9.89l-17.52,10.12V156l4.88-2.81v7.58l-1.38.8V154l-.37.22v7.59l-1.38.79V155l-.38.22v7.59l-1.37.79Zm14-16.26,3.13-1.81v7.59l-1.38.8V146.9l-.38.21v7.59l-1.37.8Zm-1.76,1,1.38-.79v7.59l-1.38.79Zm-1.75,1,1.38-.79v7.59l-1.38.79Zm-1.75,1,1.39-.81h0v7.59l-1.38.8Zm-1.75,1,1.37-.8v7.59l-1.37.8Zm-1.9,1.09,1.52-.88v7.59l-1.38.8V153Z"/><path class="cls-40" d="M208.15,174.29l17.15-9.9v1.15l.38-.22v-9.89l-17.53,10.11v.58L213,163.3v7.59l-1.38.8V164.1l-.38.21v7.59l-1.38.8v-7.59l-.37.22v7.58l-1.38.8Zm14-16.26,3.13-1.81v7.59l-1.38.8V157l-.37.21v7.59l-1.38.8Zm-1.75,1,1.38-.8v7.59l-1.38.8Zm-1.75,1,1.37-.79v7.59l-1.37.79Zm-1.76,1,1.39-.8h0v7.59l-1.38.79Zm-1.75,1,1.38-.8v7.59l-1.38.79Zm-1.89,1.09,1.52-.88v7.59l-1.38.8v-7.59Z"/><path class="cls-40" d="M190.63,184.41l17.15-9.9v1.14l.37-.21v-9.9l-17.52,10.12v.58l4.88-2.82V181l-1.38.79v-7.58l-.37.21V182l-1.38.8v-7.59l-.37.21V183l-1.38.8Zm14-16.26,3.13-1.81v7.59l-1.38.79v-7.59l-.37.22v7.59l-1.38.79Zm-1.76,1,1.38-.8V176l-1.38.8Zm-1.75,1,1.38-.8V177l-1.38.8Zm-1.75,1,1.39-.8h0V178l-1.38.8Zm-1.75,1,1.38-.79V179l-1.38.79Zm-1.9,1.1,1.52-.88V180l-1.37.79V173.2Z"/><path class="cls-40" d="M173.1,194.53l17.15-9.91v1.15l.38-.22v-9.89L173.1,185.78v.58l4.89-2.82v7.59l-1.38.79v-7.59l-.38.22v7.59l-1.37.8v-7.59l-.38.21v7.59l-1.38.8Zm14-16.27,3.13-1.8V184l-1.38.8v-7.59l-.37.22v7.59l-1.38.79Zm-1.75,1,1.38-.79v7.59l-1.38.79Zm-1.75,1,1.38-.8v7.59l-1.38.79Zm-1.75,1,1.38-.8h0v7.59l-1.37.8Zm-1.76,1,1.38-.8v7.59l-1.38.8Zm-1.89,1.09,1.52-.87v7.59l-1.38.79v-7.59Z"/><path class="cls-40" d="M166.76,198.19l6.34-3.66v-8.17l-.37.21v7.59l-1.38.8v-7.59l-.37.21v7.59l-1.38.8v-7.59l3.5-2v-.58l-6.34,3.66V190l.71-.41v7.59l-.71.41Zm1.09-8.8,1.52-.88-.15.09v7.59l-1.37.79Z"/><path class="cls-41" d="M117.69,171v-1.11l13.65,7.88v1.14l.37.22V178l17.15,9.9V189l.37.22v-1.15l17.15,9.9v1.15l.38.21v-9.89l-.38-.22-17.52-10.11L131.34,169l-14-8.09v9.85Zm43.81,16,4.88,2.82v7.59L165,196.6V189l-.38-.22v7.59l-1.38-.79V188l-.37-.22v7.59l-1.38-.8Zm-1.75-1,1.52.88-.14-.08v7.59l-1.38-.8ZM158,185l1.37.8v7.59l-1.37-.8Zm-1.77-1,1.39.8v7.59l-1.38-.79V184Zm-1.74-1,1.38.79v7.59l-1.38-.79Zm-1.75-1,1.38.79v7.59l-1.38-.79Zm-3.51-2,3.14,1.81v7.59l-1.38-.8v-7.59l-.38-.21v7.59l-1.38-.8Zm-5.25-3,4.88,2.82v7.59l-1.38-.8v-7.59l-.37-.22v7.59l-1.38-.79v-7.59l-.37-.22v7.59l-1.38-.79Zm-1.75-1,1.52.87-.15-.08v7.59l-1.37-.8Zm-1.76-1,1.38.8v7.59l-1.38-.8Zm-1.76-1,1.39.8v7.59l-1.38-.8v-7.59Zm-1.74-1,1.38.8v7.59l-1.38-.8Zm-1.75-1,1.37.79v7.59l-1.37-.79Zm-3.51-2,3.13,1.8v7.59l-1.38-.79V170.8l-.37-.22v7.59l-1.38-.8Zm-5.26-3,4.89,2.82v7.59l-1.38-.8v-7.59l-.38-.21v7.59l-1.37-.8v-7.59l-.38-.22v7.59l-1.38-.79Zm-1.75-1,1.52.88-.14-.09v7.59l-1.38-.79Zm-1.75-1,1.38.8v7.59l-1.38-.8Zm-1.76-1,1.39.8v7.59l-1.38-.8v-7.59Zm-1.74-1,1.37.8v7.59l-1.37-.8Zm-1.76-1,1.38.8v7.59l-1.38-.8Z"/><path class="cls-41" d="M3.07,104.79v-1.11l13.65,7.88v1.15l.37.21v-1.14l17.15,9.9v1.15l.38.21v-1.15l17.15,9.91v1.14l.37.22v-9.89l-.37-.22L34.24,112.93,16.72,102.81l-14-8.09v9.86Zm43.81,16,4.89,2.82v7.59l-1.38-.8v-7.59l-.38-.21v7.59l-1.37-.8v-7.59l-.38-.21v7.58l-1.38-.79Zm-1.75-1,1.52.87-.14-.08v7.59l-1.38-.79Zm-1.75-1,1.38.79v7.59l-1.38-.8Zm-1.76-1,1.38.8v7.59l-1.37-.8v-7.59Zm-1.75-1,1.38.8v7.59l-1.38-.8Zm-1.75-1,1.38.8v7.59l-1.38-.8Zm-3.5-2,3.13,1.81v7.58l-1.38-.79v-7.59l-.38-.22v7.59l-1.37-.79Zm-5.26-3,4.88,2.82v7.59l-1.38-.8v-7.58l-.37-.22v7.59l-1.38-.8V111.7l-.37-.21v7.59l-1.38-.8Zm-1.75-1,1.52.88-.14-.08v7.59l-1.38-.8Zm-1.76-1,1.38.79v7.59l-1.38-.79Zm-1.76-1,1.39.8V116l-1.38-.79v-7.59Zm-1.74-1,1.38.79V115l-1.38-.8Zm-1.75-1,1.38.8V114l-1.38-.8Zm-3.51-2,3.13,1.81V113l-1.38-.8v-7.59l-.37-.21V112l-1.38-.8Zm-5.25-3,4.88,2.82V111l-1.38-.79V102.6l-.37-.22V110l-1.38-.79v-7.59l-.38-.22V109l-1.37-.8Zm-1.76-1,1.52.88-.14-.08V108l-1.38-.8Zm-1.75-1,1.38.8v7.59l-1.38-.8Zm-1.76-1,1.39.8v7.59l-1.38-.79V97.54Zm-1.74-1,1.37.79v7.59l-1.37-.79Zm-1.76-1,1.38.79v7.59l-1.38-.79Z"/><polygon class="cls-4" points="50.99 118.75 52.14 119.42 52.14 133.16 50.99 132.49 50.99 118.75"/><polygon class="cls-41" points="48 106.78 55.13 110.89 55.13 121.14 48 117.03 48 106.78"/><path class="cls-2" d="M49.55,109.19l2.21,1.27a3.1,3.1,0,0,1,1.5,2.58c0,.88-.48,1.39-1.5.8l-1-.6v1.46L49.55,114Zm1.16,3,.9.51c.25.14.46.06.46-.34a1,1,0,0,0-.46-.87l-.9-.52Z"/><path class="cls-42" d="M50.37,117.58l-.49-.28v-2l.49.28Z"/><path class="cls-42" d="M52.28,118.69l-.67-1.54,0,1.16-.46-.27v-2l.46.26.67,1.54,0-1.15.46.26v2Z"/><polygon class="cls-4" points="117.32 157.01 118.47 157.67 118.47 171.42 117.32 170.75 117.32 157.01"/><polygon class="cls-41" points="114.33 145.03 121.46 149.15 121.46 159.4 114.33 155.28 114.33 145.03"/><path class="cls-2" d="M116.29,147.68,118.5,149a3.12,3.12,0,0,1,1.5,2.58c0,.88-.48,1.39-1.5.8l-1-.6v1.46l-1.16-.67Zm1.16,3,.89.51c.25.14.46.06.46-.34a1,1,0,0,0-.46-.88l-.89-.51Z"/><path class="cls-9" d="M116,155.45a1.83,1.83,0,0,1-.84-1.5c0-.61.37-.82.84-.55a1.84,1.84,0,0,1,.83,1.51C116.78,155.51,116.42,155.73,116,155.45Zm0-1.59c-.28-.16-.35.13-.35.38a.89.89,0,0,0,.35.75c.25.15.35-.07.35-.36A.89.89,0,0,0,116,153.86Z"/><path class="cls-9" d="M118.85,155.12v1.19c0,.71-.48.54-.79.36a1.44,1.44,0,0,1-.79-1.27v-1.19l.47.27v1.21a.63.63,0,0,0,.32.52c.09.06.32.13.32-.15v-1.21Z"/><path class="cls-9" d="M120.24,157.88l-.47-.27V156.1l-.53-.3v-.45l1.53.88v.45l-.53-.3Z"/></g></g></svg>