<svg xmlns="http://www.w3.org/2000/svg" viewBox="0 0 130.08 129.01"><defs><style>.cls-1{fill:#c6bfa3;}.cls-2{fill:#c1e1f3;}.cls-3{fill:#c9caca;}.cls-4{fill:#73b1a7;}.cls-5{fill:#d18784;}.cls-6{fill:#b28247;}.cls-7{fill:#f8b62d;}.cls-8{fill:#e5dcbb;}.cls-9{fill:#eaf6fd;}.cls-10{fill:#d3edfb;}.cls-11{fill:#7f5b2e;}.cls-12{fill:#966d3a;}.cls-13{fill:#f8c5ac;}.cls-14{fill:#d6ab96;}.cls-15{fill:#fbd8c5;}.cls-16{fill:#bedfc2;}.cls-17{fill:#cda490;}.cls-18{fill:#fff;}</style></defs><title>アセット 35</title><g id="レイヤー_2" data-name="レイヤー 2"><g id="レイヤー_1-2" data-name="レイヤー 1"><polygon class="cls-1" points="53.13 31.67 78.42 72.24 78.42 102.42 24.34 72.13 24.34 44.95 53.13 31.67"/><polygon class="cls-2" points="60.88 76.11 66.24 79.2 66.24 58.69 60.88 55.59 60.88 76.11"/><polygon class="cls-2" points="49.17 69.34 54.53 72.44 54.53 51.93 49.17 48.83 49.17 69.34"/><polygon class="cls-3" points="52.95 62.59 53.71 63.03 53.71 60.12 52.95 59.68 52.95 62.59"/><polygon class="cls-2" points="37.46 62.58 42.82 65.68 42.82 45.17 37.46 42.07 37.46 62.58"/><path class="cls-4" d="M52.91,41.68a.84.84,0,0,1,.39-.78,5.5,5.5,0,0,1,0-1.58c.11-.09.67,1,.93,1.52a2.36,2.36,0,0,1,.65.28,3.7,3.7,0,0,1,.65.47c.27-.22.82-.66.93-.45a5.77,5.77,0,0,1,0,1.56,2.57,2.57,0,0,1,.38,1.23c0,.8-.63,1.1-1.48.79a31.92,31.92,0,0,1,1,5.37,1.54,1.54,0,0,0,.89.54c.33,0,.31-.49.27-.77,0-.09,0-.21-.06-.33-.16-1-.41-2.59.19-2.73s1.55,1.12,1.58,1.17.14.38,0,.45-.25,0-.36-.16c0,0-.61-.88-1-.79s-.07,1.64,0,2.23c0,.13,0,.25.05.35.12.79-.08,1.25-.54,1.26a1.25,1.25,0,0,1-.61-.2,2.73,2.73,0,0,1-.52-.38c-.14.37-.72.37-1.42,0a2.75,2.75,0,0,1-1.44-1.83,18,18,0,0,1,1-4.69A3.65,3.65,0,0,1,52.91,41.68Z"/><path class="cls-5" d="M45.68,39.77a9.75,9.75,0,0,0,1.45,3.54A6.75,6.75,0,0,1,48.29,40a7.22,7.22,0,0,1-1-1.9c-.27,1.2-1,1.1-1.46.71-.58-.55.79-2.82,1-3.15.33-.56.44-.13.48.13.37-.36,1-.37,1.81.08a4.69,4.69,0,0,1,1.81,2c0-.21.16-.51.48.43.2.55,1.56,4.4,1,4.28s-1.2-.89-1.47-2.4a1.52,1.52,0,0,1-1,.8,21.87,21.87,0,0,1,1.34,6.48c0,.54-.77.53-2.2-.3s-2.2-1.7-2.2-2.24c0-.12,0-.53.1-1.06C44.53,41.69,45.68,39.77,45.68,39.77Z"/><polygon class="cls-1" points="49.09 84.52 49.09 113.06 28.14 100.96 28.14 72.42 49.09 84.52"/><polygon class="cls-6" points="35.94 80.7 45.23 86.07 45.23 110.42 35.94 105.05 35.94 80.7"/><polygon class="cls-2" points="32.01 78.44 35.94 80.7 35.94 105.05 32.01 102.78 32.01 78.44"/><polygon class="cls-2" points="38.05 92.17 40.16 93.39 40.16 85 38.05 83.78 38.05 92.17"/><polygon class="cls-2" points="38.05 103.09 40.16 104.31 40.16 95.91 38.05 94.69 38.05 103.09"/><polygon class="cls-7" points="35.93 97.39 37.28 98.17 37.28 90.89 35.93 90.11 35.93 97.39"/><polygon class="cls-8" points="77.5 88.34 77.5 75.31 122.76 49.18 122.76 92.69 59.85 129.01 59.85 98.53 77.5 88.34"/><polygon class="cls-9" points="74.97 94.68 79.02 92.34 79.02 113.48 74.97 115.82 74.97 94.68"/><polygon class="cls-9" points="69.12 98.06 73.17 95.72 73.17 116.86 69.12 119.2 69.12 98.06"/><polygon class="cls-10" points="97.38 91.55 101.28 89.29 101.28 84.78 97.38 87.04 97.38 91.55"/><polygon class="cls-9" points="97.38 96.06 101.28 93.8 101.28 89.29 97.38 91.55 97.38 96.06"/><polygon class="cls-10" points="108.56 85.09 112.46 82.84 112.46 78.33 108.56 80.58 108.56 85.09"/><polygon class="cls-9" points="108.56 89.6 112.46 87.35 112.46 82.84 108.56 85.09 108.56 89.6"/><polygon class="cls-1" points="59.85 98.53 59.85 129.01 42.33 118.9 42.33 88.42 59.85 98.53"/><polygon class="cls-2" points="52.43 99.12 56.48 101.46 56.48 122.6 52.43 120.26 52.43 99.12"/><polygon class="cls-2" points="46.57 95.74 50.62 98.08 50.62 119.22 46.57 116.88 46.57 95.74"/><polygon class="cls-1" points="4.88 66.8 21.39 76.32 21.39 106.81 4.88 97.28 4.88 66.8"/><polygon class="cls-2" points="12.31 75.96 8.26 73.62 8.26 94.76 12.31 97.1 12.31 75.96"/><polygon class="cls-2" points="18.16 79.34 14.11 77 14.11 98.14 18.16 100.48 18.16 79.34"/><polygon class="cls-8" points="21.39 104.86 28.14 100.96 28.14 72.42 21.39 76.32 21.39 104.86"/><polygon class="cls-11" points="75.3 74.04 50.01 33.48 24.73 44.84 20.62 42.47 50.01 29.26 79.4 76.41 75.3 74.04"/><polygon class="cls-6" points="100.69 0 50.01 29.26 79.4 76.41 130.08 47.15 100.69 0"/><polygon class="cls-12" points="71.29 13.22 20.62 42.47 50.01 29.26 100.69 0 71.29 13.22"/><polygon class="cls-13" points="33.58 128.01 45.84 120.92 45.84 118.98 33.58 126.07 33.58 128.01"/><polygon class="cls-14" points="5.61 111.86 33.58 128.01 33.58 126.07 5.61 109.92 5.61 111.86"/><polygon class="cls-15" points="17.88 102.84 21.39 104.86 28.14 100.96 42.33 109.16 42.33 116.96 45.84 118.98 33.58 126.07 5.61 109.92 17.88 102.84"/><polygon class="cls-16" points="79.32 87.22 65.33 95.38 10.35 63.64 24.34 55.48 79.32 87.22"/><polygon class="cls-13" points="9.6 64.09 24.34 55.48 24.34 44.95 9.6 53.56 9.6 64.09"/><polygon class="cls-14" points="7.82 82.66 32.38 96.83 32.38 83.8 7.82 69.62 7.82 82.66"/><polygon class="cls-17" points="0.03 63.99 64.7 101.33 64.7 88.3 0.03 50.96 0.03 63.99"/><polygon class="cls-13" points="64.7 101.33 82.35 91.14 82.35 78.11 64.7 88.3 64.7 101.33"/><path class="cls-18" d="M16.78,80.91a.69.69,0,0,1-.44.74,1.3,1.3,0,0,1-1.1-.22l-2-1.12v1.2c0,.26-.16.29-.49.1a.78.78,0,0,1-.48-.67V77.63c0-.2.08-.32.23-.34a.86.86,0,0,1,.61.17l2.14,1.23a3.13,3.13,0,0,1,1.08,1A2.25,2.25,0,0,1,16.78,80.91Zm-1-.55a1,1,0,0,0-.17-.54,1.39,1.39,0,0,0-.45-.42l-1.66-1c-.16-.09-.24-.06-.24.11v1l1.9,1.1a.53.53,0,0,0,.45.09C15.76,80.66,15.81,80.54,15.81,80.36Z"/><path class="cls-18" d="M22.57,86.78c0,.25-.16.28-.48.1L18.85,85a1.8,1.8,0,0,1-.58-.5,1.07,1.07,0,0,1-.2-.58v-3c0-.41.25-.48.75-.19l3.23,1.87a.76.76,0,0,1,.44.66.16.16,0,0,1-.14.17.41.41,0,0,1-.3-.07l-2.6-1.5c-.16-.09-.27-.13-.32-.11S19,81.83,19,82v.57l2.7,1.56a.92.92,0,0,1,.3.29.68.68,0,0,1,.11.34c0,.25-.15.29-.44.12L19.05,83.3V84c0,.21.15.4.44.57l2.64,1.52a1,1,0,0,1,.32.3A.65.65,0,0,1,22.57,86.78Z"/><path class="cls-18" d="M28.24,86.55a.2.2,0,0,1-.12.2.36.36,0,0,1-.3-.06l-1.46-.84V89c0,.32-.15.39-.46.21a.85.85,0,0,1-.5-.77V85.29l-1.34-.77a1,1,0,0,1-.33-.31.64.64,0,0,1-.12-.35.19.19,0,0,1,.12-.2c.07,0,.18,0,.32.08l3.77,2.18a.89.89,0,0,1,.31.3A.59.59,0,0,1,28.24,86.55Z"/><polygon class="cls-13" points="32.38 96.83 44.65 89.75 44.65 76.72 32.38 83.8 32.38 96.83"/><polygon class="cls-15" points="0 50.96 17.65 40.77 24.7 44.84 9.6 53.56 60.18 82.77 75.28 74.04 82.34 78.12 64.69 88.31 44.63 76.73 32.38 83.8 7.82 69.62 20.07 62.55 0 50.96"/></g></g></svg>