<svg xmlns="http://www.w3.org/2000/svg" viewBox="0 0 63.86 79.12"><defs><style>.cls-1{fill:#ea85ab;}.cls-2{fill:#fff;}.cls-3{fill:#231815;}</style></defs><title>アセット 127</title><g id="レイヤー_2" data-name="レイヤー 2"><g id="レイヤー_1-2" data-name="レイヤー 1"><path class="cls-1" d="M32.9,75.33c-6.22-4-12.49-8.08-17.83-13.35S5.31,50.07,3.72,42.49C1.4,31.46,5.79,16.6,14.41,10c4.46-3.4,9.8-5.28,15.17-6.52,7-1.6,14.89.6,20.55,5.23a22.46,22.46,0,0,1,7.7,18.64A54.07,54.07,0,0,1,52.48,46.8c-5,10.1-13,19.85-19.22,29.18"/><path class="cls-2" d="M25.81,42.47a7.9,7.9,0,0,1-2.47-4c-1-4.27,2.31-7.81,2.87-8.42a9.32,9.32,0,0,1,3-2.23c3.29-1.42,8.52.14,10.43,4.32,1.46,3.19,1.63,7.14-1.12,9.73-.94,1.53-4.37,3.07-6.2,3.07C29,45,28.1,44.37,25.81,42.47Z"/><path class="cls-3" d="M31.5,73.84c-12.92-7.93-27.75-20-28.45-36.4a36.06,36.06,0,0,1,5.4-20.3C13,10,20.26,6.23,28.28,4.11,36.49,2,45,2.87,52.11,7.8c8.07,5.61,10,14.8,8.32,24-3.29,17.66-16.48,31-26.6,45.08l2.06-.54L31.5,73.84A1.5,1.5,0,0,0,30,76.43l4.38,2.49a1.54,1.54,0,0,0,2.06-.54C46,65,58.36,52.39,62.56,36,66.08,22.35,62.76,8.82,49,2.64,37.1-2.69,21.46.38,11.63,8.8,2.66,16.48-1.54,30.25.51,41.74,3.27,57.27,17.27,68.62,30,76.43,31.64,77.44,33.15,74.84,31.5,73.84Z"/><path class="cls-3" d="M25,41C17,32.81,28.13,18.54,38,25.23c5,3.44,5.91,11.5,1.43,15.69s-10,3.66-14.35.1c-1.48-1.21-3.61.9-2.12,2.12,5.39,4.42,12.71,5.31,18.22.24a13.43,13.43,0,0,0-.45-19.82C28.3,13,11.83,31.87,22.91,43.14,24.27,44.52,26.39,42.4,25,41Z"/></g></g></svg>