<svg xmlns="http://www.w3.org/2000/svg" viewBox="0 0 166.24 112.46"><defs><style>.cls-1{fill:#595757;}.cls-2{fill:#9fa0a0;}.cls-3{fill:#3e3a39;}.cls-4{fill:#c9caca;}.cls-5{fill:#efefef;}.cls-6{fill:#707f87;}.cls-7{fill:#b5b5b6;}.cls-8{fill:#e60012;}.cls-9{fill:#a6bbc7;}.cls-10{fill:#fff;}.cls-11{fill:#d3d3d4;}.cls-12{fill:#898989;}.cls-13{fill:#9fd9f6;}.cls-14{fill:#727171;}.cls-15{fill:#dcdddd;}.cls-16{fill:#4c4948;}.cls-17{fill:#717e74;}.cls-18{fill:#849387;}.cls-19{fill:#a8b9ab;}.cls-20{fill:#e6e6e6;}.cls-21{fill:#d2aa92;}.cls-22{fill:#b6937f;}.cls-23{fill:#9c7e6d;}.cls-24{fill:#bfc0c0;}</style></defs><title>アセット 36</title><g id="レイヤー_2" data-name="レイヤー 2"><g id="レイヤー_1-2" data-name="レイヤー 1"><path class="cls-1" d="M31,112.15a1.92,1.92,0,0,1-1.77-.23,5.8,5.8,0,0,1-2.62-4.54,1.87,1.87,0,0,1,.72-1.67l1.59-1a1.86,1.86,0,0,1,1.88.17,5.82,5.82,0,0,1,2.62,4.54,1.84,1.84,0,0,1-.8,1.72Z"/><path class="cls-2" d="M31,109.88c0,1.08-.76,1.52-1.7,1a3.78,3.78,0,0,1-1.7-3c0-1.08.76-1.52,1.7-1A3.75,3.75,0,0,1,31,109.88Z"/><path class="cls-3" d="M30.54,109.64c0,.82-.58,1.15-1.29.74A2.85,2.85,0,0,1,28,108.15c0-.82.58-1.16,1.29-.75A2.85,2.85,0,0,1,30.54,109.64Z"/><path class="cls-4" d="M29.76,109.53l.86.62a1.44,1.44,0,0,0,.06-.43,2.2,2.2,0,0,0-.06-.5l-.86-.37.52-.5a3.12,3.12,0,0,0-.69-.87l-.34.72-.34-1.11a.81.81,0,0,0-.69.07l.52,1.09-.86-.61a1.35,1.35,0,0,0-.06.43,2.12,2.12,0,0,0,.06.49l.86.38-.52.5a3.08,3.08,0,0,0,.69.86l.34-.72.34,1.11a.81.81,0,0,0,.69-.06Z"/><path class="cls-5" d="M29.53,109.05c0,.18-.13.25-.28.16a.62.62,0,0,1-.28-.48c0-.18.13-.25.28-.16A.64.64,0,0,1,29.53,109.05Z"/><path class="cls-1" d="M9.23,99.54a1.87,1.87,0,0,1-1.77-.23,5.79,5.79,0,0,1-2.62-4.54,1.88,1.88,0,0,1,.72-1.66l1.59-1A1.82,1.82,0,0,1,9,92.29a5.78,5.78,0,0,1,2.62,4.54,1.81,1.81,0,0,1-.8,1.71Z"/><path class="cls-2" d="M9.16,97.27c0,1.09-.76,1.52-1.7,1a3.75,3.75,0,0,1-1.7-2.94c0-1.09.76-1.53,1.7-1A3.78,3.78,0,0,1,9.16,97.27Z"/><path class="cls-3" d="M8.75,97c0,.82-.58,1.16-1.29.75a2.85,2.85,0,0,1-1.29-2.24c0-.82.58-1.15,1.29-.74A2.85,2.85,0,0,1,8.75,97Z"/><path class="cls-4" d="M8,96.93l.86.61a1.75,1.75,0,0,0,.05-.43,2.81,2.81,0,0,0-.05-.49L8,96.24l.52-.5a3.3,3.3,0,0,0-.7-.86l-.34.72-.34-1.11a.82.82,0,0,0-.69.06L7,95.64,6.09,95a1.44,1.44,0,0,0-.06.43,2.2,2.2,0,0,0,.06.5l.86.37-.52.5a3.73,3.73,0,0,0,.69.87L7.46,97l.34,1.12A.83.83,0,0,0,8.5,98Z"/><path class="cls-5" d="M7.74,96.45c0,.18-.12.25-.28.16a.64.64,0,0,1-.28-.48c0-.18.13-.25.28-.16A.58.58,0,0,1,7.74,96.45Z"/><path class="cls-5" d="M34.88,109.31a6.57,6.57,0,0,1-2.43-1.08l.12-2.22L1.15,87.87c-.2-.53-.43-1.08-.6-1.46s.57-.83.57-.83l10.6-6.08a1.18,1.18,0,0,1,1-.12c.62.15,1.49.48,2.14.69l.3.1c.81.23,1.68.25,4-.25l.13,0c2.46-.35,9.09,3.27,11.59,5.06l.29.24,0,0C33.57,87.13,37,92,37.51,92.68l.06.09s4.16,3,6.7,5.08a12.42,12.42,0,0,1,1,1,9.31,9.31,0,0,1,2.33,4.74,58.22,58.22,0,0,1-9.88,5.66A2.84,2.84,0,0,1,34.88,109.31Z"/><path class="cls-3" d="M47.56,103.55a11.57,11.57,0,0,0-1.3-3.72c-2.31,2.64-6.93,1.92-6.93,1.92-.6,5.54-6.76,4.26-6.76,4.26L1.15,87.87c.33.85.6,1.65.4,1.59a13.68,13.68,0,0,1-1.4-.68c-1.1,3.6,4.07,6.09,4.07,6.09l.69.4a.76.76,0,0,1,0-.15c0-1.82,1.28-2.56,2.85-1.65a6.29,6.29,0,0,1,2.85,4.94v.14l16.07,9.28s0-.1,0-.14c0-1.82,1.28-2.56,2.86-1.65A6.31,6.31,0,0,1,32.37,111a.66.66,0,0,1,0,.14l1,.58.89.41a2.93,2.93,0,0,0,2.27.2c7.18-2.93,10.5-6,10.5-6C47.9,105.42,47.56,103.55,47.56,103.55Z"/><path class="cls-6" d="M8.23,86.14l9.58-5.52h-.12a13.62,13.62,0,0,0-3.24.28L4.6,86.58a13.25,13.25,0,0,1,2.94-.29A2.65,2.65,0,0,0,8.23,86.14Z"/><path class="cls-7" d="M18.62,88.8l-1.7-1a.8.8,0,0,1,.33-.74h0l1.38-.77a.66.66,0,0,1,.66,0,2.3,2.3,0,0,1,.94,1.45.42.42,0,0,1-.17.48l-.89.5A.55.55,0,0,1,18.62,88.8Z"/><path class="cls-7" d="M25.68,84.68l-1.7-1a.78.78,0,0,1,.33-.74h0l1.38-.78a.64.64,0,0,1,.66.06,2.28,2.28,0,0,1,.94,1.44.44.44,0,0,1-.17.49l-.88.49A.59.59,0,0,1,25.68,84.68Z"/><path class="cls-8" d="M25.24,81.34l-8.93,5.2h0a.69.69,0,0,0-.07,1l1.34.77a1.05,1.05,0,0,0,1.08,0l8.82-5.15a.48.48,0,0,0,.19-.54,2.23,2.23,0,0,0-.83-1.22A1.36,1.36,0,0,0,25.24,81.34Z"/><path class="cls-8" d="M.19,88.67s.07-.6.17-1.26c.06-.34.12-.7.19-1,.17.38.4.93.6,1.46.33.85.6,1.65.4,1.59a13.68,13.68,0,0,1-1.4-.68A.49.49,0,0,1,.19,88.67Z"/><path class="cls-9" d="M17.11,90.64a20.57,20.57,0,0,1,6.59,7.77l-7.52-4.33L16,90C16.35,90.2,16.73,90.42,17.11,90.64Z"/><path class="cls-10" d="M11.55,94.54l1.24.72a1.74,1.74,0,0,1,.89,1.43c0,.48-.3.73-.89.38l-.7-.4v.93l-.54-.31Zm.54,1.63.64.37c.2.12.39.1.39-.19a.76.76,0,0,0-.39-.63l-.64-.37Z"/><path class="cls-10" d="M15.12,99.42a2.53,2.53,0,0,1-1.2-2.14c0-1,.59-1.11,1.2-.76a2.57,2.57,0,0,1,1.2,2.15C16.32,99.65,15.73,99.78,15.12,99.42Zm-.64-1.81a1.42,1.42,0,0,0,.64,1.29c.21.12.64.25.64-.56a1.42,1.42,0,0,0-.64-1.29C14.9,96.92,14.48,96.81,14.48,97.61Z"/><path class="cls-10" d="M16.63,100.22V97.47l.54.32V100l1.22.7v.52Z"/><path class="cls-10" d="M19.34,101.78l-.56-.32V98.71l.56.33Z"/><path class="cls-10" d="M21.94,102.28c-.13.79-.59.74-1,.49a2.48,2.48,0,0,1-1.17-2.13c0-.87.46-1.18,1.17-.77a2.06,2.06,0,0,1,.82.9,2.15,2.15,0,0,1,.2.71l-.54-.31a1,1,0,0,0-.49-.81c-.6-.34-.6.45-.6.61a1.49,1.49,0,0,0,.61,1.3c.39.23.46-.08.49-.3Z"/><path class="cls-10" d="M24.24,104.12v.5l-1.95-1.13v-2.75l1.91,1.1v.49l-1.37-.78v.61l1.21.7v.47l-1.21-.7v.68Z"/><path class="cls-9" d="M27,98.85s-.53.31-1.28-.81a74.61,74.61,0,0,0-5-6.16.48.48,0,0,1,.15-.75l9.5-5.48a.66.66,0,0,1,.79.14A51.62,51.62,0,0,1,37,92.92l.06.09A46.7,46.7,0,0,1,27,98.85Z"/><path class="cls-3" d="M23.62,98.12,22.86,97a.81.81,0,0,0-.95-.11l-1.44.51a.61.61,0,0,0-.33.78,2.79,2.79,0,0,0,.54.65c.27.19,1,0,1.49-.07a1.61,1.61,0,0,1,.78,0S23.75,99.07,23.62,98.12Z"/><path class="cls-3" d="M16,90l.23,4.09-1-.59V89.58Z"/><path class="cls-6" d="M11.46,87.9a32.5,32.5,0,0,1,3.71,1.68v3.91l-6.88-4S9.9,87.62,11.46,87.9Z"/><path class="cls-11" d="M35,108.58a5.74,5.74,0,0,0,3.29-.7l-1.51-1.12c-.46-.46-5.74-1.91-4.36.13A6.14,6.14,0,0,0,35,108.58Z"/><path class="cls-11" d="M47.11,101.84A2.92,2.92,0,0,0,46.5,100c-1.09-1.64-1,.51-1.09,1l.1,2.43S46.87,102.66,47.11,101.84Z"/><path class="cls-12" d="M37.52,105.93l1.62,1.62a40,40,0,0,0,5.48-3.38l-.1-2.42A37.9,37.9,0,0,1,37.52,105.93Z"/><path class="cls-8" d="M45.22,103.53a1.17,1.17,0,0,1-.55.94c-.3.18-.55,0-.55-.31a1.21,1.21,0,0,1,.55-1C45,103,45.22,103.17,45.22,103.53Z"/><path class="cls-8" d="M39.83,107a1.21,1.21,0,0,1-.55,1c-.31.18-.55,0-.55-.32a1.2,1.2,0,0,1,.55-1C39.58,106.5,39.83,106.64,39.83,107Z"/><polygon class="cls-10" points="40.6 109.79 43.81 107.94 43.81 105.75 40.6 107.6 40.6 109.79"/><path class="cls-5" d="M35.48,111.58c.7.29,1.69-.34,1.69-.34v-1.19S34.17,111,35.48,111.58Z"/><path class="cls-5" d="M46.9,104.43v1.22a2.49,2.49,0,0,0,.77-1.69C47.71,102.94,46.9,104.43,46.9,104.43Z"/><polygon class="cls-13" points="62.45 64.21 58.14 61.72 58.14 69.99 62.45 72.48 62.45 64.21"/><polygon class="cls-14" points="95.38 70.6 158.21 34.32 158.21 68.58 95.38 104.86 95.38 70.6"/><polygon class="cls-15" points="101.2 79.86 95.38 83.22 95.38 96.72 101.2 93.36 101.2 79.86"/><polygon class="cls-4" points="121.67 68.04 117.36 70.53 117.36 78.8 121.67 76.31 121.67 68.04"/><polygon class="cls-15" points="121.67 76.31 117.36 78.8 117.36 87.08 121.67 84.59 121.67 76.31"/><polygon class="cls-4" points="133.1 61.44 128.79 63.93 128.79 72.2 133.1 69.71 133.1 61.44"/><polygon class="cls-15" points="133.1 69.71 128.79 72.2 128.79 80.48 133.1 77.99 133.1 69.71"/><polygon class="cls-4" points="144.53 54.84 140.22 57.33 140.22 65.6 144.53 63.11 144.53 54.84"/><polygon class="cls-15" points="144.53 63.11 140.22 65.6 140.22 73.88 144.53 71.39 144.53 63.11"/><polygon class="cls-16" points="75.53 43.87 95.38 70.6 95.38 104.86 55.69 81.94 55.69 47.68 75.53 43.87"/><polygon class="cls-7" points="68.34 48.22 75.53 46.84 82.73 56.53 68.34 48.22"/><polygon class="cls-7" points="89.56 79.86 95.38 83.22 95.38 96.72 89.56 93.36 89.56 79.86"/><polygon class="cls-7" points="62.45 72.48 58.14 69.99 58.14 78.27 62.45 80.76 62.45 72.48"/><polygon class="cls-7" points="81.78 79.13 75.53 75.52 75.53 91.58 81.78 95.18 81.78 79.13"/><polygon class="cls-10" points="76.41 87.42 77.06 87.8 77.06 81.72 76.41 81.34 76.41 87.42"/><polygon class="cls-7" points="69.29 71.92 75.53 75.52 75.53 91.58 69.29 87.97 69.29 71.92"/><polygon class="cls-10" points="74.66 86.41 74 86.03 74 79.95 74.66 80.34 74.66 86.41"/><polygon class="cls-17" points="95.38 84.56 85.57 78.89 85.57 81.07 95.38 86.73 95.38 84.56"/><polygon class="cls-18" points="95.38 84.56 105.19 78.89 105.19 81.07 95.38 86.73 95.38 84.56"/><polygon class="cls-19" points="88.61 77.13 95.38 81.03 102.14 77.13 105.19 78.89 95.38 84.56 85.56 78.89 88.61 77.13"/><polygon class="cls-17" points="49.48 45.71 48.49 44.38 73.01 39.67 97.54 72.69 96.55 72.89 73.01 41.19 49.48 45.71"/><polygon class="cls-20" points="73.01 45.33 52.17 49.33 49.48 45.71 73.01 41.19 96.55 72.89 93.86 73.4 73.01 45.33"/><polygon class="cls-19" points="73.01 39.67 141.72 0 166.24 33.03 97.54 72.69 73.01 39.67"/><polygon class="cls-18" points="48.49 44.38 117.19 4.71 141.72 0 73.01 39.67 48.49 44.38"/><polygon class="cls-21" points="89.76 99.94 74.31 108.86 45.86 92.43 61.3 83.52 89.76 99.94"/><polygon class="cls-22" points="74.31 108.86 89.76 99.94 91.34 102.53 74.31 112.35 74.31 108.86 74.31 108.86"/><polygon class="cls-23" points="59.72 84.27 61.3 83.52 45.86 92.43 74.31 108.86 74.31 112.35 42.7 94.1 59.72 84.27"/><polygon class="cls-24" points="72.28 104.61 74.31 105.78 74.31 83.07 72.28 81.89 72.28 104.61"/><polygon class="cls-20" points="76.34 104.61 74.31 105.78 74.31 83.07 76.34 81.89 76.34 104.61"/><polygon class="cls-24" points="50.47 92.23 52.5 93.4 52.5 70.69 50.47 69.52 50.47 92.23"/><polygon class="cls-20" points="54.53 92.23 52.5 93.4 52.5 70.69 54.53 69.52 54.53 92.23"/><polygon class="cls-20" points="48.27 70.46 72.77 84.6 72.77 78.04 48.27 63.9 48.27 70.46"/><path class="cls-3" d="M52.23,67.7a10.49,10.49,0,0,1,1,.48,3.53,3.53,0,0,1,1.09.92,1.7,1.7,0,0,1,.35,1c0,.88-.76.75-1.47.33a3.37,3.37,0,0,1-.34-.21v1.42l-.59-.34Zm.59,2.06a2.89,2.89,0,0,0,.34.22c.54.31.87.25.87-.22a1.42,1.42,0,0,0-.8-1.13l-.41-.2Z"/><path class="cls-3" d="M58.39,73c0,1.25-.74,1.47-1.7.91A3.31,3.31,0,0,1,55,71.11c0-1.14.69-1.49,1.7-.9A3.3,3.3,0,0,1,58.39,73Zm-2.72-1.53a2.37,2.37,0,0,0,1,2c.69.4,1,0,1-.82a2.37,2.37,0,0,0-1-2C56,70.22,55.67,70.75,55.67,71.46Z"/><path class="cls-3" d="M61.13,76.41,59,75.19V71.57l.6.35v3.15l1.52.88Z"/><path class="cls-3" d="M61.66,73.1l.6.35v3.62l-.6-.35Z"/><path class="cls-3" d="M65.64,78.92a3,3,0,0,1-.93-.39,3.45,3.45,0,0,1-1.84-2.88c0-1.23.85-1.41,1.94-.78a3.65,3.65,0,0,1,.85.63l-.13.37a3.85,3.85,0,0,0-.69-.53c-.77-.44-1.34-.3-1.34.64a2.49,2.49,0,0,0,1.33,2.15,2.25,2.25,0,0,0,.71.29Z"/><path class="cls-3" d="M68.39,80.6l-2.15-1.24V75.75l2.06,1.19v.45l-1.47-.84v1l1.39.8v.46L66.83,78v1.21l1.56.89Z"/><polygon class="cls-10" points="72.77 84.6 87.78 75.94 87.78 69.38 72.77 78.04 72.77 84.6"/><polygon class="cls-19" points="72.77 77.3 88.68 68.12 62.37 52.93 46.46 62.11 72.77 77.3"/><polygon class="cls-17" points="46.46 63.89 72.77 79.08 72.77 77.3 46.46 62.12 46.46 63.89"/><polygon class="cls-18" points="72.77 79.08 88.68 69.9 88.68 68.12 72.77 77.31 72.77 79.08"/><path class="cls-2" d="M62.93,67.29c0-.38-.52-.68-1.16-.68s-1.17.3-1.17.68v1.27c0,.37.52.67,1.17.67s1.16-.3,1.16-.67Z"/><path class="cls-8" d="M59.43,65.82a2.34,2.34,0,1,0,2.34-2.34A2.34,2.34,0,0,0,59.43,65.82Z"/></g></g></svg>