<svg xmlns="http://www.w3.org/2000/svg" viewBox="0 0 89.73 133.19"><defs><style>.cls-1{fill:#dcdddd;}.cls-2{fill:#a2c3e7;}.cls-3{fill:#98b7d9;}.cls-4{fill:#f39800;}.cls-5{fill:#b5b5b6;}.cls-6{fill:#ea5514;}.cls-7{fill:#7f9bb8;}.cls-8{fill:#8caac9;}.cls-9{fill:#efefef;}.cls-10{fill:#e6e6e6;}.cls-11{fill:#4c4948;}.cls-12{fill:#727171;}.cls-13{fill:#949495;}.cls-14{fill:#d3d3d4;}.cls-15{fill:#e60012;}.cls-16{fill:#898989;}.cls-17{fill:#fff;}.cls-18{fill:#aaabab;}.cls-19{fill:#c9caca;}.cls-20{fill:#bfc0c0;}</style></defs><title>アセット 34</title><g id="レイヤー_2" data-name="レイヤー 2"><g id="レイヤー_1-2" data-name="レイヤー 1"><polygon class="cls-1" points="89.72 99.53 54.69 119.75 54.69 49.87 89.72 29.65 89.72 99.53"/><polygon class="cls-2" points="89.72 76.75 54.69 96.97 54.69 55.32 89.72 35.09 89.72 76.75"/><path class="cls-1" d="M89.72,40.62V40l-8.48,4.9V40l-.55.32V45.2l-8.21,4.73V45.05l-.55.32v4.88L63.72,55V50.1l-.55.32v4.89L54.69,60.2v.64l8.48-4.9v4.58l-8.48,4.89v.64l8.48-4.9v4.57l-8.48,4.9v.63l8.48-4.89v4.57l-8.48,4.9v.63l8.48-4.89v4.57L54.69,81v.64l8.48-4.9v4.57l-8.48,4.9v.64L63.17,82v4.57l-8.48,4.9v.63l8.48-4.89v4.89l.55-.32V86.87l8.21-4.74V87l.55-.32V81.81l8.21-4.74V82l.55-.31V76.76l8.48-4.9v-.64l-8.48,4.9V71.55l8.48-4.9V66l-8.48,4.89V66.34l8.48-4.89v-.64l-8.48,4.9V61.14l8.48-4.9V55.6l-8.48,4.9V55.93L89.72,51V50.4l-8.48,4.89V50.72l8.48-4.89v-.64l-8.48,4.9V45.52ZM71.93,81.49l-8.21,4.74V81.66l8.21-4.74Zm0-5.2L63.72,81V76.46l8.21-4.74Zm0-5.21-8.21,4.74V71.25l8.21-4.74Zm0-5.21-8.21,4.74V66l8.21-4.74Zm0-5.2L63.72,65.4V60.83l8.21-4.73Zm0-5.21L63.72,60.2V55.63l8.21-4.74Zm8.76,21-8.21,4.74V76.61l8.21-4.74Zm0-5.21L72.48,76V71.4l8.21-4.74Zm0-5.21-8.21,4.74V66.19l8.21-4.74Zm0-5.2-8.21,4.74V61l8.21-4.73Zm0-5.21-8.21,4.74V55.78L80.69,51Zm0-5.2-8.21,4.73V50.57l8.21-4.74Z"/><polygon class="cls-2" points="85.96 87.11 82.79 88.94 82.79 98.71 85.96 96.89 85.96 87.11"/><polygon class="cls-2" points="79.29 90.96 76.12 92.79 76.12 102.56 79.29 100.73 79.29 90.96"/><polygon class="cls-3" points="59.87 102.17 54.69 105.16 54.69 117.63 59.87 114.64 59.87 102.17"/><polygon class="cls-4" points="59.31 107.7 55.25 110.04 55.25 112.11 59.31 109.76 59.31 107.7"/><polygon class="cls-2" points="65.06 99.18 59.87 102.17 59.87 114.64 65.06 111.65 65.06 99.18"/><polygon class="cls-4" points="64.49 104.71 60.44 107.05 60.44 109.11 64.49 106.77 64.49 104.71"/><polygon class="cls-5" points="3.35 90.11 54.69 119.75 54.69 49.87 3.35 20.23 3.35 90.11"/><path class="cls-6" d="M14.44,34.44l-7-4v-.83l7,4.05Zm0,2.29L11.37,35v4.69l-.86-.49V34.46L7.43,32.68v-.84l7,4.05Z"/><polygon class="cls-7" points="49.51 102.17 54.69 105.16 54.69 117.63 49.51 114.64 49.51 102.17"/><polygon class="cls-4" points="50.07 107.7 54.13 110.04 54.13 112.11 50.07 109.76 50.07 107.7"/><polygon class="cls-8" points="44.33 99.18 49.51 102.17 49.51 114.64 44.33 111.65 44.33 99.18"/><polygon class="cls-4" points="44.89 104.71 48.95 107.05 48.95 109.11 44.89 106.77 44.89 104.71"/><polygon class="cls-7" points="39.15 96.19 44.33 99.18 44.33 111.65 39.15 108.66 39.15 96.19"/><polygon class="cls-4" points="39.71 101.71 43.77 104.06 43.77 106.12 39.71 103.78 39.71 101.71"/><polygon class="cls-8" points="33.96 93.19 39.15 96.19 39.15 108.66 33.96 105.67 33.96 93.19"/><polygon class="cls-4" points="34.53 98.72 38.58 101.06 38.58 103.13 34.53 100.79 34.53 98.72"/><polygon class="cls-8" points="6.97 79.73 12.16 82.72 12.16 95.19 6.97 92.2 6.97 79.73"/><polygon class="cls-4" points="7.54 85.26 11.6 87.6 11.6 89.67 7.54 87.32 7.54 85.26"/><polygon class="cls-9" points="9.78 83.65 14.46 80.95 14.46 84.05 9.78 86.75 9.78 83.65"/><polygon class="cls-1" points="0 78.01 9.78 83.65 9.78 86.75 0 81.1 0 78.01"/><polygon class="cls-10" points="4.68 75.31 14.46 80.95 9.78 83.65 0 78.01 4.68 75.31"/><polygon class="cls-9" points="89.73 29.64 54.69 49.87 3.35 20.23 38.38 0 89.73 29.64"/><polygon class="cls-8" points="19.66 76.75 54.69 96.97 54.69 55.32 19.66 35.09 19.66 76.75"/><path class="cls-5" d="M28.14,45.52v4.57l-8.48-4.9v.64l8.48,4.89v4.57L19.66,50.4V51l8.48,4.9V60.5l-8.48-4.9v.64l8.48,4.9v4.57l-8.48-4.9v.64l8.48,4.89v4.57L19.66,66v.63l8.48,4.9v4.57l-8.48-4.9v.64l8.48,4.9v4.89l.55.31V77.07l8.21,4.74V86.7l.55.32V82.13l8.21,4.74v4.89l.55.32V87.19l8.48,4.89v-.63l-8.48-4.9V82l8.48,4.9v-.64l-8.48-4.9V76.77l8.48,4.9V81l-8.48-4.89V71.57l8.48,4.89v-.63l-8.48-4.9V66.36l8.48,4.89v-.63l-8.48-4.9V61.15l8.48,4.9v-.64l-8.48-4.89V55.94l8.48,4.9V60.2l-8.48-4.89V50.42l-.55-.32V55l-8.21-4.74V45.37l-.55-.32v4.88L28.69,45.2V40.31L28.14,40v4.89L19.66,40v.64Zm9.31,31.4,8.21,4.74v4.57l-8.21-4.74Zm0-5.2,8.21,4.74V81l-8.21-4.74Zm0-5.21,8.21,4.74v4.57l-8.21-4.74Zm0-5.21L45.66,66v4.57l-8.21-4.74Zm0-5.2,8.21,4.73V65.4l-8.21-4.73Zm0-5.21,8.21,4.74V60.2l-8.21-4.74Zm-8.76,21,8.21,4.74v4.57l-8.21-4.74Zm0-5.21L36.9,71.4V76l-8.21-4.74Zm0-5.21,8.21,4.74v4.57L28.69,66Zm0-5.2L36.9,61v4.58l-8.21-4.74Zm0-5.21,8.21,4.74v4.57l-8.21-4.74Zm0-5.21,8.21,4.74v4.57l-8.21-4.73Z"/><polygon class="cls-11" points="48.65 131.08 4.99 105.87 4.99 107.99 48.65 133.19 48.65 131.08"/><polygon class="cls-12" points="48.65 131.08 81.76 111.96 81.76 114.08 48.65 133.19 48.65 131.08"/><polygon class="cls-13" points="19.65 97.41 54.69 117.63 73.14 106.98 81.76 111.96 48.65 131.08 4.99 105.87 19.65 97.41"/><polygon class="cls-14" points="16.29 104.63 18.21 103.52 16.55 102.56 14.63 103.67 16.29 104.63"/><polygon class="cls-11" points="16.29 104.63 16.29 103.5 17.95 104.46 17.95 105.59 19.61 106.55 19.61 107.61 14.63 104.73 14.63 103.67 16.29 104.63"/><polygon class="cls-12" points="19.61 107.61 21.53 106.5 21.53 105.44 19.61 106.55 19.61 107.61"/><polygon class="cls-5" points="17.95 105.59 19.88 104.48 19.88 103.35 17.95 104.46 17.95 105.59"/><polygon class="cls-14" points="19.61 106.55 21.53 105.44 19.88 104.48 17.95 105.59 19.61 106.55"/><polygon class="cls-15" points="12.79 101.82 19.04 105.43 19.04 98.97 12.79 95.36 12.79 101.82"/><polygon class="cls-16" points="16.25 99.33 18.09 100.4 18.09 99.48 16.25 98.42 16.25 99.33"/><polygon class="cls-16" points="13.73 97.88 15.57 98.94 15.57 98.03 13.73 96.96 13.73 97.88"/><path class="cls-17" d="M14.82,99.83,17,101.09v.26l-2.18-1.26Zm0,.71L17,101.8v.26l-1-.55V103l-.26-.16v-1.46l-1-.55Z"/><polygon class="cls-15" points="22.56 96.94 22.56 103.39 19.04 105.43 19.04 98.97 22.56 96.94"/><polygon class="cls-15" points="16.31 93.33 22.56 96.94 19.04 98.97 12.79 95.36 16.31 93.33"/><polygon class="cls-18" points="46.35 127.73 48.65 129.06 48.65 114.14 46.35 112.82 46.35 127.73"/><polygon class="cls-19" points="50.94 127.73 48.65 129.06 48.65 114.15 50.94 112.82 50.94 127.73"/><polygon class="cls-18" points="8.2 105.67 10.49 106.99 10.49 92.08 8.2 90.75 8.2 105.67"/><polygon class="cls-19" points="12.79 105.67 10.49 106.99 10.49 92.08 12.79 90.75 12.79 105.67"/><polygon class="cls-18" points="74 111.8 76.29 113.13 76.29 98.21 74 96.89 74 111.8"/><polygon class="cls-19" points="78.58 111.8 76.29 113.13 76.29 98.21 78.58 96.89 78.58 111.8"/><polygon class="cls-20" points="48.65 110.41 4.9 85.16 4.9 90.9 48.65 116.16 48.65 110.41"/><polygon class="cls-14" points="48.65 110.41 81.75 91.3 81.75 97.05 48.65 116.16 48.65 110.41"/><polygon class="cls-9" points="19.65 76.74 54.69 96.97 73.14 86.32 81.76 91.3 48.65 110.41 4.99 85.21 19.65 76.74"/></g></g></svg>