<svg xmlns="http://www.w3.org/2000/svg" viewBox="0 0 245.03 236.01"><defs><style>.cls-1{fill:#cfae7d;}.cls-2{fill:#036eb8;}.cls-3{fill:#a4d6c1;}.cls-4{fill:#956134;}.cls-5{fill:#704722;}.cls-6{fill:#af9269;}.cls-7{fill:#deba85;}.cls-8{fill:#025fa1;}.cls-9{fill:#fff;}.cls-10{fill:#6a3906;}.cls-11{fill:#b28341;}.cls-12{fill:#cd984c;}.cls-13{fill:#e8cfaa;}</style></defs><title>アセット 42</title><g id="レイヤー_2" data-name="レイヤー 2"><g id="レイヤー_1-2" data-name="レイヤー 1"><polygon class="cls-1" points="245.03 36.15 175.98 76.01 175.98 165.13 245.03 125.26 245.03 36.15"/><polygon class="cls-2" points="226.94 73.47 235.79 68.37 235.79 53.15 226.94 58.26 226.94 73.47"/><polygon class="cls-2" points="213.03 81.5 221.88 76.39 221.88 61.18 213.03 66.29 213.03 81.5"/><polygon class="cls-2" points="199.13 89.53 207.98 84.42 207.98 69.2 199.13 74.31 199.13 89.53"/><polygon class="cls-2" points="185.22 97.56 194.07 92.45 194.07 77.23 185.22 82.34 185.22 97.56"/><polygon class="cls-2" points="226.94 98.76 235.79 93.65 235.79 78.43 226.94 83.54 226.94 98.76"/><polygon class="cls-2" points="213.03 106.78 221.88 101.68 221.88 86.46 213.03 91.57 213.03 106.78"/><polygon class="cls-2" points="199.13 114.81 207.98 109.7 207.98 94.49 199.13 99.6 199.13 114.81"/><polygon class="cls-2" points="185.22 122.84 194.07 117.73 194.07 102.51 185.22 107.63 185.22 122.84"/><polygon class="cls-2" points="226.94 124.04 235.79 118.93 235.79 103.71 226.94 108.82 226.94 124.04"/><polygon class="cls-2" points="213.03 132.07 221.88 126.96 221.88 111.74 213.03 116.85 213.03 132.07"/><polygon class="cls-2" points="199.13 140.09 207.98 134.98 207.98 119.77 199.13 124.88 199.13 140.09"/><polygon class="cls-2" points="185.22 148.12 194.07 143.01 194.07 127.8 185.22 132.91 185.22 148.12"/><polygon class="cls-3" points="245.03 36.15 191.82 5.43 122.77 45.29 175.98 76.01 245.03 36.15"/><path class="cls-4" d="M129.21,38.49V45.4a1.24,1.24,0,0,0,.63,1.08,1.26,1.26,0,0,0,.62.17,1.29,1.29,0,0,0,.63-.17L195.58,9.24a1.24,1.24,0,0,0,.63-1.08V1.25a1.24,1.24,0,0,0-.63-1.08,1.22,1.22,0,0,0-1.25,0L129.84,37.41A1.24,1.24,0,0,0,129.21,38.49Zm55-25.56-3.5,2v-4l3.5-2ZM185.7,8l3.51-2v4l-3.51,2Zm-6.5,7.78-3.5,2v-4l3.5-2Zm-5,2.88-3.5,2v-4l3.5-2Zm-5,2.89-3.5,2v-4l3.5-2Zm-5,2.89-3.5,2v-4l3.5-2Zm-5,2.89-3.51,2v-4l3.51-2Zm-5,2.88-3.5,2v-4l3.5-2Zm-5,2.89-3.5,2v-4l3.5-2Zm-5,2.89-3.5,2V34l3.5-2Zm-5,2.89-3.5,2v-4l3.5-2ZM193.71,7.44l-3,1.73v-4l3-1.73Zm-62,31.77,2.48-1.43v4l-2.48,1.43Z"/><path class="cls-5" d="M193.71,1.25V8.16a1.28,1.28,0,0,0,.62,1.09l45,26a1.23,1.23,0,0,0,.62.17,1.29,1.29,0,0,0,.63-.17,1.25,1.25,0,0,0,.62-1.08V27.24a1.25,1.25,0,0,0-.62-1.08l-45-26a1.22,1.22,0,0,0-1.25,0A1.25,1.25,0,0,0,193.71,1.25ZM229.22,26.5l-3.5-2v-4l3.5,2Zm1.5-3.16,3.5,2v4l-3.5-2Zm-6.5.27-3.51-2v-4l3.51,2Zm-5-2.89-3.5-2v-4l3.5,2Zm-5-2.88-3.5-2v-4l3.5,2Zm-5-2.89-3.5-2v-4l3.5,2Zm-5-2.89-3.5-2V6l3.5,2ZM238.72,32l-3-1.74v-4l3,1.73ZM196.21,3.42l3,1.73v4l-3-1.73Z"/><path class="cls-4" d="M174.22,64.48v6.91a1.26,1.26,0,0,0,1.25,1.25,1.27,1.27,0,0,0,.63-.17l64.5-37.24a1.25,1.25,0,0,0,.62-1.08V27.24a1.25,1.25,0,0,0-.62-1.08,1.22,1.22,0,0,0-1.25,0l-64.5,37.23A1.26,1.26,0,0,0,174.22,64.48Zm55-25.56-3.5,2v-4l3.5-2Zm1.5-4.9,3.5-2v4l-3.5,2Zm-6.5,7.78-3.51,2v-4l3.51-2Zm-5,2.89-3.5,2v-4l3.5-2Zm-5,2.89-3.5,2v-4l3.5-2Zm-5,2.89-3.5,2v-4l3.5-2Zm-5,2.88-3.5,2v-4l3.5-2Zm-5,2.89-3.5,2v-4l3.5-2Zm-5,2.89-3.5,2v-4l3.5-2Zm-5,2.89-3.51,2V60l3.51-2Zm-5,2.89-3.5,2v-4l3.5-2Zm54.52-31.48-3,1.73v-4l3-1.74Zm-62,31.77,2.48-1.43v4l-2.48,1.43Z"/><polygon class="cls-6" points="53.21 146.9 0 116.17 0 205.28 53.21 236.01 53.21 146.9"/><polygon class="cls-1" points="122.26 107.03 53.21 146.9 53.21 236.01 122.26 196.14 122.26 107.03"/><polygon class="cls-2" points="104.17 144.36 113.02 139.25 113.02 124.03 104.17 129.14 104.17 144.36"/><polygon class="cls-2" points="90.26 152.38 99.11 147.28 99.11 132.06 90.26 137.17 90.26 152.38"/><polygon class="cls-2" points="76.36 160.41 85.21 155.31 85.21 140.09 76.36 145.2 76.36 160.41"/><polygon class="cls-2" points="62.45 168.44 71.3 163.33 71.3 148.12 62.45 153.22 62.45 168.44"/><polygon class="cls-2" points="104.17 169.64 113.02 164.53 113.02 149.31 104.17 154.42 104.17 169.64"/><polygon class="cls-2" points="90.26 177.67 99.11 172.56 99.11 157.34 90.26 162.45 90.26 177.67"/><polygon class="cls-2" points="76.36 185.69 85.21 180.59 85.21 165.37 76.36 170.48 76.36 185.69"/><polygon class="cls-2" points="62.45 193.72 71.3 188.61 71.3 173.4 62.45 178.51 62.45 193.72"/><polygon class="cls-2" points="104.17 194.92 113.02 189.81 113.02 174.59 104.17 179.7 104.17 194.92"/><polygon class="cls-2" points="90.26 202.95 99.11 197.84 99.11 182.62 90.26 187.73 90.26 202.95"/><polygon class="cls-2" points="76.36 210.98 85.21 205.87 85.21 190.65 76.36 195.76 76.36 210.98"/><polygon class="cls-2" points="62.45 219 71.3 213.9 71.3 198.68 62.45 203.79 62.45 219"/><polygon class="cls-3" points="105.04 55.53 105.04 97.09 122.26 107.03 53.21 146.9 0 116.17 105.04 55.53"/><path class="cls-4" d="M6.44,109.37v6.91a1.23,1.23,0,0,0,1.25,1.25,1.25,1.25,0,0,0,.62-.16l97.36-56.21a1.26,1.26,0,0,0,.63-1.09V53.16a1.24,1.24,0,0,0-.63-1.08,1.22,1.22,0,0,0-1.25,0L7.06,108.29A1.25,1.25,0,0,0,6.44,109.37ZM95.92,63.9l-3.5,2v-4l3.5-2ZM97.42,59l3.5-2v4l-3.5,2Zm-6.5,7.78-3.51,2v-4l3.51-2Zm-5,2.89-3.5,2v-4l3.5-2Zm-5,2.88-3.5,2v-4l3.5-2Zm-5,2.89-3,1.72v-4l3-1.71ZM71.43,78l-3.5,2V76l3.5-2Zm-5,2.88-3.5,2v-4l3.5-2Zm-5,2.89-3.5,2v-4l3.5-2Zm-5,2.89-3.5,2v-4l3.5-2Zm-5,2.89-3.5,2v-4l3.5-2Zm-5,2.88-3.51,2v-4l3.51-2Zm-5,2.89-3.5,2v-4l3.5-2Zm-5,2.89-3.5,2v-4l3.5-2Zm-5,2.89-3.5,2v-4l3.5-2Zm-5,2.88-3.5,2v-4l3.5-2Zm-5,2.89-3.51,2v-4l3.51-2Zm-5,2.89-3.5,2v-4l3.5-2ZM103.8,59.35l-1.38.8v-4l1.38-.79ZM8.94,110.09l2.47-1.43v4l-2.47,1.43Z"/><polygon class="cls-6" points="105.04 97.09 105.04 50.78 138.22 69.94 138.22 205.36 122.26 196.14 122.26 107.03 105.04 97.09"/><polygon class="cls-7" points="138.22 205.36 191.94 174.34 191.94 38.93 138.22 69.94 138.22 205.36"/><polygon class="cls-2" points="173.14 107.82 181.99 102.71 181.99 87.49 173.14 92.6 173.14 107.82"/><polygon class="cls-2" points="173.14 133.1 181.99 127.99 181.99 112.78 173.14 117.89 173.14 133.1"/><polygon class="cls-8" points="165.08 189.85 173.93 184.74 173.93 158.58 165.08 163.69 165.08 189.85"/><polygon class="cls-2" points="173.93 184.74 182.78 179.63 182.78 153.47 173.93 158.58 173.93 184.74"/><polygon class="cls-2" points="147.38 200.07 156.23 194.96 156.23 168.8 147.38 173.91 147.38 200.07"/><polygon class="cls-8" points="156.23 194.96 165.08 189.85 165.08 163.69 156.23 168.8 156.23 194.96"/><polygon class="cls-2" points="157.02 117.13 148.18 122.23 148.18 107.02 157.02 101.91 157.02 117.13"/><polygon class="cls-2" points="157.02 142.41 148.18 147.52 148.18 132.3 157.02 127.19 157.02 142.41"/><path class="cls-9" d="M154,81.57c0,7.63,4.95,11,11.06,7.43s11.06-12.57,11.06-20.21-4.95-11-11.06-7.44S154,73.93,154,81.57Z"/><path class="cls-10" d="M159.06,73.34c.19-.45.56-.75.83-.67l5.19,1.59,5.19-7.58c.27-.39.65-.53.84-.3a1.06,1.06,0,0,1-.15,1.13l-5.53,8.08-.05.06-.06.07a.79.79,0,0,1-.24.21h0a.43.43,0,0,1-.24.06,0,0,0,0,1-.05,0s0,0,0,0L159.2,74.3C158.93,74.22,158.87,73.79,159.06,73.34Z"/><polygon class="cls-11" points="98.96 51.82 138.22 74.48 138.22 65.86 98.96 43.19 98.96 51.82"/><polygon class="cls-12" points="138.22 74.48 198.02 39.96 198.02 31.33 138.22 65.86 138.22 74.48"/><polygon class="cls-13" points="98.96 43.19 158.76 8.66 198.02 31.33 138.22 65.86 98.96 43.19"/><polygon class="cls-12" points="146.85 177.17 206.65 142.65 206.65 134.02 146.85 168.54 146.85 177.17"/><polygon class="cls-11" points="119.22 161.22 146.85 177.17 146.85 168.54 119.22 152.59 119.22 161.22"/><polygon class="cls-13" points="122.26 150.84 138.22 160.05 191.94 129.04 191.94 125.53 206.65 134.02 146.85 168.54 119.22 152.59 122.26 150.84"/><path class="cls-5" d="M6.44,109.37v6.91a1.28,1.28,0,0,0,.62,1.09l45,26a1.16,1.16,0,0,0,.62.17,1.19,1.19,0,0,0,.63-.17,1.25,1.25,0,0,0,.62-1.08v-6.91a1.25,1.25,0,0,0-.62-1.08l-45-26a1.27,1.27,0,0,0-1.25,0A1.25,1.25,0,0,0,6.44,109.37ZM42,134.62l-3.5-2v-4l3.5,2Zm1.5-3.16,3.5,2v4l-3.5-2Zm-6.5.27-3.5-2v-4l3.5,2Zm-5-2.89-3.51-2v-4l3.51,2Zm-5-2.88-3.5-2v-4l3.5,2Zm-5-2.89-3.5-2v-4l3.5,2Zm-5-2.89-3.5-2v-4l3.5,2Zm34.51,19.93-3-1.74v-4l3,1.73ZM8.94,111.54l3,1.73v4l-3-1.73Z"/><path class="cls-4" d="M51.45,135.36v6.91a1.24,1.24,0,0,0,.63,1.08,1.16,1.16,0,0,0,.62.17,1.19,1.19,0,0,0,.63-.17l64.49-37.23a1.26,1.26,0,0,0,.63-1.08V98.12a1.25,1.25,0,0,0-.63-1.08,1.27,1.27,0,0,0-1.25,0L52.08,134.28A1.24,1.24,0,0,0,51.45,135.36Zm55-25.56-3.5,2v-4l3.5-2Zm1.5-4.89,3.51-2v4l-3.51,2Zm-6.5,7.78-3.5,2v-4l3.5-2Zm-5,2.89-3.5,2v-4l3.5-2Zm-5,2.88-3.5,2v-4l3.5-2Zm-5,2.89-3.5,2v-4l3.5-2Zm-5,2.89-3.51,2v-4l3.51-2Zm-5,2.89-3.5,2v-4l3.5-2Zm-5,2.88-3.5,2v-4l3.5-2Zm-5,2.89-3.5,2v-4l3.5-2Zm-5,2.89-3.5,2v-4l3.5-2ZM116,104.31l-3,1.74v-4l3-1.73ZM54,136.08l2.48-1.43v4L54,140.11Z"/></g></g></svg>