<svg xmlns="http://www.w3.org/2000/svg" viewBox="0 0 79.67 94.5"><defs><style>.cls-1{fill:#fff;}.cls-2{fill:#352721;}.cls-3{fill:#e25b12;}.cls-4{fill:#cf141d;}.cls-5{fill:#11653d;}.cls-6{font-size:8.55px;}.cls-6,.cls-7{fill:#13663d;font-family:KFhimaji-83pv-RKSJ-H, KFhimaji;}.cls-7{font-size:13.29px;}</style></defs><title>アセット 128</title><g id="レイヤー_2" data-name="レイヤー 2"><g id="レイヤー_1-2" data-name="レイヤー 1"><path class="cls-1" d="M3.31,27.38C10.4,10.45,20,6.1,27.34,3.29A32.46,32.46,0,0,1,39.14.85a49.22,49.22,0,0,1,18.49,4c4.08,1.79,9.25,5.63,12.56,8.59,4,3.54,4.42,7.41,6.31,12.34,2.67,7,2.36,16.47,1.86,23.93S75,62.66,69.6,67.9C63.52,73.8,57,76.36,48.79,78.72c-3,.86-9.09,14.79-9.09,14.79s-6.34-13.73-9.4-14.63a56.26,56.26,0,0,1-10.83-4.21A38.82,38.82,0,0,1,2.7,56.12C-.69,48.38,1.85,30.87,3.31,27.38Z"/><path class="cls-2" d="M4.17,27.89C9.89,14.71,19.82,5,34.25,2.3,44.26.46,55.5,3.87,63.69,9.6c3.4,2.37,7.1,5.06,9,8.83a51,51,0,0,1,4.08,12.1c1.65,7.89,1.89,18.55-.85,26.25-3.2,9-11.59,15.28-20.19,18.61-5,1.93-8.22,1.94-11.16,6.48A79.73,79.73,0,0,0,38.84,93h1.73A67.89,67.89,0,0,0,33.8,80.87a8.25,8.25,0,0,0-4-3.2c-5.22-2-10.2-3.59-14.69-7.1-7.32-5.73-12.59-13.89-13-23.29C1.78,41,2,33.61,4.27,27.65c.45-1.21-1.48-1.73-1.93-.54C.19,32.85-.1,40,0,46A31.5,31.5,0,0,0,7.86,66.35a38.64,38.64,0,0,0,9.8,8.44A41.35,41.35,0,0,0,23,77.4c2.28.94,5.63,1.45,7.62,2.83,3.88,2.69,6.32,9.6,8.26,13.78a1,1,0,0,0,1.73,0,89.62,89.62,0,0,1,5-9.83C47.2,81.39,48.17,80,51.31,79a62.47,62.47,0,0,0,9.18-3.51,37.61,37.61,0,0,0,14-11.68c3.85-5.42,4.81-11.47,5.1-18,.57-13-1.32-27.57-12.19-36C56,1,40.88-2.85,27.08,2.33,15.12,6.82,7.51,15.21,2.44,26.88,1.94,28,3.66,29.06,4.17,27.89Z"/><path class="cls-3" d="M24.34,17.65a1.86,1.86,0,0,1,.29-1.24A1.55,1.55,0,0,1,26,16.08q15.13,1.17,30.32,1a.53.53,0,0,1,.51.43,54.87,54.87,0,0,1,1.13,10.78c0,.87-7.78.64-10.66.45-6.85-.47-20.13-.82-22.9-1a.54.54,0,0,1-.48-.6C24,25.53,24.34,20.55,24.34,17.65Z"/><path class="cls-1" d="M25.3,17.91c.39-1.66,22.68.18,25.29.2,4.18,0,5.52,0,6,4.79.06.5.82,4.42.45,4.8-1.12,1.14-7,.21-8.51.14-5.85-.28-11.69-.58-17.54-.8-1.15,0-5.58.32-6.13-.44-.86-1.2.43-7.31.45-9a1,1,0,0,0-2,0c0,2.25-1.63,8.68-.12,10.53,1.21,1.48,5.56.78,7.18.84,4.88.18,9.76.33,14.63.61,3.72.21,8.1,1,11.76.14,3.1-.72,2.18-3,1.91-6-.35-4,.24-7.67-4.32-7.68-7,0-13.9-.15-20.85-.54-3.28-.18-9.16-2.43-10.16,1.8C23.08,18.63,25,19.17,25.3,17.91Z"/><path class="cls-4" d="M36.08,59.87C32.63,44.58,38,30.11,50.4,20.58c1.65-1.25,5.38-3.3,7.39-2.81.29,4.07-.58,11.85-.92,12-5,2.58-8.22,7.87-9.58,13.35S46.13,54.35,46.36,60a57.55,57.55,0,0,0-10.82-.34l-.3-1"/><path class="cls-1" d="M36.8,59.67c-2-9.52-.87-19.28,4.24-27.69a37.48,37.48,0,0,1,9.62-10.61c1.1-.81,4.49-3.43,5.85-2.63,1.14.67.52,3.8.41,5.23s.11,3.82-.57,5-2.48,1.87-3.44,2.74a21.39,21.39,0,0,0-5.25,7.9,36.68,36.68,0,0,0-2.21,12.89C45.4,55,46.52,58.4,43.66,59c-.72.15-7.54,0-7.7-.48-.29-.92-1.74-.52-1.45.4l.31,1a.76.76,0,0,0,.72.55,68.6,68.6,0,0,1,10.82.34.76.76,0,0,0,.75-.75c-.21-5.54-.47-11.23.9-16.65A23.87,23.87,0,0,1,50.59,37c1.67-2.78,4.06-3.85,6-6.16,2.61-3,2.08-9.07,1.9-13a.78.78,0,0,0-.75-.75C49.9,16.48,42.39,26.44,39,32.48,34.28,41,33.41,50.66,35.36,60.07c.19,1,1.64.55,1.44-.4Z"/><path class="cls-5" d="M72.35,27.22c-1.66-4.54-2.07-8.1-5.56-11.35-.48-.45-1-.92-1.57-1.39-2,12.85-4.65,25.66-6.87,38.38A11.06,11.06,0,0,1,56.26,57c-1,1.12-1.84.5-3.35.63-7.87.66-15.81,1.2-23.6-.09a9.6,9.6,0,0,1-3.8-1.22c-2.39-1.59-3-5.64-3.33-8.47Q20,30.56,17.73,13.27c-3.5,3.27-7,8-9.91,15.4C6.54,31.87,4.3,48,7.29,55.11A35.2,35.2,0,0,0,22.07,72.17a47.79,47.79,0,0,0,9.56,3.88c2.69.83,5.47.63,8.28.58s5.39.06,8-.73c7.22-2.17,13-4.52,18.35-10C71,61.12,73.55,56.1,74,49.23S74.7,33.66,72.35,27.22Z"/><text class="cls-6" transform="translate(24.03 46.37)">ELEVE</text><text/><text class="cls-7" transform="translate(49.17 46.4)">n</text></g></g></svg>