<svg xmlns="http://www.w3.org/2000/svg" viewBox="0 0 402.86 306.4"><defs><style>.cls-1{fill:#cce198;}.cls-2{fill:#00913a;}.cls-3{fill:#ce7d7e;}.cls-4{fill:#fff;}.cls-5{fill:#22ac38;}.cls-6{fill:#c9caca;}.cls-7{fill:#005794;}.cls-8{fill:#0075a9;}.cls-9{fill:#6db3d4;}.cls-10{fill:#0082ba;}.cls-11{fill:#0367ad;}.cls-12{fill:#0097db;}.cls-13{fill:#7ecef4;}.cls-14{fill:#4c4948;}.cls-15{fill:#2f2725;}.cls-16{fill:#595757;}.cls-17{fill:#bedfc2;}.cls-18{fill:#898989;}.cls-19{fill:#a4c2a9;}.cls-20{fill:#dcdddd;}.cls-21{fill:#b8cbbb;}.cls-22{fill:#006934;}.cls-23{fill:#008344;}.cls-24{fill:#efefef;}.cls-25{fill:#bfc0c0;}</style></defs><title>アセット 19</title><g id="レイヤー_2" data-name="レイヤー 2"><g id="レイヤー_1-2" data-name="レイヤー 1"><path class="cls-1" d="M121.43,278.56c64.29,37.12,168.91,37.12,233.21,0s64.29-97.52,0-134.64l-73.21-42.26c-64.3-37.13-168.91-37.13-233.21,0s-64.29,97.53,0,134.65Z"/><path class="cls-2" d="M93,161.49C56,140.12,56,105.35,93,84s97.24-21.37,134.25,0l82.84,47.82c37,21.37,37,56.14,0,77.51s-97.23,21.37-134.24,0Z"/><polygon class="cls-3" points="323.58 161.08 328.86 164.13 317.69 170.57 312.42 167.53 323.58 161.08"/><path class="cls-4" d="M317.69,170.67h-.05l-5.27-3a.08.08,0,0,1-.05-.08.09.09,0,0,1,.05-.09L323.53,161a.17.17,0,0,1,.1,0l5.28,3a.11.11,0,0,1,0,.09.1.1,0,0,1,0,.08l-11.17,6.45Zm-5.07-3.14,5.07,2.93,11-6.33-5.08-2.93Z"/><polygon class="cls-3" points="291.47 142.54 323.58 161.08 312.42 167.53 280.31 148.99 291.47 142.54"/><path class="cls-4" d="M312.42,167.63l-.05,0-32.11-18.53a.12.12,0,0,1-.05-.09.11.11,0,0,1,.05-.09l11.16-6.44a.09.09,0,0,1,.1,0L323.63,161a.12.12,0,0,1,.05.09.11.11,0,0,1-.05.09l-11.16,6.44ZM280.51,149l31.91,18.42,11-6.33-31.91-18.42Z"/><path class="cls-4" d="M313.81,166.82h-.05l-32.1-18.54a.1.1,0,0,1,0-.14.11.11,0,0,1,.14,0l32.1,18.54a.1.1,0,0,1,0,.14A.11.11,0,0,1,313.81,166.82Z"/><path class="cls-4" d="M315.21,166h0l-32.11-18.54a.09.09,0,0,1,0-.13.1.1,0,0,1,.14,0l32.11,18.54a.1.1,0,0,1,0,.13A.07.07,0,0,1,315.21,166Z"/><path class="cls-4" d="M316.6,165.21h-.05l-32.1-18.54a.1.1,0,0,1,0-.14.11.11,0,0,1,.14,0L316.65,165a.1.1,0,0,1,0,.14A.11.11,0,0,1,316.6,165.21Z"/><path class="cls-4" d="M318,164.4H318l-32.11-18.54a.1.1,0,0,1,0-.13.1.1,0,0,1,.14,0l32.11,18.54a.1.1,0,0,1,0,.13A.1.1,0,0,1,318,164.4Z"/><path class="cls-4" d="M319.39,163.6l-.05,0-32.1-18.53a.1.1,0,0,1,0-.14.11.11,0,0,1,.14,0l32.1,18.54a.1.1,0,0,1,0,.14A.11.11,0,0,1,319.39,163.6Z"/><path class="cls-4" d="M320.79,162.79h-.05l-32.11-18.54a.11.11,0,0,1,0-.14.09.09,0,0,1,.13,0l32.11,18.54a.1.1,0,0,1,0,.13A.12.12,0,0,1,320.79,162.79Z"/><path class="cls-4" d="M322.18,162l-.05,0L290,143.44a.1.1,0,0,1,0-.14.11.11,0,0,1,.14,0l32.1,18.54a.1.1,0,0,1,0,.14A.11.11,0,0,1,322.18,162Z"/><polygon class="cls-3" points="79.48 132.21 74.2 129.16 85.36 122.72 90.64 125.77 79.48 132.21"/><path class="cls-4" d="M79.48,132.31h0l-5.28-3.05a.11.11,0,0,1-.05-.09.1.1,0,0,1,.05-.08l11.16-6.45a.09.09,0,0,1,.1,0l5.28,3.05a.1.1,0,0,1,0,.08.11.11,0,0,1,0,.09L79.53,132.3Zm-5.08-3.15,5.08,2.93,11-6.33-5.08-2.93Z"/><polygon class="cls-3" points="111.58 150.75 79.48 132.21 90.64 125.77 122.75 144.3 111.58 150.75"/><path class="cls-4" d="M111.58,150.85l0,0L79.43,132.3a.11.11,0,0,1,0-.18l11.16-6.44a.09.09,0,0,1,.1,0l32.11,18.54a.09.09,0,0,1,0,.08.11.11,0,0,1,0,.09l-11.17,6.44Zm-31.9-18.64,31.9,18.42,11-6.33L90.64,125.88Z"/><path class="cls-4" d="M121.35,145.21l0,0L89.19,126.66a.1.1,0,0,1,0-.14.1.1,0,0,1,.13,0L121.4,145a.11.11,0,0,1,0,.14A.12.12,0,0,1,121.35,145.21Z"/><path class="cls-4" d="M120,146h0L87.8,127.46a.09.09,0,0,1,0-.13.1.1,0,0,1,.14,0L120,145.83a.09.09,0,0,1,0,.13A.09.09,0,0,1,120,146Z"/><path class="cls-4" d="M118.56,146.82h0L86.4,128.27a.11.11,0,0,1,0-.14.1.1,0,0,1,.13,0l32.11,18.54a.11.11,0,0,1,0,.14A.12.12,0,0,1,118.56,146.82Z"/><path class="cls-4" d="M117.16,147.63l0,0L85,129.07a.09.09,0,0,1,0-.13.1.1,0,0,1,.14,0l32.1,18.54a.1.1,0,0,1,0,.14A.11.11,0,0,1,117.16,147.63Z"/><path class="cls-4" d="M115.77,148.43h0L83.61,129.88a.11.11,0,0,1,0-.14.11.11,0,0,1,.14,0l32.11,18.53a.1.1,0,0,1,0,.14A.12.12,0,0,1,115.77,148.43Z"/><path class="cls-4" d="M114.37,149.24l-.05,0-32.1-18.53a.1.1,0,0,1,.1-.18l32.1,18.54a.1.1,0,0,1,0,.14A.11.11,0,0,1,114.37,149.24Z"/><path class="cls-4" d="M113,150h0L80.82,131.49a.1.1,0,1,1,.1-.17L113,149.86a.09.09,0,0,1,0,.13A.09.09,0,0,1,113,150Z"/><path class="cls-3" d="M111.58,150.75c-26.75-15.45-26.75-40.58,0-56s70.28-15.45,97,0l82.84,47.83c26.75,15.44,26.76,40.58,0,56s-70.29,15.45-97,0Z"/><path class="cls-4" d="M243,210.26c-18.37,0-35.62-4.12-48.57-11.6l-82.85-47.83c-13-7.49-20.11-17.47-20.11-28.1s7.14-20.61,20.12-28.1S141.74,83,160.11,83s35.61,4.12,48.57,11.6l82.84,47.83c13,7.49,20.12,17.47,20.12,28.1s-7.15,20.61-20.12,28.1S261.32,210.26,243,210.26Zm-82.84-127c-18.34,0-35.55,4.11-48.47,11.57s-20,17.38-20,27.93,7.11,20.48,20,27.93l82.84,47.83C207.4,206,224.61,210.06,243,210.06s35.55-4.11,48.47-11.57,20-17.37,20-27.93-7.11-20.47-20-27.93L208.58,94.81C195.65,87.34,178.44,83.23,160.11,83.23Z"/><path class="cls-4" d="M243,209.12c-17.84,0-34.6-4-47.18-11.26L112.93,150c-12.6-7.27-19.54-17-19.54-27.3s6.94-20,19.54-27.3,29.34-11.26,47.18-11.26,34.59,4,47.17,11.26l82.85,47.83c12.6,7.28,19.54,17,19.54,27.3s-6.94,20-19.54,27.3S260.79,209.12,243,209.12ZM160.11,84.37c-17.81,0-34.53,4-47.08,11.24s-19.44,16.87-19.44,27.12,6.9,19.89,19.44,27.13l82.84,47.82c12.55,7.25,29.27,11.24,47.08,11.24s34.52-4,47.08-11.24,19.44-16.87,19.44-27.12-6.91-19.89-19.44-27.12L207.18,95.61C194.63,88.36,177.91,84.37,160.11,84.37Z"/><path class="cls-4" d="M243,208c-17.32,0-33.58-3.88-45.79-10.93l-82.84-47.83c-12.22-7.06-19-16.46-19-26.49s6.74-19.43,19-26.49,28.47-10.93,45.78-10.93,33.57,3.88,45.78,10.93l82.84,47.83c12.23,7.06,19,16.47,19,26.49s-6.73,19.43-19,26.49S260.26,208,243,208ZM160.11,85.51c-17.28,0-33.5,3.87-45.68,10.91s-18.87,16.37-18.87,26.31,6.7,19.3,18.86,26.32l82.84,47.83c12.18,7,28.41,10.9,45.69,10.9s33.5-3.87,45.68-10.9,18.86-16.37,18.86-26.32-6.7-19.29-18.86-26.32L205.79,96.42C193.61,89.38,177.39,85.51,160.11,85.51Z"/><path class="cls-4" d="M243,206.84c-16.78,0-32.55-3.76-44.39-10.59l-82.84-47.83c-11.86-6.85-18.39-16-18.39-25.69s6.53-18.84,18.39-25.68,27.6-10.6,44.39-10.6,32.55,3.76,44.39,10.6l82.84,47.82c11.85,6.85,18.38,16,18.38,25.69s-6.53,18.84-18.38,25.69S259.74,206.84,243,206.84ZM160.11,86.65c-16.75,0-32.48,3.75-44.29,10.57s-18.29,15.87-18.29,25.51,6.5,18.71,18.29,25.51l82.84,47.83c11.81,6.82,27.54,10.58,44.29,10.58s32.48-3.76,44.29-10.58,18.28-15.87,18.28-25.51-6.49-18.7-18.28-25.51L204.4,97.22C192.59,90.4,176.86,86.65,160.11,86.65Z"/><path class="cls-4" d="M243,205.7c-16.26,0-31.53-3.64-43-10.26l-82.84-47.83C105.63,141,99.3,132.15,99.3,122.73s6.33-18.25,17.81-24.88,26.74-10.26,43-10.26,31.52,3.64,43,10.26l82.84,47.83c11.49,6.63,17.81,15.47,17.81,24.88s-6.32,18.25-17.81,24.88S259.2,205.7,243,205.7ZM160.11,87.79c-16.22,0-31.46,3.63-42.9,10.24S99.5,113.39,99.5,122.73s6.29,18.12,17.71,24.71l82.84,47.83c11.44,6.6,26.67,10.23,42.9,10.23s31.45-3.63,42.89-10.24,17.71-15.36,17.71-24.7-6.29-18.11-17.71-24.71L203,98C191.56,91.42,176.33,87.79,160.11,87.79Z"/><path class="cls-4" d="M243,204.57c-15.73,0-30.5-3.53-41.6-9.94l-82.84-47.82c-11.11-6.42-17.23-15-17.23-24.08s6.12-17.66,17.23-24.07,25.87-9.94,41.6-9.94,30.5,3.53,41.59,9.94l82.85,47.83c11.11,6.41,17.23,15,17.23,24.07s-6.12,17.66-17.23,24.07S258.68,204.57,243,204.57ZM160.11,88.92c-15.7,0-30.44,3.52-41.5,9.91s-17.13,14.87-17.13,23.9,6.08,17.53,17.13,23.9l82.84,47.83c11.07,6.39,25.8,9.91,41.5,9.91s30.43-3.52,41.5-9.91,17.13-14.87,17.13-23.9-6.09-17.52-17.13-23.9L201.6,98.83C190.54,92.44,175.8,88.92,160.11,88.92Z"/><path class="cls-4" d="M243,203.43c-15.21,0-29.48-3.41-40.21-9.6L119.9,146c-10.74-6.2-16.65-14.46-16.65-23.27s5.91-17.07,16.66-23.27,25-9.6,40.2-9.6,29.48,3.41,40.2,9.6l82.84,47.83c10.74,6.2,16.65,14.47,16.65,23.27s-5.91,17.07-16.65,23.27S258.15,203.43,243,203.43ZM160.11,90.06c-15.17,0-29.41,3.4-40.1,9.58S103.45,114,103.45,122.73s5.88,16.93,16.55,23.1l82.84,47.83c10.7,6.17,24.94,9.57,40.11,9.57s29.41-3.4,40.1-9.58,16.56-14.36,16.55-23.09-5.88-16.93-16.55-23.1L200.21,99.64C189.52,93.46,175.27,90.06,160.11,90.06Z"/><path class="cls-4" d="M242.94,202.29c-14.67,0-28.45-3.29-38.8-9.27L121.3,145.19c-10.37-6-16.08-14-16.08-22.46s5.71-16.47,16.08-22.46S145.44,91,160.11,91s28.46,3.29,38.81,9.27l82.84,47.82c10.36,6,16.07,14,16.07,22.47S292.12,187,281.75,193,257.62,202.29,242.94,202.29ZM160.11,91.2c-14.64,0-28.39,3.28-38.71,9.24s-16,13.87-16,22.29,5.68,16.34,16,22.29l82.84,47.83c10.32,6,24.07,9.24,38.7,9.24s28.39-3.28,38.71-9.24,16-13.87,16-22.29-5.67-16.34-16-22.29l-82.84-47.83C188.5,94.48,174.75,91.2,160.11,91.2Z"/><path class="cls-4" d="M243,201.15c-14.15,0-27.44-3.17-37.41-8.93L122.7,144.39c-10-5.77-15.51-13.47-15.51-21.66s5.51-15.89,15.5-21.66,23.27-8.93,37.42-8.93,27.43,3.17,37.41,8.93l82.84,47.83c10,5.77,15.5,13.46,15.5,21.66s-5.51,15.89-15.5,21.66S257.09,201.15,243,201.15ZM160.11,92.34c-14.11,0-27.37,3.16-37.32,8.91s-15.4,13.36-15.4,21.48,5.47,15.75,15.41,21.49L205.64,192c9.94,5.75,23.2,8.91,37.31,8.91s27.36-3.16,37.31-8.91,15.4-13.36,15.4-21.48-5.47-15.75-15.4-21.48l-82.84-47.83C187.47,95.5,174.22,92.34,160.11,92.34Z"/><polygon class="cls-5" points="220.12 197.94 112.67 135.91 182.94 95.34 290.38 157.38 220.12 197.94"/><path class="cls-4" d="M220.12,198.07l-.07,0L112.61,136a.11.11,0,0,1-.06-.11.14.14,0,0,1,.06-.11l70.26-40.56a.11.11,0,0,1,.13,0l107.45,62a.11.11,0,0,1,.06.11.14.14,0,0,1-.06.11l-70.27,40.56Zm-107.2-62.16,107.2,61.89,70-40.42L182.93,95.49Z"/><path class="cls-4" d="M144.41,124.73h-.06l-6.08-3.51a.13.13,0,1,1,.12-.22l6,3.47,18.7-10.79-5.9-3.4a.12.12,0,0,1,0-.17.13.13,0,0,1,.17,0l6.08,3.51a.11.11,0,0,1,.06.11.14.14,0,0,1-.06.11l-18.95,10.94Z"/><path class="cls-4" d="M245.78,183.26l-.07,0-6.07-3.51a.12.12,0,0,1-.07-.1.12.12,0,0,1,.07-.11l18.94-10.94a.11.11,0,0,1,.13,0l6.07,3.5a.14.14,0,0,1,.05.18.14.14,0,0,1-.17,0l-6-3.47L240,179.63l5.89,3.39a.12.12,0,0,1,0,.17A.12.12,0,0,1,245.78,183.26Z"/><path class="cls-4" d="M143.83,137.28h-.07l-16.65-9.62a.13.13,0,0,1,0-.17.13.13,0,0,1,.17,0l16.6,9.58,41-23.68-16.48-9.51a.12.12,0,0,1,0-.17.13.13,0,0,1,.17,0l16.66,9.61a.14.14,0,0,1,.06.11.11.11,0,0,1-.06.11l-41.27,23.83Z"/><path class="cls-4" d="M234.62,189.7l-.07,0-16.66-9.62a.13.13,0,0,1-.06-.1.14.14,0,0,1,.06-.11L259.16,156a.15.15,0,0,1,.13,0L276,165.64a.12.12,0,0,1,0,.17.13.13,0,0,1-.17.05l-16.59-9.58-41,23.68,16.47,9.51a.12.12,0,0,1,0,.17A.11.11,0,0,1,234.62,189.7Z"/><path class="cls-4" d="M201.53,154.56a19.46,19.46,0,0,1-9.61-2.3c-2.59-1.49-4-3.49-4-5.61s1.42-4.13,4-5.62a21.21,21.21,0,0,1,19.21,0c2.59,1.49,4,3.49,4,5.62s-1.43,4.12-4,5.61A19.45,19.45,0,0,1,201.53,154.56Zm0-15.58a19.26,19.26,0,0,0-9.48,2.26c-2.51,1.45-3.89,3.37-3.89,5.41s1.38,3.95,3.89,5.4a21,21,0,0,0,19,0c2.51-1.45,3.89-3.37,3.89-5.4s-1.38-4-3.89-5.41A19.32,19.32,0,0,0,201.53,139Z"/><path class="cls-6" d="M83.5,37.84c20.25-11.69,47.21-18.13,75.91-18.13s55.67,6.44,75.91,18.13L320,86.72c20.25,11.69,31.4,27.25,31.4,43.83s-11.15,32.13-31.4,43.82a119.91,119.91,0,0,1-21.2,9.52c9.24-6.92,14.27-15.37,14.27-24.28,0-10.66-7.17-20.67-20.17-28.18L208.22,82.55c-13-7.51-30.34-11.65-48.81-11.65s-35.8,4.14-48.8,11.65-20.17,17.51-20.18,28.18,7.17,20.66,20.18,28.18l76.55,44.19a118.57,118.57,0,0,1-19-8.73L83.5,125.5C63.25,113.81,52.1,98.24,52.1,81.67S63.25,49.53,83.5,37.84Z"/><polygon class="cls-7" points="233.97 40.2 318.62 89.08 294.24 129.07 209.58 80.19 233.97 40.2"/><path class="cls-8" d="M294.24,129.07l24.38-40c19.37,11.18,30,25.9,30,41.47S338,160.83,318.62,172c-2.71,1.56-5.57,3-8.55,4.43a28.58,28.58,0,0,0,5.7-16.85C315.77,147.93,308.12,137.09,294.24,129.07Z"/><path class="cls-9" d="M84.07,40.65l.79-.46c19.84-11.45,46.31-17.76,74.55-17.76V68.18c-18.94,0-36.75,4.27-50.16,12-13.89,8-21.54,18.86-21.54,30.54a29,29,0,0,0,6.37,17.73l-9.22-5.32c-19.37-11.18-30-25.91-30-41.47C54.82,66.32,65.2,51.78,84.07,40.65Z"/><path class="cls-10" d="M159.41,22.43c28.24,0,54.72,6.31,74.56,17.77l-24.39,40c-13.42-7.74-31.23-12-50.17-12Z"/><path class="cls-6" d="M72,22C96.47,7.87,128.69.79,160.91.79s64.43,7.08,89,21.24L290.7,45.61l40.83,23.57c24.53,14.16,36.79,32.76,36.79,51.36s-12.26,37.2-36.78,51.36A135.73,135.73,0,0,1,313,180.72c17.8-10.67,26.7-24.49,26.7-38.31,0-14.15-9.32-28.29-28-39.07L269.4,78.91,227.07,54.47c-18.65-10.77-43.16-16.16-67.66-16.16s-49,5.38-67.66,16.15-28,24.92-28,39.07,9.33,28.3,28,39.07L134.08,157l42.33,24.44c1.36.78,2.77,1.53,4.19,2.26a142.63,142.63,0,0,1-27-11.83l-40.83-23.58L71.94,124.76C47.42,110.6,35.15,92,35.16,73.39S47.42,36.19,72,22Z"/><polygon class="cls-11" points="248.51 24.39 330.17 71.54 313.09 100.99 228.44 52.11 248.51 24.39"/><path class="cls-12" d="M313.09,101l17.08-29.45c22.85,13.19,35.43,30.59,35.43,49,0,17.86-11.84,34.77-33.4,47.81,6.7-7.94,10.24-16.77,10.24-25.94C342.43,126.62,332,111.91,313.09,101Z"/><path class="cls-13" d="M73.31,24.39C96.59,11,127.64,3.53,160.76,3.51L159.4,35.59c-26.06,0-50.56,5.87-69,16.52C71.47,63,61.05,77.75,61.05,93.53c0,10.66,4.75,20.84,13.67,29.68l-1.42-.81c-22.84-13.19-35.42-30.6-35.42-49S50.46,37.58,73.31,24.39Z"/><path class="cls-12" d="M160.76,3.51h.15c33.17,0,64.28,7.42,87.6,20.88L228.44,52.11c-18.46-10.65-43-16.52-69-16.52Z"/><path class="cls-14" d="M70.46,189.85,152.12,237c49.7,28.69,130.58,28.69,180.28,0,11-6.35,19.54-13.57,25.67-21.29C352.87,227.18,342.52,238,327,247c-46.71,27-122.72,27-169.44,0l-41-23.68L75.88,199.85C60.32,190.87,50,180,44.76,168.53,50.89,176.26,59.45,183.49,70.46,189.85Z"/><polygon class="cls-15" points="111.77 211.01 121.3 216.51 121.3 226.07 116.53 223.32 111.77 220.57 111.77 211.01"/><polygon class="cls-15" points="127.98 220.37 137.51 225.87 137.51 235.43 127.98 229.93 127.98 220.37"/><polygon class="cls-15" points="144.2 229.74 153.73 235.23 153.73 244.79 144.2 239.29 144.2 229.74"/><polygon class="cls-15" points="79.34 192.29 88.86 197.79 88.86 207.34 79.34 201.84 79.34 192.29"/><polygon class="cls-15" points="95.55 201.65 105.08 207.15 105.08 216.71 95.55 211.21 95.55 201.65"/><path class="cls-16" d="M59.62,130.46l84.65,48.88c54.86,31.67,144.12,31.67,199,0a113.42,113.42,0,0,0,17.37-12.2c5.57,21-5.64,43.28-33.64,59.45-46.71,27-122.72,27-169.44,0L75.88,179.44C47.26,162.91,36.18,140,42.63,118.6A113.86,113.86,0,0,0,59.62,130.46Z"/><path class="cls-16" d="M59.62,135.91l84.65,48.88c54.86,31.67,144.12,31.67,199,0a113.26,113.26,0,0,0,18.35-13c-2.26,15.75-13.79,31.14-34.62,43.16-46.71,27-122.72,27-169.44,0L75.88,167.75c-21.69-12.52-33.3-28.68-34.85-45.1A112.68,112.68,0,0,0,59.62,135.91Z"/><polygon class="cls-6" points="73.59 198.46 73.59 153.98 78.39 153.98 78.39 201.23 73.59 198.46"/><path class="cls-6" d="M292.35,260.92V214.61h2.39v45.64C294,260.48,293.15,260.71,292.35,260.92Z"/><path class="cls-6" d="M252.86,266.94V221.13h2.39V266.8C254.45,266.86,253.65,266.91,252.86,266.94Z"/><path class="cls-6" d="M211.84,265V218.85h2.4v46.46Z"/><path class="cls-6" d="M174.07,254.94V208.4h2.39v47.5C175.65,255.59,174.87,255.26,174.07,254.94Z"/><path class="cls-6" d="M157.54,247l-2.39-1.39V202.46h4.79v45.85C159.14,247.87,158.33,247.45,157.54,247Z"/><path class="cls-6" d="M60.27,174.1V144.29h2V178.2Q61.21,176.19,60.27,174.1Z"/><path class="cls-6" d="M327,247l-1.2.66V202.18h2.4v44.1Z"/><rect class="cls-6" x="232.25" y="220.54" width="2.4" height="35.96"/><rect class="cls-6" x="192.25" y="215.17" width="2.4" height="35.96"/><rect class="cls-6" x="140.3" y="192.77" width="2.4" height="35.96"/><rect class="cls-6" x="124.26" y="183.07" width="2.4" height="35.96"/><rect class="cls-6" x="108.21" y="173.37" width="2.4" height="35.96"/><rect class="cls-6" x="92.17" y="163.68" width="2.4" height="35.96"/><rect class="cls-6" x="50" y="132.69" width="2.4" height="35.96"/><rect class="cls-6" x="43.25" y="121.96" width="2.4" height="35.96"/><rect class="cls-6" x="273.08" y="218.85" width="2.4" height="35.96"/><rect class="cls-6" x="310.08" y="208.96" width="2.4" height="35.96"/><rect class="cls-6" x="339.14" y="193.42" width="2.4" height="35.96"/><rect class="cls-6" x="351.3" y="182.41" width="2.4" height="35.96"/><path class="cls-17" d="M41,122.65c1.55,16.42,13.16,32.58,34.85,45.1l81.66,47.15c46.72,27,122.73,27,169.44,0,20.83-12,32.36-27.41,34.62-43.16-.36.32,1.67-1.5,3-2.75-1.25,17.1-13.15,34-35.7,47-47.76,27.57-125.46,27.57-173.21,0L74,168.84C50.63,155.36,38.71,137.73,38.2,120,39.39,121.17,41.32,122.91,41,122.65Z"/><path class="cls-18" d="M59.62,129.73l84.65,48.88c54.86,31.68,144.12,31.67,199,0a113.23,113.23,0,0,0,18.35-13c-2.26,15.75-13.79,31.14-34.62,43.16-46.71,27-122.72,27-169.44,0L75.88,161.58C54.19,149.06,42.58,132.9,41,116.48A112.06,112.06,0,0,0,59.62,129.73Z"/><path class="cls-6" d="M59.62,138.63l84.65,48.88c54.86,31.67,144.12,31.67,199,0a123.88,123.88,0,0,0,10.85-7c-5.82,8.8-14.86,17-27.12,24.12-46.71,27-122.72,27-169.44,0L75.88,157.43c-13.74-7.93-23.43-17.32-29.08-27.31A118.8,118.8,0,0,0,59.62,138.63Z"/><path class="cls-19" d="M70.46,182.57l81.66,47.15c49.7,28.69,130.58,28.69,180.28,0,23.25-13.43,35.63-30.79,37.12-48.4,1.7,20-10.67,40.41-37.12,55.68-49.7,28.69-130.58,28.69-180.28,0L70.46,189.85C44,174.58,31.63,154.21,33.34,134.16,34.83,151.78,47.21,169.14,70.46,182.57Z"/><path class="cls-20" d="M41.26,186.51l32.32-1.91.17-.13-3.29-1.9c-32.55-18.79-43.78-45.31-33.7-69.42,2.11,2.14,4.42,4.24,6.89,6.3l-1-.85c-6.45,21.44,4.63,44.31,33.25,60.84l81.66,47.15c46.72,27,122.73,27,169.44,0,28-16.17,39.21-38.41,33.64-59.45-.25.22-.52.44-.78.65a89,89,0,0,0,6.75-6.26c9.2,23.78-2.19,49.72-34.19,68.19-47.31,27.32-122.85,28.61-172.88,3.92l0,.56,32.32,39.22-8.72,5-32.32-39.22-10.43-6-65-37.55L65.49,190l-.63-.36-32.31,1.9Z"/><polygon class="cls-21" points="42.98 197.56 32.55 191.54 64.86 189.64 65.49 190 75.3 195.66 140.33 233.21 150.76 239.23 183.08 278.45 172.64 272.42 152.01 247.38 63.61 196.35 42.98 197.56"/><path class="cls-19" d="M38.24,120.78C39.06,138.23,51,155.55,74,168.84L155.66,216c47.75,27.57,125.45,27.57,173.21,0,22.55-13,34.45-29.9,35.7-47-.52.49-.48.47.09-.09.42,18.42-11.51,36.91-35.79,50.94-47.76,27.57-125.46,27.57-173.21,0L74,172.69C49.28,158.42,37.37,139.52,38.24,120.78Z"/><polygon class="cls-22" points="75.32 165.28 157.74 212.86 157.74 198.61 75.32 151.03 75.32 165.28"/><path class="cls-4" d="M85.14,165.57l2.31,1.17a3.32,3.32,0,0,0,.31,1.16,2.54,2.54,0,0,0,1.07,1.17,1,1,0,0,0,.8.19.49.49,0,0,0,.28-.49,1.52,1.52,0,0,0-.27-.79,6.28,6.28,0,0,0-1.24-1.25,10.89,10.89,0,0,1-2.28-2.41,4,4,0,0,1-.69-2.15,1.66,1.66,0,0,1,.36-1.12,1.17,1.17,0,0,1,1-.37,5.11,5.11,0,0,1,1.93.76,7.12,7.12,0,0,1,2.3,2A5.22,5.22,0,0,1,92,166l-2.29-1.16a2.61,2.61,0,0,0-.38-1.11,2.35,2.35,0,0,0-.81-.75.84.84,0,0,0-.64-.16.36.36,0,0,0-.21.38.9.9,0,0,0,.18.49,3.7,3.7,0,0,0,.81.81A20,20,0,0,1,91,166.63a6.08,6.08,0,0,1,1,1.58,4.25,4.25,0,0,1,.31,1.52,2,2,0,0,1-.42,1.37,1.34,1.34,0,0,1-1.17.45,4.8,4.8,0,0,1-1.89-.72A7.33,7.33,0,0,1,86,168.34,6.5,6.5,0,0,1,85.14,165.57Z"/><path class="cls-4" d="M94,164.64l7.38,4.26v2.24l-2.48-1.43v6.83l-2.43-1.4v-6.83L94,166.87Z"/><path class="cls-4" d="M108.45,180.53l-2.76-1.59-.38,1.27-2.48-1.43,3-7.36,2.65,1.53,2.95,10.77-2.54-1.46Zm-.51-2.25-.86-3.76-.86,2.76Z"/><path class="cls-4" d="M113.29,175.75l3.6,2.08a7.49,7.49,0,0,1,1.73,1.33,7,7,0,0,1,1.08,1.59,7.31,7.31,0,0,1,.62,1.81,9.14,9.14,0,0,1,.2,1.87,5.52,5.52,0,0,1-.29,2.09,1.7,1.7,0,0,1-.8.88,1.46,1.46,0,0,1-1.09.09,5.88,5.88,0,0,1-1.45-.59l-3.6-2.08Zm2.42,3.45v5l.6.35a2.65,2.65,0,0,0,1.08.43.58.58,0,0,0,.5-.39,4,4,0,0,0,.19-1.47,4.83,4.83,0,0,0-.41-2.21,3.43,3.43,0,0,0-1.35-1.32Z"/><path class="cls-4" d="M123,181.35l2.44,1.41v9.07L123,190.42Z"/><path class="cls-4" d="M133.38,187.35l2.42,1.4v5.4a4.2,4.2,0,0,1-.22,1.4,1.54,1.54,0,0,1-.68.85,1.47,1.47,0,0,1-1,.19,5.07,5.07,0,0,1-1.69-.68,14.39,14.39,0,0,1-1.25-.81,6.42,6.42,0,0,1-1.14-1,6.8,6.8,0,0,1-.83-1.27,5.56,5.56,0,0,1-.52-1.34,7.92,7.92,0,0,1-.23-1.67v-5.4l2.43,1.4v5.53a2.73,2.73,0,0,0,.35,1.36,2.61,2.61,0,0,0,1,1c.42.25.75.3,1,.16s.36-.46.36-1Z"/><path class="cls-4" d="M138.48,190.29l3.19,1.85,1.23,6.23,1.22-4.82,3.2,1.85v9.07l-2-1.15V196.4l-1.53,6-1.81-1-1.52-7.81v6.92l-2-1.14Z"/><polygon class="cls-23" points="160.76 196.86 160.76 211.11 157.74 212.86 157.74 198.61 160.76 196.86"/><path class="cls-24" d="M59.62,138.63l84.65,48.88c54.86,31.67,144.12,31.67,199,0,26.59-15.36,40.29-35.39,41.1-55.55.85,21.42-12.85,43-41.1,59.32-54.86,31.67-144.12,31.67-199,0L59.62,142.4c-28.26-16.31-42-37.9-41.11-59.32C19.32,103.25,33,123.27,59.62,138.63Z"/><path class="cls-19" d="M59.62,138.63l84.65,48.88c54.86,31.67,144.12,31.67,199,0s54.85-83.21,0-114.88L258.59,23.76c-54.86-31.68-144.12-31.68-199,0S4.76,107,59.62,138.63ZM85.75,23.84C126.2.49,192,.49,232.45,23.84l84.66,48.88c40.44,23.35,40.44,61.35,0,84.69s-106.25,23.36-146.7,0L85.75,108.54C45.3,85.19,45.3,47.19,85.75,23.84Z"/><path class="cls-24" d="M317.11,77.82,232.45,28.94C192,5.59,126.2,5.59,85.75,28.94c-19.1,11-29.18,25.32-30.24,39.8-1.18-16.17,8.9-32.58,30.24-44.9C126.2.49,192,.49,232.45,23.84l84.66,48.88c21.34,12.32,31.42,28.72,30.23,44.9C346.28,103.14,336.21,88.85,317.11,77.82Z"/><path class="cls-25" d="M81.51,113.54l84.66,48.88c42.78,24.7,112.39,24.7,155.18,0s42.78-64.89,0-89.6L236.69,24c-42.78-24.7-112.4-24.71-155.18,0S38.72,88.84,81.51,113.54Zm4.24-89.7C126.2.49,192,.49,232.45,23.84l84.66,48.88c40.44,23.35,40.44,61.35,0,84.69s-106.25,23.36-146.7,0L85.75,108.54C45.3,85.19,45.3,47.19,85.75,23.84Z"/></g></g></svg>