<svg xmlns="http://www.w3.org/2000/svg" viewBox="0 0 121.64 120.95"><defs><style>.cls-1{fill:#b5b5b6;}.cls-2{fill:#898989;}.cls-3{fill:#d3d3d4;}.cls-4{fill:#87572e;}.cls-5{fill:#a86f3d;}.cls-6{fill:#522e06;}.cls-7{fill:#feecd2;}.cls-8{fill:#00a0e9;}.cls-9{fill:#006934;}.cls-10{fill:#fcd7a1;}.cls-11{fill:#2f2725;}.cls-12{fill:#595757;}.cls-13{fill:#9fa0a0;}.cls-14{fill:#3e3a39;}.cls-15{fill:#c9caca;}.cls-16{fill:#efefef;}.cls-17{fill:#ffe100;}.cls-18{fill:#2ea7e0;}.cls-19{fill:#93b4c5;}.cls-20{fill:none;}.cls-21{fill:#dcdddd;}.cls-22{fill:#e60012;}.cls-23{fill:#00913a;}.cls-24{fill:#7d7d7d;}.cls-25{fill:#2692c3;}.cls-26{fill:#86c1ea;}.cls-27{fill:#fff;}.cls-28{fill:#71451a;}.cls-29{fill:#956134;}.cls-30{fill:#5a340c;}.cls-31{fill:#7f4f21;}</style></defs><title>アセット 21</title><g id="レイヤー_2" data-name="レイヤー 2"><g id="レイヤー_1-2" data-name="レイヤー 1"><polygon class="cls-1" points="24.62 94.65 10.19 102.98 10.19 99.36 23.35 91.99 24.62 94.65"/><polygon class="cls-2" points="10.19 102.98 0 97.09 2.53 94.93 10.19 99.36 10.19 102.98"/><polygon class="cls-3" points="23.35 91.99 10.19 99.36 2.53 94.93 15.69 87.56 23.35 91.99"/><polygon class="cls-4" points="20.22 58.91 18.45 59.93 18.45 91.91 20.22 90.89 20.22 58.91"/><polygon class="cls-5" points="17.25 57.19 15.48 58.22 18.45 59.93 20.22 58.91 17.25 57.19"/><polygon class="cls-6" points="18.45 59.93 15.48 58.22 15.48 90.2 18.45 91.91 18.45 59.93"/><polygon class="cls-7" points="17.62 84.25 9.27 89.08 9.27 65.66 17.62 60.83 17.62 84.25"/><path class="cls-8" d="M15.09,65.87,15,65c-.06-.27-.19-.37-.41-.24l-.48.28v-.49l-1.32.77v.48l-.49.28a1,1,0,0,0-.41.71l-.1,1a2.48,2.48,0,0,0-.85,1.74v1l.35-.21v.39c0,.15.1.21.23.14l.27-.16a.52.52,0,0,0,.23-.4v-.39l2.85-1.65v.39c0,.15.11.21.23.14l.27-.16a.49.49,0,0,0,.23-.4v-.39l.37-.21v-1C16,66,15.58,65.72,15.09,65.87Zm-3.25,3.39c-.22.12-.4,0-.4-.23a.86.86,0,0,1,.4-.68c.21-.13.39,0,.39.22A.91.91,0,0,1,11.84,69.26Zm.43-1.93.06-.62a.61.61,0,0,1,.29-.43l1.63-.94c.16-.09.25,0,.29.09l.06.55Zm2.76.08c-.21.12-.39,0-.39-.23A.89.89,0,0,1,15,66.5c.22-.12.39,0,.39.23A.86.86,0,0,1,15,67.41Z"/><path class="cls-9" d="M12.17,72.11l-.67.38v1.94l-.38.21V72.71l-.67.39v-.29l1.72-1Z"/><path class="cls-9" d="M14.19,72.87l-.4.23-.22-.52-.76.44-.22.77-.38.23L13,71.36l.46-.27Zm-.68-.52-.2-.46c0-.12-.09-.25-.12-.37h0c0,.15-.07.34-.11.5l-.2.69Z"/><path class="cls-9" d="M16.19,71.72l-.42.24-.27-.31a2.05,2.05,0,0,1-.25-.29h0c-.06.17-.12.33-.22.55l-.25.62-.42.24L15,71.26l-.67-.71.43-.25.28.33.19.25h0c.06-.17.12-.31.19-.48l.28-.65.42-.24L15.49,71Z"/><path class="cls-9" d="M16.53,69.3l.37-.21v2.22l-.37.21Z"/><polygon class="cls-10" points="7.66 64.73 9.27 65.66 17.62 60.83 16.02 59.91 7.66 64.73"/><polygon class="cls-4" points="10.09 64.76 8.32 65.78 8.32 97.76 10.09 96.74 10.09 64.76"/><polygon class="cls-5" points="7.12 63.04 5.35 64.06 8.32 65.78 10.09 64.76 7.12 63.04"/><polygon class="cls-6" points="8.32 65.78 5.35 64.06 5.35 96.04 8.32 97.76 8.32 65.78"/><path class="cls-11" d="M101.67,91.16c2.26-1.3,4.1-.25,4.1,2.36v1.15a1.19,1.19,0,0,0-.16.08l-8,4.64V98.25A9.05,9.05,0,0,1,101.67,91.16Z"/><path class="cls-11" d="M70.29,109.28c2.26-1.3,4.09-.25,4.09,2.36v1.14L66.2,117.5v-1.13A9,9,0,0,1,70.29,109.28Z"/><path class="cls-12" d="M68,118.2a2.43,2.43,0,0,0,2.28-.29,7.45,7.45,0,0,0,3.37-5.84,2.4,2.4,0,0,0-.92-2.14l-2-1.28a2.38,2.38,0,0,0-2.42.22,7.46,7.46,0,0,0-3.37,5.84,2.36,2.36,0,0,0,1,2.21Z"/><path class="cls-13" d="M68.08,115.28c0,1.4,1,2,2.19,1.26a4.82,4.82,0,0,0,2.19-3.79c0-1.39-1-2-2.19-1.26A4.85,4.85,0,0,0,68.08,115.28Z"/><path class="cls-14" d="M68.61,115c0,1.06.74,1.49,1.66,1a3.68,3.68,0,0,0,1.66-2.87c0-1.06-.75-1.48-1.66-1A3.67,3.67,0,0,0,68.61,115Z"/><path class="cls-15" d="M69.61,114.84l-1.11.79a2.23,2.23,0,0,1-.07-.55,3.58,3.58,0,0,1,.07-.64l1.11-.48-.67-.64a4.1,4.1,0,0,1,.89-1.11l.44.92.44-1.43a1.08,1.08,0,0,1,.89.08l-.67,1.41L72,112.4a2.31,2.31,0,0,1,.07.56,3.47,3.47,0,0,1-.07.63l-1.11.49.67.64a4.44,4.44,0,0,1-.89,1.11l-.44-.93-.44,1.43a1.08,1.08,0,0,1-.89-.08Z"/><path class="cls-16" d="M69.91,114.22c0,.23.16.33.36.21a.78.78,0,0,0,.36-.62c0-.23-.16-.32-.36-.21A.79.79,0,0,0,69.91,114.22Z"/><path class="cls-12" d="M99.38,100.09a2.42,2.42,0,0,0,2.27-.3A7.42,7.42,0,0,0,105,94a2.42,2.42,0,0,0-.92-2.14l-2-1.28a2.36,2.36,0,0,0-2.41.22,7.47,7.47,0,0,0-3.38,5.85,2.32,2.32,0,0,0,1,2.2Z"/><path class="cls-13" d="M99.46,97.16c0,1.4,1,2,2.19,1.26a4.81,4.81,0,0,0,2.19-3.78c0-1.4-1-2-2.19-1.27A4.85,4.85,0,0,0,99.46,97.16Z"/><path class="cls-14" d="M100,96.86c0,1,.75,1.48,1.66,1a3.63,3.63,0,0,0,1.66-2.87c0-1.06-.74-1.48-1.66-1A3.66,3.66,0,0,0,100,96.86Z"/><path class="cls-15" d="M101,96.72l-1.1.8a1.94,1.94,0,0,1-.08-.56,2.87,2.87,0,0,1,.08-.64l1.1-.48-.67-.64a4.1,4.1,0,0,1,.9-1.11l.43.92.44-1.43a1.08,1.08,0,0,1,.89.08l-.67,1.42,1.11-.8a2.31,2.31,0,0,1,.07.56,3.47,3.47,0,0,1-.07.63l-1.11.49.67.64a4.22,4.22,0,0,1-.89,1.11l-.44-.93-.43,1.43a1.1,1.1,0,0,1-.9-.08Z"/><path class="cls-16" d="M101.29,96.11c0,.22.16.32.36.2a.78.78,0,0,0,.36-.62c0-.23-.16-.32-.36-.2A.78.78,0,0,0,101.29,96.11Z"/><path class="cls-17" d="M60.51,116.46l-1.23.37v-2.72c0-.6-.45-.66-.87-.59L57.23,113l-.9.48-4.23-2.46v-.52L46,107v.52L42.3,105.4,41.69,104l-.84-.54,0,0a4.47,4.47,0,0,1,1.35-2l7.26-4.9s3-5.83,4.31-7.75S71.66,77.63,73,77.1a2.15,2.15,0,0,1,.86-.07,38,38,0,0,1,6.71,1.81s7-3.29,10.13-4.62a3.92,3.92,0,0,1,2.89.21l16.2,9.39,0,0A.41.41,0,0,1,110,84a19.11,19.11,0,0,0-2.47,3.46c0,.25,0,1,0,1.72l-2.92,1.68a2.91,2.91,0,0,0-2.9.29,9.05,9.05,0,0,0-4.09,7.09v1.14l-23.2,13.39v-1.14c0-2.61-1.83-3.66-4.09-2.36a9,9,0,0,0-4.09,7.09v1.13l-5.69,3.29v-4.33Z"/><polygon class="cls-18" points="58.87 115.63 109.68 86.3 109.68 84.6 58.87 113.94 58.87 115.63"/><path class="cls-14" d="M111,87.15s.37,2.48-.56,3.73a13.24,13.24,0,0,1-4.7,3.79V93.52a2.89,2.89,0,0,0-1.2-2.65l6-3.44Z"/><path class="cls-19" d="M88.32,89.39l6,2.77-11,6.37-.83-5.88C84.7,91.38,86.81,90.21,88.32,89.39Z"/><path class="cls-19" d="M71,105.62s1.72-6.83,3-7.89c1.94-1.28,4.63-2.89,7.29-4.42l.55,6Z"/><path class="cls-20" d="M81.33,93.31c.38-.23.77-.45,1.15-.66l.83,5.88-1.43.82Z"/><path class="cls-21" d="M107.52,87.47A19.11,19.11,0,0,1,110,84c.59.7.55,3.42.55,3.42l-3.05,1.76C107.49,88.43,107.49,87.72,107.52,87.47Z"/><polygon class="cls-13" points="83.7 100.79 85.98 99.47 85.98 98.2 83.7 99.51 83.7 100.79"/><polygon class="cls-13" points="71.92 107.59 74.2 106.28 74.2 105 71.92 106.31 71.92 107.59"/><path class="cls-14" d="M58.19,117.16l2.32-.7v4.33c-.58.38-1.78,0-2.16-.25l-16.94-9.81a4.4,4.4,0,0,1-1.26-2c-.18-.46.62-1.13.62-1.13Z"/><polygon class="cls-22" points="40.77 103.37 41.69 103.96 42.3 105.4 46.01 107.54 46.01 110.57 40.77 107.55 40.77 103.37"/><path class="cls-22" d="M56.33,113.52l.9-.48,1.18.48c.42-.07.87,0,.87.59v3.06a2.45,2.45,0,0,1-2.13-.16l-5-2.92v-3Z"/><polygon class="cls-21" points="52.09 110.54 52.09 114.09 46.01 110.57 46.01 107.02 52.09 110.54"/><polygon class="cls-23" points="51.35 114.28 46.73 111.61 46.73 108.45 51.35 111.12 51.35 114.28"/><path class="cls-19" d="M68.66,99.72c-1.43,2.47-3.18,5.92-3.18,5.92L50.2,96.82s1.94-3.81,3.39-6.29c.44-.75,1.49-.36,1.49-.36l13.19,7.62A1.3,1.3,0,0,1,68.66,99.72Z"/><path class="cls-19" d="M75.35,77.92l13.81,8a7.25,7.25,0,0,0,2,.69,47.63,47.63,0,0,1,5.64,1.66L81.39,79.34a48,48,0,0,0-5.63-1.65S74.91,77.67,75.35,77.92Z"/><polygon class="cls-13" points="74.8 88.63 75.94 87.97 75.94 85.59 74.8 86.25 74.8 88.63"/><polygon class="cls-24" points="69.59 85.62 74.8 88.63 74.8 86.25 69.59 83.24 69.59 85.62"/><polygon class="cls-18" points="74.27 87.52 76.59 86.18 76.12 83.23 74.27 84.31 74.27 87.52"/><polygon class="cls-25" points="74.27 87.52 69.06 84.45 69.06 81.3 74.27 84.31 74.27 87.52"/><polygon class="cls-26" points="74.27 84.31 69.06 81.3 70.91 80.23 76.12 83.23 74.27 84.31"/><path class="cls-21" d="M94.46,92.54l-1.28-.46-.06-2.51.66-.1S95.41,89.94,94.46,92.54Z"/><path class="cls-13" d="M93.78,89.47a2.37,2.37,0,0,1,2,2.15s.15.78-1.29.92C94.46,92.54,95,90.53,93.78,89.47Z"/><path class="cls-27" d="M70.53,83.27,70.1,83v1.24l-.24-.14V82.88l-.43-.25v-.18l1.1.63Z"/><path class="cls-27" d="M71.83,85.26l-.25-.15-.15-.5-.49-.28-.13.34-.25-.15.49-1.14.29.17Zm-.44-.84L71.27,84c0-.11-.06-.22-.08-.32h0a2,2,0,0,1-.07.23l-.13.3Z"/><path class="cls-27" d="M73.12,86l-.27-.15-.18-.41c-.07-.15-.11-.25-.15-.36h0l-.14.19-.17.21-.27-.16.45-.47L72,83.9l.27.16.18.41c0,.12.09.21.13.32h0a1.09,1.09,0,0,1,.13-.17l.17-.21.28.16-.44.44Z"/><path class="cls-27" d="M73.33,84.7l.25.14v1.43l-.25-.14Z"/><polygon class="cls-2" points="22.29 87.16 29.12 91.11 29.12 88 22.29 84.06 22.29 87.16"/><polygon class="cls-3" points="22.29 84.06 29.12 88 35.95 84.06 29.12 80.12 22.29 84.06"/><polygon class="cls-4" points="29.12 86.24 32.85 84.08 32.85 43.1 29.12 45.25 29.12 86.24"/><polygon class="cls-1" points="29.12 91.11 35.95 87.16 35.95 84.06 29.12 88 29.12 91.11"/><polygon class="cls-6" points="25.38 84.08 29.12 86.24 29.12 45.25 25.38 43.1 25.38 84.08"/><polygon class="cls-2" points="78.47 54.73 85.3 58.67 85.3 55.57 78.47 51.62 78.47 54.73"/><polygon class="cls-3" points="78.47 51.62 85.3 55.57 92.12 51.62 85.3 47.68 78.47 51.62"/><polygon class="cls-4" points="85.3 53.8 89.03 51.65 89.03 10.66 85.3 12.82 85.3 53.8"/><polygon class="cls-1" points="85.3 58.67 92.12 54.73 92.12 51.62 85.3 55.57 85.3 58.67"/><polygon class="cls-6" points="81.56 51.65 85.3 53.8 85.3 12.82 81.56 10.66 81.56 51.65"/><polygon class="cls-28" points="21.41 42.56 52.03 60.24 121.64 20.05 91.02 2.37 21.41 42.56"/><polygon class="cls-29" points="52.03 63.05 121.64 22.86 121.64 20.05 52.03 60.24 52.03 63.05"/><polygon class="cls-30" points="21.41 45.37 52.03 63.05 52.03 60.24 21.41 42.56 21.41 45.37"/><path class="cls-30" d="M89.21,5c2.64-4.24,7.9-5.13,14-1.64s11.3,10.46,14,17.75Z"/><path class="cls-31" d="M117.11,21.1c-2.65-7.29-7.9-14.26-14-17.75C99.09,1,95.38.64,92.58,2L95.25.5c2.72-1,6.19-.53,10,1.66,6,3.49,11.31,10.45,14,17.75l-2.07,1.19h0Z"/><path class="cls-5" d="M31.33,39.83,92.94,4.17c2.57-1.42,6.09-1.19,10,1,5.18,3,9.7,8.8,12.21,15l-62.41,36L28.3,42.17A7,7,0,0,1,31.33,39.83Z"/><path class="cls-30" d="M24.49,42.35c2.65-4.23,7.9-5.13,14-1.64s11.31,10.46,14,17.75Z"/><path class="cls-31" d="M38.44,40.71c-4.07-2.35-7.77-2.7-10.57-1.4l2.67-1.45c2.72-1,6.19-.53,10,1.66C46.56,43,51.81,50,54.47,57.27L52.4,58.46C49.75,51.17,44.49,44.2,38.44,40.71Z"/></g></g></svg>