<svg xmlns="http://www.w3.org/2000/svg" viewBox="0 0 77.41 108.69"><defs><style>.cls-1{fill:#a1d086;fill-rule:evenodd;}.cls-2{fill:#040000;}</style></defs><title>アセット 135</title><g id="レイヤー_2" data-name="レイヤー 2"><g id="レイヤー_1-2" data-name="レイヤー 1"><path class="cls-1" d="M25,79.87c-3.51,5.4-9.94,5.87-15.38,2.55S1.41,72.15,2.05,65.7A21.11,21.11,0,0,1,8.19,52.87C4.67,52.48,2.11,49,1.3,45.48-.41,38,4.85,29.52,12.24,28c-2.35-3.72,1.38-9.53,5.65-8.79-1.75-5.95,2.82-12.95,8.86-13.57s11.88,5.29,11.34,11.48c4.12-3,10.26-4.61,13.94-1.06,3.93,3.77,2.35,10.37.48,15.54,4-1.95,9.12,1.47,9.89,5.93s-2,9-5.84,11.25a17,17,0,0,1,11.92,10.2c1,2.4,1.34,5.24.14,7.53-2.22,4.27-8.13,4.23-12.82,3.59,1.68,2.1,1.14,5.42-.6,7.47s-4.37,3.07-7,3.69A33.75,33.75,0,0,1,25.9,78.83Z"/><path class="cls-2" d="M26.61,80.57C20.35,88.86,8.92,84.31,5,76.21S3.59,58.89,9.65,52.69A1,1,0,0,0,9.21,51C2.68,49.67,1,42.16,2.64,36.58a15.52,15.52,0,0,1,11-10.48,1,1,0,0,0,.6-1.47,5.54,5.54,0,0,1,5.37-8,1,1,0,0,0,1-1.27C19.32,9.87,22.68,3.5,28.46,2.21,35.2.7,41.07,7,40.93,13.41a1,1,0,0,0,1.51.87c4.47-2.94,12.3-5.63,15.6.57,2.27,4.25.33,9.72-1.16,13.89A1,1,0,0,0,58.11,30a7.16,7.16,0,0,1,9.39,5.26c1.16,4.77-1.81,8.9-5.69,11.43a1,1,0,0,0,.24,1.83c5.44,1.38,10.62,5.08,12.5,10.58,3.33,9.8-5.91,11.27-13.07,10.42a1,1,0,0,0-.87,1.5c5.16,8.3-8.79,11.18-14.13,11.46A38.15,38.15,0,0,1,29,79.09a1,1,0,0,0-1.22.16l-1,1.11c-.86,1,.55,2.38,1.41,1.42,1-1.12,1.69-.16,3.14.42a33.83,33.83,0,0,0,8.17,2,38.59,38.59,0,0,0,13.92-.69c6-1.46,13.17-6.68,8.93-13.5l-.86,1.51c6.7.79,16.23.06,15.92-8.88-.27-8-7.57-14.21-14.82-16l.24,1.83c4.72-3.07,8.58-8.71,6.54-14.55A9.33,9.33,0,0,0,57.58,28l1.23,1.23c1.93-5.43,4.11-13.11-.78-17.71-4.72-4.44-11.87-2.11-16.6,1l1.5.86C43.09,6.1,36.78-.8,29.15.08S17.05,8.91,18.67,15.93l1-1.26a7.58,7.58,0,0,0-7.1,11l.6-1.47a17.56,17.56,0,0,0-13,14.41c-.87,6.13,2,13,8.52,14.37l-.44-1.67C.6,59.09-1.75,71.76,5.48,80.71c6,7.38,16.89,8.78,22.86.87C29.12,80.55,27.38,79.55,26.61,80.57Z"/><path class="cls-2" d="M33.42,42.76a156.9,156.9,0,0,1,4,64.67c-.19,1.26,1.74,1.8,1.93.53a159.23,159.23,0,0,0-4-65.73,1,1,0,0,0-1.93.53Z"/><path class="cls-2" d="M39.68,63c1.45-5.81,5.72-11,10-15,.94-.88-.48-2.29-1.42-1.41-4.57,4.23-9,9.71-10.56,15.84a1,1,0,0,0,1.93.53Z"/><path class="cls-2" d="M40.16,70.43C36.53,64.61,33.1,57.91,28.25,53c-.9-.92-2.31.49-1.41,1.41,4.7,4.79,8.07,11.38,11.6,17,.68,1.09,2.41.09,1.72-1Z"/></g></g></svg>