<svg xmlns="http://www.w3.org/2000/svg" viewBox="0 0 578.21 371.22"><defs><style>.cls-1{fill:#fccc62;}.cls-2{fill:#8eb32b;}.cls-3{fill:#ffd67d;}.cls-4{fill:#ebba4d;}.cls-5{fill:#fcc753;}.cls-6{opacity:0.1;}.cls-7{fill:#bf3519;}.cls-8{fill:#d33a1c;}.cls-9{fill:#e8dcda;}.cls-10{fill:#c7c3bb;}.cls-11{fill:#a36a4d;}.cls-12{fill:#db8e69;}.cls-13{fill:#7b4f3a;}.cls-14{fill:#6b4532;}.cls-15{fill:#915e45;}.cls-16{fill:#8a5941;}.cls-17{fill:#82543e;}.cls-18{fill:#9c948c;}.cls-19{fill:#b5aca2;}.cls-20{fill:#3dd0d4;}.cls-21{fill:#d4c9bd;}.cls-22{fill:#b1ebeb;}.cls-22,.cls-23,.cls-24{opacity:0.5;}.cls-23{fill:#9fd3d3;}.cls-24{fill:#a7dede;}.cls-25{fill:#704935;}.cls-26{fill:#85563f;}.cls-27{fill:#ffa000;}.cls-28{fill:#ff8f00;}.cls-29{fill:#ffb300;}.cls-30{fill:#e65100;}.cls-31{fill:#ff6f00;}.cls-32{fill:#ffca28;}.cls-33{fill:#bf981e;}.cls-34{fill:#616161;}.cls-35{fill:#e694e8;}.cls-36{fill:#f2cbac;}.cls-37{fill:#b493b5;}.cls-38{fill:#fecfff;}.cls-39{fill:#3286a6;}.cls-40{fill:#f2c39d;}.cls-41{fill:#8c5218;}.cls-42{fill:#704213;}.cls-43{fill:#edb084;}.cls-44{fill:#111;}.cls-45{fill:#191919;}.cls-46{fill:#224972;}.cls-47{fill:#212021;}.cls-48{fill:#401d0e;}.cls-49{fill:#357803;}.cls-50{fill:#3e8c04;}.cls-51{fill:#4ba805;}</style></defs><title>アセット 1</title><g id="レイヤー_2" data-name="レイヤー 2"><g id="_饑1" data-name="ﾑ饑1"><path class="cls-1" d="M190.09,155.73c11.71,4.51,21.46,13.5,33.16,18.36,10.39,4.31,20.2,4.81,31.13,6.15,10.53,1.29,16.95,8.31,26.48,11.5,10.2,3.41,21.41-5.48,31-8.09,10.41-2.84,21.23-1.71,31.75-3.83a78.81,78.81,0,0,0,29.83-12.73c10.3-7.17,19.28-11,31.07-15.12,4.22-1.47,9-3.18,13.63-5.3L269,60.56,129.3,141.22a67.48,67.48,0,0,0,26.91,12.19C167.25,155.66,179.6,151.68,190.09,155.73Z"/><path class="cls-2" d="M418.15,146.67c-4.64,2.12-9.41,3.83-13.63,5.3-11.79,4.13-20.77,7.95-31.07,15.12a78.81,78.81,0,0,1-29.83,12.73c-10.52,2.12-21.34,1-31.75,3.83-9.6,2.61-20.81,11.5-31,8.09-9.53-3.19-15.95-10.21-26.48-11.5-10.93-1.34-20.74-1.84-31.13-6.15-11.7-4.86-21.45-13.85-33.16-18.36-10.49-4-22.84-.07-33.88-2.32a67.48,67.48,0,0,1-26.91-12.19L0,215.86,269,371.17,538,215.86Z"/><path class="cls-1" d="M177.75,114.89s18.66-17.43,20.51-25.34,14.09-22.61,18-25.79,16.53-14.64,21-20.56S255,13.26,255.44,7.56s6-15.69,13.64,10.5,11.59,17.59,19.79,10.58,8.23,9.29,14.54,22S323.82,66,326.2,70.11s27.09,38.56,40.08,44.78l-30.73,17.74s-14.14,5.55-25.83,1.41-20.71-4.37-28.28,0-45.47,4.49-51.84-2.72-25.64-9.58-37.71-8.27Z"/><path class="cls-3" d="M366.28,114.89c-13-6.22-37.71-40.71-40.08-44.78a5.56,5.56,0,0,0-1.32-1.42l-1-.73s-11.7,18.51-11.66,29.42,11.66,26.12,6.95,38.19a49.4,49.4,0,0,0,16.4-2.94Z"/><path class="cls-4" d="M366.28,114.89c-7.74-3.71-19.65-17.45-28.51-28.82a25.78,25.78,0,0,0-2.68,6.59c-1.9,7.59,7.24,22.67,13.84,32.25Z"/><path class="cls-4" d="M329.13,74.47c-.43.56-.78,1.27-1.16,1.79-1.6,2.17-3.09,4.4-3.46,7.13A80.4,80.4,0,0,0,324,94.14c0,3.32,0,6,1.17,9.11.51,1.4.17,2.87.68,4.2,1-2.58-1.85-6.39-1.58-9.27a40.21,40.21,0,0,1,1-7.74c1.07-3.62,1-6.87,3.43-10a13.62,13.62,0,0,1,2.75-2.77l0,0C330.58,76.51,329.81,75.43,329.13,74.47Z"/><path class="cls-4" d="M261.87,2c-3.73-3.62-6.15,1.84-6.43,5.52-.45,5.7-13.79,29.73-18.22,35.64s-17.05,17.37-21,20.56-16.15,17.88-18,25.79-20.51,25.34-20.51,25.34l4.39,2.53a36.38,36.38,0,0,1,7.27-11.93A68,68,0,0,0,200.24,90a112.7,112.7,0,0,1,10.24-16.92c4.13-5.32,14.09-17.14,20.19-22.65s14.06-14,17-19.28,8.66-22.64,10.23-26.38S261.79,2,261.87,2Z"/><path class="cls-3" d="M287.44,50.09c1.44-5,.2-13-1.16-19.11-6.5,6.12-10.37,10.32-17.12-12.65-.67,7.14-2.5,19.77-7.29,26.05-6.91,9-25.61,18.89-30.73,27.36s-1.77,17.52-1.77,17.52,4.14-14.18,17.52-16.93S284.88,58.94,287.44,50.09Z"/><path class="cls-3" d="M303.41,50.61l-.21-.42c-7.54,5.23-24.1,17.27-32.88,27.85C258.7,92,263.43,101,259.1,119c0,0,5.31-18.7,15.55-29.72,8.57-9.24,32.08-21.52,44.57-24C314,62.38,307.26,58.34,303.41,50.61Z"/><path class="cls-3" d="M295.55,34.76C290.87,58,270.91,67.21,261.87,71.15S238,83.35,234.69,100.48a94.22,94.22,0,0,1-10.1,27.19,17,17,0,0,1,5,3.65c1.28,1.46,3.85,2.61,7.2,3.49,1.89-8.28,5.89-25.15,9.89-37.88,5.52-17.51,25.79-27.36,37.63-35.43S295.55,34.76,295.55,34.76Z"/><path class="cls-4" d="M231,131.32a16.69,16.69,0,0,0-5-3.65,93.62,93.62,0,0,0,10.1-27.19c3.35-17.13,18.14-25.4,27.18-29.33,8.11-3.53,25-11.3,31.78-29.63a40.73,40.73,0,0,0,.49-6.76C290.87,58,270.91,67.21,261.87,71.15S238,83.35,234.69,100.48a94.22,94.22,0,0,1-10.1,27.19,17,17,0,0,1,5,3.65c1.28,1.46,3.85,2.61,7.2,3.49l.09-.37C234.19,133.61,232.12,132.58,231,131.32Z"/><path class="cls-4" d="M214.89,124.4c-1-5.76-3.67-16-10.12-30.1,0,0,3.43,16.18,3.35,29C210.42,123.54,212.7,123.92,214.89,124.4Z"/><path class="cls-5" d="M204.77,94.3s-3.94-.91-7.09,3.81c-1.86,2.8-5.78,14.31-8.68,23.27l2.89,1.67a74.71,74.71,0,0,1,16.23.22S208.11,106.2,204.77,94.3Z"/><path class="cls-5" d="M304.07,94.3c2.07-7.11.25-14.42-6.35-8.23,0,0-15.86,13.93-23.5,26a199.37,199.37,0,0,1-19.67,25c11.39.37,23.05-.75,26.89-3,7.57-4.37,16.59-4.13,28.28,0a26.43,26.43,0,0,0,5.83,1.32,7.5,7.5,0,0,0-.55-7.42C309.68,120,302,101.41,304.07,94.3Z"/><path class="cls-3" d="M280.57,134c-3.3,1.91-12.35,3-22,3,10.06,0,19.61-1.07,23-3a24,24,0,0,1,11.89-3.18A24.33,24.33,0,0,0,280.57,134Z"/><path class="cls-3" d="M315.11,127.94c-5.32-8-13-26.53-10.93-33.64,1.6-5.51.87-11.13-2.6-10.51,2.61.53,3.05,5.57,1.62,10.51-2.07,7.11,5.61,25.66,10.92,33.64a7.42,7.42,0,0,1,.6,7.29l.94.13A7.5,7.5,0,0,0,315.11,127.94Z"/><path class="cls-4" d="M255.54,137a197.53,197.53,0,0,0,19.67-25c7.65-12,23.51-26,23.51-26A9.13,9.13,0,0,1,302,83.89c-1.17-.46-2.85.09-5.08,2.18,0,0-15.86,13.93-23.51,26a199.37,199.37,0,0,1-19.67,25c1.78.06,3.56.08,5.32.07C257.91,137.07,256.73,137.05,255.54,137Z"/><path class="cls-4" d="M310.72,134c-6.3-2.22-11.82-3.32-16.76-3.17A50,50,0,0,1,309,134a26.34,26.34,0,0,0,5.82,1.32,2.6,2.6,0,0,0,.1-.25A25.3,25.3,0,0,1,310.72,134Z"/><path class="cls-4" d="M231.14,71.74c5.12-8.47,23.82-18.31,30.73-27.36,2.62-3.44,4.35-8.78,5.5-14.09C264.8,39.69,250,52.05,239,59.93s-12,17.32-12.4,20.67,2.75,8.66,2.75,8.66S226,80.2,231.14,71.74Z"/><path class="cls-4" d="M274.65,89.26C268.38,96,264,105.64,261.47,112.09L259.1,119s11.41-20.87,15.12-26.58,21.29-15.74,27.39-17.93,15.25-8.64,15.25-8.64h0C304,69.2,282.71,80.57,274.65,89.26Z"/><path class="cls-3" d="M285.41,114.16c-2.7,6.19-10.66,17.2-14.48,22.33,4.77-.51,8.61-1.34,10.51-2.45.39-.22.79-.43,1.18-.63.84-3.45,1.86-7.85,2.79-12.27,2-9.54,9.61-24,9.61-24C293.25,98.9,289,105.89,285.41,114.16Z"/><polygon class="cls-6" points="411.34 150.33 320.1 203.01 262.91 169.99 354.15 117.31 411.34 150.33"/><polygon class="cls-6" points="472.7 186.36 381.46 239.03 324.27 206.01 415.51 153.34 472.7 186.36"/><path class="cls-7" d="M276.7,232.91c9.05,6.78,8.29,21.54-2.12,26.94-6.54,3.39-15.54-.93-22.31-2.19-10-1.87-22-7.68-27.53-16.66-7-11.47,7.94-16.49,16.37-16C253.43,225.73,266.24,225.06,276.7,232.91Z"/><path class="cls-8" d="M276.7,228.44c9.05,6.78,8.29,21.54-2.12,26.94-6.54,3.4-15.54-.92-22.31-2.19-10-1.86-22-7.67-27.53-16.66-7-11.46,7.94-16.48,16.37-16C253.43,221.27,266.24,220.6,276.7,228.44Z"/><path class="cls-9" d="M244.48,229.9a3.93,3.93,0,0,1-.52,6.57c-1.59.82-3.78-.23-5.44-.54-2.44-.45-5.36-1.87-6.71-4.06-1.72-2.79,1.94-4,4-3.9C238.81,228.15,241.93,228,244.48,229.9Z"/><polygon class="cls-10" points="268.99 371.22 0 215.88 49.3 187.39 318.38 342.68 268.99 371.22"/><path class="cls-11" d="M363.86,279c0,3.65-2.56,5.13-5.71,3.3a12.62,12.62,0,0,1-5.72-9.9c0-3.64,2.56-5.12,5.72-3.3A12.65,12.65,0,0,1,363.86,279Z"/><path class="cls-12" d="M358.15,282.06a12,12,0,0,1-5.45-9.44c0-3.47,2.44-4.88,5.45-3.15a12.09,12.09,0,0,1,5.45,9.45C363.6,282.39,361.15,283.8,358.15,282.06Zm0-12.51c-3-1.71-5.39-.32-5.39,3.11a11.92,11.92,0,0,0,5.39,9.33c3,1.71,5.38.32,5.38-3.11A11.91,11.91,0,0,0,358.15,269.55Z"/><path class="cls-12" d="M358.15,281.69a11.35,11.35,0,0,1-5.13-8.88c0-3.27,2.3-4.6,5.13-3a11.35,11.35,0,0,1,5.12,8.88C363.27,282,361,283.32,358.15,281.69Zm0-11.77c-2.8-1.61-5.07-.3-5.07,2.93a11.21,11.21,0,0,0,5.07,8.77c2.79,1.61,5.06.3,5.06-2.93A11.21,11.21,0,0,0,358.15,269.92Z"/><path class="cls-12" d="M358.15,281.43a10.84,10.84,0,0,1-4.91-8.49c0-3.12,2.2-4.39,4.91-2.83a10.86,10.86,0,0,1,4.9,8.49C363.05,281.72,360.85,283,358.15,281.43Zm0-11.25c-2.67-1.54-4.84-.28-4.84,2.8a10.69,10.69,0,0,0,4.84,8.37c2.66,1.54,4.83.29,4.83-2.79A10.72,10.72,0,0,0,358.15,270.18Z"/><path class="cls-12" d="M358.15,281a10.06,10.06,0,0,1-4.55-7.88c0-2.89,2-4.07,4.55-2.62a10.08,10.08,0,0,1,4.54,7.87C362.69,281.29,360.65,282.47,358.15,281Zm0-10.43c-2.47-1.43-4.49-.26-4.49,2.59a9.94,9.94,0,0,0,4.49,7.77c2.47,1.42,4.48.26,4.48-2.59A9.93,9.93,0,0,0,358.15,270.59Z"/><path class="cls-12" d="M358.15,280.65a9.37,9.37,0,0,1-4.23-7.32c0-2.69,1.9-3.79,4.23-2.44a9.34,9.34,0,0,1,4.22,7.32C362.37,280.9,360.48,282,358.15,280.65Zm0-9.68c-2.3-1.33-4.16-.25-4.16,2.4a9.19,9.19,0,0,0,4.16,7.2c2.29,1.33,4.16.25,4.16-2.4A9.2,9.2,0,0,0,358.15,271Z"/><path class="cls-12" d="M358.15,280.31a8.71,8.71,0,0,1-3.94-6.81c0-2.51,1.77-3.53,3.94-2.28a8.72,8.72,0,0,1,3.93,6.82C362.08,280.54,360.32,281.56,358.15,280.31Zm0-9c-2.14-1.23-3.87-.23-3.87,2.23a8.57,8.57,0,0,0,3.87,6.71c2.13,1.23,3.87.23,3.87-2.24A8.57,8.57,0,0,0,358.15,271.3Z"/><path class="cls-12" d="M358.15,280a8,8,0,0,1-3.65-6.32c0-2.31,1.63-3.26,3.65-2.1a8.08,8.08,0,0,1,3.64,6.31C361.79,280.19,360.15,281.14,358.15,280Zm0-8.34c-2-1.14-3.58-.22-3.58,2.06a7.91,7.91,0,0,0,3.58,6.2c2,1.14,3.58.21,3.58-2.07A7.9,7.9,0,0,0,358.15,271.64Z"/><path class="cls-12" d="M358.15,279.49a7.12,7.12,0,0,1-3.23-5.58c0-2.06,1.45-2.89,3.23-1.87a7.17,7.17,0,0,1,3.22,5.59C361.37,279.68,359.92,280.52,358.15,279.49Zm0-7.37c-1.75-1-3.16-.19-3.16,1.82a7,7,0,0,0,3.16,5.48c1.74,1,3.16.19,3.16-1.83A7,7,0,0,0,358.15,272.12Z"/><path class="cls-12" d="M358.15,279a6.25,6.25,0,0,1-2.84-4.91c0-1.81,1.27-2.54,2.84-1.64a6.3,6.3,0,0,1,2.83,4.92C361,279.21,359.71,280,358.15,279Zm0-6.47c-1.53-.89-2.78-.17-2.78,1.6a6.14,6.14,0,0,0,2.78,4.8c1.52.88,2.77.17,2.77-1.6A6.14,6.14,0,0,0,358.15,272.57Z"/><path class="cls-12" d="M358.15,278.28a4.83,4.83,0,0,1-2.18-3.77c0-1.38,1-1.94,2.18-1.25a4.82,4.82,0,0,1,2.17,3.76C360.32,278.41,359.34,279,358.15,278.28Zm0-4.95c-1.17-.67-2.11-.12-2.11,1.22a4.65,4.65,0,0,0,2.11,3.65c1.16.67,2.1.13,2.1-1.21A4.68,4.68,0,0,0,358.15,273.33Z"/><path class="cls-12" d="M358.15,278.63a5.47,5.47,0,0,1-2.49-4.3c0-1.58,1.12-2.22,2.49-1.43a5.49,5.49,0,0,1,2.48,4.3C360.63,278.78,359.52,279.43,358.15,278.63Zm0-5.65c-1.34-.77-2.42-.15-2.42,1.39a5.34,5.34,0,0,0,2.42,4.19c1.33.77,2.41.14,2.41-1.4A5.35,5.35,0,0,0,358.15,273Z"/><path class="cls-12" d="M358.15,277.89a4.05,4.05,0,0,1-1.84-3.18c0-1.17.82-1.65,1.84-1.06a4.06,4.06,0,0,1,1.83,3.18C360,278,359.16,278.47,358.15,277.89Zm0-4.17c-1-.56-1.78-.1-1.78,1a4,4,0,0,0,1.78,3.08c1,.56,1.77.1,1.77-1A4,4,0,0,0,358.15,273.72Z"/><path class="cls-12" d="M358.15,277.33a3,3,0,0,1-1.36-2.34c0-.86.61-1.22,1.36-.78a3,3,0,0,1,1.35,2.34C359.5,277.41,358.89,277.76,358.15,277.33Zm0-3.05c-.71-.41-1.29-.08-1.29.74a2.87,2.87,0,0,0,1.29,2.24c.71.41,1.28.07,1.28-.75A2.84,2.84,0,0,0,358.15,274.28Z"/><path class="cls-12" d="M358.15,276.92a2.18,2.18,0,0,1-1-1.73c0-.63.44-.89,1-.57a2.2,2.2,0,0,1,1,1.73C359.15,277,358.7,277.24,358.15,276.92Zm0-2.23c-.52-.3-.94-.06-.94.54a2.08,2.08,0,0,0,.94,1.62c.51.3.93,0,.93-.54A2.08,2.08,0,0,0,358.15,274.69Z"/><path class="cls-12" d="M358.15,276.64a1.67,1.67,0,0,1-.76-1.31c0-.48.34-.68.76-.44a1.71,1.71,0,0,1,.75,1.32C358.9,276.69,358.56,276.88,358.15,276.64Zm0-1.67c-.39-.22-.7,0-.7.4a1.52,1.52,0,0,0,.7,1.2c.38.22.69,0,.69-.4A1.54,1.54,0,0,0,358.15,275Z"/><path class="cls-12" d="M358.15,276.34a1.07,1.07,0,0,1-.5-.86c0-.32.22-.45.5-.29a1.12,1.12,0,0,1,.49.87C358.64,276.37,358.42,276.5,358.15,276.34Zm0-1.07c-.24-.14-.44,0-.44.25a1,1,0,0,0,.44.75c.24.14.43,0,.43-.25A1,1,0,0,0,358.15,275.27Z"/><path class="cls-12" d="M358.15,276.05a.53.53,0,0,1-.24-.42c0-.15.1-.22.24-.14a.54.54,0,0,1,.24.42C358.39,276.06,358.28,276.12,358.15,276.05Zm0-.49c-.1-.05-.18,0-.18.11a.37.37,0,0,0,.18.3c.09.06.17,0,.17-.1A.42.42,0,0,0,358.15,275.56Z"/><polygon class="cls-13" points="362.02 282.9 361.94 282.67 362.08 282.6 362.14 282.71 362.19 282.69 362.14 282.71 362.19 282.8 362.02 282.9"/><path class="cls-14" d="M362.24,282.64l117.69-67.33.05,0,0,0h0a3.32,3.32,0,0,0,1.37-1.88L363.66,280.59A3.34,3.34,0,0,1,362.24,282.64Z"/><path class="cls-15" d="M475.91,201.7a4,4,0,0,0-4.05-.4h0L354.5,268.48h0a4.33,4.33,0,0,1,3.65.59l.39.24L476.3,201.94A2.55,2.55,0,0,0,475.91,201.7Z"/><path class="cls-13" d="M481.42,209.71,363.71,277.39a8.7,8.7,0,0,1,.15,1.58,6.19,6.19,0,0,1-.2,1.62l117.73-67.21a6.44,6.44,0,0,0,.24-1.78A8.9,8.9,0,0,0,481.42,209.71Z"/><path class="cls-16" d="M476.3,201.94,358.54,269.31A12,12,0,0,1,362,273l117.49-67.8A11.38,11.38,0,0,0,476.3,201.94Z"/><path class="cls-17" d="M479.48,205.2,362,273a13,13,0,0,1,1.72,4.39l117.71-67.68A13.08,13.08,0,0,0,479.48,205.2Z"/><polygon class="cls-18" points="145.36 117.65 145.36 107 66.03 152.81 75.25 158.13 145.36 117.65"/><polygon class="cls-18" points="98.23 171.4 98.23 199.67 177.56 153.87 177.56 125.59 98.23 171.4"/><polygon class="cls-19" points="66.03 152.81 66.03 181.08 98.23 199.67 98.23 171.4 66.03 152.81"/><polygon class="cls-19" points="145.36 107 145.36 117.65 168.34 130.91 177.56 125.59 145.36 107"/><polygon class="cls-20" points="145.36 117.65 75.25 158.13 98.23 171.4 168.34 130.91 145.36 117.65"/><path class="cls-21" d="M145.36,107,66,152.81l32.2,18.59,79.33-45.81Zm-77.8,45.81,77.8-44.92L176,125.59l-77.8,44.92Z"/><polygon class="cls-22" points="324.2 339.59 54.76 184.38 48.94 187.74 318.38 342.95 324.2 339.59"/><polygon class="cls-23" points="48.86 71.66 48.86 187.67 54.68 184.31 54.68 68.3 48.86 71.66"/><polygon class="cls-24" points="318.39 226.94 48.94 71.73 48.94 187.74 318.39 342.95 318.39 226.94"/><polygon class="cls-22" points="324.2 223.57 54.76 68.36 48.94 71.72 318.38 226.94 324.2 223.57"/><polygon class="cls-23" points="318.39 226.89 318.39 342.9 324.21 339.54 324.21 223.53 318.39 226.89"/><path class="cls-16" d="M267.18,119.57v49.14a3.4,3.4,0,0,0,2,2.79,10.68,10.68,0,0,0,9.66,0,3.4,3.4,0,0,0,2-2.79V119.57Z"/><path class="cls-12" d="M278.84,122.36a10.68,10.68,0,0,1-9.66,0c-2.66-1.54-2.66-4,0-5.58a10.68,10.68,0,0,1,9.66,0C281.5,118.32,281.5,120.82,278.84,122.36Z"/><path class="cls-16" d="M310.85,146.7v49.14a3.4,3.4,0,0,0,2,2.78,10.66,10.66,0,0,0,9.65,0,3.38,3.38,0,0,0,2-2.78V146.7Z"/><path class="cls-12" d="M322.5,149.48a10.66,10.66,0,0,1-9.65,0c-2.67-1.54-2.67-4,0-5.57a10.66,10.66,0,0,1,9.65,0C325.17,145.45,325.17,147.94,322.5,149.48Z"/><path class="cls-16" d="M394.06,102.16V151.3a3.41,3.41,0,0,0,2,2.79,10.72,10.72,0,0,0,9.65,0,3.39,3.39,0,0,0,2-2.79V102.16Z"/><path class="cls-12" d="M405.71,104.94a10.66,10.66,0,0,1-9.65,0c-2.66-1.54-2.66-4,0-5.57a10.66,10.66,0,0,1,9.65,0C408.38,100.91,408.38,103.4,405.71,104.94Z"/><polygon class="cls-15" points="411.34 98.78 320.1 151.46 262.91 118.44 354.15 65.76 411.34 98.78"/><polygon class="cls-25" points="411.34 103.64 320.1 156.32 320.1 151.45 411.34 98.78 411.34 103.64"/><polygon class="cls-26" points="262.91 118.43 320.1 151.45 320.1 156.32 262.91 123.3 262.91 118.43"/><path class="cls-16" d="M328.54,183.54v21.35a3.4,3.4,0,0,0,2,2.79,10.66,10.66,0,0,0,9.65,0,3.4,3.4,0,0,0,2-2.79V183.54Z"/><path class="cls-12" d="M340.2,186.32a10.66,10.66,0,0,1-9.65,0c-2.67-1.54-2.67-4,0-5.57a10.66,10.66,0,0,1,9.65,0C342.86,182.29,342.86,184.78,340.2,186.32Z"/><path class="cls-16" d="M372.21,210.66V232a3.4,3.4,0,0,0,2,2.78,10.66,10.66,0,0,0,9.65,0,3.38,3.38,0,0,0,2-2.78V210.66Z"/><path class="cls-12" d="M383.86,213.45a10.66,10.66,0,0,1-9.65,0c-2.67-1.54-2.67-4,0-5.57a10.66,10.66,0,0,1,9.65,0C386.53,209.41,386.53,211.91,383.86,213.45Z"/><path class="cls-16" d="M455.42,166.12v21.36a3.41,3.41,0,0,0,2,2.79,10.74,10.74,0,0,0,9.66,0,3.41,3.41,0,0,0,2-2.79V166.12Z"/><path class="cls-12" d="M467.08,168.91a10.68,10.68,0,0,1-9.66,0c-2.66-1.54-2.66-4,0-5.57a10.68,10.68,0,0,1,9.66,0C469.74,164.87,469.74,167.37,467.08,168.91Z"/><polygon class="cls-15" points="472.7 162.75 381.47 215.43 324.27 182.41 415.51 129.73 472.7 162.75"/><polygon class="cls-25" points="472.7 167.61 381.46 220.29 381.46 215.42 472.7 162.75 472.7 167.61"/><polygon class="cls-26" points="324.27 182.4 381.46 215.42 381.46 220.29 324.27 187.27 324.27 182.4"/><path class="cls-6" d="M336.82,133.34c-9.09,5.24-23.82,5.24-32.91,0l-8.47-4.89c-9.09-5.25-9.09-13.76,0-19l44.27-25.57c9.09-5.24,23.83-5.24,32.91,0l8.47,4.89c9.09,5.25,9.09,13.76,0,19Z"/><path class="cls-27" d="M370.06,62.24a10.45,10.45,0,0,0,.07-8.52c-4-9.32.71-14.91.29-17.83-1.08-7.45-32.11-3.95-32.15,1.72-.16,22.73,17.43,17.16,17.86,22.11.41,4.65-4.31,18.33-4.77,21.24C350,82.51,346,82.87,345.22,85s4.65,9.83,11.88,7.2,7.46-4.6,7.3-8.19C364,75.72,367.78,67.08,370.06,62.24Z"/><path class="cls-28" d="M349.83,84.75a7.23,7.23,0,0,0-4.27,2.34,8.08,8.08,0,0,0,.77,1.33A17,17,0,0,1,349.83,84.75Z"/><path class="cls-28" d="M350.63,87c-1.09.3-2.36,1.65-3.33,2.61a11.14,11.14,0,0,0,1.18,1.07A7.66,7.66,0,0,1,350.63,87Z"/><path class="cls-28" d="M353.61,88.17c-.68,0-2.48,2.4-3.76,3.44a8.75,8.75,0,0,0,2.44.93C353,90.54,353.61,88.17,353.61,88.17Z"/><path class="cls-27" d="M378.73,19.09C380.5,15,394.31,4.9,399.49,12.4S396.23,35.73,398,44.78A54.07,54.07,0,0,0,402.49,59s-8-10.08-8-16.7c0-8.44,6.43-25.4,2.2-28S384.58,16.12,381.52,23,378.73,19.09,378.73,19.09Z"/><path class="cls-27" d="M310.18,115.46c2.24-8.13,4.19-46.41,3.29-52.63-1.08-7.44,2.33-18.34-15.92-20.09-5-.47-12.4,1.32-12.52,7,0,2.17,3.5,14.75,7,20.67.61,9.95,1.58,22.08,2.39,26.61a74.38,74.38,0,0,1,.34,17c-1.41,1.55-5.32,1.91-6.14,4.06s4.64,9.83,11.87,7.19,10.1-6.23,9.68-9.79Z"/><path class="cls-28" d="M293.23,117.79a7.24,7.24,0,0,0-4.26,2.35,7.62,7.62,0,0,0,.77,1.32A17,17,0,0,1,293.23,117.79Z"/><path class="cls-28" d="M294,120.05c-1.09.3-2.36,1.65-3.34,2.6a11.24,11.24,0,0,0,1.19,1.08A7.58,7.58,0,0,1,294,120.05Z"/><path class="cls-28" d="M297,121.22c-.68,0-2.48,2.4-3.76,3.44a9.28,9.28,0,0,0,2.44.93C296.38,123.59,297,121.22,297,121.22Z"/><path class="cls-27" d="M283.68,47.62a14,14,0,0,1,18.85-12.68c9.9,3.61,21.3,6,29.94,2.47,15.12-6.1,23.88-14.82,33.78-18.45s21.66-.68,26.2,13.47-13.59,44.78-46.51,51.68-59.46-13.42-62.46-23.55C283.3,60,283.44,54.21,283.68,47.62Z"/><path class="cls-29" d="M381.51,19.1A20.29,20.29,0,0,0,366.25,19c-9.9,3.63-16.92,6.05-32,12.15s-36.53-11.35-45.76-16.47c0,0-4.34,11.22-6.55,14.3,0,0,40.28,31.11,57.05,30C355,57.83,384.45,36.14,381.51,19.1Z"/><path class="cls-28" d="M361.8,50c-5.14,5.19,2.8,18.38-.46,22.78s-34.26,9.09-38.66,8.17S305,80.55,304,76.38,298.12,60.76,297.69,63s-.68,9.6,0,12.48C299.4,76.65,313,91,345.94,84.11c11-2.3,23.24-9.57,30.63-15.65C374.94,64.11,361.8,50,361.8,50Z"/><path class="cls-27" d="M332.77,127.29c2.25-8.13,4.19-46.42,3.29-52.63-1.08-7.45,1.3-16.27-16.94-18-5-.48-11.37-.76-11.5,4.92,0,2.17,8.6,47.12,9.4,51.64a41.36,41.36,0,0,1,.34,12.63c-1.41,1.55-5.32,1.91-6.14,4.06s4.65,9.83,11.88,7.2,10.09-6.24,9.67-9.8Z"/><path class="cls-28" d="M315.83,129.62a7.23,7.23,0,0,0-4.27,2.34,8.08,8.08,0,0,0,.77,1.33A17,17,0,0,1,315.83,129.62Z"/><path class="cls-28" d="M316.63,131.87c-1.09.3-2.36,1.65-3.34,2.61a12.36,12.36,0,0,0,1.19,1.07A7.66,7.66,0,0,1,316.63,131.87Z"/><path class="cls-28" d="M319.61,133c-.68,0-2.48,2.4-3.76,3.44a9.09,9.09,0,0,0,2.44.94C319,135.41,319.61,133,319.61,133Z"/><path class="cls-27" d="M393.59,74.16a10.48,10.48,0,0,0,.07-8.53c-4-9.31.71-14.9.29-17.83-1.08-7.44,3.68-18.24-12.44-28.7-5-.48-19.67,24.76-19.71,30.43-.17,22.73,17.42,17.16,17.86,22.11.41,4.65-4.31,18.33-4.77,21.24-1.41,1.55-5.32,1.91-6.14,4.06s4.64,9.83,11.87,7.2,7.47-4.6,7.31-8.19C387.56,87.64,391.31,79,393.59,74.16Z"/><path class="cls-28" d="M373.35,96.67A7.18,7.18,0,0,0,369.09,99a7.62,7.62,0,0,0,.77,1.32A16.61,16.61,0,0,1,373.35,96.67Z"/><path class="cls-28" d="M374.16,98.92c-1.09.3-2.36,1.65-3.34,2.6A11.24,11.24,0,0,0,372,102.6,7.58,7.58,0,0,1,374.16,98.92Z"/><path class="cls-28" d="M377.14,100.09c-.68,0-2.48,2.4-3.76,3.44a8.94,8.94,0,0,0,2.44.93C376.5,102.46,377.14,100.09,377.14,100.09Z"/><path class="cls-30" d="M273.72,8.25C268,17.05,256.35,24.42,257.41,29s-2.53,26.33-.81,32.46C264.23,88.5,295.68,88.63,299.44,81s7.44-11.65,12.86-13.78S326.44,45,326.07,40.17,322.79,20.29,316,13.27,285.39-9.73,273.72,8.25Z"/><path class="cls-31" d="M324.53,31.49C323,25.27,320.25,17.68,316,13.27,312.19,9.4,303.27,2.8,294.07.68c-3.54.86-3.69,1.25-8.24.54-5.63-.88-3.79,1.56-6.5,3.56a37.29,37.29,0,0,0-5.82,5.37c-2.12,2.23,2,4.95-2.92,9.61s-10.87,9-8.73,11.35,2.52,4.08-1.45,9.81-2.72,5-1.37,7.37,4.66-4.66,2.82,2.05-.58,11.64-.68,13.35,3.78,0,9.77,1.68.52,6.22,2.56,9.61,3.78-1.75,8.73-4.36,3.69,7,7.32,9.6,4-3.59,4.91-15.43,6.21-1.75,9.31,1.67,5.93-2.44,5.34-8.17-1.16-8,2.62-12.18,7.77,4.12,9.71,2.86.48-9.31.55-13.75A4.08,4.08,0,0,1,324.53,31.49Z"/><path class="cls-29" d="M270.66,24.89c-1.6,5.3-1,13.11-1.94,16.49s-2.48,11.32,5.92,14.35c8.62,3.1,8.91-2.84,15.81-9.88s8.09-12.34,8.18-15.07-7.84-17-8.48-19.36S286.09,9,285.06,9.31,272.16,19.91,270.66,24.89Z"/><path class="cls-32" d="M274.21,45.27c2.42.61,5.2,1.16,6.06.6s2.68-3.94,2.81-5.19.58-13.48-.11-16.18-11.44,11.77-11.85,13.13-.85,4.93-.22,5.71A9,9,0,0,0,274.21,45.27Z"/><path class="cls-33" d="M282.83,51.4c-4,1.12-7.52-3.16-8.32-4.2l1.28-4.06a.57.57,0,0,0-.38-.73h0a.58.58,0,0,0-.73.38l-1.27,4.06a13.61,13.61,0,0,1-5.38.61,9.45,9.45,0,0,0,.16,1.19,14.7,14.7,0,0,0,5.48-.66,13.06,13.06,0,0,0,5.81,4.46,6.44,6.44,0,0,0,3.7.09.58.58,0,0,0,.4-.72A.6.6,0,0,0,282.83,51.4Z"/><path class="cls-34" d="M272.6,38.79c.76-1.21,8.17,1.33,8.6,2.6s-3,4.32-6.47,3.1A3.84,3.84,0,0,1,272.6,38.79Z"/><path class="cls-34" d="M284.29,32.91a3.69,3.69,0,0,1,5.27-2.28S289.3,34.43,284.29,32.91Z"/><path class="cls-34" d="M274.56,31.11a3.69,3.69,0,0,0-1.9-5.42S270.05,28.45,274.56,31.11Z"/><path class="cls-31" d="M399.5,53.46c-1.08.88-1.6,4.46,0,6.75s5.45,2.38,5.78,5.71a15.79,15.79,0,0,0-.54-7.73C403.36,54.62,401,52.22,399.5,53.46Z"/><path class="cls-35" d="M105.38,182.43c1.21-3.58,2.65-6.65,4.13-7,0,0,2.91-.57,2.35,2.67-.27,1.56-1.66,4.48-3,7.55A14.87,14.87,0,0,1,105.38,182.43Z"/><path class="cls-36" d="M102.4,193.59c.48-2.1,1.57-7,3-11.16a14.87,14.87,0,0,0,3.47,3.21c-1.44,3.3-2.82,6.78-2.68,9,.25,3.82,7.48,12.72,7.48,12.72s-.91,2.51-2.72,1.51C110.93,208.84,101.48,197.65,102.4,193.59Z"/><path class="cls-36" d="M118,253.78a5.11,5.11,0,0,0-1.54-1.11c-.86-.51-1.49-7.41-1.49-7.41l-3.39-.41.26,2.21,3.32,6.23S117.76,254.47,118,253.78Z"/><path class="cls-37" d="M116.56,255.78s-2.71-.22-3.51-1.19-.94-5.68-.94-5.68l1,.42Z"/><path class="cls-38" d="M111.61,245.83a1.66,1.66,0,0,1,2.59,0c1.19,1.49.89,6.46,2.38,7.06s2.39,1.79,1.39,2.38-1.76.86-3-.33-2-5.73-2.51-5.73v7.26a.52.52,0,0,1-.8,0s.1-6.22,0-6.71A4.45,4.45,0,0,1,111.61,245.83Z"/><path class="cls-36" d="M114.94,245.26s.93-13.28.63-17.38-1.83-16.38-1.83-16.38l-5.94,3.89s3.44,10.76,3.61,13,.14,16.47.14,16.47Z"/><path class="cls-36" d="M126.58,255.62a5.11,5.11,0,0,0-1.54-1.11c-.86-.51-1.49-7.41-1.49-7.41l-3.39-.41.26,2.21,3.32,6.23S126.37,256.31,126.58,255.62Z"/><path class="cls-37" d="M125.17,257.62s-2.71-.22-3.51-1.19-.94-5.68-.94-5.68l1,.43Z"/><path class="cls-38" d="M120.22,247.67a1.66,1.66,0,0,1,2.59,0c1.19,1.49.89,6.46,2.38,7.06s2.39,1.79,1.39,2.39-1.76.85-3-.34-2-5.73-2.51-5.73v7.26a.52.52,0,0,1-.8,0s.1-6.22,0-6.71A4.45,4.45,0,0,1,120.22,247.67Z"/><path class="cls-36" d="M123.55,247.1s.48-15.89.35-17.9-1.39-11.65-1.39-11.65l-8.86-6.31s5.28,16.38,5.47,18.31,1,17.14,1,17.14Z"/><path class="cls-39" d="M119,176.72s-3.13,2.19-5.73,1.09-2.41-3-2.41-3-3.68.51-3.81,7,5.75,10.64,1.5,21.79c-8,21-5.36,50.07-5.36,50.07,7.62,6.41,21.92,4.91,26,0,0,0,2.42-18.47-5.27-40.84a92.82,92.82,0,0,1-2.82-9.55c-.55-5-1-10.27,1.26-13.23C125.11,186.57,124.14,179.5,119,176.72Z"/><path class="cls-40" d="M113.28,177.81c2.6,1.1,5.73-1.09,5.73-1.09-1.81-1.07-2.31-5-2.31-5l-4.54.92a3.65,3.65,0,0,1-1.29,2.13S110.68,176.72,113.28,177.81Z"/><path class="cls-36" d="M121.06,160.65c-1.5-4.07-6.79-2.85-8.1-.91s-3.08,8.62-.47,14.12l4.28-.87s0,.14,0,.36a6.27,6.27,0,0,0,2.67-1.59C121.87,169.27,122.57,164.72,121.06,160.65Z"/><path class="cls-36" d="M146.83,203.25c.08-.29-4.21-1.17-4.21-1.17s2.75.54,2.84.29-2.35-.91-3.51-.94a5.86,5.86,0,0,1-1-.14c-.22-.06-12-3-13.8-6.35-1.15-2.12-2.28-6.58-3.36-10.37a28.55,28.55,0,0,0-2-5.66c-2.12-3.51-4.34-.92-4.34-.92-1,1.2,0,4.59,1.36,8.24,1.65,4.22,4,8.79,4.86,10.75,1.72,3.77,16.85,6.83,16.88,6.83l.47.23a12.88,12.88,0,0,0,2.95,1c.45.15,1-.09.66-.23s-1.86-.6-1.86-.6a4.67,4.67,0,0,1,1.12.28c.93.29,1.86.36,1.92.17a16.07,16.07,0,0,0-2.82-1.08s1,.18,1.9.44,1.53.32,1.61.12c.16-.37-3.08-1.12-3.08-1.12a12.48,12.48,0,0,1,1.72.27C145.87,203.47,146.71,203.7,146.83,203.25Z"/><path class="cls-41" d="M121.74,160.3c-.24-1.37-4.57-4.1-7.75-2.47s-6.46,3.7-7.21,10.85-1,11.65-4.2,18,9.55,9.61,9.55,9.61,9.14,1.48,9.32-4-.72-9.39-1.06-15.92c-.11-1.93-.38-4.56-.45-8.75a12.83,12.83,0,0,1,1-5.08C121.4,161.91,122,161.67,121.74,160.3Z"/><path class="cls-42" d="M118.86,192.44c.63-5.82,0-10,.17-16.92,0-2,0-4.85.25-9.28a13.4,13.4,0,0,1,1.49-5.29,5.87,5.87,0,0,0,.83-1,1.11,1.11,0,0,1,.14.35c.24,1.37-.34,1.61-.78,2.26a12.83,12.83,0,0,0-1,5.08c.07,4.19.34,6.82.45,8.75.34,6.53,1.23,10.41,1.06,15.92-.16,4.87-7.3,4.29-9,4.08C115.22,196.43,118.5,195.76,118.86,192.44Z"/><path class="cls-6" d="M141.44,264.13c5.26-3,13.79-3,19.06,0a8.35,8.35,0,0,1,3.43,3.37c4.57-.76,9.7-.11,13.3,2,5.26,3,5.26,8,0,11s-13.8,3-19.06,0a8.4,8.4,0,0,1-3.44-3.38c-4.57.76-9.69.11-13.29-2C136.17,272.09,136.17,267.16,141.44,264.13Z"/><path class="cls-43" d="M179.38,181.5s1.51-3.86,2.16-5.25,2-3.56,2.54-3.16c.28.19-.64,1.44-1.32,2.7,0,0,2-3,2.64-2.93s.31.68-.18,1.19-1.41,1.68-1.83,2.21,2.66-2.91,3.25-2.91.43.63-.09,1.09-2.19,2.35-2.19,2.35,3.1-2.74,3.55-2c.26.41-.87,1.21-1.91,1.94a8.22,8.22,0,0,0-1.9,2.13s2.49-1.17,2.82-.72-1,1-1.75,1.33a7.75,7.75,0,0,0-3.72,3.18Z"/><path class="cls-44" d="M158.23,183.16s-3.59-2.54-5.45-.1c-3,3.92,1.13,6.32,3.87,8,2.49,1.49,10.51,7.24,13.17,5.95,4.36-2.11,13.62-16.14,13.62-16.14s-1.23-2.28-3.07-2.46c0,0-9.94,10.08-11.72,13.1Z"/><path class="cls-45" d="M172.84,271.48s3.08-.42,4.24,1.28-.64,4.87-3.2,5.5a23.26,23.26,0,0,1-3.78.71l-.67-.31-.65.62a3.71,3.71,0,0,1-3.78-1.14c-1.5-1.82.26-3.4.71-3.85S172.84,271.48,172.84,271.48Z"/><path class="cls-45" d="M165.14,277.68a3.71,3.71,0,0,0,3.78,1.14l.65-.62.67.31a23.26,23.26,0,0,0,3.78-.71,5,5,0,0,0,3.34-3.09,5,5,0,0,1-3.48,3.55,23.26,23.26,0,0,1-3.78.71l-.67-.31-.65.62a3.71,3.71,0,0,1-3.78-1.14,2.16,2.16,0,0,1-.42-2.34A2.18,2.18,0,0,0,165.14,277.68Z"/><path class="cls-45" d="M150.62,264.33s3.11-.11,4.1,1.69-1.13,4.79-3.74,5.16a23.59,23.59,0,0,1-3.84.33l-.63-.38-.71.55a3.71,3.71,0,0,1-3.65-1.51,3.19,3.19,0,0,1,.41-4.15C143.06,265.63,150.62,264.33,150.62,264.33Z"/><path class="cls-45" d="M142.33,269.72a3.75,3.75,0,0,0,3.66,1.52l.71-.55.63.37a24,24,0,0,0,3.83-.32,5,5,0,0,0,3.63-2.74,5,5,0,0,1-3.81,3.18,23.51,23.51,0,0,1-3.83.33l-.64-.38-.71.55a3.71,3.71,0,0,1-3.65-1.51,2.83,2.83,0,0,1-.45-2.64A3.12,3.12,0,0,0,142.33,269.72Z"/><path class="cls-46" d="M161.8,223.08s3.31,22.49-.89,29.39-11.18,18-11.18,18a6,6,0,0,1-7.17-4.41s11.34-15.82,11-22.54-2.26-21.86-2.26-21.86Z"/><path class="cls-46" d="M172.13,220.77s6.05,19.2,5.32,29.54-3.83,25.41-3.83,25.41-3.88,3.45-8.67-.26c0,0,3.32-21,3.32-26.49s-7.42-22.25-7.42-22.25l-3-5.47Z"/><path class="cls-47" d="M158.6,182.33s-4-.75-5.8,1.17c-2.2,2.32-2.08,9.95-1.39,15.43,1.32,10.32-.95,24-.95,24a23.52,23.52,0,0,0,9.34,4.09c9.39,1.89,14.59-.62,14.59-.62s-2.62-10.64-1.94-20.61c.39-5.72,2.92-14.88-1-17.82a41.68,41.68,0,0,0-6.71-3.88Z"/><path class="cls-43" d="M166.29,183.35c0,.76,1.06,2,2.3,2.8,0,0-7.23,1.42-10-3.82a3.74,3.74,0,0,0,2.83-.63c.49-.3.58-1.66.58-1.66l4.68,1.21A19,19,0,0,0,166.29,183.35Z"/><path class="cls-43" d="M169.12,171.44s2.24,5.86.24,10.08c-1.48,3.1-2.7,2.47-6.46,1.92s-1.77-7.29-1.77-7.29l3.81-4Z"/><path class="cls-48" d="M169.19,174c.6-.38,2.18-.51,2.55-1.06.61-.91-1.06-2.49-2.66-3.5-2.31-1.47-6.24-1.71-8.48.24-3,2.57-3.91,8.07-2.77,11.29s5.07,3.54,6.56,2.24.66-4.39,2.31-6.7S168.15,174.59,169.19,174Z"/><path class="cls-43" d="M166.77,177.39s-.94-1.57-1-.35c-.33,3.9.49,2.06.38,2.39S166.77,177.39,166.77,177.39Z"/><path class="cls-43" d="M194.39,188.13s3-2.81,4.11-3.92,2.6-3.1,2-3.51c-.27-.19-1.11,1.12-2,2.21,0,0,2.13-2.93,1.78-3.53s-.75,0-1,.6-1.06,1.93-1.4,2.51,1.75-3.53,1.54-4.08-.75-.17-1,.48-1.39,2.89-1.39,2.89,1.43-3.88.62-4.05c-.48-.1-.81,1.25-1.11,2.48a8.21,8.21,0,0,1-1.3,2.54s.19-2.74-.35-2.88-.59,1.27-.61,2.11a7.69,7.69,0,0,1-1.61,4.62Z"/><path class="cls-44" d="M171.82,188.23s-3.59-2.54-5.45-.1c-3,3.93,1.13,6.32,3.87,8,2.49,1.49,10.51,7.25,13.17,6C187.77,199.94,197,185.9,197,185.9s-1.23-2.28-3.07-2.46c0,0-9.94,10.09-11.72,13.1Z"/><path class="cls-49" d="M515.06,165.38c5,1.29,13.15,2.51,20.06,3.45s12.55,1.59,12.55,1.59c-2.69-.92-11.14-2.53-18.92-3.87s-14.9-2.44-14.9-2.44c7.66,1,16.27,1.42,23,1.65s11.47.23,11.47.23c-2-.63-10.73-1.49-18.92-2.05s-15.86-.85-15.86-.85c2.84-.09,6.3-.31,9.88-.56l10.67-.78,8.52-.61,3.49-.23c-3.31-.49-11.72-.46-19.29-.1-3.79.18-7.39.42-10,.63s-4.32.36-4.32.36a78,78,0,0,0,8.45-1.44c3.16-.67,6.46-1.46,9.52-2.17l11-2.63a43.91,43.91,0,0,0-6.63.35c-2.69.3-5.75.77-8.75,1.31-6,1.07-11.73,2.47-13.87,3a43,43,0,0,0,6.93-2.78c2.38-1.15,4.76-2.44,6.86-3.63s4-2.28,5.28-3.08l2.12-1.29a24.51,24.51,0,0,0-7.42,1.55c-1.32.47-2.65,1-4,1.59s-2.56,1.22-3.76,1.86c-2.41,1.28-4.52,2.58-6,3.57s-2.43,1.66-2.43,1.66a46.24,46.24,0,0,0,4.31-4.45c1.48-1.67,2.91-3.46,4.23-5.07.65-.8,1.25-1.57,1.8-2.27s1-1.32,1.45-1.85l1.29-1.7c-4.08,1.64-7.94,5.26-10.66,8.55-.69.82-1.31,1.61-1.86,2.35s-1,1.4-1.38,2c-.76,1.13-1.18,1.85-1.18,1.85a52.66,52.66,0,0,0,3.39-13.43,25,25,0,0,0,.16-5.18,30.19,30.19,0,0,0-2.15,4.67,49.9,49.9,0,0,0-2.83,13.65s-.12-.84-.4-2.21c-.13-.68-.3-1.5-.51-2.41s-.44-1.92-.72-3c-1.12-4.27-2.76-9.48-5.33-13.17l.37,2.28c.12.7.27,1.53.44,2.46s.39,2,.62,3a72.48,72.48,0,0,0,3.76,12.64s-.62-1-1.66-2.54c-.52-.77-1.15-1.7-1.86-2.72s-1.47-2.13-2.3-3.29c-1.67-2.31-3.53-4.8-5.45-7a29.17,29.17,0,0,0-5.72-5.37s.46,1,1.26,2.55,2,3.72,3.38,6a76.81,76.81,0,0,0,4.77,7,34.79,34.79,0,0,0,5.28,5.57l-11.39-8.91c-2.59-2-5.27-4.14-7.67-5.92a50.06,50.06,0,0,0-5.95-4s.95,1,2.5,2.53,3.74,3.63,6.18,5.83,5.17,4.5,7.79,6.52a58,58,0,0,0,7.18,4.89L497,157.38l-9.07-4.92c-6.89-3.72-14.46-7.92-17.63-9l3,2c1.85,1.2,4.41,2.84,7.33,4.61s6.15,3.66,9.3,5.4,6.24,3.33,8.81,4.51l-14.94-5.48c-7.71-2.81-15.93-5.81-18.08-6,0,0,4.32,2.16,10.51,4.75a168.35,168.35,0,0,0,21.77,7.49s-7-1.59-14.79-3.22-16.22-3.29-19.11-3.32c0,0,5.69,1.61,12.67,3.33a203.25,203.25,0,0,0,20.39,4.17s-6.16-.5-13.15-.77-14.81-.28-18.13.5l12.87.68c6.83.33,14.45.69,17.65.54,0,0-5.45.49-11.76,1.35s-13.42,2.11-16.78,3.21l11.15-1.1c6-.61,12.85-1.29,16.24-2,0,0-1.2.36-3,1s-4.33,1.44-6.87,2.41c-5.12,1.91-10.49,4.36-11.71,5.82l3.07-1.12c1.86-.67,4.36-1.57,7-2.45,5.21-1.78,10.76-3.52,12.19-4,2.82-.91,8.35-1.12,8.1.16a24.6,24.6,0,0,0-.28,2.69h0l-.33,2.05c-.1.66-.23,1.45-.38,2.36l-.44,3.07c-.64,4.5-1.38,10.51-1.89,16.55s-.83,12.08-1,16.62c-.08,2.27-.1,4.17-.12,5.49s0,2.08,0,2.08h1.85s0-.74,0-2,0-3.16.12-5.4c.14-4.46.42-10.41.94-16.34s1.22-11.84,1.84-16.26c.16-1.11.3-2.12.43-3s.27-1.67.37-2.32c.2-1.28.32-2,.32-2,.3-.94.76-2.31.91-3.09.25-1.27,5.32.89,7.63,2.61,1.13.87,5.78,4.2,10.14,7.15s8.53,5.57,8.53,5.57c-.75-1.42-5.53-4.82-10-8l-8.79-6.16A134.89,134.89,0,0,0,529,174.4c5.81,2.33,10.89,4.14,10.89,4.14-2.84-1.71-9-4.57-14.44-7.1l-10.11-4.7c2.92,1.25,10,3.34,16.3,5.07s11.94,3.11,11.94,3.11c-2.87-1.53-10-3.86-16.4-5.88S515.06,165.38,515.06,165.38Z"/><path class="cls-50" d="M524.74,112c4,3.35,11.32,7.15,17.63,10.17S554,127.4,554,127.4c-1.91-2.27-9.22-6.81-16.06-10.76s-13.23-7.29-13.23-7.29A77.2,77.2,0,0,0,536,113.59c3.91,1.16,7.81,2.07,11.27,2.77l2.51.5,2.32.38c1.48.23,2.79.41,3.88.55,2.18.29,3.49.4,3.49.4-1.52-1.58-10.1-4.24-18.26-6.55s-15.92-4.27-15.92-4.27c3.06.34,6.92.51,11,.58,2,0,4.14,0,6.21,0l3.1-.07,3-.16c2-.11,3.87-.24,5.59-.37s3.28-.34,4.6-.5c2.62-.31,4.25-.55,4.25-.55-1.61-.56-4.82-.82-8.7-1l-6.18-.19c-2.15-.06-4.35-.11-6.5-.14-4.27-.1-8.34-.16-11.34-.19s-4.91,0-4.91,0c5.29,0,14.7-2.15,23-5,1-.36,2.06-.71,3.05-1.07s1.95-.76,2.87-1.14L557,96.46l1.19-.51,1.11-.52c2.82-1.35,4.62-2.29,4.62-2.29a37.07,37.07,0,0,0-8.07,1.5c-3.42.77-7.35,1.88-11.22,2.79-7.73,1.92-15.17,3.61-17.94,4.31,5.71-1.58,14.18-6.3,21.28-11.6,1.76-1.35,3.44-2.69,5-4s2.86-2.56,4-3.62c.57-.52,1.07-1,1.51-1.49l1.13-1.18,1-1a19.41,19.41,0,0,0-4.5,1.85c-1.68.87-3.54,1.9-5.44,3.09-.95.61-1.94,1.19-2.93,1.8s-2,1.23-3,1.87c-2,1.26-4,2.5-5.92,3.74s-3.77,2.38-5.45,3.45-3.2,2-4.48,2.88c-2.56,1.65-4.16,2.75-4.16,2.75a110.91,110.91,0,0,0,8.84-7.9l2.38-2.4c.8-.81,1.58-1.67,2.36-2.51,1.58-1.67,3.07-3.43,4.49-5.13.73-.84,1.4-1.7,2-2.54l1.87-2.43c1.17-1.58,2.16-3.08,3-4.32l.6-.89.51-.83.81-1.33.69-1.14c-.71.6-1.44,1.26-2.17,2-.37.35-.73.72-1.12,1.08L547.79,73q-1.17,1.14-2.34,2.37c-.77.82-1.61,1.61-2.41,2.44l-9.46,9.81c-1.49,1.53-2.89,3-4.14,4.32s-2.4,2.52-3.33,3.54c-1.88,2-3,3.29-3,3.29a145.25,145.25,0,0,0,9.49-14,88.28,88.28,0,0,0,5.74-11.45,59.22,59.22,0,0,0,2.56-7.68c.47-1.79.65-2.74.65-2.74s-.48.84-1.32,2.46c-.2.41-.43.86-.69,1.37l-.4.78c-.14.27-.3.56-.46.85l-2.18,4c-1.69,3-3.73,6.72-6.24,11s-5.33,9.14-8.37,14.63c0,0,.65-1.58,1.64-4.16.49-1.29,1.06-2.84,1.67-4.56s1.23-3.62,1.83-5.62c.3-1,.59-2,.87-3.07l.42-1.57.36-1.6c.23-1.07.46-2.14.67-3.2s.33-2.13.47-3.17a33.87,33.87,0,0,0-.17-11.16s-.06.37-.15,1c0,.34-.11.75-.17,1.23s-.13,1-.26,1.64c-.23,1.23-.51,2.7-.82,4.32q-.29,1.25-.6,2.58c-.21.9-.39,1.85-.66,2.81-1.92,7.69-5,17.14-6.62,23.51,0,0,.27-1.93.6-5,.16-1.51.33-3.29.48-5.24s.25-4,.3-6.21c0-1.08,0-2.17,0-3.25s0-2.18-.13-3.24-.18-2.12-.3-3.14c-.06-.51-.12-1-.19-1.51s-.18-1-.28-1.45c-.19-1-.4-1.86-.63-2.71a18.1,18.1,0,0,0-.79-2.39,15.23,15.23,0,0,0-2-3.63s0,.38.07,1.05.13,1.65.18,2.89.07,2.76.1,4.41,0,3.61,0,5.57c-.19,8-.93,17.94.13,23.66-.45-2.11-1.94-10-4.21-17.75a88.28,88.28,0,0,0-3.85-10.78,30.94,30.94,0,0,0-4-6.74l1.24,4c.19.63.42,1.31.61,2.07l.63,2.42.69,2.68c.25.93.44,1.92.68,2.92,1.86,8,3.71,17.76,5.89,22.63,0,0-.84-1.8-2.15-4.58s-3.13-6.51-5.15-10.35S504,75.66,501.9,72.5a35.7,35.7,0,0,0-5.26-6.77s.19.31.48.92.74,1.49,1.29,2.58l1.91,3.86c.73,1.46,1.47,3.12,2.28,4.85,3.26,6.91,7,15.5,10.19,20.81l-3.21-3.93c-2-2.36-4.58-5.55-7.36-8.76-5.56-6.41-11.65-13-13.7-13.72,0,0,2.74,4.39,7,10S505.34,95,511.32,100c0,0-5.84-4.27-12.39-8.74s-13.83-9.1-16.79-9.72c0,0,4.44,4,10.11,8.5s12.54,9.47,17.3,11.58c0,0-1.48-.52-3.84-1.27s-5.59-1.74-9.09-2.63a103.88,103.88,0,0,0-10.71-2.19,26.09,26.09,0,0,0-8.62,0L490.05,99c6.79,1.84,14.37,4,17.82,4.25,0,0-1.53,0-4,0-1.22,0-2.68,0-4.28.11s-3.36.19-5.2.34-3.74.35-5.65.59-3.81.61-5.63,1a46.68,46.68,0,0,0-5.12,1.28,33.73,33.73,0,0,0-4.07,1.55l3.79-.38,4-.38,4.86-.29,5.2-.29c1.74-.11,3.49-.15,5.13-.23,3.31-.15,6.24-.37,8.32-.67,0,0-1.58.44-4,1.29-1.22.42-2.67.94-4.26,1.53s-3.28,1.35-5.05,2.14-3.54,1.72-5.29,2.68c-.88.48-1.74,1-2.59,1.48s-1.63,1.06-2.41,1.59a46.81,46.81,0,0,0-4.12,3.18,18.82,18.82,0,0,0-2.65,2.94s1.61-1.07,4.06-2.57c1.24-.7,2.71-1.51,4.29-2.34l2.44-1.27c.84-.43,1.71-.81,2.58-1.21,1.74-.78,3.49-1.56,5.18-2.25s3.34-1.28,4.8-1.82c.73-.27,1.42-.53,2.06-.75l1.77-.58,2.34-.77a12.66,12.66,0,0,1,3.07-.6,12.21,12.21,0,0,1,3,.12c1.77.3,2.89,1,2.17,2.23s-1.8,3.31-2.69,5.06h0l-2.09,3.91c-.34.61-.68,1.32-1.05,2.09s-.78,1.59-1.21,2.47-.84,1.85-1.29,2.86-.93,2.07-1.37,3.2a101.68,101.68,0,0,0-4.83,15.85,122.46,122.46,0,0,0-2.51,18.79c-.76,12.9.26,25.76,1.17,35.34.47,4.79.92,8.77,1.24,11.55s.5,4.38.5,4.38l1.84-.22s-.18-1.57-.5-4.32-.75-6.68-1.22-11.4-.92-10.22-1.21-16.13a181.55,181.55,0,0,1,0-18.52,123.56,123.56,0,0,1,2.34-18.31l.45-2.15c.16-.7.36-1.39.53-2.08s.36-1.36.53-2c.09-.34.17-.67.26-1s.21-.65.31-1c.41-1.29.8-2.54,1.19-3.75s.88-2.34,1.29-3.44c.22-.55.41-1.09.63-1.61s.44-1,.66-1.52c.43-1,.83-1.92,1.22-2.8l2.17-4.46,2-3.83c.54-.88,1.27-1.94,1.94-3s1.29-2,1.74-2.74c.71-1.17,1.88-.51,3,.91a14.32,14.32,0,0,1,1.51,2.54,14.66,14.66,0,0,1,1,2.86c.11.46.3,1.25.57,2.27l.44,1.68c.19.61.38,1.26.59,2,.42,1.38.89,2.87,1.41,4.4s1.16,3.07,1.76,4.56,1.29,2.9,1.9,4.19c.32.63.63,1.24.91,1.81s.57,1.09.86,1.56c1.13,1.89,1.88,3,1.88,3a9,9,0,0,0-.63-2.4q-.15-.37-.3-.78l-.31-.87c-.21-.59-.45-1.23-.72-1.9l-.84-2.12c-.28-.74-.54-1.51-.83-2.3l-.86-2.4c-.15-.41-.3-.82-.44-1.23s-.27-.83-.4-1.24c-.53-1.67-1-3.3-1.52-4.8s-.85-3-1.19-4.17l-.83-2.93c-.18-.71-.29-1.1-.29-1.1,1.43,3.82,5.63,10.38,9.83,15.54a81.83,81.83,0,0,0,5.68,6.46c1.54,1.61,2.54,2.57,2.54,2.57-.45-.83-1.07-1.81-1.79-2.92l-1.17-1.75c-.4-.61-.79-1.26-1.22-1.92C533.6,131,531.65,128,530,125.2s-3.31-5.47-4.41-7.43l-1.85-3.19c1.88,2.89,7.24,8.13,12.3,12.48s9.64,7.91,9.64,7.91a35.46,35.46,0,0,0-4.76-6.28c-2.14-2.43-4.62-5.12-7-7.59s-4.68-4.75-6.37-6.41S524.74,112,524.74,112Z"/><path class="cls-51" d="M549.85,168.7c2.85,4.29,8.31,10.49,12.95,15.71s8.48,9.41,8.48,9.41c-1.39-2.49-6.65-9.29-11.62-15.43S550,166.78,550,166.78c2.58,2.88,5.48,5.77,8.35,8.51s5.69,5.35,8.15,7.62l8.48,7.82c-1-1.87-6.87-8.4-12.72-14.21s-11.64-10.9-11.64-10.9c2.32,1.72,5.22,3.71,8.2,5.8s6.1,4.34,8.83,6.38c1.37,1,2.65,2,3.8,2.87s2.19,1.72,3,2.41l2.75,2.23a55.23,55.23,0,0,0-5.63-5.83c-.64-.59-1.32-1.21-2-1.82s-1.41-1.23-2.15-1.84c-1.47-1.23-3-2.46-4.52-3.64-3-2.35-6.06-4.5-8.3-6s-3.71-2.41-3.71-2.41c1,.63,2.22,1.3,3.54,2s2.82,1.43,4.33,2.17l4.61,2.25c.77.37,1.53.73,2.29,1.12l2.23,1.13c2.91,1.5,5.46,2.84,7.31,3.88l3,1.71a35.34,35.34,0,0,0-5.1-4.41,87.88,87.88,0,0,0-7.63-4.93c-2.75-1.62-5.51-3-7.91-4.11s-4.38-2-5.46-2.41a49.18,49.18,0,0,0,7.88,2.07l2.16.43,2.16.43c1.43.27,2.82.51,4.13.74,2.67.53,5,1,6.64,1.27l2.69.56a15.82,15.82,0,0,0-2.95-2.24,26.46,26.46,0,0,0-3.81-1.85,45.38,45.38,0,0,0-4.4-1.48c-1.51-.42-3-.72-4.54-1s-3-.49-4.32-.62-2.56-.21-3.6-.26c-2.09-.1-3.44-.09-3.44-.09,1.09-.09,2.29-.25,3.55-.46l1.92-.33c.65-.13,1.31-.26,2-.36,2.72-.43,5.44-1,8-1.41l3.49-.6c1.07-.17,2-.29,2.84-.41l2.58-.38a20.11,20.11,0,0,0-3.69-1c-.66-.1-1.34-.19-2-.26s-1.38-.06-2.08-.07c-1.4,0-2.83.07-4.25.19l-1,.1-1,.16-2,.35c-1.3.25-2.55.51-3.66.8s-2.08.61-2.91.88c-1.65.53-2.66.91-2.66.91,1.73-.9,3.33-1.81,4.81-2.71s2.92-1.66,4.21-2.47c.65-.4,1.25-.82,1.85-1.18s1.19-.72,1.73-1.07c1.1-.7,2.08-1.37,3-2,1.78-1.2,3.14-2.19,4-2.92s1.35-1.15,1.35-1.15-.58.15-1.67.5-2.69.9-4.69,1.76c-1,.45-2.06,1-3.24,1.6-.59.3-1.2.63-1.83,1s-1.25.76-1.91,1.17c-1.3.84-2.7,1.74-4.12,2.78s-2.85,2.26-4.34,3.53c0,0,.69-.83,1.77-2.25.55-.71,1.19-1.57,1.9-2.55s1.53-2,2.37-3.11c.41-.57.84-1.16,1.28-1.75l.64-.92.68-.9c.9-1.22,1.79-2.49,2.64-3.78s1.69-2.56,2.44-3.82a33.09,33.09,0,0,0,1.91-3.74l-2.17,2.15c-.66.67-1.45,1.46-2.3,2.36s-1.73,2-2.66,3a83.55,83.55,0,0,0-5.46,7c-.87,1.17-1.61,2.43-2.3,3.57s-1.29,2.23-1.79,3.21c0,0,.44-1.28,1.11-3.39l1.18-3.71c.46-1.39,1-2.9,1.49-4.47s1.06-3.28,1.59-4.95,1.06-3.33,1.52-5,.82-3.24,1.1-4.68a18.65,18.65,0,0,0,.4-3.94l-.52.83c-.33.53-.81,1.28-1.36,2.25-1.08,2-2.5,4.65-3.85,7.61-.65,1.53-1.28,3.12-1.86,4.72a50.11,50.11,0,0,0-1.52,4.79,33.47,33.47,0,0,0-1.24,8.57c0-.91-.1-3-.16-5.78,0-1.4,0-3-.06-4.64v-2.57c0-.87,0-1.76,0-2.64.08-3.62.16-7.32.23-10.55a44.71,44.71,0,0,0-.22-7.62s-.38,1.54-.87,4c-.26,1.21-.5,2.68-.74,4.3s-.48,3.38-.67,5.2a87.38,87.38,0,0,0-.49,11.18c0,1.79.13,3.49.29,5a33.29,33.29,0,0,0,.71,4.14s-.45-1.76-1.14-4.5-1.5-6.44-2.34-10.43-1.68-8.24-2.39-11.83a53.6,53.6,0,0,0-2-8.19s0,1.47.21,3.81c.08,1.18.18,2.57.32,4.11s.36,3.27.59,5.06c.48,3.58,1.13,7.47,1.91,11.11a89.63,89.63,0,0,0,2.7,9.89l-2.07-4.48c-1.24-2.71-2.9-6.4-4.58-10.2-3.35-7.57-6.77-15.75-8.3-17.29a110.76,110.76,0,0,0,3.47,11.32,107.29,107.29,0,0,0,10.18,20.92s-4.16-5.9-8.83-12.3-9.89-13.27-12.25-15c0,0,3,5.13,7,11.12s8.94,12.86,12.51,16.63c0,0-1.12-1.07-2.93-2.71s-4.29-3.82-7-6.06c-5.44-4.48-11.92-9.1-15.49-10.19l10,8.27c5.32,4.39,11.19,9.34,13.91,11.14,0,0-4.84-2.83-10.87-5.68-1.5-.71-3.08-1.43-4.66-2.1s-3.13-1.29-4.65-1.84a48.3,48.3,0,0,0-7.74-2.29s4.85,2.35,10.4,5.16,11.84,6.18,15.2,7.57c0,0-1.3-.37-3.37-.87-1-.25-2.26-.53-3.61-.8s-2.77-.51-4.27-.74-3-.43-4.58-.59c-.76-.07-1.52-.14-2.26-.19s-1.43-.07-2.11-.08a18.81,18.81,0,0,0-6.2.61s1.44.16,3.62.44l3.73.52c1.37.21,2.83.43,4.34.71,3,.55,6,1.18,8.5,1.73l1.73.4,1.49.37,2,.5c3.15.78,7.78,3.95,6.45,5-.69.56-1.75,1.58-2.61,2.45h0l-2,1.87-2.33,2.14c-.89.85-1.84,1.84-2.91,2.91l-1.66,1.66c-.57.58-1.12,1.22-1.7,1.85l-1.79,2c-.61.67-1.24,1.35-1.83,2.09-1.2,1.45-2.47,2.92-3.7,4.47l-3.63,4.77-3.41,4.93c-1.09,1.66-2.1,3.32-3.11,4.91-.52.79-1,1.6-1.41,2.39s-.88,1.56-1.31,2.31-.86,1.47-1.22,2.2l-1.06,2.09c-.68,1.35-1.33,2.57-1.85,3.68l-1.3,2.89c-.73,1.6-1.14,2.52-1.14,2.52l1.71.72,1.11-2.46,1.27-2.82c.49-1.08,1.14-2.27,1.79-3.59a138.17,138.17,0,0,1,11.23-18.39c1.15-1.58,2.36-3.12,3.53-4.66.56-.79,1.2-1.5,1.8-2.23l1.79-2.16.88-1.05c.29-.34.6-.66.89-1l1.75-1.92,1.65-1.82c.55-.57,1.1-1.1,1.61-1.63l2.83-2.84c.87-.83,1.65-1.52,2.27-2.11l2-1.82c.51-.39,1.18-.83,1.81-1.27s1.23-.86,1.64-1.19c1.32-1.08,3.48,4.11,3.89,7.12.1.77.34,2.6.8,5s1,5.18,1.66,7.84,1.39,5.25,1.94,7.11,1,3,1,3a17.08,17.08,0,0,0-.54-5.19c-.49-2.44-1.08-5.35-1.65-8.15-.28-1.44-.56-2.85-.82-4.16s-.44-2.5-.62-3.53c-.35-2.07-.58-3.41-.58-3.41a53,53,0,0,0,2.52,7l.93,2.12c.33.72.67,1.46,1,2.19.7,1.47,1.44,2.94,2.16,4.34,2.9,5.63,5.72,10.23,5.72,10.23-.53-1.6-1.53-4-2.67-6.62s-2.46-5.69-3.6-8.47c-2.31-5.59-4.2-10.53-4.2-10.53,1.26,3,5.16,9.25,8.85,14.68s7.11,10.07,7.11,10.07c-1.16-3.05-5-9.5-8.46-15.3Z"/><path class="cls-49" d="M484.21,136.11c4.8-2,11.81-6.32,17.57-10.27s10.27-7.48,10.27-7.48c-2.9.62-10.35,4.93-17.1,9s-12.81,8-12.81,8a96.35,96.35,0,0,0,17.36-15.65c2.32-2.61,4.15-4.95,5.44-6.66s2-2.76,2-2.76c-2,.75-8.33,7-14.32,12.82s-11.69,11.23-11.69,11.23a89.43,89.43,0,0,0,6.23-8.39c2.1-3.18,4.16-6.65,5.94-9.89.89-1.61,1.71-3.18,2.45-4.61s1.34-2.71,1.85-3.8c1-2.18,1.63-3.56,1.63-3.56a45.61,45.61,0,0,0-5,6.74l-6.54,10.06c-2.22,3.39-4.31,6.54-5.89,8.86L479,133.54a32.09,32.09,0,0,0,2.17-3.71c.71-1.42,1.4-3,2.08-4.72s1.31-3.51,1.91-5.36c.3-.92.6-1.86.86-2.78s.5-1.83.73-2.74c.92-3.61,1.66-7.06,2.09-9.57s.62-4.11.62-4.11a36.78,36.78,0,0,0-3,6.66c-1.11,2.9-2.29,6.26-3.46,9.53s-2.37,6.49-3.39,9.16-1.86,4.76-2.3,5.91a37.65,37.65,0,0,0,1.72-8.92c.09-.86.12-1.71.15-2.58s0-1.74,0-2.62c0-1.76-.05-3.52-.14-5.21-.26-3.33-.65-6.41-1-8.66-.16-1.12-.36-2-.47-2.63s-.2-1-.2-1a16.9,16.9,0,0,0-1.12,3.9c-.27,1.51-.49,3.2-.63,5s-.22,3.59-.27,5.43-.13,3.71-.15,5.49,0,3.46,0,5-.06,3-.07,4.16c0,2.37,0,3.84,0,3.84-.12-1.22-.32-2.58-.59-4-.13-.73-.28-1.48-.44-2.25s-.34-1.57-.56-2.34a98.19,98.19,0,0,0-3-9.4c-.56-1.48-1.11-2.89-1.62-4.17s-1.05-2.39-1.48-3.34c-.87-1.89-1.43-3.06-1.43-3.06a31.67,31.67,0,0,0,.42,4.5q.19,1.17.45,2.37c.18.79.32,1.63.51,2.45.36,1.65.78,3.29,1.23,4.88.12.4.23.8.34,1.19s.21.8.32,1.19c.21.79.42,1.56.64,2.3.42,1.49.87,2.87,1.26,4.14s.7,2.41,1,3.36c.58,1.9,1,3,1,3q-1.45-3-2.91-5.63c-1-1.72-2-3.29-3-4.74-.5-.72-1-1.43-1.47-2.07s-1-1.26-1.47-1.84c-.95-1.16-1.85-2.19-2.68-3.11-1.71-1.78-3.14-3.05-4.13-3.9s-1.54-1.25-1.54-1.25.32.6,1,1.71,1.69,2.69,3.06,4.69c.66,1,1.41,2.15,2.25,3.37.42.6.87,1.23,1.34,1.88s.92,1.36,1.42,2.06c1,1.43,2.07,2.92,3.23,4.51s2.35,3.31,3.68,5.07c0,0-.88-.86-2.35-2.17-.73-.65-1.61-1.42-2.6-2.26s-2.17-1.67-3.39-2.55c-.61-.44-1.23-.88-1.87-1.32l-1-.66-1-.62c-1.38-.81-2.79-1.6-4.19-2.3a29.86,29.86,0,0,0-4.23-1.76,24.87,24.87,0,0,0-4-1l2.51,1.6,2.76,1.74,3.34,2.26c2.44,1.57,5,3.45,7.53,5.2,1.3.86,2.47,1.77,3.64,2.57s2.28,1.57,3.3,2.21c0,0-1.35-.63-3.48-1.51-1.07-.43-2.33-.93-3.72-1.44s-3-1-4.58-1.44c-.81-.23-1.63-.45-2.45-.66s-1.64-.4-2.5-.56c-1.7-.32-3.38-.57-5-.72a29.41,29.41,0,0,0-4.55-.12,16.1,16.1,0,0,0-3.77.63l3.11.87c1.88.58,4.53,1.37,7.52,2.23,1.46.46,3,.93,4.59,1.4l4.75,1.36a51.38,51.38,0,0,0,8.59,1.84c-.9-.08-3.09-.23-5.89-.33-1.39,0-2.95-.08-4.58-.09-.82,0-1.64,0-2.5,0l-2.61.1c-3.51.16-7,.48-10,.93a36.23,36.23,0,0,0-7.13,1.72l3.69-.13c1.16-.05,2.49-.07,4-.08h4.89c3.51,0,7.24.09,10.79.13,1.78,0,3.49,0,5.07,0s3-.08,4.17-.2c0,0-1.8.2-4.57.6s-6.58,1.06-10.48,1.89-7.92,1.81-11.39,2.88a50.43,50.43,0,0,0-7.74,2.88l3.49-.78,3.86-.83c1.46-.3,3.05-.6,4.75-.92,3.39-.64,7.18-1.29,10.85-1.91s7.15-1.15,10-1.71c0,0-1.86.56-4.68,1.5s-6.59,2.23-10.46,3.69c-7.76,2.92-15.76,6.47-17.44,7.82,0,0,4.6-1.47,11-3.61s14.62-4.86,21.66-8.06c0,0-6.44,3.26-13.4,7s-14.45,8.08-16.67,9.92c0,0,5.37-2.48,11.87-5.58s14.11-6.86,18.39-9.76l-3.14,2.43-7.31,5.7c-5.54,4.37-11.7,9.23-13.87,11.83,0,0,5-3.31,10.61-7.31s11.65-8.7,13.92-11.08c0,0-3.68,4.35-8,9.19l-3.29,3.68-3.28,3.61c-2.07,2.29-3.88,4.31-4.94,5.73,0,0,4-3.27,8.46-7.46s9.28-9.27,11.34-12.31c0,0-.62,1.2-1.6,3.05-.48.92-1.05,2-1.67,3.16s-1.34,2.43-2,3.71L461,162.24,459,165.81a18.78,18.78,0,0,0-2.15,5.08s.79-1,2-2.73c.6-.83,1.29-1.82,2-2.91s1.55-2.29,2.31-3.49c1.55-2.43,3.11-5,4.38-7.19.31-.55.61-1.07.89-1.55l.71-1.32c.43-.79.76-1.4.94-1.76,1.48-2.85,5.43-6.95,6.3-5.24.44.88,1.29,2.27,2,3.43h0l1.31,2.78,1.51,3.18c.56,1.24,1.14,2.66,1.8,4.19.33.77.67,1.58,1,2.41s.65,1.71,1,2.6l1.05,2.76c.36.94.73,1.9,1.05,2.9.65,2,1.37,4,2,6.12s1.24,4.25,1.86,6.39,1.08,4.33,1.6,6.46.89,4.27,1.32,6.32c.23,1,.38,2,.55,3s.32,2,.47,2.91.33,1.86.43,2.76.22,1.76.32,2.59c.19,1.66.41,3.18.53,4.53s.21,2.54.29,3.51c.15,2,.24,3.06.24,3.06l1.85-.11-.25-3.06c-.07-1-.17-2.15-.28-3.5s-.33-2.87-.53-4.54a177,177,0,0,0-4.65-24c-.59-2.15-1.24-4.28-1.85-6.39-.28-1.06-.66-2.08-1-3.1l-1-3-.49-1.47c-.17-.49-.36-1-.54-1.43-.35-.94-.7-1.86-1-2.76l-1-2.61c-.34-.83-.69-1.63-1-2.4l-1.79-4.2c-.56-1.23-1.08-2.3-1.5-3.18L480.41,148c-.23-.7-.57-1.54-.91-2.34s-.67-1.57-.95-2.1c-.87-1.73,4.71-2.64,8-1.92.8.19,2.86.58,5.37,1.19s5.64,1.39,8.68,2.22,5.87,1.75,8,2.44l3.57,1.19a19.2,19.2,0,0,0-5.8-3.3,74.5,74.5,0,0,0-9.16-3c-1.57-.43-3.11-.81-4.53-1.14s-2.77-.58-3.89-.79c-2.25-.42-3.7-.63-3.7-.63a78.09,78.09,0,0,0,7.81-.14l9.95-.54c6.58-.36,12.32-.61,12.32-.61a45.1,45.1,0,0,0-8-1.18c-3.15-.23-6.56-.33-9.81-.26-6.46.1-11.82.64-11.82.64,3.26-.46,10.37-2.62,16.74-4.55l11.93-3.69c-3.77-.56-11.35,1-17.91,2.78-3.29.9-6.32,1.86-8.54,2.59S484.21,136.11,484.21,136.11Z"/><path class="cls-50" d="M461,171.15a138.94,138.94,0,0,0,7.48-18.92c2.16-6.62,3.57-12.16,3.57-12.16-1.78,2.33-4.87,10.36-7.6,17.77S459.34,172,459.34,172a91.19,91.19,0,0,0,3-11.54,104,104,0,0,0,1.54-11.19c.29-3.44.34-6.36.32-8.47s-.09-3.35-.09-3.35c-1,1.92-2,10.69-3.26,18.85-.63,4.11-1.3,8.07-1.83,11s-.91,4.82-.91,4.82a77.86,77.86,0,0,0,.43-10.11,102.72,102.72,0,0,0-.86-11.05c-.23-1.77-.49-3.45-.75-5s-.56-2.86-.81-4c-.51-2.26-.89-3.66-.89-3.66a58.13,58.13,0,0,0,.35,8.25c.07.89.15,1.82.23,2.76s.14,1.94.21,2.93c.13,2,.25,4,.35,5.95.18,3.92.25,7.55.23,10.25s-.09,4.43-.09,4.43a32.9,32.9,0,0,0-.17-4.06c-.16-1.48-.42-3.06-.77-4.72s-.78-3.38-1.28-5.09c-.26-.86-.52-1.73-.81-2.56s-.6-1.64-.91-2.44a79.45,79.45,0,0,0-3.75-8.24c-1.12-2.06-1.92-3.33-1.92-3.33a46.86,46.86,0,0,0,1.82,6.77c.86,2.83,1.86,6,2.74,9.14s1.62,6.2,2.17,8.76.91,4.6,1.1,5.7a28.57,28.57,0,0,0-2.83-7.4c-.34-.66-.72-1.28-1.12-1.9s-.81-1.25-1.23-1.86c-.86-1.23-1.76-2.42-2.68-3.55a70.59,70.59,0,0,0-5.17-5.36c-.71-.67-1.33-1.13-1.75-1.49l-.66-.53a18.38,18.38,0,0,0,1.51,3.51c.65,1.24,1.43,2.58,2.26,3.9s1.72,2.66,2.61,4l2.55,3.93c.81,1.27,1.59,2.42,2.27,3.52l1.76,2.93c1,1.62,1.6,2.64,1.6,2.64a28.68,28.68,0,0,0-2.05-2.38c-.39-.41-.81-.83-1.24-1.25l-.67-.64c-.23-.21-.47-.4-.71-.59a48,48,0,0,0-6.15-4.4c-1.05-.63-2.06-1.21-3-1.73s-1.82-.89-2.55-1.23c-1.47-.68-2.41-1.07-2.41-1.07a27,27,0,0,0,2.6,2.78c.47.45.95.89,1.45,1.31s1,.9,1.5,1.33c1,.87,2,1.71,3,2.48l.74.58.73.6,1.41,1.13c.91.73,1.78,1.37,2.55,2s1.45,1.17,2,1.62c1.14.89,1.85,1.39,1.85,1.39-1.4-.7-2.77-1.31-4.09-1.84s-2.62-.82-3.82-1.13c-.6-.13-1.18-.3-1.76-.37s-1.12-.15-1.65-.21c-1.06-.11-2-.18-2.9-.21a28.46,28.46,0,0,0-4,.33,14.13,14.13,0,0,0-1.39.27s.46.18,1.33.45,2.16.61,3.8,1q1.23.35,2.73.69l1.57.33c.55.09,1.1.27,1.69.4,1.16.28,2.43.52,3.77.79s2.75.63,4.27.9c0,0-.89,0-2.3.16-.71.06-1.54.15-2.46.28s-2,.39-3,.66c-.52.13-1.06.27-1.59.43l-.81.25-.81.31c-1.09.44-2.16.92-3.18,1.45a17.06,17.06,0,0,0-2.86,1.89,16.49,16.49,0,0,0-2.32,2.24l1.85-.75,2.07-.84,2.63-.89c1.91-.7,4.05-1.23,6.2-1.87,1.08-.34,2.12-.54,3.13-.81s2-.53,2.85-.8c0,0-1.08.51-2.69,1.41-.8.45-1.74,1-2.73,1.62s-2.07,1.46-3.12,2.3c-.53.43-1.05.86-1.57,1.31s-1,.91-1.52,1.43a37.9,37.9,0,0,0-2.75,3.14c-.42.53-.81,1.07-1.17,1.61a18.15,18.15,0,0,0-1,1.63,18.8,18.8,0,0,0-1.42,3.21l.44-.46c.28-.29.69-.74,1.22-1.25,1.05-1,2.56-2.41,4.37-4l2.89-2.37c1-.81,2.08-1.71,3.12-2.49a69.16,69.16,0,0,0,5.74-4.79c-.59.57-2,2-3.64,3.9-.84.95-1.74,2-2.65,3.18-.46.58-.92,1.17-1.38,1.8s-.92,1.28-1.37,1.94a70.94,70.94,0,0,0-4.7,7.91,42.92,42.92,0,0,0-2.64,6.38s.55-1.07,1.54-2.82c.5-.88,1.1-1.87,1.81-3s1.51-2.31,2.39-3.57c1.77-2.57,3.84-5.16,5.88-7.65l3-3.58c.92-1.09,1.77-2.11,2.47-3,0,0-1.05,1.38-2.56,3.58s-3.5,5.34-5.37,8.68a105.61,105.61,0,0,0-5,10.12,73.08,73.08,0,0,0-2.84,7.56s.49-1.18,1.37-3.09c.44-1,1-2.1,1.6-3.37s1.34-2.61,2.12-4.06c1.56-2.86,3.42-6,5.33-9s3.81-5.78,5.38-8.14c0,0-1,1.67-2.34,4.26s-3.16,6.09-4.88,9.79a153,153,0,0,0-7.1,17.61l1.28-2.91c.82-1.82,2-4.42,3.45-7.41s3.12-6.36,4.89-9.87,3.61-7.15,5.24-10.65c0,0-2.87,6.63-5.83,14s-6.07,15.4-6.92,18.12c0,0,2.35-5.41,5.29-12s6.44-14.29,8.14-19.16l-1.16,3.77c-.7,2.29-1.69,5.45-2.77,8.77s-2.24,6.81-3.26,9.85-1.9,5.62-2.31,7.14c0,0,2.38-5.5,4.77-11.87a143.84,143.84,0,0,0,5.39-16.77s-.22,1.36-.6,3.47-1,5-1.64,8c-.34,1.51-.71,3-1.11,4.57s-.81,3.06-1.21,4.47c-.81,2.77-1.52,5.21-2,6.8,0,0,.49-1.16,1.21-3s1.66-4.43,2.58-7.25,1.81-5.91,2.46-8.65a56.86,56.86,0,0,0,1.28-7s0,1.24-.06,3.09c0,.93-.07,2-.13,3.18s-.18,2.48-.3,3.76-.25,2.57-.38,3.8c-.08.61-.15,1.2-.21,1.78s-.16,1.16-.23,1.7a22.56,22.56,0,0,0-.37,4.44s.33-1.13.77-2.92c.21-.89.46-1.95.7-3.11s.49-2.44.69-3.7c.4-2.54.71-5.24.89-7.51,0-.57.08-1.11.12-1.61s0-.94.06-1.34c0-.81,0-1.43,0-1.79.06-2.87,1.14-8.33,2.34-7.75.61.3,1.68.68,2.57,1h0l1.86,1,2.15,1.16c.82.47,1.7,1.06,2.69,1.66l1.53,1c.53.34,1,.73,1.58,1.12l1.66,1.19c.57.4,1.15.81,1.7,1.28,1.11.93,2.29,1.85,3.44,2.85l3.37,3.14L484.9,201c1,1.15,1.93,2.32,2.86,3.43.48.54.88,1.13,1.29,1.69s.8,1.12,1.19,1.66.79,1,1.11,1.58l.95,1.53c.61,1,1.2,1.87,1.65,2.69l1.14,2.15,1,1.87,1.67-.81-1-1.9-1.16-2.18a13,13,0,0,0-.77-1.3c-.28-.46-.58-.93-.89-1.43a74.9,74.9,0,0,0-10.69-13.43c-1.11-1.1-2.28-2.14-3.4-3.2-.55-.54-1.16-1-1.74-1.48l-1.73-1.41-.84-.69c-.28-.23-.58-.42-.86-.63L473,187.92l-1.59-1.14c-.53-.35-1.05-.66-1.55-1l-2.71-1.7c-.82-.47-1.56-.85-2.16-1.18l-1.89-1a15,15,0,0,0-1.47-1c-.53-.32-1-.62-1.41-.81-1.23-.59,2.11-4.95,4.67-6.6.63-.4,2.21-1.48,4.24-2.67s4.59-2.64,7.18-4,5.09-2.39,7-3.2,3.23-1.31,3.23-1.31a15.57,15.57,0,0,0-5.81,1.14,52.89,52.89,0,0,0-8,3.56c-1.32.7-2.57,1.42-3.71,2.1s-2.19,1.39-3.05,2c-1.74,1.18-2.8,2-2.8,2,1.31-1.14,3.19-3,5.36-5.22l1.67-1.67c.57-.55,1.14-1.12,1.72-1.69,1.17-1.14,2.36-2.29,3.52-3.39,2.32-2.21,4.54-4.25,6.19-5.73l2.71-2.41a39.76,39.76,0,0,0-6.49,4.08,83.29,83.29,0,0,0-7.24,6.06c-2.27,2.12-4.27,4.16-5.68,5.68s-2.27,2.5-2.27,2.5c2-2.48,6-8.67,9.73-14.16s7-10.31,7-10.31a29.14,29.14,0,0,0-5.56,5.4c-2.05,2.44-4.18,5.34-6.07,8.13s-3.57,5.47-4.76,7.46S461,171.15,461,171.15Z"/><path class="cls-50" d="M501.26,218.15a5,5,0,0,1-4.56,0c-1.26-.73-1.26-1.91,0-2.63a5,5,0,0,1,4.56,0C502.52,216.24,502.52,217.42,501.26,218.15Z"/></g></g></svg>